<svg width="83" height="56" viewBox="0 0 83 56" fill="none" xmlns="http://www.w3.org/2000/svg">
<g clip-path="url(#clip0_539_3872)">
<path d="M49.2219 20.2404H52.9597C53.8741 20.2404 54.6148 20.9793 54.6148 21.8915V28.9101C54.6148 29.8223 53.8741 30.5612 52.9597 30.5612H29.9868C29.0724 30.5612 28.3317 29.8223 28.3317 28.9101V26.3614C27.1744 27.7351 25.4391 28.6085 23.4986 28.6085C23.4719 28.6085 23.4452 28.6085 23.4185 28.6085V32.5236C23.4185 34.1468 24.7372 35.4636 26.3657 35.4636H56.6197C58.2469 35.4636 59.5669 34.148 59.5669 32.5236V18.7637C59.5669 16.8522 58.0137 15.3029 56.0975 15.3029H30.0269C29.1125 15.3029 28.3717 14.564 28.3717 13.6518V6.5932C28.3717 5.68105 29.1125 4.94212 30.0269 4.94212H52.9997C53.9141 4.94212 54.6549 5.68105 54.6549 6.5932V9.15765C56.6998 9.0559 58.4897 7.98263 59.5681 6.3909V2.94095C59.5681 1.31773 58.2493 0.000976562 56.6209 0.000976562H26.3669C24.7397 0.000976562 23.4197 1.31651 23.4197 2.94095V16.7807C23.4197 18.6923 24.9728 20.2416 26.889 20.2416H49.2219V20.2404Z" fill="#BE2126"/>
<path d="M38.9037 8.66602H33.9504V26.7952H38.9037V8.66602Z" fill="#BE2126"/>
<path d="M49.3617 8.66602H44.4097V26.7952H49.3617V8.66602Z" fill="#BE2126"/>
<path d="M6.98723 44.32C6.98723 45.1122 6.52092 45.5774 5.69639 45.5774H2.93255C1.24463 45.5774 0.405518 44.8688 0.405518 43.4442V42.119H1.45956V43.4442C1.45956 43.8936 1.60407 44.2062 1.88701 44.3661C2.10802 44.4957 2.46018 44.5562 2.95563 44.5562H4.92528C5.2313 44.5562 5.43652 44.5332 5.55188 44.4799C5.80325 44.3733 5.93318 44.1371 5.93318 43.7785V42.125H6.98723V44.3188V44.32ZM3.50572 42.1262H2.55125V41.2432H3.50572V42.1262ZM4.94957 42.1262H3.9951V41.2432H4.94957V42.1262Z" fill="#BE2126"/>
<path d="M8.83546 45.5759H7.76685V40.6626H8.83546V45.5759Z" fill="#BE2126"/>
<path d="M11.7061 44.876C11.7061 45.5774 11.53 46.0801 11.1718 46.3914C10.8439 46.6882 10.3084 46.8336 9.57617 46.8336V45.9723C10.2793 45.9723 10.6302 45.6367 10.6302 44.9669V42.125H11.7073V44.8748L11.7061 44.876Z" fill="#BE2126"/>
<path d="M14.7834 45.5759H13.7755C12.9582 45.5759 12.4846 45.1034 12.4846 44.3185V40.6626H13.5532V43.7625C13.5532 44.2809 13.6832 44.5547 14.4701 44.5547H14.7834V45.5759Z" fill="#BE2126"/>
<path d="M15.4172 46.8408H14.47V45.9577H15.4172V46.8408ZM18.0826 45.5762H14.646V44.555H15.3479C15.7074 44.555 15.8822 44.3115 15.8822 43.8233V42.125H16.9594V43.7858C16.9594 44.068 16.9217 44.3188 16.8367 44.555H18.0814V45.5762H18.0826ZM16.8525 46.8408H15.9053V45.9577H16.8525V46.8408Z" fill="#BE2126"/>
<path d="M25.7791 45.5762H17.9138V44.555H18.7238C19.0747 44.555 19.2654 44.3648 19.2654 43.8318V42.125H20.3425V43.7858C20.3425 44.068 20.2963 44.326 20.2126 44.555H20.8926C21.252 44.555 21.4342 44.326 21.4342 43.8694V42.125H22.5028V43.7858C22.5028 44.068 22.4567 44.326 22.3729 44.555H23.0529C23.4123 44.555 23.5945 44.326 23.5945 43.8694V42.125H24.6716V43.7785C24.6716 44.0608 24.6255 44.3188 24.5344 44.555H25.7791V45.5762Z" fill="#BE2126"/>
<path d="M29.0397 45.5759H25.5728V44.5548H26.2977C26.6572 44.5548 26.8393 44.3113 26.8393 43.8231V40.6699H27.9164V43.7855C27.9164 44.0678 27.8703 44.3185 27.7865 44.5548H29.0385V45.5759H29.0397Z" fill="#BE2126"/>
<path d="M31.1161 44.1068C31.1161 44.5102 31.0019 44.8457 30.7797 45.1122C30.5271 45.4248 30.1762 45.5774 29.7257 45.5774H28.7178V44.5562H29.5047C29.8641 44.5562 30.0463 44.3043 30.0463 43.81V40.6714H31.1149V44.1068H31.1161Z" fill="#BE2126"/>
<path d="M38.6755 43.352V44.2436C38.6755 44.9825 38.4156 45.5991 37.8886 46.0946C37.3616 46.59 36.7204 46.8408 35.9493 46.8408H35.9031C35.132 46.8408 34.4824 46.5888 33.9553 46.0946C33.4283 45.5991 33.1685 44.9825 33.1685 44.2436V43.329H34.2371V44.1443C34.2371 44.4483 34.2832 44.716 34.3743 44.9438C34.6111 45.4925 35.1915 45.8499 35.925 45.8499C36.6585 45.8499 37.2304 45.4913 37.4672 44.9438C37.5364 44.7766 37.5814 44.5779 37.5971 44.3575H35.6044C35.6044 43.5883 35.8181 42.9705 36.2383 42.4908C36.6658 42.0111 37.2304 41.7676 37.9262 41.7676H38.384V42.8033H37.9262C37.4915 42.8033 37.1551 42.9862 36.9025 43.352H38.6743H38.6755ZM35.6979 48.4252H34.7507V47.5494H35.6979V48.4252ZM37.1406 48.4252H36.1934V47.5494H37.1406V48.4252Z" fill="#BE2126"/>
<path d="M41.4478 44.876C41.4478 45.5774 41.2717 46.0801 40.9135 46.3914C40.5856 46.6882 40.0501 46.8336 39.3179 46.8336V45.9723C40.021 45.9723 40.3719 45.6367 40.3719 44.9669V42.125H41.449V44.8748L41.4478 44.876Z" fill="#BE2126"/>
<path d="M44.5248 45.5759H43.5169C42.6997 45.5759 42.2261 45.1034 42.2261 44.3185V40.6626H43.2947V43.7625C43.2947 44.2809 43.4246 44.5547 44.2115 44.5547H44.5248V45.5759Z" fill="#BE2126"/>
<path d="M44.1958 45.5762V44.555H45.1576C45.4016 44.555 45.5704 44.4411 45.6542 44.2194C45.6846 44.1589 45.7004 44.0293 45.7004 43.8233V42.125H46.7775V43.7858C46.7775 44.068 46.7313 44.326 46.6475 44.555H47.3276C47.687 44.555 47.8692 44.326 47.8692 43.8694V42.125H48.9378V43.7858C48.9378 44.068 48.8916 44.326 48.8079 44.555H49.4879C49.8473 44.555 50.0295 44.326 50.0295 43.8694V42.125H51.1066V43.7785C51.1066 44.3721 50.9232 44.8372 50.5492 45.1728C50.2517 45.4393 49.908 45.5762 49.5255 45.5762H44.1958Z" fill="#BE2126"/>
<path d="M58.0624 44.2507C58.0624 45.7516 57.0775 46.8406 55.6495 46.8406C54.3052 46.8406 53.2366 45.7128 53.2366 44.2507V43.496H54.2979V44.1514C54.2979 45.1411 54.8249 45.8497 55.6567 45.8497C56.4886 45.8497 56.9852 45.1944 56.9852 44.1514V40.6699H58.0624V44.2495V44.2507Z" fill="#BE2126"/>
<path d="M59.9104 45.5759H58.8418V40.6626H59.9104V45.5759Z" fill="#BE2126"/>
<path d="M67.0192 45.576H65.9421C65.3313 45.576 64.9038 45.2634 64.6598 44.6396C64.4691 44.9364 64.1024 45.0963 63.5754 45.0963C62.6598 45.0963 62.0708 44.304 62.0708 43.2526C62.0708 42.1175 62.644 41.3859 63.6519 41.3859C63.6519 41.3786 64.3319 41.3786 65.6907 41.3786V43.7783C65.6907 44.281 65.9506 44.5548 66.4691 44.5548H67.0192V45.576ZM63.8729 40.6712H62.9257V39.7881H63.8729V40.6712ZM64.5906 43.169V42.1636H63.8874C63.4527 42.1636 63.1321 42.6433 63.1321 43.238C63.1321 43.771 63.4369 44.2132 63.8656 44.2132C64.3161 44.2132 64.5906 43.7941 64.5906 43.1702V43.169ZM65.3094 40.6712H64.3623V39.7881H65.3094V40.6712Z" fill="#BE2126"/>
<path d="M72.1049 45.5759H66.5457V44.5548H70.944C70.8371 43.725 70.2032 43.0999 69.3945 43.0999H67.4698L68.9974 40.6699H70.2652L69.3034 42.1175H69.8912C71.3496 42.2701 72.1061 43.3894 72.1061 45.1798V45.5759H72.1049Z" fill="#BE2126"/>
<path d="M75.9993 45.5762H74.8153C74.6392 46.4144 73.9519 46.8336 72.7388 46.8336V45.9723C73.4419 45.9723 73.7928 45.6367 73.7928 44.9669V42.125H74.8699V44.555H76.0005V45.5762H75.9993Z" fill="#BE2126"/>
<path d="M82.5045 43.7784C82.5045 44.8213 81.8099 45.576 80.9235 45.576H77.4796V45.5833L77.4723 45.576H75.5938V44.5548H76.5555C76.9064 44.5548 77.0971 44.3719 77.0971 43.8232V42.1249H78.1742V43.7856C78.1742 44.0679 78.1281 44.3259 78.0443 44.5548H78.7243C79.0838 44.5548 79.2659 44.3259 79.2659 43.8692V42.1249H80.3345V43.7856C80.3345 44.0679 80.2884 44.3259 80.2046 44.5548H80.8846C81.2441 44.5548 81.4262 44.3259 81.4262 43.8692V42.1249H82.5033V43.7784H82.5045ZM79.5416 41.547H78.5871V40.6712H79.5416V41.547ZM80.2447 40.2909H79.2975V39.415H80.2447V40.2909ZM80.9769 41.547H80.0297V40.6712H80.9769V41.547Z" fill="#BE2126"/>
<path d="M3.04799 54.0476H1.55314L1.34549 54.7489H0L1.60171 50.4971H3.03827L4.63999 54.7489H3.2605L3.04677 54.0476H3.04799ZM2.77476 53.1281L2.30481 51.5994L1.83972 53.1281H2.77598H2.77476Z" fill="#BE2126"/>
<path d="M5.02124 50.498H6.20765V54.7499H5.02124V50.498Z" fill="#BE2126"/>
<path d="M8.79907 53.3437L10.0523 53.265C10.079 53.4685 10.1348 53.6223 10.2174 53.7289C10.3534 53.9009 10.5465 53.9869 10.7991 53.9869C10.9873 53.9869 11.1318 53.9433 11.2338 53.8549C11.3358 53.7665 11.3868 53.6647 11.3868 53.5484C11.3868 53.4321 11.3383 53.3401 11.2411 53.2528C11.144 53.1656 10.9193 53.0833 10.5659 53.0057C9.98791 52.8761 9.57625 52.7041 9.32974 52.4897C9.08201 52.2753 8.95815 52.0015 8.95815 51.6684C8.95815 51.4503 9.0213 51.2432 9.1488 51.0494C9.27631 50.8556 9.46696 50.7017 9.72197 50.5915C9.97698 50.4813 10.3267 50.4243 10.7699 50.4243C11.3152 50.4243 11.7305 50.5249 12.0159 50.7272C12.3012 50.9295 12.4712 51.2505 12.5259 51.6914L11.2848 51.7641C11.252 51.5727 11.1828 51.4334 11.0772 51.3462C10.9715 51.2589 10.8258 51.2153 10.64 51.2153C10.487 51.2153 10.3716 51.248 10.2939 51.3122C10.2162 51.3777 10.1773 51.4564 10.1773 51.5485C10.1773 51.6163 10.2089 51.6769 10.2733 51.7314C10.3352 51.7871 10.4821 51.8392 10.7153 51.8876C11.2909 52.0112 11.7038 52.1372 11.9527 52.2632C12.2016 52.3904 12.3826 52.5466 12.4967 52.7344C12.6097 52.9221 12.6667 53.1317 12.6667 53.3643C12.6667 53.6368 12.5914 53.8888 12.4397 54.119C12.2879 54.3491 12.0766 54.5236 11.8058 54.6423C11.535 54.761 11.1925 54.8203 10.7797 54.8203C10.0547 54.8203 9.55318 54.681 9.27388 54.4024C8.99458 54.1238 8.83672 53.7701 8.80029 53.3413L8.79907 53.3437Z" fill="#BE2126"/>
<path d="M14.3293 52.6678L13.1987 52.5491C13.2412 52.3516 13.3032 52.1966 13.3833 52.0839C13.4634 51.9713 13.58 51.8731 13.7306 51.7896C13.8387 51.729 13.988 51.683 14.1787 51.6503C14.3693 51.6175 14.5746 51.6006 14.7956 51.6006C15.1502 51.6006 15.4355 51.62 15.6505 51.6599C15.8654 51.6999 16.0451 51.7823 16.1884 51.9083C16.2892 51.9955 16.3681 52.119 16.4264 52.2777C16.4847 52.4376 16.5139 52.5891 16.5139 52.7344V54.0948C16.5139 54.2401 16.5236 54.3528 16.5418 54.4352C16.56 54.5175 16.6001 54.6217 16.662 54.7501H15.5509C15.506 54.6714 15.4768 54.6108 15.4635 54.5684C15.4501 54.5272 15.4367 54.4618 15.4222 54.3722C15.2667 54.5212 15.1125 54.6278 14.9595 54.6908C14.7506 54.7756 14.5066 54.818 14.2297 54.818C13.8618 54.818 13.5812 54.7332 13.3906 54.5624C13.1999 54.3916 13.104 54.182 13.104 53.9325C13.104 53.6987 13.1732 53.5061 13.3104 53.3558C13.4477 53.2044 13.7015 53.093 14.0718 53.0191C14.5163 52.9307 14.8041 52.8677 14.9352 52.8325C15.0676 52.7974 15.206 52.7502 15.3542 52.692C15.3542 52.5467 15.3238 52.4449 15.2643 52.388C15.2048 52.3298 15.0992 52.3008 14.9474 52.3008C14.7531 52.3008 14.6086 52.331 14.5114 52.394C14.4361 52.4425 14.3754 52.5333 14.3281 52.6666L14.3293 52.6678ZM15.3554 53.288C15.1927 53.3462 15.0227 53.397 14.8466 53.4419C14.6061 53.5061 14.4543 53.569 14.39 53.6308C14.3244 53.695 14.2916 53.7665 14.2916 53.8489C14.2916 53.9421 14.3244 54.0173 14.3888 54.0766C14.4531 54.136 14.5491 54.165 14.6754 54.165C14.8016 54.165 14.9292 54.1335 15.0433 54.0693C15.1562 54.0051 15.2376 53.9276 15.285 53.8355C15.3323 53.7435 15.3566 53.6248 15.3566 53.477V53.288H15.3554Z" fill="#BE2126"/>
<path d="M17.2339 51.6696H18.3414V52.1748C18.4482 51.9567 18.5575 51.8065 18.6717 51.7241C18.7846 51.6418 18.9255 51.6006 19.0918 51.6006C19.2582 51.6006 19.4573 51.6551 19.665 51.7629L19.2983 52.6036C19.1586 52.5454 19.0481 52.5164 18.9667 52.5164C18.8113 52.5164 18.6911 52.5806 18.6061 52.7078C18.4834 52.8883 18.4227 53.2238 18.4227 53.7168V54.7489H17.2339V51.6684V51.6696Z" fill="#BE2126"/>
<path d="M19.9092 50.498H21.0932V51.3012H19.9092V50.498ZM19.9092 51.6694H21.0932V54.7499H19.9092V51.6694Z" fill="#BE2126"/>
<path d="M23.9187 50.498H27.1756V51.4114H25.2423V52.154H26.8938V53.0128H25.2423V54.7499H23.9199V50.498H23.9187Z" fill="#BE2126"/>
<path d="M27.4575 53.219C27.4575 52.749 27.6166 52.3613 27.9348 52.0573C28.2529 51.7532 28.6816 51.6006 29.2232 51.6006C29.8413 51.6006 30.3088 51.7799 30.6245 52.1372C30.8783 52.4255 31.0058 52.7805 31.0058 53.202C31.0058 53.6756 30.848 54.0645 30.5334 54.3661C30.2189 54.669 29.783 54.8204 29.2268 54.8204C28.7301 54.8204 28.3294 54.6944 28.0234 54.4437C27.647 54.1323 27.4587 53.7241 27.4587 53.2202L27.4575 53.219ZM28.6439 53.2153C28.6439 53.4903 28.6998 53.6926 28.8115 53.8246C28.9232 53.9567 29.0629 54.0221 29.2317 54.0221C29.4005 54.0221 29.5425 53.9567 29.6518 53.8283C29.7611 53.6999 29.8158 53.4903 29.8158 53.2044C29.8158 52.9379 29.7599 52.7393 29.6506 52.6084C29.5401 52.4776 29.4029 52.4122 29.2402 52.4122C29.0677 52.4122 28.9257 52.4788 28.8127 52.6109C28.6998 52.7429 28.6439 52.9452 28.6439 53.2153Z" fill="#BE2126"/>
<path d="M31.5862 51.6696H32.6937V52.1748C32.8005 51.9567 32.9098 51.8065 33.024 51.7241C33.1369 51.6418 33.2778 51.6006 33.4441 51.6006C33.6105 51.6006 33.8096 51.6551 34.0173 51.7629L33.6506 52.6036C33.5109 52.5454 33.4004 52.5164 33.319 52.5164C33.1636 52.5164 33.0434 52.5806 32.9584 52.7078C32.8357 52.8883 32.775 53.2238 32.775 53.7168V54.7489H31.5862V51.6684V51.6696Z" fill="#BE2126"/>
<path d="M39.1198 53.0091L40.2747 53.3568C40.1969 53.6802 40.0755 53.9491 39.9079 54.166C39.7416 54.3828 39.5339 54.5463 39.2874 54.6566C39.0397 54.7668 38.7252 54.8225 38.3439 54.8225C37.88 54.8225 37.5023 54.7559 37.2085 54.6214C36.9146 54.487 36.6608 54.2508 36.4483 53.9128C36.2346 53.5748 36.1289 53.1412 36.1289 52.6142C36.1289 51.9104 36.3159 51.3702 36.6911 50.9922C37.0664 50.6143 37.597 50.4253 38.2831 50.4253C38.8199 50.4253 39.2425 50.5331 39.5497 50.7499C39.8569 50.9668 40.0852 51.2987 40.2346 51.7481L39.0712 52.0061C39.03 51.8765 38.9875 51.782 38.9437 51.7215C38.8697 51.6209 38.7798 51.5434 38.6729 51.4889C38.5661 51.4344 38.4471 51.4077 38.3159 51.4077C38.0172 51.4077 37.7889 51.5276 37.6298 51.7675C37.5096 51.9456 37.4501 52.2242 37.4501 52.6045C37.4501 53.0758 37.5218 53.3992 37.665 53.5736C37.8083 53.7481 38.0099 53.8353 38.2698 53.8353C38.5297 53.8353 38.7118 53.765 38.8417 53.6233C38.9705 53.4816 39.064 53.2768 39.1223 53.0079L39.1198 53.0091Z" fill="#BE2126"/>
<path d="M41.914 52.6678L40.7834 52.5491C40.8259 52.3516 40.8879 52.1966 40.968 52.0839C41.0482 51.9713 41.1647 51.8731 41.3153 51.7896C41.4234 51.729 41.5728 51.683 41.7634 51.6503C41.9541 51.6175 42.1593 51.6006 42.3803 51.6006C42.7349 51.6006 43.0202 51.62 43.2352 51.6599C43.4501 51.6999 43.6298 51.7823 43.7731 51.9083C43.8739 51.9955 43.9529 52.119 44.0111 52.2777C44.0694 52.4376 44.0986 52.5891 44.0986 52.7344V54.0948C44.0986 54.2401 44.1083 54.3528 44.1265 54.4352C44.1447 54.5175 44.1848 54.6217 44.2467 54.7501H43.1356C43.0907 54.6714 43.0615 54.6108 43.0482 54.5684C43.0348 54.5272 43.0215 54.4618 43.0069 54.3722C42.8515 54.5212 42.6972 54.6278 42.5442 54.6908C42.3354 54.7756 42.0913 54.818 41.8144 54.818C41.4465 54.818 41.166 54.7332 40.9753 54.5624C40.7847 54.3916 40.6887 54.182 40.6887 53.9325C40.6887 53.6987 40.7579 53.5061 40.8952 53.3558C41.0324 53.2044 41.2862 53.093 41.6565 53.0191C42.0998 52.9307 42.3888 52.8677 42.5199 52.8325C42.6511 52.7974 42.7907 52.7502 42.9389 52.692C42.9389 52.5467 42.9085 52.4449 42.849 52.388C42.7895 52.3298 42.6827 52.3008 42.5321 52.3008C42.3378 52.3008 42.1933 52.331 42.0961 52.394C42.0208 52.4425 41.9601 52.5333 41.9128 52.6666L41.914 52.6678ZM42.9401 53.288C42.7774 53.3462 42.6074 53.397 42.4313 53.4419C42.1909 53.5061 42.0391 53.569 41.9747 53.6308C41.9091 53.695 41.8763 53.7665 41.8763 53.8489C41.8763 53.9421 41.9091 54.0173 41.9735 54.0766C42.0391 54.136 42.1338 54.165 42.2601 54.165C42.3864 54.165 42.5151 54.1335 42.628 54.0693C42.741 54.0051 42.8223 53.9276 42.8697 53.8355C42.917 53.7435 42.9413 53.6248 42.9413 53.477V53.288H42.9401Z" fill="#BE2126"/>
<path d="M44.8188 51.6696H45.9263V52.1748C46.0332 51.9567 46.1425 51.8065 46.2566 51.7241C46.3696 51.6418 46.5104 51.6006 46.6768 51.6006C46.8432 51.6006 47.0423 51.6551 47.25 51.7629L46.8832 52.6036C46.7436 52.5454 46.6331 52.5164 46.5517 52.5164C46.3963 52.5164 46.2761 52.5806 46.1911 52.7078C46.0684 52.8883 46.0077 53.2238 46.0077 53.7168V54.7489H44.8188V51.6684V51.6696Z" fill="#BE2126"/>
<path d="M47.3896 53.8949L48.5639 53.7847C48.6125 53.924 48.6805 54.0233 48.7679 54.0839C48.8554 54.1432 48.9719 54.1735 49.1164 54.1735C49.2755 54.1735 49.3982 54.1396 49.4856 54.0718C49.5536 54.0221 49.5876 53.9591 49.5876 53.884C49.5876 53.7992 49.5427 53.7338 49.454 53.6865C49.3897 53.6538 49.2209 53.6127 48.9452 53.5654C48.5348 53.4939 48.2494 53.4273 48.0891 53.3667C47.9288 53.3062 47.794 53.2032 47.6847 53.0579C47.5754 52.9125 47.5208 52.7477 47.5208 52.5624C47.5208 52.3601 47.5803 52.1845 47.6981 52.0379C47.8159 51.8913 47.9786 51.7811 48.1863 51.7096C48.3939 51.6369 48.672 51.6006 49.0205 51.6006C49.3884 51.6006 49.6605 51.6284 49.8365 51.6842C50.0126 51.7399 50.1583 51.8271 50.2761 51.9458C50.3939 52.0645 50.4911 52.2232 50.5688 52.4243L49.4467 52.5345C49.4176 52.4364 49.369 52.3637 49.301 52.3165C49.2075 52.2547 49.0958 52.2232 48.9634 52.2232C48.8311 52.2232 48.7327 52.2475 48.6708 52.2947C48.6088 52.3419 48.5797 52.3989 48.5797 52.4667C48.5797 52.5418 48.6186 52.5987 48.6963 52.6375C48.774 52.6763 48.9428 52.7114 49.2027 52.7417C49.5961 52.7865 49.8888 52.8483 50.0806 52.927C50.2725 53.0058 50.4194 53.1196 50.5214 53.2662C50.6234 53.4128 50.6744 53.5739 50.6744 53.7495C50.6744 53.9252 50.621 54.0996 50.5129 54.268C50.4049 54.4364 50.2361 54.5696 50.0041 54.669C49.7722 54.7683 49.4565 54.818 49.0581 54.818C48.4935 54.818 48.0928 54.738 47.8535 54.5769C47.6143 54.417 47.4601 54.1881 47.3921 53.8925L47.3896 53.8949Z" fill="#BE2126"/>
<path d="M56.1389 53.0091L57.2937 53.3568C57.216 53.6802 57.0945 53.9491 56.927 54.166C56.7594 54.3828 56.553 54.5463 56.3064 54.6566C56.0587 54.7668 55.7454 54.8225 55.3629 54.8225C54.899 54.8225 54.5214 54.7559 54.2275 54.6214C53.9336 54.487 53.6798 54.2508 53.4673 53.9128C53.2536 53.5748 53.1479 53.1412 53.1479 52.6142C53.1479 51.9104 53.335 51.3702 53.7102 50.9922C54.0854 50.6143 54.6161 50.4253 55.3022 50.4253C55.8389 50.4253 56.2615 50.5331 56.5687 50.7499C56.876 50.9668 57.1043 51.2987 57.2536 51.7481L56.0903 52.0061C56.0502 51.8765 56.0065 51.782 55.9628 51.7215C55.8887 51.6209 55.7988 51.5434 55.692 51.4889C55.5851 51.4344 55.4661 51.4077 55.3338 51.4077C55.035 51.4077 54.8067 51.5276 54.6477 51.7675C54.5274 51.9456 54.4679 52.2242 54.4679 52.6045C54.4679 53.0758 54.5396 53.3992 54.6829 53.5736C54.8262 53.7481 55.0277 53.8353 55.2876 53.8353C55.5475 53.8353 55.7296 53.765 55.8596 53.6233C55.9883 53.4816 56.0818 53.2768 56.1401 53.0079L56.1389 53.0091Z" fill="#BE2126"/>
<path d="M57.709 53.219C57.709 52.749 57.8681 52.3613 58.1862 52.0573C58.5044 51.7532 58.933 51.6006 59.4746 51.6006C60.0927 51.6006 60.5602 51.7799 60.876 52.1372C61.1298 52.4255 61.2573 52.7805 61.2573 53.202C61.2573 53.6756 61.0994 54.0645 60.7849 54.3661C60.4704 54.669 60.0344 54.8204 59.4783 54.8204C58.9816 54.8204 58.5809 54.6944 58.2749 54.4437C57.8984 54.1323 57.7102 53.7241 57.7102 53.2202L57.709 53.219ZM58.8954 53.2153C58.8954 53.4903 58.9513 53.6926 59.063 53.8246C59.1747 53.9567 59.3143 54.0221 59.4831 54.0221C59.6519 54.0221 59.794 53.9567 59.9033 53.8283C60.0126 53.6987 60.0672 53.4903 60.0672 53.2044C60.0672 52.9379 60.0114 52.7393 59.9009 52.6084C59.7904 52.4776 59.6531 52.4122 59.4904 52.4122C59.318 52.4122 59.1759 52.4788 59.063 52.6109C58.95 52.7429 58.8942 52.9452 58.8942 53.2153H58.8954Z" fill="#BE2126"/>
<path d="M61.834 51.6696H62.939V52.119C63.0981 51.9313 63.2584 51.798 63.4211 51.7193C63.5826 51.6406 63.7793 51.6006 64.0076 51.6006C64.2542 51.6006 64.4497 51.6442 64.593 51.7314C64.7362 51.8186 64.854 51.9482 64.9451 52.1203C65.1309 51.9192 65.3009 51.7823 65.4527 51.7096C65.6057 51.6369 65.7939 51.6006 66.0186 51.6006C66.3501 51.6006 66.6075 51.6987 66.7933 51.8949C66.9791 52.0912 67.0726 52.3977 67.0726 52.8156V54.7501H65.8862V52.9949C65.8862 52.8556 65.8595 52.7526 65.8049 52.6848C65.7259 52.5782 65.6276 52.5249 65.5098 52.5249C65.3701 52.5249 65.2584 52.5757 65.1734 52.6763C65.0884 52.7768 65.0459 52.9379 65.0459 53.1608V54.7501H63.8595V53.053C63.8595 52.9173 63.8522 52.8253 63.8364 52.778C63.8109 52.7005 63.7672 52.6387 63.7053 52.5915C63.6433 52.5442 63.5705 52.52 63.4867 52.52C63.3507 52.52 63.239 52.5709 63.1515 52.6738C63.0641 52.7768 63.0204 52.9452 63.0204 53.179V54.7513H61.834V51.6708V51.6696Z" fill="#BE2126"/>
<path d="M67.7869 55.9213V51.6694H68.8943V52.1249C69.0473 51.9335 69.1882 51.8038 69.3157 51.736C69.4881 51.6452 69.6788 51.5991 69.8889 51.5991C70.3018 51.5991 70.6211 51.7566 70.847 52.0716C71.0729 52.3865 71.1858 52.7766 71.1858 53.2405C71.1858 53.7529 71.0631 54.1442 70.8166 54.4143C70.5701 54.6845 70.2592 54.8189 69.8828 54.8189C69.7007 54.8189 69.5343 54.7886 69.3837 54.7256C69.2331 54.6627 69.0996 54.5718 68.9805 54.4507V55.9213H67.7856H67.7869ZM68.9733 53.2187C68.9733 53.4622 69.0243 53.6427 69.1275 53.7614C69.2307 53.8801 69.3606 53.9383 69.5173 53.9383C69.6545 53.9383 69.7699 53.8813 69.8634 53.7687C69.9569 53.656 70.003 53.4634 70.003 53.1933C70.003 52.9437 69.9545 52.7608 69.8573 52.6433C69.7602 52.5258 69.6424 52.4677 69.5027 52.4677C69.3509 52.4677 69.2258 52.527 69.1251 52.6445C69.0243 52.762 68.9733 52.9534 68.9733 53.2187Z" fill="#BE2126"/>
<path d="M72.8312 52.6678L71.7007 52.5491C71.7432 52.3516 71.8051 52.1966 71.8853 52.0839C71.9654 51.9713 72.082 51.8731 72.2326 51.7896C72.3406 51.729 72.49 51.683 72.6807 51.6503C72.8713 51.6175 73.0765 51.6006 73.2975 51.6006C73.6521 51.6006 73.9375 51.62 74.1524 51.6599C74.3674 51.6999 74.5471 51.7823 74.6904 51.9083C74.7912 51.9955 74.8701 52.119 74.9284 52.2777C74.9867 52.4376 75.0158 52.5891 75.0158 52.7344V54.0948C75.0158 54.2401 75.0255 54.3528 75.0438 54.4352C75.062 54.5175 75.102 54.6217 75.164 54.7501H74.0529C74.0079 54.6714 73.9788 54.6108 73.9654 54.5684C73.9521 54.5272 73.9387 54.4618 73.9254 54.3722C73.7699 54.5212 73.6157 54.6278 73.4627 54.6908C73.2538 54.7756 73.0097 54.818 72.7329 54.818C72.3649 54.818 72.0844 54.7332 71.8938 54.5624C71.7031 54.3916 71.6072 54.182 71.6072 53.9325C71.6072 53.6987 71.6764 53.5061 71.8136 53.3558C71.9508 53.2044 72.2046 53.093 72.575 53.0191C73.0195 52.9307 73.3073 52.8677 73.4384 52.8325C73.5695 52.7974 73.7092 52.7502 73.8573 52.692C73.8573 52.5467 73.827 52.4449 73.7675 52.388C73.7068 52.3298 73.6011 52.3008 73.4505 52.3008C73.2562 52.3008 73.1117 52.331 73.0146 52.394C72.9393 52.4425 72.8786 52.5333 72.8312 52.6666V52.6678ZM73.8573 53.288C73.6946 53.3462 73.5246 53.397 73.3485 53.4419C73.1081 53.5061 72.9563 53.569 72.8919 53.6308C72.8264 53.695 72.7936 53.7665 72.7936 53.8489C72.7936 53.9421 72.8264 54.0173 72.8907 54.0766C72.9563 54.136 73.051 54.165 73.1773 54.165C73.3036 54.165 73.4323 54.1335 73.5453 54.0693C73.6582 54.0051 73.7396 53.9276 73.7869 53.8355C73.8343 53.7435 73.8586 53.6248 73.8586 53.477V53.288H73.8573Z" fill="#BE2126"/>
<path d="M75.7249 51.6694H76.8275V52.1709C76.9926 51.9662 77.159 51.8196 77.3278 51.7312C77.4966 51.6427 77.7018 51.5991 77.9447 51.5991C78.2725 51.5991 78.5288 51.696 78.7133 51.8911C78.8979 52.0849 78.9914 52.3853 78.9914 52.7923V54.7499H77.8026V53.0564C77.8026 52.8626 77.7662 52.7257 77.6945 52.6457C77.6229 52.5658 77.5221 52.5258 77.3921 52.5258C77.2488 52.5258 77.1323 52.5803 77.0436 52.6881C76.955 52.7959 76.91 52.991 76.91 53.2708V54.7499H75.7261V51.6694H75.7249Z" fill="#BE2126"/>
<path d="M79.3557 51.6694H80.6041L81.2416 53.7203L81.833 51.6694H82.9987L81.7735 54.9607C81.6338 55.3362 81.4917 55.5894 81.346 55.7214C81.1408 55.9068 80.8275 56 80.4073 56C80.2361 56 79.9726 55.977 79.6168 55.9298L79.5233 55.1061C79.6933 55.1606 79.884 55.1872 80.0928 55.1872C80.2325 55.1872 80.3454 55.1557 80.4316 55.0915C80.5178 55.0273 80.5907 54.9135 80.6514 54.7487L79.3557 51.6694Z" fill="#BE2126"/>
</g>
<defs>
<clipPath id="clip0_539_3872">
<rect width="83" height="56" fill="white"/>
</clipPath>
</defs>
</svg>
