<svg width="16" height="16" viewBox="0 0 16 16" fill="none" xmlns="http://www.w3.org/2000/svg">
<path d="M1.34368 10.2525C1.15666 9.64896 1.03083 9.05604 1.0054 8.43218C0.960785 7.33783 1.1931 6.31747 1.6894 5.35292C1.97588 4.79613 2.34995 4.29631 2.79943 3.86017C3.56529 3.11705 4.47637 2.61435 5.50055 2.33355C6.14876 2.15582 6.8219 2.09918 7.49158 2.15742C8.68051 2.2608 9.75989 2.66158 10.7162 3.39429C11.8866 4.29113 12.6187 5.46811 12.9389 6.88987C13.0567 7.4128 13.0982 7.96842 13.0739 8.50458C13.0239 9.60847 12.6791 10.6331 12.0602 11.5573C12.0214 11.6152 11.9747 11.6678 11.9333 11.7241C11.8924 11.7797 11.8536 11.8368 11.8083 11.9012C12.7237 12.8212 13.8168 13.4816 15 14.0077C14.9971 14.0321 14.9942 14.0566 14.9913 14.081C14.7119 14.0848 14.4281 14.1219 14.1539 14.0859C13.3962 13.9863 12.6868 13.7226 12.0143 13.3643C11.714 13.2044 11.4231 13.0259 11.1349 12.8449C11.0378 12.7839 10.9698 12.7759 10.8811 12.8521C10.1424 13.4865 9.28354 13.8732 8.34124 14.0971C7.73529 14.2411 7.11836 14.2676 6.5092 14.2138C5.22949 14.1009 4.08837 13.6302 3.10333 12.7852C2.29838 12.0946 1.71646 11.2592 1.34368 10.2525ZM8.05652 6.04745C9.21563 6.04745 10.3747 6.04745 11.544 6.04745C10.8962 4.57828 9.12379 3.04927 6.71777 3.1804C4.88893 3.28008 3.1671 4.52443 2.53626 6.04745C4.36448 6.04745 6.1891 6.04745 8.05652 6.04745ZM9.6164 12.4915C9.80315 12.3602 9.98989 12.2288 10.1921 12.0865C9.66556 11.4165 9.08697 10.825 8.34875 10.3995C7.57231 9.95202 6.8064 9.93424 6.00731 10.3542C5.18495 10.7864 4.52047 11.4004 3.86306 12.0888C4.13373 12.2636 4.38124 12.4469 4.64947 12.5919C5.19746 12.888 5.7737 13.1262 6.40451 13.1494C6.90856 13.1679 7.41723 13.1635 7.91893 13.1167C8.52164 13.0604 9.062 12.7933 9.6164 12.4915ZM3.60579 7.37396C3.12482 7.29819 2.64385 7.22242 2.16745 7.14737C2.13886 7.19253 2.11859 7.22042 2.103 7.25071C2.09361 7.26897 2.08899 7.29068 2.08652 7.31136C2.02166 7.85417 1.98837 8.39297 2.07871 8.94109C2.20053 9.68023 2.46033 10.3543 2.87544 10.9758C2.96067 11.1034 3.00599 11.1345 3.12743 11.0233C3.5116 10.6714 3.92882 10.3519 4.28482 9.97423C4.53861 9.705 4.75246 9.38101 4.91668 9.04817C5.21563 8.44227 5.03011 7.96624 4.41579 7.67136C4.16767 7.55226 3.90072 7.47239 3.60579 7.37396ZM11.0727 11.1156C11.0836 11.1175 11.1017 11.1242 11.1044 11.1204C11.9161 9.9328 12.2354 8.63879 11.9431 7.15373C11.4229 7.24791 10.9016 7.30847 10.4006 7.4442C10.0328 7.54386 9.6812 7.72248 9.34239 7.90341C9.13087 8.01637 8.98951 8.25734 9.03557 8.48486C9.09468 8.77687 9.21943 9.0695 9.37579 9.32523C9.80699 10.0304 10.4153 10.5777 11.0727 11.1156ZM5.8538 7.80377C5.85323 7.86068 5.85041 7.91768 5.85245 7.9745C5.87764 8.67484 6.38954 9.1519 7.05491 9.16213C7.43792 9.16802 7.99633 8.92112 8.16701 8.2807C8.28699 7.83049 8.16157 7.4487 7.85037 7.13273C7.54801 6.82576 7.16631 6.73359 6.74597 6.84357C6.26367 6.96976 5.99454 7.30367 5.8538 7.80377Z" fill="white"/>
</svg>
