<?xml version="1.0" encoding="UTF-8"?>
<svg version="1.1" xmlns="http://www.w3.org/2000/svg" width="4000" height="2250">
<path d="M0 0 C1320 0 2640 0 4000 0 C4000 742.5 4000 1485 4000 2250 C2680 2250 1360 2250 0 2250 C0 1507.5 0 765 0 0 Z " fill="#111F64" transform="translate(0,0)"/>
<path d="M0 0 C0.83217041 0.00491455 1.66434082 0.0098291 2.52172852 0.01489258 C8.94851149 0.13700333 14.5978967 0.99081152 20.625 3.3125 C21.59566406 3.67601562 22.56632812 4.03953125 23.56640625 4.4140625 C50.97496484 15.26547139 71.91816783 36.49331602 88.625 60.3125 C89.18106934 61.09931152 89.73713867 61.88612305 90.31005859 62.69677734 C103.57590285 81.61434223 114.9330835 101.70774923 124.45361328 122.75634766 C125.6413147 125.34810128 126.86344171 127.92248676 128.08613586 130.49786377 C131.99944057 138.77601599 135.53398059 147.16376032 138.875 155.6875 C139.14958038 156.38516479 139.42416077 157.08282959 139.70706177 157.80163574 C148.6201488 180.52045347 156.34469472 203.72774502 162.625 227.3125 C163.10718994 229.09043945 163.10718994 229.09043945 163.59912109 230.90429688 C173.42076046 267.16681503 180.93690168 303.84641463 186.2935791 341.02770996 C186.62181508 343.29054341 186.95766056 345.5521183 187.29589844 347.81347656 C190.1403236 366.88765815 192.27527452 385.97351802 193.9375 405.1875 C194.02485413 406.19570801 194.11220825 407.20391602 194.20220947 408.24267578 C194.4484774 411.11711647 194.6888222 413.9919656 194.92578125 416.8671875 C195.03317879 418.14600296 195.03317879 418.14600296 195.14274597 419.45065308 C195.20690201 420.25310455 195.27105804 421.05555603 195.3371582 421.88232422 C195.42112602 422.91738602 195.42112602 422.91738602 195.50679016 423.97335815 C195.66392183 427.08268696 195.625 430.19920336 195.625 433.3125 C186.715 433.3125 177.805 433.3125 168.625 433.3125 C168.39425781 430.44433594 168.16351562 427.57617188 167.92578125 424.62109375 C164.83705328 386.88282409 160.27018337 349.58990609 153.625 312.3125 C153.41375488 311.11850586 153.20250977 309.92451172 152.98486328 308.69433594 C150.08168612 292.45432317 146.36460367 276.46208972 142.39453125 260.45263672 C141.5686888 257.08271743 140.78623525 253.7050905 140.01977539 250.32128906 C123.69446245 178.60496504 92.15346111 80.41399082 27.9453125 37.39453125 C23.36457007 34.52213629 18.66840149 32.24748763 13.625 30.3125 C12.6865625 29.94898438 11.748125 29.58546875 10.78125 29.2109375 C-1.67278863 25.66585225 -13.2776027 28.81637104 -24.2734375 34.921875 C-57.31362433 55.09767536 -78.61374798 89.9172942 -96.375 123.3125 C-96.80393555 124.1183252 -97.23287109 124.92415039 -97.67480469 125.75439453 C-109.28929876 147.79093833 -118.59025395 171.02493683 -127.375 194.3125 C-123.91628487 193.15959496 -123.44924657 192.37801711 -121.375 189.5 C-104.95266875 167.77570017 -82.30384758 147.26072643 -54.375 143.3125 C-35.65235441 141.47894385 -17.85837679 148.70651854 -3.1875 160.125 C-1.56768835 161.50264712 0.03568696 162.8997773 1.625 164.3125 C2.60210938 165.158125 3.57921875 166.00375 4.5859375 166.875 C11.35174646 172.82168305 17.10418893 179.17487998 22.625 186.3125 C23.3675 187.20453125 24.11 188.0965625 24.875 189.015625 C37.38972863 204.41203457 47.33900833 222.31973619 55.625 240.3125 C56.06376465 241.24658691 56.5025293 242.18067383 56.95458984 243.14306641 C83.51084808 299.87971021 102.9862967 370.01220333 101.625 433.3125 C93.045 433.3125 84.465 433.3125 75.625 433.3125 C75.23828125 430.10273437 74.8515625 426.89296875 74.453125 423.5859375 C74.06405096 420.3948272 73.67274932 417.20399716 73.28125 414.01318359 C73.01526252 411.83573083 72.7515044 409.65800431 72.49023438 407.47998047 C70.16348452 388.1053134 67.07684663 368.97289432 62.75 349.9375 C62.49444336 348.80868408 62.23888672 347.67986816 61.97558594 346.5168457 C61.19937641 343.11366694 60.4128647 339.71299648 59.625 336.3125 C59.39586914 335.30461426 59.16673828 334.29672852 58.93066406 333.25830078 C51.55165293 300.99520784 40.21083496 269.53871449 24.625 240.3125 C24.25584473 239.60754395 23.88668945 238.90258789 23.50634766 238.17626953 C10.30346032 213.04961034 -9.20039835 181.92538056 -37.5 172.3125 C-48.46977875 169.57893054 -58.57280267 171.40707249 -68.3125 176.9375 C-81.28327551 185.18610255 -92.36402864 195.97958505 -101.625 208.1875 C-102.11548828 208.8180127 -102.60597656 209.44852539 -103.11132812 210.09814453 C-105.0358731 212.72513442 -106.35798655 214.60431505 -106.4375 217.9140625 C-105.07250787 220.99533149 -103.28517294 223.22029248 -101.125 225.8125 C-63.50053968 272.80687814 -44.28208629 337.4510138 -33.81201172 395.89306641 C-33.31124697 398.66545672 -32.78172294 401.4318558 -32.25390625 404.19921875 C-31.876243 406.23672734 -31.4999187 408.27448461 -31.125 410.3125 C-30.861427 411.69272339 -30.861427 411.69272339 -30.5925293 413.10083008 C-29.34120084 420.12382413 -29.375 425.93291923 -29.375 433.3125 C-37.955 433.3125 -46.535 433.3125 -55.375 433.3125 C-55.73851562 431.08757812 -56.10203125 428.86265625 -56.4765625 426.5703125 C-59.3229359 409.33359947 -62.45222617 392.2615247 -66.64697266 375.29199219 C-67.35850129 372.3800219 -68.03291139 369.46167241 -68.69921875 366.5390625 C-76.27302953 333.94630139 -87.81816435 301.44652373 -104.375 272.3125 C-105.35526262 270.45891251 -106.33448077 268.60477216 -107.3125 266.75 C-109.72029365 262.35660118 -112.3152942 258.10274087 -115 253.875 C-115.3724585 253.28323975 -115.74491699 252.69147949 -116.12866211 252.08178711 C-118.2575316 248.7798381 -120.48416264 245.9744249 -123.375 243.3125 C-153.43951385 296.72357217 -167.574669 358.25829001 -174.91650391 418.62036133 C-175.00985519 419.38702621 -175.10320648 420.1536911 -175.1993866 420.94358826 C-175.37118503 422.3705215 -175.53947867 423.79788293 -175.7035675 425.22572327 C-176.04081093 428.07528556 -176.46366704 430.57850112 -177.375 433.3125 C-185.955 433.3125 -194.535 433.3125 -203.375 433.3125 C-201.72892807 384.2595564 -193.06739008 335.13306667 -182.375 287.3125 C-182.11493164 286.13526367 -181.85486328 284.95802734 -181.58691406 283.74511719 C-178.21016055 268.52286113 -174.42558142 253.45770089 -170.25 238.4375 C-170.04403198 237.69540283 -169.83806396 236.95330566 -169.62585449 236.1887207 C-165.70064303 222.09496163 -161.54838421 208.09074526 -156.4375 194.375 C-155.73877284 192.48076752 -155.04086356 190.58623316 -154.34375 188.69140625 C-154.00730469 187.77762207 -153.67085937 186.86383789 -153.32421875 185.92236328 C-152.22686576 182.90520705 -151.17719052 179.87361557 -150.13476562 176.8371582 C-144.80922311 161.37331923 -138.58916485 146.14809326 -131.41503906 131.44824219 C-130.65841396 129.89449656 -129.90867629 128.3373912 -129.16308594 126.77832031 C-115.21887976 97.66889211 -98.86992923 69.5251789 -77.375 45.3125 C-76.76527344 44.59320312 -76.15554688 43.87390625 -75.52734375 43.1328125 C-56.77168034 21.05167686 -30.34996812 -0.21419124 0 0 Z " fill="#DBDBDB" transform="translate(1984.375,630.6875)"/>
<path d="M0 0 C5.61 0 11.22 0 17 0 C17 22.11 17 44.22 17 67 C24.26 67 31.52 67 39 67 C38.01 65.02 37.02 63.04 36 61 C35.12819211 54.73751333 34.78424306 48.10441285 38.0625 42.5 C42.01272666 37.2852532 46.67887177 32.95107449 53 31 C61.28093564 30.21015172 70.05570332 29.49923947 77.203125 34.375 C82.34885056 39.02852573 86.51146054 44.64121284 87.30078125 51.68359375 C87.30464844 52.59238281 87.30851562 53.50117187 87.3125 54.4375 C87.32925781 55.34371094 87.34601563 56.24992187 87.36328125 57.18359375 C87 60 87 60 84 66 C90.93 66.33 97.86 66.66 105 67 C105 44.89 105 22.78 105 0 C110.61 0 116.22 0 122 0 C122 27.39 122 54.78 122 83 C113.5025 83.020625 105.005 83.04125 96.25 83.0625 C93.57165039 83.071604 90.89330078 83.08070801 88.13378906 83.09008789 C86.01106822 83.09300849 83.88834681 83.09555671 81.765625 83.09765625 C80.66331543 83.10277222 79.56100586 83.10788818 78.42529297 83.11315918 C76.84240479 83.11334045 76.84240479 83.11334045 75.22753906 83.11352539 C74.31264709 83.115746 73.39775513 83.11796661 72.45513916 83.12025452 C70.15087598 83.00739002 68.21304481 82.61680653 66 82 C64.66894739 81.91160979 63.33397404 81.86978916 62 81.875 C61.34 81.87242188 60.68 81.86984375 60 81.8671875 C58.03023441 81.92377104 58.03023441 81.92377104 56.32949829 82.49822998 C53.1072089 83.1923057 50.02395674 83.14396796 46.72802734 83.16113281 C46.0022348 83.16609772 45.27644226 83.17106262 44.52865601 83.17617798 C42.13107343 83.19076266 39.73355713 83.19759711 37.3359375 83.203125 C35.66167195 83.20888158 33.98740641 83.21463925 32.31314087 83.22039795 C28.80104263 83.23089889 25.2889672 83.2367468 21.77685547 83.24023438 C17.29829412 83.2457027 12.82003931 83.26969878 8.34157372 83.29820633 C4.88065746 83.31692796 1.41981345 83.32204345 -2.04114914 83.32357025 C-3.6908065 83.32657827 -5.34046315 83.33454352 -6.99007034 83.34775543 C-15.70408603 83.41253828 -23.79067166 83.36333308 -32 80 C-32.66 80.99 -33.32 81.98 -34 83 C-36.59163899 83.31759811 -38.93991413 83.444073 -41.53515625 83.43359375 C-42.28784286 83.4388356 -43.04052948 83.44407745 -43.81602478 83.44947815 C-45.41403979 83.45591039 -47.01210208 83.4545458 -48.61010742 83.44604492 C-51.02937142 83.43761543 -53.44620887 83.46614275 -55.86523438 83.49804688 C-64.98096186 83.54140531 -73.31326172 83.57813293 -80.19140625 76.859375 C-80.87009766 75.81523438 -80.87009766 75.81523438 -81.5625 74.75 C-82.03816406 74.04359375 -82.51382812 73.3371875 -83.00390625 72.609375 C-83.33261719 72.07828125 -83.66132812 71.5471875 -84 71 C-94.21361522 72.2107325 -105.2506491 78.19924268 -112 86 C-116.0347646 91.30283348 -116.69801663 96.65402579 -116.44140625 103.2265625 C-115.73041538 107.69385029 -114.49303543 109.08913714 -111 112 C-102.94538875 117.20685121 -94.51631978 117.18114089 -85.1875 117.1875 C-84.25357422 117.19974609 -83.31964844 117.21199219 -82.35742188 117.22460938 C-76.75906253 117.23626453 -71.63773768 116.7155046 -66.18481445 115.4309082 C-64 115 -64 115 -60 115 C-59.49487756 116.60256108 -58.99608373 118.20711792 -58.5 119.8125 C-58.2215625 120.70582031 -57.943125 121.59914063 -57.65625 122.51953125 C-57 125 -57 125 -57 128 C-59.70706344 128.81694231 -62.41551396 129.62866494 -65.125 130.4375 C-66.26582031 130.78264648 -66.26582031 130.78264648 -67.4296875 131.13476562 C-75.33602113 133.4862183 -82.57969367 134.18196348 -90.8125 134.1875 C-91.75931641 134.19974609 -92.70613281 134.21199219 -93.68164062 134.22460938 C-105.26972338 134.24853522 -113.90459353 131.35399943 -123.75 125.3125 C-131.11054779 117.74749255 -133.3125 109.86103634 -133.3125 99.61499023 C-133.10861344 88.65261204 -128.73820637 80.72588438 -121 73 C-112.2607711 65.84446734 -102.69218031 61.00208704 -92.1875 56.90234375 C-90.06097898 56.18899069 -90.06097898 56.18899069 -89 55 C-96.65203984 51.6258722 -103.60781552 49.7835633 -112 51 C-116.50451041 53.17181752 -119.0908343 55.97192442 -122 60 C-125.48670834 58.8905928 -128.77484237 57.73662334 -132 56 C-129.50434807 46.97624801 -122.70599923 40.45346869 -114.7265625 35.83984375 C-107.06899333 32.11500807 -98.0062257 33.32826929 -90.1875 35.9375 C-83.9522692 38.36037244 -78.21485411 41.48872517 -72.50463867 44.96459961 C-71.87404541 45.34237549 -71.24345215 45.72015137 -70.59375 46.109375 C-70.04396484 46.44936523 -69.49417969 46.78935547 -68.92773438 47.13964844 C-66.42127084 48.35533478 -66.42127084 48.35533478 -61 49 C-61 53.62 -61 58.24 -61 63 C-62.134375 63.309375 -63.26875 63.61875 -64.4375 63.9375 C-67.78775099 64.62924531 -67.78775099 64.62924531 -69 66 C-59.43 66.33 -49.86 66.66 -40 67 C-39.34 61.06 -38.68 55.12 -38 49 C-25.94642857 43.77678571 -25.94642857 43.77678571 -20 43 C-20.3652511 49.03294054 -21.19880142 54.33851851 -23.37890625 59.9921875 C-24.19701479 62.2866102 -24.19701479 62.2866102 -24 66 C-16.08 66.33 -8.16 66.66 0 67 C0 44.89 0 22.78 0 0 Z " fill="#D7D8D9" transform="translate(1915,1166)"/>
<path d="M0 0 C5.28 0 10.56 0 16 0 C16.01981934 1.8572168 16.03963867 3.71443359 16.06005859 5.62792969 C16.12785202 11.76678301 16.20462907 17.90547263 16.28752708 24.04413986 C16.33745556 27.76571684 16.38378574 31.48726591 16.421875 35.20898438 C16.45877163 38.80120413 16.50514317 42.39318843 16.55806351 45.9852066 C16.57658426 47.35507321 16.59170081 48.72499024 16.60334396 50.09493256 C16.62024532 52.01488656 16.65041426 53.93470986 16.68115234 55.85449219 C16.69447601 56.94703308 16.70779968 58.03957397 16.7215271 59.16522217 C16.86056 62.31716766 16.86056 62.31716766 19 66 C31.87 66.495 31.87 66.495 45 67 C45.28819616 62.24389666 45.28819616 62.24389666 45.56811523 57.48730469 C45.68458783 55.65624718 45.84248223 53.82798403 46 52 C46.03673828 50.8553125 46.03673828 50.8553125 46.07421875 49.6875 C47.7424427 46.64668673 51.23340233 46.17846474 54.375 45.25 C55.06078125 45.02957031 55.7465625 44.80914063 56.453125 44.58203125 C59.40171438 43.65844586 61.89438074 43 65 43 C64.47458553 50.7498635 62.44408524 57.6450086 60 65 C61.74506615 66.74506615 64.19039143 66.23282784 66.56640625 66.31640625 C67.69111328 66.35830078 68.81582031 66.40019531 69.97460938 66.44335938 C71.15861328 66.48267578 72.34261719 66.52199219 73.5625 66.5625 C74.75037109 66.60568359 75.93824219 66.64886719 77.16210938 66.69335938 C80.10792197 66.79983453 83.05394502 66.90045681 86 67 C86.33 61.06 86.66 55.12 87 49 C89.3925 48.175 91.785 47.35 94.25 46.5 C94.99668945 46.23896484 95.74337891 45.97792969 96.51269531 45.70898438 C99.90035298 44.56093471 102.38319383 44 106 44 C105.38698875 51.8158934 103.52173738 59.95652524 100 67 C108.415 66.505 108.415 66.505 117 66 C117.66 60.39 118.32 54.78 119 49 C121.59875 48.175 124.1975 47.35 126.875 46.5 C127.69210449 46.23896484 128.50920898 45.97792969 129.35107422 45.70898438 C134.77777778 44 134.77777778 44 137 44 C136.47138298 51.79710106 134.42471325 58.56942713 132 66 C140.58 66.66 149.16 67.32 158 68 C156.07533473 63.28668468 156.07533473 63.28668468 154.14086914 58.57739258 C152.72360409 55.07092827 151.57712367 51.7622619 151 48 C153.78687098 46.15929441 156.58025127 44.32871822 159.375 42.5 C160.56609375 41.71302734 160.56609375 41.71302734 161.78125 40.91015625 C162.54179688 40.41386719 163.30234375 39.91757813 164.0859375 39.40625 C164.7876709 38.94541016 165.4894043 38.48457031 166.21240234 38.00976562 C168 37 168 37 170 37 C171.33353162 47.00148712 171.06717478 56.92378367 171 67 C178.26 67 185.52 67 193 67 C193 44.89 193 22.78 193 0 C198.28 0 203.56 0 209 0 C209 22.44 209 44.88 209 68 C216.26 68 223.52 68 231 68 C231 45.56 231 23.12 231 0 C236.28 0 241.56 0 247 0 C247 27.39 247 54.78 247 83 C220.2385111 83.16043524 220.2385111 83.16043524 208.79101562 83.1953125 C200.99378509 83.2191814 193.19674327 83.24735442 185.3996582 83.30175781 C179.11024729 83.34536466 172.8210389 83.36916868 166.53148842 83.37950897 C164.13742195 83.38687368 161.74336598 83.40125501 159.34938622 83.42292023 C155.98423072 83.45215068 152.61990162 83.4559477 149.25463867 83.45410156 C148.27495621 83.46848267 147.29527374 83.48286377 146.28590393 83.49768066 C139.99759298 83.4605911 135.02812882 82.24432792 129.20589161 79.85903549 C127.08393098 78.87903919 127.08393098 78.87903919 125 79 C124.56848633 79.65121826 124.13697266 80.30243652 123.69238281 80.97338867 C122 83 122 83 119.65917969 83.4699707 C118.75586914 83.45538818 117.85255859 83.44080566 116.921875 83.42578125 C115.42720703 83.41321289 115.42720703 83.41321289 113.90234375 83.40039062 C112.86207031 83.37138672 111.82179688 83.34238281 110.75 83.3125 C109.72519531 83.30283203 108.70039062 83.29316406 107.64453125 83.28320312 C103.32590075 83.21928517 99.0982375 83.09294312 94.828125 82.41796875 C93.89484375 82.28003906 92.9615625 82.14210938 92 82 C91.67 82.33 91.34 82.66 91 83 C86.52772963 83.28538127 82.04276604 83.23197982 77.5625 83.25 C75.69174805 83.2809375 75.69174805 83.2809375 73.78320312 83.3125 C66.32858338 83.34383839 59.97711206 82.69609517 53 80 C52.34 80.99 51.68 81.98 51 83 C48.23177383 83.29210801 45.69081058 83.39596734 42.921875 83.36328125 C42.11768127 83.36377975 41.31348755 83.36427826 40.48492432 83.36479187 C38.7801263 83.3624487 37.07532501 83.35270584 35.37060547 83.33618164 C32.77409485 83.31271774 30.17862002 83.31560264 27.58203125 83.32226562 C25.92447309 83.31668432 24.26691925 83.3095716 22.609375 83.30078125 C21.83728699 83.30169266 21.06519897 83.30260406 20.26971436 83.30354309 C13.43850223 83.21481327 7.98601619 81.98601619 3 77 C0.47399499 72.0308359 -0.37125158 68.43404182 -0.34057617 62.77954102 C-0.34101425 62.09576889 -0.34145233 61.41199677 -0.34190369 60.70750427 C-0.33983239 58.47266958 -0.31658188 56.23860804 -0.29296875 54.00390625 C-0.28736685 52.44449778 -0.28309956 50.88508399 -0.28010559 49.32566833 C-0.26870349 45.24029723 -0.2392769 41.15525094 -0.20599365 37.07000732 C-0.17519224 32.89372144 -0.16157882 28.71738259 -0.14648438 24.54101562 C-0.1144021 16.36051211 -0.06167273 8.180334 0 0 Z " fill="#DADADB" transform="translate(1490,1166)"/>
<path d="M0 0 C0.66 0 1.32 0 2 0 C2.38220703 0.68924561 2.76441406 1.37849121 3.15820312 2.08862305 C12.18429828 22.68733216 12.18429828 22.68733216 26 39 C30.44441955 39.61121683 33.86390273 39.78444812 37.625 37.1875 C40.33631803 33.5486258 42.71748423 29.76478226 45.12109375 25.91796875 C50.05948808 18.24857049 55.01116725 10.98137073 64 8 C70.28192621 6.8276343 74.82170661 7.8079007 80.11328125 11.3203125 C85.26854331 15.90988328 88.23212901 20.96192703 91.125 27.125 C91.79044552 28.52526181 92.45961631 29.9237604 93.1328125 31.3203125 C93.42043457 31.93148926 93.70805664 32.54266602 94.00439453 33.17236328 C95.22319508 35.40972005 96.19526571 37.17272511 98 39 C100.94297443 39.60258691 100.94297443 39.60258691 104.328125 39.49609375 C106.23029785 39.50044434 106.23029785 39.50044434 108.17089844 39.50488281 C109.53062826 39.48427214 110.89033072 39.46177837 112.25 39.4375 C112.93195435 39.4310144 113.61390869 39.42452881 114.31652832 39.41784668 C128.7943639 39.27507735 143.59047705 38.2730153 156 30 C154.12762629 29.03654556 152.2519701 28.07946898 150.375 27.125 C149.33085937 26.59132813 148.28671875 26.05765625 147.2109375 25.5078125 C140.13522938 22.18515637 133.79635712 20.92280155 126 22 C122.77320239 23.63466772 120.63955029 25.72089943 119 29 C114.48521602 28.46884894 111.65333143 26.63379708 108 24 C109.45087438 16.92698738 114.37409397 12.04868781 119.7421875 7.53515625 C126.1131772 3.55682712 134.80634632 3.62633749 142 5 C147.71384568 6.86233043 152.85936049 9.93941795 158 13 C160.49749178 14.46265435 162.99846861 15.91926837 165.5 17.375 C167.18996094 18.36113281 167.18996094 18.36113281 168.9140625 19.3671875 C172.63416392 21.33554496 175.86400147 22.33824024 180 23 C180 27.62 180 32.24 180 37 C178.618125 37.45375 177.23625 37.9075 175.8125 38.375 C168.89689534 40.86282142 162.3624628 44.10562931 155.7902832 47.38232422 C141.07902629 54.59396782 126.40683625 56.35133923 110.125 56.25 C108.85914062 56.25773437 107.59328125 56.26546875 106.2890625 56.2734375 C96.07423382 56.25197778 96.07423382 56.25197778 91.859375 54.87109375 C89.12374802 53.74742038 89.12374802 53.74742038 86.8828125 54.64453125 C86.30273438 55.02996094 85.72265625 55.41539063 85.125 55.8125 C77.69858063 59.99519597 71.07150305 59.31641889 63.01171875 57.09765625 C58.25727675 55.36484405 54.19425427 52.79059945 50 50 C49.34 49.67 48.68 49.34 48 49 C47.236875 49.78375 46.47375 50.5675 45.6875 51.375 C42.44833129 54.5388392 40.49243473 56.25108869 35.98046875 56.265625 C34.81741211 56.26949219 34.81741211 56.26949219 33.63085938 56.2734375 C32.82455078 56.26570313 32.01824219 56.25796875 31.1875 56.25 C29.99543945 56.26160156 29.99543945 56.26160156 28.77929688 56.2734375 C25.06306662 56.26114228 22.28288372 56.09892461 18.73828125 54.859375 C16.06767084 53.69196578 16.06767084 53.69196578 13.86523438 54.93408203 C10.04377923 56.35573107 6.4357334 56.24824475 2.41796875 56.1953125 C1.60378983 56.1924826 0.7896109 56.18965271 -0.04924011 56.18673706 C-2.637146 56.17558584 -5.22469958 56.15049083 -7.8125 56.125 C-9.57226061 56.11496365 -11.33202667 56.10583894 -13.09179688 56.09765625 C-17.39466598 56.0756631 -21.69727336 56.04116836 -26 56 C-26.33776684 54.2508503 -26.67003671 52.50063855 -27 50.75 C-27.185625 49.77546875 -27.37125 48.8009375 -27.5625 47.796875 C-28 45 -28 45 -28 41 C-17.44 40.67 -6.88 40.34 4 40 C0.33151941 33.39673493 -3.38917336 27.34501609 -7.86523438 21.33203125 C-11.11684121 16.69788937 -11.11684121 16.69788937 -10.56640625 13.41015625 C-8.68837556 10.52051801 -6.69356883 7.8475583 -4.5 5.1875 C-3.7059375 4.21167969 -2.911875 3.23585938 -2.09375 2.23046875 C-1.4028125 1.49441406 -0.711875 0.75835938 0 0 Z " fill="#D9DADB" transform="translate(2143,1193)"/>
<path d="M0 0 C3.61477175 1.49801352 5.68620463 3.57537417 8.25 6.5 C8.95640625 7.2940625 9.6628125 8.088125 10.390625 8.90625 C12 11 12 11 12 13 C10.47162731 14.39599396 8.87349901 15.71587649 7.25 17 C5.75919922 18.18916016 5.75919922 18.18916016 4.23828125 19.40234375 C3.71057129 19.82241699 3.18286133 20.24249023 2.63916016 20.67529297 C0.96061686 22.03182796 -0.68853045 23.41767191 -2.33203125 24.81640625 C-2.87182617 25.27466797 -3.41162109 25.73292969 -3.96777344 26.20507812 C-5.50221496 27.51118573 -7.0343585 28.81999159 -8.56640625 30.12890625 C-11 32 -11 32 -13 32 C-13 32.66 -13 33.32 -13 34 C-12.195625 34.20625 -11.39125 34.4125 -10.5625 34.625 C-1.09733673 38.27822091 6.0343227 44.4116396 10.3125 53.625 C12.86146016 59.58332881 13.15810617 65.11050962 13.125 71.5 C13.12886719 72.24636719 13.13273437 72.99273438 13.13671875 73.76171875 C13.13542969 74.49003906 13.13414062 75.21835938 13.1328125 75.96875 C13.13168457 76.62294922 13.13055664 77.27714844 13.12939453 77.95117188 C12.97716331 80.36159523 12.48998118 82.63736603 12 85 C3.36795 85.06961416 -5.26400285 85.12286902 -13.89627266 85.15543652 C-17.90490789 85.17106997 -21.91335057 85.19226548 -25.921875 85.22631836 C-29.79278319 85.25899512 -33.66350657 85.27687047 -37.53454208 85.28463173 C-39.00888858 85.29016037 -40.48322534 85.30095651 -41.95749283 85.31719017 C-44.02803386 85.33907587 -46.09781831 85.34196241 -48.16845703 85.34057617 C-49.93384323 85.35056892 -49.93384323 85.35056892 -51.7348938 85.36076355 C-55.40346717 84.95542067 -57.78427714 83.75718127 -61 82 C-63.66169477 81.64073069 -63.66169477 81.64073069 -66.3359375 81.8125 C-67.31820312 81.83570313 -68.30046875 81.85890625 -69.3125 81.8828125 C-71.34636561 81.96063899 -73.38021991 82.03876169 -75.4140625 82.1171875 C-83.07119377 82.29759112 -89.04124188 81.45502839 -95.3125 76.6875 C-99.51023468 72.48976532 -101.15718652 69.01597898 -101.5 63.125 C-101.26304892 56.26372097 -97.98074923 51.69233872 -93.1875 47 C-88.26083512 43.01487552 -82.32523947 40.46231046 -76.64453125 37.734375 C-76.00765381 37.42685303 -75.37077637 37.11933105 -74.71459961 36.80249023 C-73.34821677 36.16297715 -71.9549565 35.58098096 -70.5546875 35.01953125 C-68.81121482 34.11444279 -68.81121482 34.11444279 -68.42578125 32.08984375 C-68.38839844 31.37957031 -68.35101562 30.66929688 -68.3125 29.9375 C-68 26 -68 26 -67 25 C-64.30345146 24.92680379 -61.63308542 24.90757463 -58.9375 24.9375 C-58.17888672 24.94201172 -57.42027344 24.94652344 -56.63867188 24.95117188 C-54.75908129 24.9629932 -52.87953101 24.98092922 -51 25 C-50.970271 26.79401245 -50.970271 26.79401245 -50.93994141 28.62426758 C-50.86391728 33.05807694 -50.77519503 37.49155674 -50.68261719 41.92504883 C-50.64431423 43.84457904 -50.60946367 45.76418135 -50.578125 47.68383789 C-50.53250298 50.4418313 -50.4745042 53.19932777 -50.4140625 55.95703125 C-50.40251129 56.81649857 -50.39096008 57.67596588 -50.37905884 58.56147766 C-50.35918915 59.36208115 -50.33931946 60.16268463 -50.31884766 60.98754883 C-50.30552399 61.6914827 -50.29220032 62.39541656 -50.2784729 63.12068176 C-50.08755815 65.33097464 -50.08755815 65.33097464 -48 68 C-45.948375 68.47488699 -45.948375 68.47488699 -43.55029297 68.43237305 C-42.62948944 68.45216721 -41.70868591 68.47196136 -40.75997925 68.49235535 C-39.76410797 68.49874527 -38.76823669 68.50513519 -37.7421875 68.51171875 C-36.72399933 68.52966995 -35.70581116 68.54762115 -34.6567688 68.56611633 C-31.39622168 68.62041347 -28.13582252 68.65417738 -24.875 68.6875 C-22.66794807 68.72065592 -20.46091571 68.75514394 -18.25390625 68.79101562 C-12.83607019 68.87615075 -7.41821543 68.94441804 -2 69 C-2.63052334 67.54993148 -3.26438357 66.10131359 -3.8996582 64.65332031 C-4.25228226 63.8464679 -4.60490631 63.03961548 -4.96821594 62.20831299 C-8.3638982 54.94058175 -14.60188821 49.8659352 -22 47 C-24.98426758 46.25170983 -27.98385004 45.60583926 -31 45 C-33.06656867 29.32032027 -33.06656867 29.32032027 -29.78710938 24.05126953 C-26.58092057 20.53353597 -22.7660534 17.84926149 -18.81689453 15.22412109 C-16.27202835 13.50953375 -13.92956657 11.57499457 -11.5625 9.625 C-10.78261719 9.00882813 -10.00273437 8.39265625 -9.19921875 7.7578125 C-6.06228928 5.25049764 -3.03015179 2.6349146 0 0 Z " fill="#D8D9DA" transform="translate(2499,1164)"/>
<path d="M0 0 C3.48801449 2.32534299 3.75885219 3.38655792 5.0625 7.25 C5.54396484 8.64992188 5.54396484 8.64992188 6.03515625 10.078125 C6.35355469 11.04234375 6.67195313 12.0065625 7 13 C7.36351563 13.886875 7.72703125 14.77375 8.1015625 15.6875 C9.37749201 20.39179664 9.32889368 24.8974695 9.3125 29.75 C9.32861328 30.6884375 9.34472656 31.626875 9.36132812 32.59375 C9.36588773 39.19606206 8.23461621 44.79414188 6 51 C1.82325487 51.1255612 -2.35243101 51.2152361 -6.53051758 51.2746582 C-7.94542622 51.29948116 -9.36021121 51.33335255 -10.7746582 51.37719727 C-21.02342397 51.68644295 -28.59856244 50.48385586 -38 46 C-38.66 47.65 -39.32 49.3 -40 51 C-43.85415052 51.02923559 -47.70827215 51.04687777 -51.5625 51.0625 C-52.64853516 51.07087891 -53.73457031 51.07925781 -54.85351562 51.08789062 C-63.93195585 51.11548467 -63.93195585 51.11548467 -68.21484375 50.43359375 C-69.13394531 50.29050781 -70.05304687 50.14742187 -71 50 C-71.33 50.33 -71.66 50.66 -72 51 C-74.57021843 51.10094226 -77.11298032 51.13971237 -79.68359375 51.1328125 C-80.83964867 51.13424759 -80.83964867 51.13424759 -82.01905823 51.13571167 C-83.65243613 51.13639349 -85.28581673 51.13453909 -86.91918945 51.13037109 C-89.42340172 51.12503007 -91.92743403 51.13031224 -94.43164062 51.13671875 C-96.0156254 51.13605783 -97.59961006 51.13477637 -99.18359375 51.1328125 C-99.9357164 51.13483673 -100.68783905 51.13686096 -101.4627533 51.13894653 C-106.77008751 51.11495624 -106.77008751 51.11495624 -109 50 C-109.14695312 50.61746094 -109.29390625 51.23492188 -109.4453125 51.87109375 C-111.96910735 61.40059501 -116.6067311 69.51016806 -125 75 C-132.82218858 79.3668218 -141.06532625 80.6383043 -149.7734375 78.234375 C-154.61334 76.40306054 -158.84118682 74.06438866 -163 71 C-161.8905928 67.51329166 -160.73662334 64.22515763 -159 61 C-157.9275 61.165 -156.855 61.33 -155.75 61.5 C-146.5753953 62.58796197 -138.02723637 63.24923313 -130 58 C-125.90469684 53.90469684 -123.97330383 49.66264868 -123.375 43.9375 C-123.51064145 37.15542732 -128.07437377 32.19899244 -132 27 C-132.92425781 25.74123047 -132.92425781 25.74123047 -133.8671875 24.45703125 C-135.22510691 22.62156602 -136.59980191 20.80328542 -138 19 C-136.37331769 15.3069915 -134.08687593 12.38370805 -131.5625 9.25 C-130.78003906 8.26515625 -129.99757813 7.2803125 -129.19140625 6.265625 C-128.46824219 5.51796875 -127.74507812 4.7703125 -127 4 C-126.01 4 -125.02 4 -124 4 C-121.87855889 7.64583448 -119.76073989 11.29374082 -117.64624023 14.94360352 C-116.92652788 16.18473847 -116.20583198 17.42530363 -115.48413086 18.6652832 C-114.44645725 20.44853922 -113.41234751 22.23381997 -112.37890625 24.01953125 C-111.7557251 25.09307861 -111.13254395 26.16662598 -110.49047852 27.27270508 C-109 30 -109 30 -108 33 C-104.64264863 34.11911712 -102.11794614 34.11365586 -98.58203125 34.09765625 C-97.32841797 34.09443359 -96.07480469 34.09121094 -94.78320312 34.08789062 C-93.47287109 34.07951172 -92.16253906 34.07113281 -90.8125 34.0625 C-89.47721519 34.05748317 -88.14192859 34.05292059 -86.80664062 34.04882812 C-83.53771527 34.03702695 -80.26888009 34.02056297 -77 34 C-76.96003906 32.89140625 -76.92007813 31.7828125 -76.87890625 30.640625 C-76.17652234 19.21771349 -76.17652234 19.21771349 -73.21484375 16.15234375 C-70.81161609 15.10543505 -68.56825941 14.52137597 -66 14 C-64.14303011 13.42565286 -62.28875555 12.84250711 -60.4375 12.25 C-58.96006525 11.82723328 -57.48150758 11.40826514 -56 11 C-57.20007963 19.02158487 -59.30043608 26.35123556 -62 34 C-56.39 34.33 -50.78 34.66 -45 35 C-44.67 29.39 -44.34 23.78 -44 18 C-31.28571429 12.42857143 -31.28571429 12.42857143 -25 12 C-25.26020149 13.98059248 -25.53380221 15.95942545 -25.8125 17.9375 C-26.03873047 19.59072266 -26.03873047 19.59072266 -26.26953125 21.27734375 C-27.12049525 25.61407475 -28.60245303 29.80735908 -30 34 C-21.75 34.33 -13.5 34.66 -5 35 C-6.71507853 28.13968587 -8.58061879 23.70587682 -11.953125 17.734375 C-13 15 -13 15 -12.5234375 13 C-10.37269057 10.17645532 -7.9201876 7.71120933 -5.375 5.25 C-4.859375 4.74339844 -4.34375 4.23679687 -3.8125 3.71484375 C-2.54616661 2.47196098 -1.2736856 1.23534724 0 0 Z " fill="#D8D9DA" transform="translate(2669,1198)"/>
<path d="M0 0 C2.94685209 6.19287699 5.20541552 12.38175533 7 19 C7.18691406 19.61230469 7.37382813 20.22460938 7.56640625 20.85546875 C9.50410989 30.43924621 8.14190272 40.85103975 5 50 C3.15633713 51.84366287 0.16403631 51.13739825 -2.3046875 51.14526367 C-2.96337326 51.14862228 -3.62205902 51.1519809 -4.30070496 51.15544128 C-6.49215555 51.16498669 -8.68352987 51.16689695 -10.875 51.16796875 C-12.39900748 51.17118163 -13.92301465 51.17454572 -15.44702148 51.17805481 C-18.65169996 51.18405697 -21.85635145 51.18589388 -25.06103516 51.18530273 C-29.14848964 51.18520168 -33.23576817 51.19878956 -37.32318115 51.21607494 C-40.47695696 51.22725586 -43.63069127 51.22921999 -46.78448486 51.22869301 C-48.28982137 51.22986644 -49.79515918 51.23425211 -51.30047607 51.24202538 C-72.11232984 51.33933118 -72.11232984 51.33933118 -80.2734375 44.72265625 C-82.92545066 42.07664312 -84.37904061 39.37159553 -86 36 C-86.33 35.34 -86.66 34.68 -87 34 C-87.98759441 23.23142245 -85.49088191 13.26586322 -80 4 C-77 3 -77 3 -74.51953125 3.99609375 C-73.62621094 4.47175781 -72.73289062 4.94742187 -71.8125 5.4375 C-70.91144531 5.91058594 -70.01039062 6.38367187 -69.08203125 6.87109375 C-68.39496094 7.24363281 -67.70789062 7.61617187 -67 8 C-67.33 9.2375 -67.66 10.475 -68 11.75 C-69.23001783 17.37421197 -69.97444502 23.29371605 -69 29 C-67.12301284 31.26706062 -65.62699542 32.68650229 -63 34 C-61.18281916 34.11957474 -59.36142165 34.1772468 -57.54052734 34.20532227 C-56.39949554 34.22526749 -55.25846375 34.24521271 -54.08285522 34.26576233 C-52.22813095 34.29083107 -52.22813095 34.29083107 -50.3359375 34.31640625 C-49.07359283 34.33718735 -47.81124817 34.35796844 -46.51065063 34.37937927 C-43.15367955 34.43377926 -39.79669811 34.48400236 -36.43963623 34.53222656 C-33.01438935 34.58245042 -29.58923171 34.63813186 -26.1640625 34.69335938 C-19.44277939 34.80061859 -12.72142956 34.9023744 -6 35 C-6.46263745 33.39665154 -6.93012751 31.79470275 -7.3996582 30.19335938 C-7.65946976 29.30112671 -7.91928131 28.40889404 -8.18696594 27.48962402 C-9.15247584 24.53309766 -10.48136466 22.09501079 -12.1875 19.5 C-15 15.17518248 -15 15.17518248 -15 13 C-13.90323473 11.8346869 -12.79450536 10.67892632 -11.63671875 9.57421875 C-10.38651837 8.37175872 -9.16497738 7.13943176 -7.95703125 5.89453125 C-7.24933594 5.16621094 -6.54164062 4.43789062 -5.8125 3.6875 C-4.80123047 2.64142578 -4.80123047 2.64142578 -3.76953125 1.57421875 C-2 0 -2 0 0 0 Z " fill="#D7D8D9" transform="translate(1385,1198)"/>
<path d="M0 0 C0.69029297 -0.01611328 1.38058594 -0.03222656 2.09179688 -0.04882812 C7.67808544 -0.05412319 11.64794736 1.18727284 15.85546875 4.890625 C22.69581028 13.09137059 24.01585719 19.67097248 23.0625 30.3125 C21.8283912 36.41150147 19.68806527 41.81357067 14.390625 45.46484375 C7.79813611 49.42315439 1.64863233 50.17547272 -5.9375 49.3125 C-11.4986565 47.63158547 -15.71295518 45.28724518 -18.9375 40.375 C-19.64017883 39.03916533 -20.31106198 37.68573968 -20.9375 36.3125 C-21.5871875 34.9203125 -21.5871875 34.9203125 -22.25 33.5 C-23.94563922 25.63839996 -23.69419249 17.53589469 -19.9375 10.3125 C-14.40594496 2.39076686 -9.69895299 -0.04502764 0 0 Z " fill="#132165" transform="translate(2380.9375,1335.6875)"/>
<path d="M0 0 C4.95719922 4.52852789 7.73599001 8.94228126 8.1796875 15.76171875 C8.38115728 24.68235298 7.6930682 32.09242459 1.88671875 39.234375 C-3.01371982 43.82029267 -9.06444813 45.20882433 -15.625 45.5 C-21.76940971 45.23134457 -26.2948656 43.59668803 -30.75390625 39.31640625 C-36.3083541 33.09274781 -37.38360093 28.46661406 -37.4375 20.25 C-37.47037109 19.38117188 -37.50324219 18.51234375 -37.53710938 17.6171875 C-37.59038735 11.16570961 -36.09708537 7.00052205 -32 2 C-22.82817864 -6.50071248 -10.29016948 -7.19228688 0 0 Z " fill="#132165" transform="translate(2067,1340)"/>
<path d="M0 0 C5.25025704 2.30847878 8.50287165 6.52976338 11.3828125 11.3828125 C13.80774346 18.65760539 13.68109812 29.47622115 10.7578125 36.6328125 C7.54877234 42.44499013 2.7215752 45.81155827 -3.48046875 47.87890625 C-10.28419712 49.48344183 -16.44444994 48.59315804 -22.6171875 45.3828125 C-28.54606874 41.62025325 -31.02997917 37.21046843 -32.6171875 30.3828125 C-33.68786391 21.07693346 -33.26173958 13.1093715 -27.6171875 5.3828125 C-25.0546875 2.8828125 -25.0546875 2.8828125 -22.6171875 1.3828125 C-22.06675781 1.02960938 -21.51632813 0.67640625 -20.94921875 0.3125 C-14.98694379 -2.06442034 -6.1484462 -1.44993209 0 0 Z " fill="#132165" transform="translate(2160.6171875,1336.6171875)"/>
<path d="M0 0 C6.1875 -0.1546875 6.1875 -0.1546875 12.5 -0.3125 C13.78455078 -0.35802002 15.06910156 -0.40354004 16.39257812 -0.45043945 C23.60870103 -0.53744156 28.47117517 0.17824282 34 5 C39.26783084 10.4434252 39.44097999 17.69938027 39.43603516 24.87597656 C39.26910217 31.08245943 37.85930461 36.01633105 34 41 C23.90964989 49.58753201 13.45368396 47 0 47 C0 31.49 0 15.98 0 0 Z " fill="#D5D6D8" transform="translate(1531,1337)"/>
<path d="M0 0 C9.78605044 9.0882625 16.88168552 23.15810209 17.51977539 36.52246094 C17.72849127 48.01495353 15.29575298 57.40252359 7.9375 66.5 C1.51124765 73.03264725 -5.92433357 76.1718789 -15.0625 76.5625 C-23.19452176 76.18898194 -31.05462383 73.7403632 -37 68 C-35.77472971 63.94718288 -34.30119506 60.55639236 -32 57 C-30.948125 57.33 -29.89625 57.66 -28.8125 58 C-21.50503827 59.77819229 -13.12874504 60.78972602 -6.4375 56.8125 C-2.72516839 54.03216725 0.28894075 51.19243269 1.75 46.6875 C1.8325 45.800625 1.915 44.91375 2 44 C2.2475 42.2365625 2.2475 42.2365625 2.5 40.4375 C2.37634419 31.09265354 -5.83292733 22.37326659 -12 16 C-10.32770299 12.04030824 -7.63695006 8.9838799 -4.875 5.75 C-4.40707031 5.19570312 -3.93914062 4.64140625 -3.45703125 4.0703125 C-2.30824672 2.71052674 -1.15460347 1.35484835 0 0 Z " fill="#D9D9DA" transform="translate(1459,1201)"/>
<path d="M0 0 C5.61 0 11.22 0 17 0 C17 27.39 17 54.78 17 83 C11.39 83 5.78 83 0 83 C0 55.61 0 28.22 0 0 Z " fill="#D3D4D7" transform="translate(2337,1166)"/>
<path d="M0 0 C5.61 0 11.22 0 17 0 C17 27.39 17 54.78 17 83 C11.39 83 5.78 83 0 83 C0 55.61 0 28.22 0 0 Z " fill="#D3D4D7" transform="translate(2052,1166)"/>
<path d="M0 0 C5.28 0 10.56 0 16 0 C16 27.39 16 54.78 16 83 C10.72 83 5.44 83 0 83 C0 55.61 0 28.22 0 0 Z " fill="#DCDCDC" transform="translate(1408,1166)"/>
<path d="M0 0 C3.63 0 7.26 0 11 0 C13.3043513 4.41099198 15.17244964 8.89384988 16.875 13.5625 C17.39523457 14.97287726 17.91607778 16.38303014 18.4375 17.79296875 C18.82615234 18.84556885 18.82615234 18.84556885 19.22265625 19.91943359 C20.80013239 24.14156038 22.46304669 28.33086676 24.1171875 32.5234375 C25 35 25 35 25 37 C25.66 37 26.32 37 27 37 C27.15710449 36.43547119 27.31420898 35.87094238 27.47607422 35.28930664 C29.62184046 27.84315528 32.32098474 20.65763727 35.125 13.4375 C35.58003906 12.25091797 36.03507812 11.06433594 36.50390625 9.84179688 C39.86805556 1.13194444 39.86805556 1.13194444 41 0 C44.63 0 48.26 0 52 0 C52 15.84 52 31.68 52 48 C49.69 48 47.38 48 45 48 C44.67 35.46 44.34 22.92 44 10 C42.02 15.28 40.04 20.56 38 26 C36.56638014 29.81406166 35.13033051 33.62694762 33.6875 37.4375 C33.34138672 38.35853516 32.99527344 39.27957031 32.63867188 40.22851562 C32.14270508 41.5365918 32.14270508 41.5365918 31.63671875 42.87109375 C31.34498779 43.64380615 31.05325684 44.41651855 30.75268555 45.21264648 C30 47 30 47 29 48 C26.66702567 48.04092937 24.33294775 48.04241723 22 48 C20.41369273 44.06369181 18.83151393 40.12573622 17.25 36.1875 C16.8065625 35.08728516 16.363125 33.98707031 15.90625 32.85351562 C15.46796875 31.76103516 15.0296875 30.66855469 14.578125 29.54296875 C14.18012695 28.55321045 13.78212891 27.56345215 13.37207031 26.54370117 C11.50606325 21.7242897 9.76614419 16.85689653 8 12 C7.67 23.88 7.34 35.76 7 48 C4.69 48 2.38 48 0 48 C0 32.16 0 16.32 0 0 Z " fill="#D1D2D6" transform="translate(1963,1336)"/>
<path d="M0 0 C3.96 0 7.92 0 12 0 C12.30292969 0.94359375 12.60585937 1.8871875 12.91796875 2.859375 C16.6095217 14.22418008 21.13723323 25.08923285 26 36 C30.82523279 24.05671944 35.54367429 12.08609549 40 0 C43.96 0 47.92 0 52 0 C52 15.51 52 31.02 52 47 C49.36 47 46.72 47 44 47 C43.505 29.675 43.505 29.675 43 12 C39.51379047 20.89905691 39.51379047 20.89905691 36.0300293 29.79907227 C35.59086182 30.91854248 35.15169434 32.0380127 34.69921875 33.19140625 C34.03152466 34.89598999 34.03152466 34.89598999 33.3503418 36.63500977 C31.95352694 40.11580875 30.49028186 43.55838631 29 47 C26.69 47 24.38 47 22 47 C18.59347354 39.04002611 15.40483644 30.9998598 12.25 22.9375 C11.84918213 21.91390381 11.44836426 20.89030762 11.03540039 19.83569336 C8.13217859 12.39653577 8.13217859 12.39653577 7 9 C6.67 21.54 6.34 34.08 6 47 C4.02 47 2.04 47 0 47 C0 31.49 0 15.98 0 0 Z " fill="#D1D2D6" transform="translate(1410,1337)"/>
<path d="M0 0 C3.96 0 7.92 0 12 0 C15.78352514 8.82822533 19.16514537 17.75382372 22.44921875 26.77734375 C23.57843563 29.87503272 24.74877912 32.94899343 26 36 C29.09163216 31.4330297 30.69010716 26.55609433 32.4375 21.375 C33.05159472 19.58576973 33.66617498 17.79670602 34.28125 16.0078125 C34.57515625 15.14833008 34.8690625 14.28884766 35.171875 13.40332031 C36.71922159 8.91273075 38.36110756 4.45778743 40 0 C43.96 0 47.92 0 52 0 C52 15.51 52 31.02 52 47 C49.69 47 47.38 47 45 47 C44.67 35.12 44.34 23.24 44 11 C39.18656292 22.95060241 34.45693765 34.91224485 30 47 C27.36 47 24.72 47 22 47 C17.38 35.12 12.76 23.24 8 11 C7.67 22.88 7.34 34.76 7 47 C4.69 47 2.38 47 0 47 C0 31.49 0 15.98 0 0 Z " fill="#D5D5D8" transform="translate(2418,1337)"/>
<path d="M0 0 C28.03225806 0 28.03225806 0 34.5625 4.9375 C36.87240168 9.85859487 36.7214375 14.66857691 36 20 C34.76242739 23.30229835 32.95985974 25.31880922 30.0625 27.375 C27.63390436 28.11093807 25.52543176 28.04160514 23 28 C23.39380859 28.5347998 23.78761719 29.06959961 24.19335938 29.62060547 C25.9671546 32.0351711 27.73364666 34.45498576 29.5 36.875 C30.12003906 37.71675781 30.74007812 38.55851562 31.37890625 39.42578125 C32.25869141 40.63427734 32.25869141 40.63427734 33.15625 41.8671875 C33.70087891 42.61081543 34.24550781 43.35444336 34.80664062 44.12060547 C36 46 36 46 36 48 C32.86210906 48.4877374 31.01279965 48.76866741 28 48 C25.27192511 45.39447535 23.44528496 42.27634361 21.5 39.0625 C20.47201165 37.37183088 19.42047252 35.6952137 18.34375 34.03515625 C17.66602539 32.91185913 17.66602539 32.91185913 16.97460938 31.76586914 C14.43648477 29.15903315 14.43648477 29.15903315 7 29 C7 35.27 7 41.54 7 48 C4.69 48 2.38 48 0 48 C0 32.16 0 16.32 0 0 Z " fill="#D3D4D7" transform="translate(2188,1336)"/>
<path d="M0 0 C28.66609589 0 28.66609589 0 34.53515625 5.28125 C36.31276565 8.58049305 36.50293892 10.76561888 36.4375 14.5 C36.43621094 15.6034375 36.43492187 16.706875 36.43359375 17.84375 C35.81592572 22.3399281 34.35020139 24.79137312 30.98828125 27.80078125 C26.42748651 29.63106097 22.04828202 29.31481397 17.1875 29.1875 C16.20845703 29.17396484 15.22941406 29.16042969 14.22070312 29.14648438 C11.81356459 29.11125796 9.40671057 29.05745463 7 29 C7 35.27 7 41.54 7 48 C4.69 48 2.38 48 0 48 C0 32.16 0 16.32 0 0 Z " fill="#D6D7D9" transform="translate(2488,1336)"/>
<path d="M0 0 C1.23556641 0.01740234 1.23556641 0.01740234 2.49609375 0.03515625 C3.32238281 0.04417969 4.14867187 0.05320312 5 0.0625 C5.63808594 0.07410156 6.27617188 0.08570313 6.93359375 0.09765625 C11.09809605 9.25617553 14.68606733 18.60398703 18.18359375 28.03515625 C18.83787354 29.79436401 18.83787354 29.79436401 19.50537109 31.58911133 C21.51661148 37.04947655 23.45829684 42.46693969 24.93359375 48.09765625 C22.29359375 48.09765625 19.65359375 48.09765625 16.93359375 48.09765625 C15.94359375 44.79765625 14.95359375 41.49765625 13.93359375 38.09765625 C6.34359375 38.42765625 -1.24640625 38.75765625 -9.06640625 39.09765625 C-10.05640625 42.06765625 -11.04640625 45.03765625 -12.06640625 48.09765625 C-14.70640625 48.09765625 -17.34640625 48.09765625 -20.06640625 48.09765625 C-19.35317888 43.65502314 -17.86076037 39.5911354 -16.25390625 35.41015625 C-15.98255859 34.69537109 -15.71121094 33.98058594 -15.43164062 33.24414062 C-13.71884104 28.74855027 -11.95234083 24.27698057 -10.140625 19.8203125 C-8.38203709 15.3630915 -6.7321701 10.86433594 -5.08398438 6.36523438 C-2.77710649 0.13124322 -2.77710649 0.13124322 0 0 Z " fill="#D1D2D6" transform="translate(1833.06640625,1335.90234375)"/>
<path d="M0 0 C2.97 0 5.94 0 9 0 C12.77232188 7.57941169 15.59158011 15.35212881 18.32666016 23.35009766 C20.63897524 30.07694749 23.20526986 36.6586392 25.93359375 43.2265625 C27 46 27 46 27 48 C24.36 48 21.72 48 19 48 C18.01 45.03 17.02 42.06 16 39 C8.41 38.67 0.82 38.34 -7 38 C-7.99 41.3 -8.98 44.6 -10 48 C-12.64 48 -15.28 48 -18 48 C-15.8592148 40.28755444 -13.15199277 32.82014866 -10.29370117 25.34985352 C-9.5629661 23.43871902 -8.83872614 21.52521481 -8.11523438 19.61132812 C-5.59768803 12.98164995 -2.96026199 6.44539314 0 0 Z " fill="#D1D2D6" transform="translate(2549,1336)"/>
<path d="M0 0 C1.23556641 0.01740234 1.23556641 0.01740234 2.49609375 0.03515625 C3.32238281 0.04417969 4.14867187 0.05320312 5 0.0625 C5.63808594 0.07410156 6.27617188 0.08570313 6.93359375 0.09765625 C11.00132028 10.11162462 15.01152075 20.1414555 18.74609375 30.28515625 C19.16193726 31.41304565 19.16193726 31.41304565 19.58618164 32.5637207 C21.46637579 37.7101459 23.22583074 42.89162232 24.93359375 48.09765625 C22.29359375 48.09765625 19.65359375 48.09765625 16.93359375 48.09765625 C15.94359375 44.79765625 14.95359375 41.49765625 13.93359375 38.09765625 C6.34359375 38.42765625 -1.24640625 38.75765625 -9.06640625 39.09765625 C-10.38640625 42.06765625 -11.70640625 45.03765625 -13.06640625 48.09765625 C-15.37640625 48.09765625 -17.68640625 48.09765625 -20.06640625 48.09765625 C-19.37509943 44.03027737 -18.15909747 40.33871842 -16.73828125 36.46875 C-16.50739807 35.83840347 -16.27651489 35.20805695 -16.03863525 34.55860901 C-15.54949945 33.22584037 -15.0585567 31.89373367 -14.56591797 30.56225586 C-13.82828809 28.56729139 -13.09727636 26.5700003 -12.3671875 24.57226562 C-3.40628809 0.1609777 -3.40628809 0.1609777 0 0 Z " fill="#D1D2D6" transform="translate(1494.06640625,1335.90234375)"/>
<path d="M0 0 C1.23556641 0.01740234 1.23556641 0.01740234 2.49609375 0.03515625 C3.32238281 0.04417969 4.14867187 0.05320312 5 0.0625 C5.63808594 0.07410156 6.27617188 0.08570313 6.93359375 0.09765625 C11.51678075 11.44040397 16.01900629 22.81315734 20.43359375 34.22265625 C20.87880371 35.36653809 21.32401367 36.51041992 21.78271484 37.68896484 C22.19344238 38.75453613 22.60416992 39.82010742 23.02734375 40.91796875 C23.39537109 41.86945801 23.76339844 42.82094727 24.14257812 43.80126953 C24.93359375 46.09765625 24.93359375 46.09765625 24.93359375 48.09765625 C22.29359375 48.09765625 19.65359375 48.09765625 16.93359375 48.09765625 C15.94359375 44.79765625 14.95359375 41.49765625 13.93359375 38.09765625 C6.34359375 38.42765625 -1.24640625 38.75765625 -9.06640625 39.09765625 C-10.05640625 42.06765625 -11.04640625 45.03765625 -12.06640625 48.09765625 C-14.70640625 48.09765625 -17.34640625 48.09765625 -20.06640625 48.09765625 C-19.36504032 43.78219292 -17.94684851 39.84552098 -16.37890625 35.78515625 C-15.8357888 34.35943164 -15.29282452 32.93364867 -14.75 31.5078125 C-14.33210205 30.41557373 -14.33210205 30.41557373 -13.90576172 29.30126953 C-12.82394213 26.46109977 -11.76310011 23.61333398 -10.70263672 20.76513672 C-3.01662354 0.14256255 -3.01662354 0.14256255 0 0 Z " fill="#D2D3D6" transform="translate(1316.06640625,1335.90234375)"/>
<path d="M0 0 C3.3 0 6.6 0 10 0 C12.10573455 5.40535563 14.20512041 10.81311904 16.29882812 16.22314453 C17.01098276 18.06072321 17.72482494 19.89764886 18.44042969 21.73388672 C19.47261846 24.38336291 20.49858346 27.03517938 21.5234375 29.6875 C21.84122162 30.49928711 22.15900574 31.31107422 22.48641968 32.14746094 C24.37200744 37.04866057 25.82747947 41.879823 27 47 C24.36 47 21.72 47 19 47 C18.01 44.03 17.02 41.06 16 38 C8.41 37.67 0.82 37.34 -7 37 C-7.99 40.3 -8.98 43.6 -10 47 C-12.64 47 -15.28 47 -18 47 C-15.76037739 39.943312 -13.26565486 33.09338592 -10.359375 26.28515625 C-8.50258442 21.79791235 -6.81691587 17.25247703 -5.14306641 12.69433594 C-3.55786031 8.39984878 -1.83412023 4.19460042 0 0 Z " fill="#D3D4D7" transform="translate(1617,1337)"/>
<path d="M0 0 C2.31 0 4.62 0 7 0 C7 15.84 7 31.68 7 48 C-1 48 -1 48 -2.81933594 46.70922852 C-3.20379883 46.10522217 -3.58826172 45.50121582 -3.984375 44.87890625 C-4.4390918 44.19820068 -4.89380859 43.51749512 -5.36230469 42.81616211 C-5.82024414 42.07245361 -6.27818359 41.32874512 -6.75 40.5625 C-7.77000237 39.01247369 -8.79086283 37.46301178 -9.8125 35.9140625 C-10.33070313 35.1087207 -10.84890625 34.30337891 -11.3828125 33.47363281 C-14.05825492 29.38130452 -16.91209566 25.41792709 -19.75 21.4375 C-21.4825 18.983125 -23.215 16.52875 -25 14 C-25.33 25.22 -25.66 36.44 -26 48 C-28.31 48 -30.62 48 -33 48 C-33 32.49 -33 16.98 -33 1 C-25 1 -25 1 -23.18066406 2.19897461 C-22.79620117 2.76108643 -22.41173828 3.32319824 -22.015625 3.90234375 C-21.5609082 4.53785156 -21.10619141 5.17335938 -20.63769531 5.828125 C-20.17975586 6.52421875 -19.72181641 7.2203125 -19.25 7.9375 C-18.75338867 8.64519531 -18.25677734 9.35289063 -17.74511719 10.08203125 C-16.69129636 11.58843344 -15.64892122 13.10289698 -14.6171875 14.62451172 C-12.46480119 17.78615405 -10.24236917 20.89573184 -8.01953125 24.00805664 C-5.66286999 27.32682616 -3.334216 30.66540571 -1 34 C-0.67 22.78 -0.34 11.56 0 0 Z " fill="#D2D3D7" transform="translate(2621,1336)"/>
<path d="M0 0 C0.69029297 -0.01611328 1.38058594 -0.03222656 2.09179688 -0.04882812 C7.67808544 -0.05412319 11.64794736 1.18727284 15.85546875 4.890625 C22.69581028 13.09137059 24.01585719 19.67097248 23.0625 30.3125 C21.8283912 36.41150147 19.68806527 41.81357067 14.390625 45.46484375 C7.79813611 49.42315439 1.64863233 50.17547272 -5.9375 49.3125 C-11.4986565 47.63158547 -15.71295518 45.28724518 -18.9375 40.375 C-19.64017883 39.03916533 -20.31106198 37.68573968 -20.9375 36.3125 C-21.5871875 34.9203125 -21.5871875 34.9203125 -22.25 33.5 C-23.94563922 25.63839996 -23.69419249 17.53589469 -19.9375 10.3125 C-14.40594496 2.39076686 -9.69895299 -0.04502764 0 0 Z M-12.9375 12.3125 C-16.64598311 17.84379684 -15.5600085 25.96165574 -14.9375 32.3125 C-13.50900949 36.33048526 -11.72702919 39.15046806 -8.1328125 41.484375 C-2.44963025 43.62820887 4.15809643 43.14776472 9.625 40.75 C14.887567 35.487433 15.27796892 31.06790275 15.5 23.8125 C15.36712269 17.70014383 15.01252728 14.00982974 11.0625 9.3125 C6.37948999 5.94683757 2.66046072 5.69213516 -2.984375 5.82421875 C-7.51893281 6.57398029 -10.18094902 8.71412807 -12.9375 12.3125 Z " fill="#D3D3D7" transform="translate(2380.9375,1335.6875)"/>
<path d="M0 0 C4.95719922 4.52852789 7.73599001 8.94228126 8.1796875 15.76171875 C8.38115728 24.68235298 7.6930682 32.09242459 1.88671875 39.234375 C-3.01371982 43.82029267 -9.06444813 45.20882433 -15.625 45.5 C-21.76940971 45.23134457 -26.2948656 43.59668803 -30.75390625 39.31640625 C-36.3083541 33.09274781 -37.38360093 28.46661406 -37.4375 20.25 C-37.47037109 19.38117188 -37.50324219 18.51234375 -37.53710938 17.6171875 C-37.59038735 11.16570961 -36.09708537 7.00052205 -32 2 C-22.82817864 -6.50071248 -10.29016948 -7.19228688 0 0 Z M-26.75 6.875 C-31.25927571 13.13788293 -30.61365229 20.51685129 -30 28 C-28.83072128 31.85099406 -27.02402861 34.25749128 -23.7265625 36.6484375 C-18.98402807 38.99932133 -14.1674691 38.63017916 -9 38 C-4.40525751 35.82354303 -2.18477523 33.53761009 0 29 C0.29001915 26.27609466 0.42063896 23.83798261 0.375 21.125 C0.38660156 20.44308594 0.39820312 19.76117187 0.41015625 19.05859375 C0.38136824 14.02069286 -0.67035116 10.47581699 -3 6 C-6.55088606 2.62232789 -9.2880311 1.7457827 -14.0625 1.625 C-19.78864094 1.89930615 -22.69115102 2.63165788 -26.75 6.875 Z " fill="#D4D4D7" transform="translate(2067,1340)"/>
<path d="M0 0 C5.25025704 2.30847878 8.50287165 6.52976338 11.3828125 11.3828125 C13.80774346 18.65760539 13.68109812 29.47622115 10.7578125 36.6328125 C7.54877234 42.44499013 2.7215752 45.81155827 -3.48046875 47.87890625 C-10.28419712 49.48344183 -16.44444994 48.59315804 -22.6171875 45.3828125 C-28.54606874 41.62025325 -31.02997917 37.21046843 -32.6171875 30.3828125 C-33.68786391 21.07693346 -33.26173958 13.1093715 -27.6171875 5.3828125 C-25.0546875 2.8828125 -25.0546875 2.8828125 -22.6171875 1.3828125 C-22.06675781 1.02960938 -21.51632813 0.67640625 -20.94921875 0.3125 C-14.98694379 -2.06442034 -6.1484462 -1.44993209 0 0 Z M-23.4296875 11.7578125 C-26.44430327 18.42169999 -26.57239646 26.19878264 -24.4921875 33.1328125 C-22.36286634 36.82363584 -20.55922539 39.65721226 -16.6171875 41.3828125 C-10.18525381 42.29792502 -4.99252322 42.29635297 0.3828125 38.3828125 C5.72554992 31.40757199 6.18499198 25.00341731 5.3828125 16.3828125 C4.13465329 12.36730601 1.86198655 9.83861221 -1.1796875 6.9453125 C-9.49319513 3.16644539 -17.75379849 4.3204407 -23.4296875 11.7578125 Z " fill="#D5D6D8" transform="translate(2160.6171875,1336.6171875)"/>
<path d="M0 0 C1.06577271 0.01135986 1.06577271 0.01135986 2.15307617 0.02294922 C7.9581667 0.20541966 11.54289703 0.97681543 16.1875 4.4375 C18.3378415 7.73021042 19.1875 9.51536785 19.1875 13.4375 C16.8775 13.7675 14.5675 14.0975 12.1875 14.4375 C11.73375 13.468125 11.28 12.49875 10.8125 11.5 C9.52963779 8.36670418 9.52963779 8.36670418 7.1875 7.4375 C5.0451785 7.28916349 2.89725871 7.21622587 0.75 7.1875 C-0.98056641 7.14882812 -0.98056641 7.14882812 -2.74609375 7.109375 C-5.76963911 7.19121098 -5.76963911 7.19121098 -7.73046875 8.73046875 C-9.14238577 10.60266006 -9.14238577 10.60266006 -8.6875 14 C-8.15616067 17.69192394 -8.15616067 17.69192394 -4.8125 19.4375 C-2.40702501 19.9513456 0.01227479 20.4018543 2.4375 20.8125 C8.05499948 21.85533768 12.64895709 22.84888468 17.1875 26.4375 C19.87229849 30.52306292 19.98173891 35.69714778 19.1875 40.4375 C16.48518334 44.99765937 13.52670547 47.39646066 8.55859375 48.96484375 C1.1896815 50.43377024 -5.56938867 50.32234313 -12.19140625 46.60546875 C-15.62804248 44.12943446 -16.6937191 43.07459757 -17.5 38.75 C-17.603125 37.656875 -17.70625 36.56375 -17.8125 35.4375 C-14.5 35.125 -14.5 35.125 -10.8125 35.4375 C-9.125 37.8125 -9.125 37.8125 -7.8125 40.4375 C-3.45462322 43.24036348 1.18227771 43.08437849 6.1875 42.4375 C9.39618551 41.04058883 9.39618551 41.04058883 11.1875 38.4375 C12.02099951 35.39409873 12.02099951 35.39409873 11.1875 32.4375 C6.69738903 28.99680194 1.47927738 28.17718299 -3.9296875 27.06445312 C-8.48990039 26.03625418 -11.44753527 24.6951394 -14.8125 21.4375 C-17.06309535 17.47216534 -17.28654865 13.94096218 -16.8125 9.4375 C-12.91291488 1.92718791 -8.22663786 -0.12116381 0 0 Z " fill="#D4D4D7" transform="translate(2252.8125,1335.5625)"/>
<path d="M0 0 C2.31 0 4.62 0 7 0 C7 6.93 7 13.86 7 21 C15.25 21 23.5 21 32 21 C32 14.4 32 7.8 32 1 C34.31 1 36.62 1 39 1 C39 16.51 39 32.02 39 48 C36.69 48 34.38 48 32 48 C32 41.07 32 34.14 32 27 C23.75 27 15.5 27 7 27 C7 33.93 7 40.86 7 48 C4.69 48 2.38 48 0 48 C0 32.16 0 16.32 0 0 Z " fill="#DBDBDB" transform="translate(1353,1336)"/>
<path d="M0 0 C3.62313506 2.77852623 5.49520903 5.77287487 7.3125 9.9375 C7.3125 11.2575 7.3125 12.5775 7.3125 13.9375 C5.0025 13.9375 2.6925 13.9375 0.3125 13.9375 C-0.244375 12.82375 -0.80125 11.71 -1.375 10.5625 C-2.74755141 8.21159014 -3.5279567 7.04542635 -5.8125 5.5 C-11.20344317 4.44525025 -16.43937594 4.07651632 -21.625 6.0625 C-25.19732727 9.31007024 -26.54590887 12.76650313 -27.12109375 17.5234375 C-27.12890248 25.09790884 -27.03332595 30.60501075 -22.6875 36.9375 C-19.26420149 39.21969901 -17.84612332 39.23491163 -13.8125 39.25 C-12.78382813 39.26675781 -11.75515625 39.28351563 -10.6953125 39.30078125 C-7.26478987 38.8864454 -5.43454256 38.00620105 -2.6875 35.9375 C-0.86120206 32.87069201 -0.86120206 32.87069201 0.3125 29.9375 C2.6225 29.9375 4.9325 29.9375 7.3125 29.9375 C7.08820339 35.43276683 5.84240001 38.42587145 2.03125 42.42578125 C-3.26870203 47.08732997 -8.77387102 47.54489469 -15.6171875 47.34765625 C-21.35914848 46.58060039 -26.25027128 44.403402 -30.34765625 40.2578125 C-35.98085695 32.86731595 -36.35749621 24.93922326 -35.6875 15.9375 C-34.65689743 9.70703899 -32.16277297 5.74878314 -27.69921875 1.34765625 C-20.43830249 -3.74203457 -7.69894306 -4.40768115 0 0 Z " fill="#D3D3D7" transform="translate(2339.6875,1338.0625)"/>
<path d="M0 0 C16 0 16 0 22 4 C24.81058907 8.11461711 24.40445666 12.55801513 24.4375 17.375 C24.47037109 18.21289062 24.50324219 19.05078125 24.53710938 19.9140625 C24.57450527 24.23838805 24.38269976 27.11021437 21.59765625 30.5390625 C14.62900103 37.14094639 13.68207964 34 0 34 C0 22.78 0 11.56 0 0 Z " fill="#122064" transform="translate(1538,1343)"/>
<path d="M0 0 C1.74796875 -0.00193359 1.74796875 -0.00193359 3.53125 -0.00390625 C4.7584375 -0.00003906 5.985625 0.00382812 7.25 0.0078125 C9.09078125 0.00201172 9.09078125 0.00201172 10.96875 -0.00390625 C12.71671875 -0.00197266 12.71671875 -0.00197266 14.5 0 C15.57765625 0.00112793 16.6553125 0.00225586 17.765625 0.00341797 C20.25 0.1328125 20.25 0.1328125 21.25 1.1328125 C21.54347542 5.81318817 21.56430979 10.4966086 21.60009766 15.18530273 C21.61653256 16.75934767 21.64365471 18.33332194 21.68212891 19.90698242 C22.10587935 37.33786468 22.10587935 37.33786468 16.25 45.1328125 C10.74573203 49.56307696 4.07717855 49.8401328 -2.75 49.1328125 C-6.70817099 48.07234689 -9.63921532 46.60758311 -12.1328125 43.296875 C-14.37245146 39.20914236 -15.22172648 35.85007727 -14.75 31.1328125 C-12.77 31.1328125 -10.79 31.1328125 -8.75 31.1328125 C-8.47736328 32.08994141 -8.47736328 32.08994141 -8.19921875 33.06640625 C-7.94785156 33.89269531 -7.69648437 34.71898437 -7.4375 35.5703125 C-7.19386719 36.39402344 -6.95023438 37.21773437 -6.69921875 38.06640625 C-6.38597656 38.74832031 -6.07273437 39.43023438 -5.75 40.1328125 C-2.73439146 41.13801535 -0.4734098 41.36382364 2.6875 41.4453125 C3.63496094 41.48269531 4.58242187 41.52007813 5.55859375 41.55859375 C9.11186944 40.9964645 10.05599458 39.95817814 12.25 37.1328125 C12.89143328 33.85165174 12.89143328 33.85165174 12.859375 30.1796875 C12.87591125 29.51946594 12.89244751 28.85924438 12.90948486 28.17901611 C12.95788451 26.08018624 12.97931519 23.98208028 13 21.8828125 C13.02816683 20.4556929 13.05809528 19.02860691 13.08984375 17.6015625 C13.16694649 14.11164903 13.20752807 10.62400481 13.25 7.1328125 C6.65 7.1328125 0.05 7.1328125 -6.75 7.1328125 C-6.75 0.00706489 -6.75 0.00706489 0 0 Z " fill="#CCCDD3" transform="translate(1904.75,1335.8671875)"/>
<path d="M0 0 C5.259375 -0.020625 10.51875 -0.04125 15.9375 -0.0625 C17.599021 -0.071604 19.26054199 -0.08070801 20.97241211 -0.09008789 C22.26928955 -0.09258545 23.56616699 -0.09508301 24.90234375 -0.09765625 C25.93107605 -0.1053302 25.93107605 -0.1053302 26.98059082 -0.11315918 C28.65415231 -0.11347054 30.3275958 -0.06222837 32 0 C33 1 33 1 33 7 C24.42 7 15.84 7 7 7 C7 11.95 7 16.9 7 22 C13.93 22 20.86 22 28 22 C28 23.98 28 25.96 28 28 C21.07 28 14.14 28 7 28 C7 34.6 7 41.2 7 48 C4.69 48 2.38 48 0 48 C0 32.16 0 16.32 0 0 Z " fill="#D4D5D7" transform="translate(1733,1336)"/>
<path d="M0 0 C4.97978107 -0.85876919 4.97978107 -0.85876919 8 0 C10.77321255 2.94084128 12.51123898 6.37214937 14.375 9.9375 C15.39986816 11.80286177 16.42833265 13.66625361 17.4609375 15.52734375 C17.90228027 16.35999756 18.34362305 17.19265137 18.79833984 18.05053711 C19.85417193 20.14655834 19.85417193 20.14655834 22 21 C22.35827881 20.39937744 22.71655762 19.79875488 23.08569336 19.17993164 C24.7014398 16.47320887 26.31943878 13.76783959 27.9375 11.0625 C28.50146484 10.11697266 29.06542969 9.17144531 29.64648438 8.19726562 C30.18466797 7.29814453 30.72285156 6.39902344 31.27734375 5.47265625 C31.77484131 4.64000244 32.27233887 3.80734863 32.78491211 2.94946289 C34 1 34 1 35 0 C37.33297433 -0.04092937 39.66705225 -0.04241723 42 0 C40.6644587 3.67386139 39.01095625 6.65039872 36.77734375 9.8515625 C28.35305633 22.40276737 23.75443071 31.7506731 25 47 C22.36 47 19.72 47 17 47 C17.1134375 45.93007812 17.226875 44.86015625 17.34375 43.7578125 C18.16612925 27.78447216 10.18654611 16.91200663 1.45288086 4.31225586 C0 2 0 2 0 0 Z " fill="#D1D2D6" transform="translate(2639,1337)"/>
<path d="M0 0 C12.21 0 24.42 0 37 0 C37 2.31 37 4.62 37 7 C32.05 7 27.1 7 22 7 C22 20.53 22 34.06 22 48 C19.69 48 17.38 48 15 48 C15 34.47 15 20.94 15 7 C10.05 7 5.1 7 0 7 C0 4.69 0 2.38 0 0 Z " fill="#D2D3D6" transform="translate(2083,1336)"/>
<path d="M0 0 C3 0.125 3 0.125 4 1.125 C4.08868299 4.08205321 4.11520296 7.01565056 4.09765625 9.97265625 C4.0962413 10.8590831 4.09482635 11.74550995 4.09336853 12.65879822 C4.08775215 15.50173254 4.07519691 18.34458931 4.0625 21.1875 C4.05748711 23.11002491 4.05292384 25.03255104 4.04882812 26.95507812 C4.03862648 31.67843964 4.01905437 36.40163258 4 41.125 C11.26 41.125 18.52 41.125 26 41.125 C26 43.435 26 45.745 26 48.125 C16.1 48.125 6.2 48.125 -4 48.125 C-4.02290404 41.44974596 -4.04283264 34.7746272 -4.05493164 28.09936523 C-4.05997325 25.82657409 -4.06680637 23.5537862 -4.07543945 21.28100586 C-4.08751261 18.02196449 -4.09322987 14.76296583 -4.09765625 11.50390625 C-4.10281754 10.48099991 -4.10797882 9.45809357 -4.11329651 8.40419006 C-4.11337204 7.46329025 -4.11344757 6.52239044 -4.11352539 5.55297852 C-4.115746 4.72024918 -4.11796661 3.88751984 -4.12025452 3.02955627 C-3.91803105 -0.17320056 -3.26255537 0.13593981 0 0 Z " fill="#C3C5CE" transform="translate(1660,1335.875)"/>
<path d="M0 0 C4.29378813 1.92287034 6.77153701 4.62478869 10 8 C12.99220268 6.63629701 15.29026529 5.05091917 17.75 2.875 C18.8225 1.92625 19.895 0.9775 21 0 C24.3 3.3 27.6 6.6 31 10 C29.29638905 13.4072219 27.86767864 15.48035706 25.375 18.25 C24.74335938 18.95640625 24.11171875 19.6628125 23.4609375 20.390625 C22.97882812 20.92171875 22.49671875 21.4528125 22 22 C17.70621187 20.07712966 15.22846299 17.37521131 12 14 C9.00779732 15.36370299 6.70973471 16.94908083 4.25 19.125 C3.1775 20.07375 2.105 21.0225 1 22 C-2.3 18.7 -5.6 15.4 -9 12 C-7.29638905 8.5927781 -5.86767864 6.51964294 -3.375 3.75 C-2.74335938 3.04359375 -2.11171875 2.3371875 -1.4609375 1.609375 C-0.97882812 1.07828125 -0.49671875 0.5471875 0 0 Z " fill="#D6D7D9" transform="translate(2625,1181)"/>
<path d="M0 0 C3.21524305 1.40844718 5.32183868 3.10344786 7.75 5.625 C8.67039062 6.57246094 8.67039062 6.57246094 9.609375 7.5390625 C10.06828125 8.02117187 10.5271875 8.50328125 11 9 C14.54528493 6.16377205 17.29460311 3.6522858 20 0 C20.66 0 21.32 0 22 0 C23.65625 1.6796875 23.65625 1.6796875 25.5 3.875 C27.28933258 5.99035504 29.04019124 8.04019124 31 10 C30.74923045 13.85052606 28.63388355 15.68201567 25.9375 18.25 C24.83728516 19.30960938 24.83728516 19.30960938 23.71484375 20.390625 C23.14894531 20.92171875 22.58304688 21.4528125 22 22 C18.23309364 20.26142784 15.78767463 18.09741625 13 15 C13 14.34 13 13.68 13 13 C8.49115974 15.31883213 6.06093224 18.06451569 3 22 C-0.45201639 20.52278578 -2.64961936 18.56205999 -5.25 15.875 C-5.95640625 15.15054687 -6.6628125 14.42609375 -7.390625 13.6796875 C-7.92171875 13.12539062 -8.4528125 12.57109375 -9 12 C-7.55575365 8.76138697 -5.74227753 6.38030837 -3.375 3.75 C-2.74335937 3.04359375 -2.11171875 2.3371875 -1.4609375 1.609375 C-0.97882813 1.07828125 -0.49671875 0.5471875 0 0 Z " fill="#D6D6D9" transform="translate(1870,1256)"/>
<path d="M0 0 C3.80635497 3.20760251 7.54563567 6.40746109 11 10 C9.54718935 15.32697239 5.91888622 18.36402802 2 22 C-2.29378813 20.07712966 -4.77153701 17.37521131 -8 14 C-12.29238623 15.65091778 -14.8793915 18.73754566 -18 22 C-21.44428265 20.55218207 -23.36130962 18.72305391 -25.75 15.875 C-26.36359375 15.15054687 -26.9771875 14.42609375 -27.609375 13.6796875 C-28.06828125 13.12539062 -28.5271875 12.57109375 -29 12 C-27.63629701 9.00779732 -26.05091917 6.70973471 -23.875 4.25 C-23.33617188 3.63640625 -22.79734375 3.0228125 -22.2421875 2.390625 C-21.62730469 1.70226563 -21.62730469 1.70226563 -21 1 C-17.37679679 1.56662429 -15.82534347 2.89087001 -13.375 5.5625 C-12.28681232 6.74334995 -11.16806798 7.89810336 -10 9 C-9.34 9 -8.68 9 -8 9 C-6.22708821 7.24751481 -6.22708821 7.24751481 -4.4375 5.0625 C-3.81746094 4.33160156 -3.19742188 3.60070313 -2.55859375 2.84765625 C-2.04425781 2.23792969 -1.52992188 1.62820313 -1 1 C-0.67 0.67 -0.34 0.34 0 0 Z " fill="#D7D8D9" transform="translate(2435,1161)"/>
<path d="M0 0 C1.85999285 1.9675587 3.53390198 4.05555598 5.24609375 6.15234375 C6.96005081 8.24798169 6.96005081 8.24798169 10 9 C10.47050781 8.4225 10.94101563 7.845 11.42578125 7.25 C12.04839844 6.5075 12.67101563 5.765 13.3125 5 C14.23482422 3.88625 14.23482422 3.88625 15.17578125 2.75 C17 1 17 1 20 1 C22.26171875 2.96875 22.26171875 2.96875 24.6875 5.5 C25.89986328 6.75296875 25.89986328 6.75296875 27.13671875 8.03125 C27.75160156 8.6809375 28.36648438 9.330625 29 10 C27.71031076 13.77136398 26.2674833 16.08071021 23.375 18.8125 C22.74335937 19.41707031 22.11171875 20.02164062 21.4609375 20.64453125 C20.97882813 21.09183594 20.49671875 21.53914063 20 22 C15.70621187 20.07712966 13.22846299 17.37521131 10 14 C7.00779732 15.36370299 4.70973471 16.94908083 2.25 19.125 C1.1775 20.07375 0.105 21.0225 -1 22 C-4.3 18.7 -7.6 15.4 -11 12 C-9.32854411 8.65708821 -7.9095707 6.50671224 -5.5 3.75 C-4.8915625 3.04359375 -4.283125 2.3371875 -3.65625 1.609375 C-2 0 -2 0 0 0 Z " fill="#D8D8DA" transform="translate(1532,1256)"/>
<path d="M0 0 C3.45281166 1.15093722 4.38082163 2.3205993 6.6875 5.0625 C7.31011719 5.79597656 7.93273438 6.52945312 8.57421875 7.28515625 C9.27998047 8.13400391 9.27998047 8.13400391 10 9 C12.96184809 7.69628054 14.75770306 6.42071276 16.75 3.875 C17.4925 2.92625 18.235 1.9775 19 1 C23.10447392 1.51776621 24.95699523 3.64627444 27.75 6.5625 C28.54921875 7.38878906 29.3484375 8.21507812 30.171875 9.06640625 C30.77515625 9.70449219 31.3784375 10.34257813 32 11 C28.79239749 14.80635497 25.59253891 18.54563567 22 22 C17.70761377 20.34908222 15.1206085 17.26245434 12 14 C7.7257442 15.5830577 5.73468206 18.50568404 3 22 C-0.45201639 20.52278578 -2.64961936 18.56205999 -5.25 15.875 C-5.95640625 15.15054687 -6.6628125 14.42609375 -7.390625 13.6796875 C-7.92171875 13.12539062 -8.4528125 12.57109375 -9 12 C-7.55575365 8.76138697 -5.74227753 6.38030837 -3.375 3.75 C-2.74335937 3.04359375 -2.11171875 2.3371875 -1.4609375 1.609375 C-0.97882813 1.07828125 -0.49671875 0.5471875 0 0 Z " fill="#D7D8D9" transform="translate(1335,1175)"/>
<path d="M0 0 C2.31 0 4.62 0 7 0 C7 13.53 7 27.06 7 41 C14.59 41 22.18 41 30 41 C30 42.98 30 44.96 30 47 C20.1 47 10.2 47 0 47 C0 31.49 0 15.98 0 0 Z " fill="#D3D4D7" transform="translate(1777,1337)"/>
<path d="M0 0 C7.09405909 -0.16122862 13.24837083 -0.25054306 20 2 C22.50063147 4.50063147 22.32420142 5.47811698 22.375 8.9375 C22.40335938 9.81277344 22.43171875 10.68804688 22.4609375 11.58984375 C22 14 22 14 20.2265625 15.75390625 C14.01528188 19.230044 6.9191374 18.06406609 0 18 C0 12.06 0 6.12 0 0 Z " fill="#1B296A" transform="translate(2495,1342)"/>
<path d="M0 0 C3.10468645 -0.08083562 6.20727569 -0.14041718 9.3125 -0.1875 C10.19357422 -0.21263672 11.07464844 -0.23777344 11.98242188 -0.26367188 C13.25375977 -0.27817383 13.25375977 -0.27817383 14.55078125 -0.29296875 C15.72120972 -0.31653442 15.72120972 -0.31653442 16.9152832 -0.34057617 C19.53659229 0.08766205 20.39270582 0.9263553 22 3 C22.46875 5.12109375 22.46875 5.12109375 22.5 7.4375 C22.5309375 8.19933594 22.561875 8.96117187 22.59375 9.74609375 C22 12 22 12 20.01953125 14.26953125 C15.94470266 16.60478231 12.78790646 16.45052065 8.1875 16.25 C7.00510742 16.22292969 7.00510742 16.22292969 5.79882812 16.1953125 C3.86535739 16.14844048 1.93251715 16.0767041 0 16 C0 10.72 0 5.44 0 0 Z " fill="#152366" transform="translate(2195,1343)"/>
<path d="M0 0 C2.31 0 4.62 0 7 0 C7 15.51 7 31.02 7 47 C4.69 47 2.38 47 0 47 C0 31.49 0 15.98 0 0 Z " fill="#DBDCDC" transform="translate(1870,1337)"/>
<path d="M0 0 C3.28087226 1.07130523 4.34215422 2.02070984 6.05078125 4.9765625 C12.0625 17 12.0625 17 12.0625 20 C2.71982449 20.72957987 -4.69240078 18.25677215 -12.9375 14 C-10.94907645 8.03472935 -7.04096418 0 0 0 Z " fill="#182568" transform="translate(2211.9375,1217)"/>
<path d="M0 0 C3.96287721 0.38104589 5.4323945 1.57539752 8.25 4.3125 C9.90013326 7.61276651 10.03861657 10.77604756 9.25 14.3125 C7.22072135 17.30568601 4.85536427 19.81347713 2.25 22.3125 C-2.67389294 21.35915052 -5.28301518 18.47804902 -8.0625 14.375 C-9.04306759 11.43329723 -9.19067365 9.39721557 -8.75 6.3125 C-6.3125 3.5 -6.3125 3.5 -3.75 1.3125 C-2.75 0.3125 -2.75 0.3125 0 0 Z " fill="#182568" transform="translate(1975.75,1211.6875)"/>
<path d="M0 0 C3.80635497 3.20760251 7.54563567 6.40746109 11 10 C9.54718935 15.32697239 5.91888622 18.36402802 2 22 C-1.45201639 20.52278578 -3.64961936 18.56205999 -6.25 15.875 C-6.95640625 15.15054687 -7.6628125 14.42609375 -8.390625 13.6796875 C-8.92171875 13.12539062 -9.4528125 12.57109375 -10 12 C-7.49653351 7.14032976 -3.91447559 3.72143296 0 0 Z " fill="#D5D5D8" transform="translate(2635,1163)"/>
<path d="M0 0 C2.188364 2.188364 2.71634548 3.5772348 3.7265625 6.46484375 C4.0359375 7.34720703 4.3453125 8.22957031 4.6640625 9.13867188 C4.98117187 10.06228516 5.29828125 10.98589844 5.625 11.9375 C5.94984375 12.85724609 6.2746875 13.77699219 6.609375 14.72460938 C9 21.61021205 9 21.61021205 9 25 C3.06 25 -2.88 25 -9 25 C-2.53191489 2.53191489 -2.53191489 2.53191489 0 0 Z " fill="#1E2B6B" transform="translate(1318,1343)"/>
<path d="M0 0 C2.188364 2.188364 2.71634548 3.5772348 3.7265625 6.46484375 C4.0359375 7.34720703 4.3453125 8.22957031 4.6640625 9.13867188 C4.98117187 10.06228516 5.29828125 10.98589844 5.625 11.9375 C5.94984375 12.85724609 6.2746875 13.77699219 6.609375 14.72460938 C9 21.61021205 9 21.61021205 9 25 C3.06 25 -2.88 25 -9 25 C-2.53191489 2.53191489 -2.53191489 2.53191489 0 0 Z " fill="#1E2B6B" transform="translate(1835,1343)"/>
<path d="M0 0 C3.45201639 1.47721422 5.64961936 3.43794001 8.25 6.125 C8.95640625 6.84945313 9.6628125 7.57390625 10.390625 8.3203125 C11.18726563 9.15175781 11.18726563 9.15175781 12 10 C11.60167969 10.45890625 11.20335937 10.9178125 10.79296875 11.390625 C8.08857938 14.52271585 5.42008229 17.63877459 3 21 C-0.77235429 20.42946335 -2.62716051 18.83356579 -5.3125 16.1875 C-6.03050781 15.50042969 -6.74851562 14.81335937 -7.48828125 14.10546875 C-9 12 -9 12 -8.984375 10.00390625 C-7.7014908 7.39232055 -6.04119704 5.75352099 -3.9375 3.75 C-3.20402344 3.04359375 -2.47054688 2.3371875 -1.71484375 1.609375 C-1.14894531 1.07828125 -0.58304688 0.5471875 0 0 Z " fill="#D7D7D9" transform="translate(1975,1165)"/>
<path d="M0 0 C2.80190757 1.40095379 2.89676973 2.92135635 3.9453125 5.83984375 C4.29980469 6.82017578 4.65429688 7.80050781 5.01953125 8.81054688 C5.38433594 9.84244141 5.74914063 10.87433594 6.125 11.9375 C6.49753906 12.96552734 6.87007812 13.99355469 7.25390625 15.05273438 C10 22.71262592 10 22.71262592 10 25 C4.06 25 -1.88 25 -8 25 C-6.43889635 16.25781959 -3.21518143 8.24016625 0 0 Z " fill="#1E2B6B" transform="translate(1621,1343)"/>
<path d="M0 0 C2.188364 2.188364 2.71634548 3.5772348 3.7265625 6.46484375 C4.0359375 7.34720703 4.3453125 8.22957031 4.6640625 9.13867188 C4.98117188 10.06228516 5.29828125 10.98589844 5.625 11.9375 C5.94984375 12.85724609 6.2746875 13.77699219 6.609375 14.72460938 C9 21.61021205 9 21.61021205 9 25 C3.39 25 -2.22 25 -8 25 C-6.875 17.125 -6.875 17.125 -5.37109375 13.37890625 C-5.05849609 12.58935547 -4.74589844 11.79980469 -4.42382812 10.98632812 C-3.9355957 9.7865332 -3.9355957 9.7865332 -3.4375 8.5625 C-3.10814453 7.73556641 -2.77878906 6.90863281 -2.43945312 6.05664062 C-1.63314164 4.03501907 -0.81751877 2.01711551 0 0 Z " fill="#1C296A" transform="translate(2553,1343)"/>
<path d="M0 0 C1.75972078 2.63958118 2.69589746 4.64748769 3.7265625 7.59765625 C4.0359375 8.48130859 4.3453125 9.36496094 4.6640625 10.27539062 C4.98117187 11.19513672 5.29828125 12.11488281 5.625 13.0625 C5.94984375 13.98611328 6.2746875 14.90972656 6.609375 15.86132812 C9 22.73688616 9 22.73688616 9 25 C3.06 25 -2.88 25 -9 25 C-2.53191489 2.53191489 -2.53191489 2.53191489 0 0 Z " fill="#1B286A" transform="translate(1496,1343)"/>
<path d="M0 0 C0 4.95 0 9.9 0 15 C-3.91270463 16.95635231 -8.7241978 16.3696659 -13 16 C-16.1875 14.5 -16.1875 14.5 -18 13 C-17.68407506 9.89867022 -17.45035826 8.41220808 -15.109375 6.26953125 C-14.33078125 5.78871094 -13.5521875 5.30789063 -12.75 4.8125 C-11.98171875 4.32394531 -11.2134375 3.83539062 -10.421875 3.33203125 C-6.87783855 1.3828112 -4.08030857 0 0 0 Z " fill="#202D6D" transform="translate(2432,1215)"/>
<path d="M0 0 C4.29238623 1.65091778 6.8793915 4.73754566 10 8 C8.34908222 12.29238623 5.26245434 14.8793915 2 18 C-2.3124594 16.40279281 -4.42143673 13.68366181 -7 10 C-6.7090608 6.62775018 -5.35666036 5.01474587 -2.9375 2.75 C-2.38964844 2.22921875 -1.84179688 1.7084375 -1.27734375 1.171875 C-0.64505859 0.59179688 -0.64505859 0.59179688 0 0 Z " fill="#D7D7D9" transform="translate(1823,1254)"/>
<path d="M0 0 C6.93 0 13.86 0 21 0 C21 1.98 21 3.96 21 6 C14.07 6 7.14 6 0 6 C0 4.02 0 2.04 0 0 Z " fill="#D4D5D8" transform="translate(1696,1357)"/>
</svg>
