<svg width="64" height="64" viewBox="0 0 64 64" fill="none" xmlns="http://www.w3.org/2000/svg">
<circle cx="32" cy="32" r="32" fill="#181B71"/>
<path d="M27.9729 15.9793C29.5871 14.3754 31.1601 13.5245 32.5267 13.5245C32.5422 13.5245 32.5525 13.5245 32.568 13.5245C33.9347 13.54 35.4973 14.4167 37.0806 16.067C38.8083 17.8617 40.5257 20.5435 42.0522 23.8235C45.4302 31.1056 47.6994 40.8373 48.4524 51.286C48.4678 51.5077 48.4782 51.7243 48.4936 51.9461H51.0001C50.9846 51.7243 50.9691 51.5026 50.9588 51.2808C50.1955 40.4712 47.8438 30.3629 44.3214 22.7766C42.6608 19.2026 40.8351 16.361 38.8857 14.3393C37.8903 13.3079 36.8743 12.5034 35.8583 11.9515C34.765 11.3584 33.6717 11.049 32.6041 11.0387C31.5365 11.0284 30.4277 11.312 29.3189 11.8845C28.2875 12.4157 27.2457 13.1996 26.2246 14.2207C24.2184 16.2166 22.3205 19.0324 20.5722 22.6013C16.8538 30.1979 14.2855 40.3732 13.3263 51.286C13.3056 51.5077 13.285 51.7295 13.2695 51.9564H15.776C15.776 51.8739 15.7863 51.7862 15.7966 51.6985C16.4619 44.9735 18.2153 38.7126 20.7527 33.9885C20.8043 33.8905 20.9435 33.8802 21.0157 33.9679C22.1452 35.4944 23.2076 37.4232 24.1359 39.6666C25.549 43.0756 26.6114 47.1086 27.2096 51.353C27.2251 51.4561 27.2354 51.5644 27.2509 51.6728C27.2612 51.7707 27.2715 51.8636 27.2818 51.9564H29.8037C29.7728 51.7346 29.747 51.5129 29.716 51.2911C29.0972 46.7321 27.9626 42.3897 26.436 38.7126C25.2602 35.8864 23.8729 33.4831 22.3721 31.6677C22.2999 31.5801 22.2947 31.4563 22.3618 31.3635C23.1457 30.2546 23.9554 29.3212 24.7651 28.6146C25.9203 27.6038 27.0446 27.0726 28.0141 27.0726C28.0245 27.0726 28.0348 27.0726 28.0399 27.0726C29.0095 27.0829 30.1183 27.6348 31.2529 28.6662C32.5113 29.8163 33.7697 31.5388 34.8888 33.6481C37.421 38.4341 39.1126 44.8703 39.6489 51.7656C39.6489 51.8326 39.6592 51.8945 39.6592 51.9616H42.1708C42.1502 51.7295 42.1296 51.4922 42.1089 51.2602C41.521 44.1483 39.7418 37.4903 37.0909 32.4826C35.8222 30.0896 34.4246 28.1866 32.9342 26.8251C31.3199 25.3501 29.6799 24.5971 28.0657 24.5817C26.4463 24.5662 24.7857 25.2882 23.1251 26.7374C22.3051 27.4491 21.5108 28.3207 20.7476 29.3367C20.6444 29.4707 20.4381 29.3573 20.4949 29.1974C21.2014 27.2428 21.975 25.4017 22.8105 23.6998C24.4092 20.4301 26.1988 17.7638 27.978 15.9897L27.9729 15.9793Z" fill="white"/>
</svg>
