<svg id="Layer_1" data-name="Layer 1" xmlns="http://www.w3.org/2000/svg" viewBox="0 0 227 69"><defs><style>.cls-1{fill:#010080;}</style></defs><path class="cls-1" d="M178.63,40.78A22.17,22.17,0,0,1,177.55,35a19.24,19.24,0,0,1,2.18-9.78,18,18,0,0,1,3.52-4.74,19.55,19.55,0,0,1,8.58-4.85,18,18,0,0,1,6.32-.56A19.24,19.24,0,0,1,208.4,19a18.75,18.75,0,0,1,7,11.1,19.22,19.22,0,0,1,.43,5.13,18.67,18.67,0,0,1-3.22,9.69c-.12.19-.27.36-.4.53l-.4.57A32.83,32.83,0,0,0,222,52.71l0,.23a18.17,18.17,0,0,1-2.66,0,19.78,19.78,0,0,1-6.79-2.29c-1-.5-1.88-1.07-2.79-1.65a.58.58,0,0,0-.81,0,18.79,18.79,0,0,1-8.07,4,18.11,18.11,0,0,1-5.82.37,18.74,18.74,0,0,1-10.81-4.54A19,19,0,0,1,178.63,40.78ZM200,27.42H211a15.77,15.77,0,0,0-28.61,0Zm5,20.47,1.83-1.29a20.72,20.72,0,0,0-5.85-5.35,7.23,7.23,0,0,0-7.44-.15,27.13,27.13,0,0,0-6.81,5.51c.86.56,1.64,1.14,2.5,1.6A12.71,12.71,0,0,0,194.7,50a36.75,36.75,0,0,0,4.81-.1A14.12,14.12,0,0,0,204.9,47.89ZM185.81,31.64l-4.57-.72a3.64,3.64,0,0,0-.2.33.38.38,0,0,0,0,.19,18.34,18.34,0,0,0,0,5.18,16.28,16.28,0,0,0,2.53,6.46c.27.4.42.5.8.15,1.22-1.12,2.55-2.13,3.68-3.33A12.87,12.87,0,0,0,190,37c1-1.93.36-3.44-1.6-4.38A20.68,20.68,0,0,0,185.81,31.64Zm23.72,11.88s.09,0,.1,0a15.92,15.92,0,0,0,2.66-12.6c-1.65.3-3.31.49-4.9.92A16.36,16.36,0,0,0,204,33.32a1.79,1.79,0,0,0-1,1.85,8.19,8.19,0,0,0,1.08,2.66A23.24,23.24,0,0,0,209.53,43.52ZM193,33c0,.18,0,.36,0,.55a3.78,3.78,0,0,0,3.82,3.77,3.68,3.68,0,0,0,3.53-2.8,3.61,3.61,0,0,0-1-3.65,3.44,3.44,0,0,0-3.5-.92A3.9,3.9,0,0,0,193,33Z"/><path class="cls-1" d="M135.35,43.1l3.85,2.18a3.56,3.56,0,0,1,.73,5.7,4.05,4.05,0,0,1-2.52,1,6.25,6.25,0,0,1-2.9-.54.88.88,0,0,0-1.2.3c-.09.1-.31.24-.37.2-.79-.5-1.66-.19-2.48-.22-1.6,0-1.59,0-2.47-1.31s-1.64-2.42-2.5-3.6c-.18-.25-.54-.36-.83-.54,0,1.58,0,3,0,4.46,0,.21.43.43.69.58s.34,0,.5,0,.19.13.29.21c-.09,0-.19.15-.28.15h-5.32a1.46,1.46,0,0,1-.47-.16c.14-.07.28-.2.43-.2.91-.06,1.21-.35,1.21-1.28,0-2.8,0-5.61,0-8.42,0-1-.25-1.27-1.27-1.35a1.1,1.1,0,0,1-.4-.18c0-.06,0-.12.06-.19h1.63c1.88,0,3.76,0,5.64,0a3.36,3.36,0,0,1,3.29,1.91A3.1,3.1,0,0,1,129,46.17l-.48.16c.92,1.3,1.85,2.59,2.75,3.89.5.71.88,1,1.52,1V47.75l.17-.11c.11.15.29.29.34.46a4,4,0,0,0,2.78,3c1.2.32,2.46.13,2.83-1.25a1.8,1.8,0,0,0-.88-1.81c-.81-.49-1.65-.93-2.49-1.38a4.63,4.63,0,0,1-2.65-2.79,3.36,3.36,0,0,1,3-4.22,5.34,5.34,0,0,1,3,.57.56.56,0,0,0,.89-.31c.05-.13.26-.2.52-.4v4c-.27.08-.46,0-.55-.42-.29-1.43-1.8-2.88-3.23-2.74a1.75,1.75,0,0,0-1.6.87C134.51,42,134.86,42.56,135.35,43.1Zm-9.16-2.38-1.63-.14v5.16c2,.09,3.1-.46,3.38-1.7A2.56,2.56,0,0,0,126.19,40.72Z"/><path class="cls-1" d="M45.1,47.36c1.1-2.43,2.16-4.81,3.24-7.19a2.48,2.48,0,0,1,.34-.46c.15.16.35.29.43.48.94,2.16,1.86,4.34,2.81,6.5.55,1.27,1.11,2.53,1.7,3.77.21.43.41.9,1.05.92,1.18,0,1.52-.21,1.54-1.47,0-2.7,0-5.4,0-8.11,0-1.18-.07-1.18-1.2-1.49a.78.78,0,0,1-.42-.28h9.83v3.42l-.12.11c-.12-.13-.32-.25-.34-.39a2.57,2.57,0,0,0-2.79-2.33c-.66,0-1.32-.07-2-.11V45.4a7.94,7.94,0,0,0,1.16-.23c1-.36,1.26-1.27,1.49-2.19,0-.16.21-.28.32-.41l.15.11v6.19c-.42.07-.43.08-.48-.29a2.39,2.39,0,0,0-1.66-2.22,6.22,6.22,0,0,0-1-.12c0,1.44,0,2.87,0,4.3a.85.85,0,0,0,.85.83c.31,0,.68,0,.82.48H49.18l-.09-.16a1.86,1.86,0,0,1,.59-.31c.81-.11.93-.26.65-1-.22-.59-.45-1.19-.72-1.76a.6.6,0,0,0-.48-.26c-1.06,0-2.11,0-3.17,0-.13,0-.33,0-.37.12a14,14,0,0,0-.75,1.95c-.14.53.35.92,1,1a2.9,2.9,0,0,1,.47.16,1.26,1.26,0,0,1-.48.21c-1.14,0-2.28,0-3.45,0,0-.16,0-.34.06-.34,1.21-.3,1.42-1.43,1.89-2.31C44.64,48.55,44.84,48,45.1,47.36Zm2.56.21h1.51c-.54-1.25-1-2.4-1.58-3.7-.58,1.3-1.1,2.48-1.65,3.7Z"/><path class="cls-1" d="M70.7,43.09c-.21-.5-.4-.94-.58-1.39H70v7.79c0,1.37.21,1.62,1.54,1.89.09,0,.16.13.23.2-.09.06-.18.16-.28.16H67.67l0-.16a3.77,3.77,0,0,1,.59-.22,1.17,1.17,0,0,0,1.06-1.23c0-2.94,0-5.87,0-8.81a.93.93,0,0,0-.94-1,1.32,1.32,0,0,1-.69-.3h4.91l3.22,7.49,1.74-4.17c.43-1,.84-2.1,1.28-3.13a.52.52,0,0,1,.37-.26h4.53l0,.17a5,5,0,0,1-.62.21c-.75.13-1,.36-1,1.07,0,3,0,5.91,0,8.87,0,.72.28,1,1,1.09a1.31,1.31,0,0,1,.63.3H77.54l0-.1a4,4,0,0,1,.67-.2,1,1,0,0,0,1-1.1V41.53c-.34.75-.62,1.33-.87,1.93C77.2,46.1,76.12,48.74,75,51.37c-.06.15-.24.25-.36.38-.14-.14-.33-.26-.4-.42-1.11-2.57-2.2-5.14-3.29-7.7C70.9,43.46,70.81,43.29,70.7,43.09Z"/><path class="cls-1" d="M22.35,51.71a2.49,2.49,0,0,1-.42.06c.63,1.94,2.23,2.19,4,2.27v.76c-1.63-.14-3.32.33-4.9-.51a4.86,4.86,0,0,1-2.16-2.23.65.65,0,0,0-.39-.3A6,6,0,0,1,14,46.1a6.22,6.22,0,0,1,1.62-4.61,5.37,5.37,0,0,1,3.46-1.75,7.42,7.42,0,0,1,3.7.34,5.82,5.82,0,0,1,3.67,4.62,6.14,6.14,0,0,1-1,4.71A5.36,5.36,0,0,1,22.35,51.71Zm-1.49-.47a3,3,0,0,0,2-2.24,12,12,0,0,0,.22-5.56A3.83,3.83,0,0,0,21.86,41a2.44,2.44,0,0,0-3.12,0c-1.51,1.46-1.45,3.38-1.5,5.25a16.35,16.35,0,0,0,.2,1.85A3.14,3.14,0,0,0,20.86,51.24Z"/><path class="cls-1" d="M109.23,41.39a5.78,5.78,0,0,1,3.65-1.71,6.93,6.93,0,0,1,4,.58,5.63,5.63,0,0,1,3.13,4.6,6.46,6.46,0,0,1-2.07,5.82,4.77,4.77,0,0,1-3.19,1.3,8,8,0,0,1-3.69-.43,5.78,5.78,0,0,1-3.34-4.18,6.28,6.28,0,0,1,.62-4.75A10.79,10.79,0,0,1,109.23,41.39Zm2.68,9.08a2.53,2.53,0,0,0,4-.4,6.41,6.41,0,0,0,.78-2.5,11.4,11.4,0,0,0-.43-5.35,2.48,2.48,0,0,0-3.61-1.49,3,3,0,0,0-1.44,1.88,11.94,11.94,0,0,0-.4,4.21A7.15,7.15,0,0,0,111.91,50.47Z"/><path class="cls-1" d="M86.29,51a6.23,6.23,0,0,1-2.44-4.84,6,6,0,0,1,1.89-4.94,5.81,5.81,0,0,1,3.5-1.51,7.07,7.07,0,0,1,3.92.58,5.68,5.68,0,0,1,3.13,4.6,6.52,6.52,0,0,1-.79,4.23A5.3,5.3,0,0,1,90.78,52a6.6,6.6,0,0,1-3.54-.49Zm1.16-8.2a10.75,10.75,0,0,0-.31,4,17.86,17.86,0,0,0,.41,2.43,2.59,2.59,0,0,0,2,2,2.35,2.35,0,0,0,2.76-1.34A9.22,9.22,0,0,0,93,47.55a10.36,10.36,0,0,0-.41-5.35,2.39,2.39,0,0,0-1.86-1.71C89.07,40.24,88.18,40.89,87.45,42.76Z"/><path class="cls-1" d="M153.81,40c.38.11.7.27,1,.33s.93.23,1.13-.43c0-.09.27-.12.47-.2v4.25c-.24-.22-.43-.31-.48-.46a4,4,0,0,0-2.44-2.71A3.54,3.54,0,0,0,149,43.07a8.58,8.58,0,0,0,.17,6.11,3.14,3.14,0,0,0,2.88,2,4.54,4.54,0,0,0,3.54-1.5c.22-.22.42-.45.69-.74a1.58,1.58,0,0,1-.59,1.83,5.87,5.87,0,0,1-3.4,1.28,7.11,7.11,0,0,1-4.62-1.12,5.45,5.45,0,0,1-2.22-3.47,6.22,6.22,0,0,1,1.61-5.8,5.5,5.5,0,0,1,4-1.9C151.94,39.72,152.85,39.87,153.81,40Z"/><path class="cls-1" d="M100.58,42.62V40.7c-.86.16-1.8-.08-2.41.63s-.83,1.3-1.36,1.9V40h10.45v3.22l-.14.1a2.69,2.69,0,0,1-.34-.49c-.33-.75-.54-1.61-1.47-1.87a18.35,18.35,0,0,0-1.82-.28v9.64a.93.93,0,0,0,1,1,1.21,1.21,0,0,1,.68.31h-6.3a3.31,3.31,0,0,1,.54-.27c1-.31,1.22-.52,1.22-1.63Z"/><path class="cls-1" d="M39.87,49v1.39a.94.94,0,0,0,.92,1,1.24,1.24,0,0,1,.71.32H35.34l0-.09a3.68,3.68,0,0,1,.45-.21c1-.26,1.18-.45,1.19-1.39,0-3,0-6.08,0-9.12,0,0,0-.07-.08-.17-.77.17-1.7-.09-2.3.6s-.84,1.31-1.37,1.93V40H43.63v3.18l-.11.11a2.11,2.11,0,0,1-.37-.49c-.32-.77-.57-1.61-1.49-1.86a13,13,0,0,0-1.79-.27Z"/><path class="cls-1" d="M161.27,43.51a3.57,3.57,0,0,1,3.55,2.94,4.94,4.94,0,0,1-.94,4.5,2.6,2.6,0,0,1-2.09,1,7.63,7.63,0,0,1-2.15-.21,3.48,3.48,0,0,1-2.25-3.07,5.12,5.12,0,0,1,.26-2.89A3.38,3.38,0,0,1,161.27,43.51ZM160,47.2c0,1,0,2.1.14,3.14a.9.9,0,0,0,1,.91.94.94,0,0,0,1-1c.07-1.71.08-3.42,0-5.12a.94.94,0,0,0-1.06-.91c-.64,0-.83.44-.91.9A17.44,17.44,0,0,0,160,47.2Z"/><path class="cls-1" d="M28.21,44c0-.93,0-1.8,0-2.66a.94.94,0,0,0-.92-1,1.24,1.24,0,0,1-.7-.32h6.16l0,.09a3.13,3.13,0,0,1-.46.21c-1,.27-1.19.49-1.19,1.58v7.67c0,1.46,0,1.46,1.35,1.91a.43.43,0,0,1,.28.19H26.59l0-.11a6.54,6.54,0,0,1,.73-.19.94.94,0,0,0,.92-1Z"/><path class="cls-1" d="M166.43,52a1.51,1.51,0,0,1-.6-2.46,1.7,1.7,0,0,1,1.72-.27,1.21,1.21,0,0,1,.83,1.12,1.32,1.32,0,0,1-.74,1.49A4.14,4.14,0,0,1,166.43,52Z"/><path class="cls-1" d="M40.28,35.71V34.54h1.86v2.09H40.28Z"/><path class="cls-1" d="M37.32,34.5H39v2.14H37.11C37.16,35.91,37.21,35.21,37.32,34.5Z"/><path class="cls-1" d="M39,28.13a5.4,5.4,0,0,0,1.24.4,14,14,0,0,0,2.15,0c.86-.07,1.27-.59,1.28-1.52,0-1.43,0-2.86,0-4.33h2q-.1,2.91-.22,5.86c1.09,0,2.36,0,3.62,0a1.36,1.36,0,0,0,1.38-1.32c.08-1.49.13-3,.2-4.51h1.77c-.08,1.93.13,3.88-.13,5.84h1c1.16,0,1.7-.56,1.71-1.74v-4.1h2c-.09,1.92.2,3.86-.24,5.83a12.33,12.33,0,0,0,1.49,0c.88-.1,1.35-.8,1.36-1.91,0-1.29,0-2.57,0-3.91h1.84a35.83,35.83,0,0,1-.22,5.83c1.17,0,2.36.06,3.55,0,.87-.05,1.24-.61,1.24-1.68,0-2.24,0-4.49,0-6.73v-.68h1.76a73,73,0,0,1-.14,9.11c1.27,0,2.54.07,3.8,0,1-.07,1.27-.32,1.26-1.3,0-2.37,0-4.75,0-7.12v-.67h2V20c0,2.59,0,5.18,0,7.77,0,1.52-.73,2.75-2.38,2.72-.56,0-1.12.11-1.67.11q-15.36,0-30.72,0c-1.14,0-2.27-.14-2.84-1.34a3.87,3.87,0,0,1-.41-1.51c0-2.76,0-5.53,0-8.34h1.93c0,.19,0,.4,0,.61,0,2.29,0,4.58,0,6.87A3.69,3.69,0,0,0,39,28.13Z"/><path class="cls-1" d="M98.85,30.64a10.72,10.72,0,0,1-1.93-.15,2.41,2.41,0,0,1-1.72-1.82,6,6,0,0,1-.14-1.53c0-2.55,0-5.1,0-7.7h2v7.21c0,1.37.39,1.83,1.76,1.89,1.17.05,2.34,0,3.58,0V19.43h1.79v5.66l2-1.65a4.39,4.39,0,0,1,5,0,4.48,4.48,0,0,1,1.44,2.62c.17.79.22,1.6.33,2.45h3.56c-.07-.74-.2-1.5-.2-2.27A3.39,3.39,0,0,1,118.07,23a3.54,3.54,0,0,1,3.87.22,3.35,3.35,0,0,1,1.45,2.38c.19,1.58.17,3.2-1.33,4.27a3.12,3.12,0,0,1-1.6.66C113.28,30.57,106.1,30.6,98.85,30.64Zm6.47-4.32-1.54,2.2H111a12.51,12.51,0,0,0-.57-2.58,3.4,3.4,0,0,0-1.33-1.3C108.1,24,106,25.25,105.32,26.32Zm13-.79a11.18,11.18,0,0,0-.12,1.41,2,2,0,0,0,1.35,1.7,1.29,1.29,0,0,0,1.51-.6,4.24,4.24,0,0,0,.38-1.71A1.81,1.81,0,0,0,120,24.41C119.43,24.25,118.85,24.61,118.33,25.53Z"/><path class="cls-1" d="M140.29,28.55h6.2a3.48,3.48,0,0,0-3.13-3.92c-1.3,0-2.61,0-4.05,0,.19-.37.31-.69.49-1l2.38-3.84a.77.77,0,0,1,.77-.42c.56.05,1.13,0,1.84,0-.72,1.12-1.39,2.15-2,3.16a16.26,16.26,0,0,1,2.39.46,4.73,4.73,0,0,1,3.25,3.92c.22,1.15.26,2.33.39,3.58H136.61a2.85,2.85,0,0,1-3-2.35,2.34,2.34,0,0,1-2.14,1.17,2.86,2.86,0,0,1-2.26-1,4.54,4.54,0,0,1-.95-3.59,12.52,12.52,0,0,1,.31-1.62,3,3,0,0,1,2.79-2c1.35.08,2.7,0,4.05,0l.22,0V23c0,1.22,0,2.44,0,3.66a1.72,1.72,0,0,0,1.91,1.9C138.4,28.57,139.31,28.55,140.29,28.55ZM130.1,25.68a5.54,5.54,0,0,0,.14.55,1.88,1.88,0,0,0,1.54,1.4,1.76,1.76,0,0,0,1.57-1.43c.2-1.14.25-2.31.38-3.54-.63,0-1.08,0-1.53,0a1.69,1.69,0,0,0-1.78,1.1A8.18,8.18,0,0,0,130.1,25.68Z"/><path class="cls-1" d="M157,28.55c1-.07,1.44-.61,1.48-1.63,0-1.37,0-2.75,0-4.12,0,0,0,0,0-.1h1.79v5.85c.35,0,.81,0,1.26,0,1-.07,1.47-.65,1.47-1.79,0-1.33,0-2.66,0-4h2c-.07,1.93-.14,3.87-.21,5.84.3,0,.75,0,1.21,0a1.4,1.4,0,0,0,1.43-1.47c0-1.44,0-2.87,0-4.36h2c-.22,2.09.45,4.26-.58,6.27a2.58,2.58,0,0,1-2.47,1.54c-4,0-8,0-12,0h-.71a3.4,3.4,0,0,1-4,2.81,10,10,0,0,1,0-1.34.67.67,0,0,1,.44-.41c1.14-.25,1.57-.64,1.62-1.79.09-1.93.1-3.86.14-5.79,0-.41,0-.82,0-1.28h1.81v5.84Z"/><path class="cls-1" d="M79.36,23.73c0-.26,0-.45,0-.65h1.93v2.86a2.32,2.32,0,0,0,2.29,2.48c1,.07,2,.12,3,.18-.09-.6-.17-1.1-.25-1.6a3.87,3.87,0,0,1,1.08-3.5,3.43,3.43,0,0,1,3.38-.88,3.35,3.35,0,0,1,2.59,2.63,4.27,4.27,0,0,1-1.08,4.45,2.81,2.81,0,0,1-2,.82c-2.25,0-4.49,0-6.73,0a3.89,3.89,0,0,1-4.15-3.93C79.44,25.64,79.4,24.72,79.36,23.73Zm11.77,4.49a2.77,2.77,0,0,0,.14-3.06,1.5,1.5,0,0,0-2.53-.09,3,3,0,0,0-.36,1.71C88.36,28,89.78,29.38,91.13,28.22Z"/><path class="cls-1" d="M15.16,26.79c.48,1.48,1.71,1.68,2.94,1.74,1.43.07,2.87,0,4.31,0a3.58,3.58,0,0,0,1.52-.36,1.82,1.82,0,0,0,.77-1.74V22.7h1.78a4,4,0,0,1,.05.4c0,1.7,0,3.4,0,5.09A2.13,2.13,0,0,1,25,30.42a2.28,2.28,0,0,1-.63.09H17.49a4,4,0,0,1-4.3-4c0-1.25-.12-2.5-.19-3.81h2C15,24,15.09,25.39,15.16,26.79Z"/><path class="cls-1" d="M33.2,27.24V22.71H35v.88c0,2.09.06,4.18,0,6.26a3.21,3.21,0,0,1-2.08,3.26,13.77,13.77,0,0,1-1.95.38c0-.39,0-.64,0-.89,0-.61,0-1.05.82-1.09A1.55,1.55,0,0,0,33.06,30C33.13,29.07,33.16,28.19,33.2,27.24Z"/><path class="cls-1" d="M29.64,19.4c.14.12.28.24.28.37q0,5.28,0,10.57s0,.07-.06.14H28V19.39Z"/><path class="cls-1" d="M131.66,19.79h-1.13V17.73h1.88v2.06Z"/><path class="cls-1" d="M135.46,18.49v1.26h-1.93v-2h1.93Z"/><path class="cls-1" d="M165.91,19.26c.4-.05.57.06.55.45s0,.95,0,1.47h-1.92V19.26Z"/><path class="cls-1" d="M161.77,21.22c-.14-.12-.28-.24-.28-.37,0-.49,0-1,0-1.54h1.91v1.91Z"/><path class="cls-1" d="M89.2,19.27H91v1.92H89C89,20.53,89.09,19.91,89.2,19.27Z"/><path class="cls-1" d="M121,19.13h1.25v2.06h-1.79c0-.59,0-1.17,0-1.74C120.45,19.33,120.74,19.24,121,19.13Z"/><path class="cls-1" d="M117.47,21.17c0-.69,0-1.34,0-2h1.78v2.05C118.63,21.21,118.07,21.21,117.47,21.17Z"/><path class="cls-1" d="M164.88,17.94c0,.25,0,.44,0,.65h-1.76v-2h1.79Z"/><path class="cls-1" d="M22.22,21.75v1H20.43V20.87h1.79Z"/><path class="cls-1" d="M17.39,21c.57-.11,1.14-.16,1.77-.22v2H17.38C17.38,22.21,17.38,21.63,17.39,21Z"/></svg>