<svg width="35" height="35" viewBox="0 0 35 35" fill="none" xmlns="http://www.w3.org/2000/svg">
<rect width="35" height="35" rx="4" fill="white"/>
<path d="M14.7811 7.25984C15.8461 6.20162 16.8839 5.64018 17.7856 5.64018C17.7958 5.64018 17.8026 5.64018 17.8128 5.64018C18.7145 5.65039 19.7455 6.22884 20.7901 7.31768C21.93 8.5018 23.0631 10.2712 24.0703 12.4352C26.299 17.2397 27.7961 23.6605 28.2929 30.5542C28.3031 30.7005 28.3099 30.8435 28.3202 30.9898H29.9738C29.9636 30.8435 29.9534 30.6971 29.9466 30.5508C29.443 23.4189 27.8914 16.7498 25.5674 11.7445C24.4718 9.38648 23.2673 7.51163 21.9811 6.1778C21.3244 5.49727 20.654 4.96646 19.9837 4.60238C19.2624 4.21108 18.541 4.00692 17.8367 4.00012C17.1323 3.99331 16.4007 4.18046 15.6692 4.55815C14.9887 4.90862 14.3013 5.42582 13.6276 6.09954C12.304 7.41636 11.0518 9.27419 9.89832 11.6288C7.44503 16.6409 5.75052 23.3543 5.11763 30.5542C5.10402 30.7005 5.09041 30.8469 5.0802 30.9966H6.73388C6.73388 30.9421 6.74068 30.8843 6.74749 30.8264C7.18643 26.3894 8.34332 22.2586 10.0174 19.1418C10.0514 19.0772 10.1433 19.0704 10.1909 19.1282C10.9361 20.1354 11.6371 21.408 12.2495 22.8881C13.1819 25.1372 13.8828 27.7981 14.2775 30.5985C14.2877 30.6665 14.2945 30.738 14.3047 30.8094C14.3115 30.8741 14.3183 30.9353 14.3251 30.9966H15.989C15.9686 30.8503 15.9516 30.7039 15.9312 30.5576C15.5229 27.5497 14.7743 24.6847 13.7671 22.2586C12.9913 20.394 12.076 18.8084 11.0858 17.6106C11.0382 17.5528 11.0348 17.4711 11.079 17.4099C11.5962 16.6783 12.1304 16.0624 12.6647 15.5963C13.4269 14.9294 14.1686 14.5789 14.8083 14.5789C14.8151 14.5789 14.8219 14.5789 14.8253 14.5789C15.465 14.5857 16.1966 14.9498 16.9452 15.6303C17.7754 16.3891 18.6057 17.5256 19.344 18.9172C21.0147 22.0749 22.1308 26.3214 22.4846 30.8707C22.4846 30.9149 22.4915 30.9557 22.4915 31H24.1485C24.1349 30.8469 24.1213 30.6903 24.1077 30.5372C23.7198 25.845 22.5459 21.4522 20.7969 18.1482C19.9599 16.5694 19.0378 15.3139 18.0544 14.4156C16.9894 13.4424 15.9074 12.9456 14.8423 12.9354C13.7739 12.9252 12.6783 13.4016 11.5826 14.3577C11.0416 14.8273 10.5176 15.4023 10.014 16.0726C9.94596 16.1611 9.80986 16.0863 9.84729 15.9808C10.3134 14.6912 10.8238 13.4764 11.3751 12.3536C12.4299 10.1963 13.6106 8.43715 14.7845 7.26664L14.7811 7.25984Z" fill="#181B71"/>
</svg>
