<svg width="130" height="35" viewBox="0 0 130 35" fill="none" xmlns="http://www.w3.org/2000/svg">
<rect width="130" height="35" rx="4" fill="white"/>
<g clip-path="url(#clip0_163_527)">
<path d="M12.0263 16.0381C11.418 16.0381 10.9737 15.9215 10.6869 15.6851C10.4033 15.4519 10.2615 15.1242 10.2615 14.705C10.2615 14.516 10.293 14.3017 10.3592 14.0622C10.4253 13.8227 10.5419 13.5516 10.7153 13.2523L11.3928 13.5548C11.3109 13.7628 11.2542 13.9361 11.2258 14.0748C11.1943 14.2134 11.1817 14.3395 11.1817 14.4529C11.1817 14.6389 11.2226 14.7807 11.3077 14.8784C11.3928 14.9761 11.5094 15.0454 11.6575 15.0832C11.8057 15.121 11.979 15.1368 12.1712 15.1368H14.5316L14.7837 16.0349H12.0263V16.0381ZM12.4801 13.0443L11.8529 12.4108L12.4422 11.7774L13.0694 12.4108L12.4801 13.0443ZM13.602 13.0443L12.9748 12.4108L13.5767 11.7774L14.2039 12.4108L13.602 13.0443ZM13.8099 15.1399H13.8761V16.0381H13.8099C13.6807 16.0381 13.6146 15.8868 13.6146 15.5843C13.6146 15.2818 13.6776 15.1368 13.8099 15.1368V15.1399ZM13.8099 16.0381V15.1399H14.9539C14.9318 14.9414 14.8751 14.7397 14.7806 14.5349C14.686 14.33 14.5631 14.1189 14.4119 13.9046L15.2249 13.0695C15.3541 13.3247 15.4676 13.5989 15.5621 13.8888C15.6567 14.1819 15.7071 14.5034 15.7134 14.8563C15.7197 15.2061 15.6472 15.6 15.4959 16.0349H13.8099V16.0381Z" fill="#181B71"/>
<path d="M16.5895 11.2543H17.5065V16.0381H16.5895V11.2543Z" fill="#181B71"/>
<path d="M18.6569 17.6358C18.4678 17.6358 18.263 17.6012 18.0392 17.5287C17.8186 17.4562 17.6075 17.3365 17.4089 17.1631L17.6989 16.5801C17.8438 16.6369 17.9856 16.6778 18.1212 16.703C18.2567 16.7282 18.3796 16.7409 18.493 16.7409C18.742 16.7409 18.9594 16.6936 19.1391 16.5959C19.3187 16.4982 19.4605 16.3627 19.5613 16.1862C19.6622 16.0097 19.7126 15.8017 19.7126 15.5591C19.7126 15.4456 19.6874 15.3322 19.6338 15.2124C19.5834 15.0927 19.4952 14.9509 19.3691 14.7807C19.243 14.6105 19.0729 14.3931 18.8523 14.1315L19.5645 13.2523C19.7914 13.5611 19.9773 13.8479 20.1191 14.1063C20.2609 14.3647 20.3649 14.6074 20.428 14.8343C20.4941 15.0612 20.5257 15.2881 20.5257 15.515C20.5257 15.682 20.5068 15.8616 20.4658 16.0538C20.4248 16.2461 20.3586 16.4352 20.2672 16.6179C20.1759 16.8007 20.0593 16.9709 19.9143 17.1253C19.7693 17.2797 19.5929 17.4026 19.3817 17.494C19.1706 17.5854 18.9279 17.6327 18.6506 17.6327L18.6569 17.6358Z" fill="#181B71"/>
<path d="M22.5426 16.0381C22.322 16.0381 22.1361 16.016 21.988 15.9656C21.8367 15.9183 21.7138 15.8458 21.6193 15.7513C21.5247 15.6567 21.4554 15.5401 21.4113 15.3983C21.3672 15.2597 21.3451 15.0958 21.3451 14.9099V11.2511H22.2621V14.6042C22.2621 14.6987 22.2685 14.7807 22.2811 14.85C22.2937 14.9193 22.3189 14.976 22.3567 15.017C22.3945 15.0611 22.4449 15.0895 22.5111 15.1084C22.5773 15.1273 22.6655 15.1336 22.7727 15.1336H23.0248V16.0318H22.5395L22.5426 16.0381Z" fill="#181B71"/>
<path d="M23.0279 15.14H23.0941V16.0381H23.0279C22.8987 16.0381 22.8325 15.8868 22.8325 15.5843C22.8325 15.2818 22.8955 15.1368 23.0279 15.1368V15.14ZM23.0279 16.0381V15.14H23.8882C23.9134 15.0706 23.9387 14.9729 23.9607 14.8437C23.9828 14.7145 24.0017 14.579 24.0143 14.4403C24.03 14.3017 24.0364 14.1788 24.0364 14.0748L25.1078 13.6998C25.0353 14.0086 24.9629 14.2954 24.8872 14.5601C24.8147 14.8217 24.7265 15.0738 24.6257 15.3133C24.5248 15.5528 24.3956 15.7954 24.2412 16.0413H23.0248L23.0279 16.0381ZM23.7307 17.7178L23.1035 17.0844L23.6928 16.4509L24.32 17.0844L23.7307 17.7178ZM25.5616 16.0381C25.2843 16.0381 25.0511 16.0097 24.8526 15.9562C24.6572 15.9026 24.4902 15.8364 24.3546 15.7608C24.2191 15.6851 24.0994 15.6127 23.9954 15.5433L24.4807 14.9666C24.55 15.0044 24.6257 15.036 24.7139 15.0612C24.799 15.0864 24.8967 15.1021 25.0007 15.1147C25.1047 15.1273 25.215 15.1337 25.3284 15.1337H25.5805V16.0318H25.5616V16.0381ZM24.8557 17.7178L24.2286 17.0844L24.8305 16.4509L25.4576 17.0844L24.8557 17.7178Z" fill="#181B71"/>
<path d="M25.5805 15.1399H25.6467V16.0381H25.5805C25.4513 16.0381 25.3851 15.8868 25.3851 15.5843C25.3851 15.2817 25.4482 15.1368 25.5805 15.1368V15.1399ZM25.5805 16.0381V15.1399H26.277C26.3022 15.0548 26.3242 14.9571 26.3463 14.8468C26.3652 14.7365 26.3778 14.6199 26.3841 14.497C26.3904 14.3741 26.3904 14.2481 26.381 14.1189L27.4587 13.7501C27.402 14.0275 27.3485 14.2638 27.2949 14.4687C27.2413 14.6704 27.1814 14.8563 27.1152 15.0202C27.0491 15.1872 26.9703 15.3479 26.882 15.5086C26.7938 15.6693 26.6835 15.8458 26.5543 16.0381H25.5774H25.5805ZM27.6636 16.0381C27.3705 16.0381 27.1184 16.0097 26.9104 15.9561C26.7024 15.9025 26.5291 15.8395 26.3967 15.7702C26.2644 15.6977 26.1604 15.6347 26.0942 15.578L26.4629 14.9319C26.5795 14.9981 26.715 15.0485 26.8726 15.0832C27.0302 15.121 27.2035 15.1368 27.3926 15.1368H28.0922C28.1174 15.0674 28.1394 14.976 28.1615 14.8657C28.1804 14.7523 28.193 14.6325 28.1993 14.5033C28.2056 14.3741 28.2056 14.2449 28.1993 14.1157L29.2866 13.747C29.2267 14.0243 29.1668 14.2607 29.1132 14.4655C29.0565 14.6672 28.9966 14.8531 28.9336 15.017C28.8674 15.184 28.7918 15.3448 28.7004 15.5055C28.609 15.6662 28.4987 15.8427 28.3695 16.0349H27.6636V16.0381ZM29.8916 16.0381C29.6143 16.0381 29.3811 16.0097 29.1826 15.9561C28.9872 15.9025 28.8202 15.8364 28.6846 15.7607C28.5491 15.6851 28.4294 15.6126 28.3254 15.5433L28.8044 14.9666C29.025 15.08 29.3055 15.1336 29.6521 15.1336H30.4715C30.4368 15.017 30.399 14.9067 30.3612 14.7996C30.3234 14.6924 30.2792 14.5821 30.2288 14.4655C30.1784 14.3489 30.1185 14.2166 30.046 14.0653L31.0986 13.3594C31.1333 13.6209 31.1616 13.8983 31.1837 14.185C31.2058 14.4718 31.2026 14.768 31.1805 15.0737C31.1553 15.3794 31.0923 15.6977 30.9883 16.0318H29.8885L29.8916 16.0381ZM31.7667 16.0381C31.5556 16.0381 31.3633 16.0223 31.1931 15.9876C31.023 15.953 30.8717 15.9057 30.7425 15.849C30.6133 15.7922 30.4998 15.7324 30.399 15.6788L30.7551 14.9949C30.8055 15.0202 30.8623 15.0422 30.9221 15.058C30.982 15.0737 31.045 15.0895 31.1112 15.1021C31.1774 15.1147 31.2467 15.1242 31.3224 15.1305C31.3948 15.1368 31.4705 15.1399 31.5493 15.1399H31.8014V16.0381H31.7636H31.7667Z" fill="#181B71"/>
<path d="M31.8045 15.1399H31.8707V16.0381H31.8045C31.6753 16.0381 31.6091 15.8868 31.6091 15.5843C31.6091 15.2818 31.6722 15.1368 31.8045 15.1368V15.1399ZM31.8045 16.0381V15.1399H32.4884V11.2543H33.4054V16.0381H31.8014H31.8045ZM33.2132 15.1399H33.9884V16.0381H33.2132V15.1399Z" fill="#181B71"/>
<path d="M33.9915 15.1399H34.0577V16.0381H33.9915C33.8623 16.0381 33.7961 15.8868 33.7961 15.5843C33.7961 15.2818 33.8592 15.1368 33.9915 15.1368V15.1399ZM33.9915 16.0381V15.1399H34.6754V11.2543H35.5924V16.0381H33.9884H33.9915Z" fill="#181B71"/>
<path d="M42.3805 17.8816L42.5822 18.5938C42.3585 18.6789 42.141 18.7546 41.933 18.8144C41.725 18.8743 41.5108 18.9184 41.2902 18.9468C41.0696 18.9752 40.8301 18.9878 40.5653 18.9878C40.225 18.9878 39.9098 18.9468 39.6168 18.8649C39.3268 18.7829 39.0747 18.6632 38.8604 18.5056C38.6461 18.348 38.4823 18.1558 38.3625 17.9257C38.2428 17.6988 38.186 17.4341 38.186 17.1379C38.186 16.8417 38.2396 16.5549 38.3499 16.2902C38.4602 16.0286 38.6272 15.7859 38.851 15.5622C39.0747 15.3416 39.3584 15.1368 39.6987 14.9508C40.0391 14.7649 40.4393 14.601 40.9025 14.4592C40.808 14.4119 40.7103 14.3678 40.6126 14.3237C40.5118 14.2796 40.4141 14.2418 40.3164 14.2039C40.2187 14.1661 40.121 14.1409 40.0264 14.1189C39.9319 14.1 39.8405 14.0905 39.7554 14.0905C39.6231 14.0905 39.497 14.1157 39.3836 14.163C39.2701 14.2103 39.1661 14.2796 39.0716 14.3741C38.977 14.4655 38.8856 14.579 38.7943 14.7145L38.2711 14.4245C38.3909 14.1787 38.5327 13.9644 38.6934 13.7817C38.8541 13.5989 39.0401 13.4571 39.2449 13.3562C39.4529 13.2554 39.6829 13.205 39.9351 13.205C40.1336 13.205 40.3258 13.2365 40.5149 13.2995C40.7008 13.3625 40.8836 13.4382 41.057 13.5296C41.2303 13.6209 41.3973 13.7092 41.5517 13.8006C41.7061 13.892 41.8511 13.9644 41.9835 14.0243C42.1158 14.081 42.2387 14.1094 42.3459 14.1063V14.8437C41.8889 14.9634 41.4635 15.0926 41.0727 15.225C40.6819 15.3574 40.3384 15.5118 40.0454 15.682C39.7523 15.8521 39.5222 16.0507 39.3584 16.2744C39.1913 16.4982 39.1094 16.7597 39.1094 17.056C39.1094 17.2703 39.1756 17.4562 39.3111 17.6106C39.4434 17.765 39.6451 17.8848 39.9161 17.9699C40.184 18.055 40.5181 18.0959 40.9151 18.0959C41.1263 18.0959 41.3154 18.0865 41.4792 18.0707C41.6431 18.055 41.8038 18.0297 41.9519 17.9982C42.1001 17.9667 42.245 17.932 42.3868 17.8879L42.3805 17.8816ZM40.6473 17.3774L40.1241 16.8417L40.6221 16.3059L41.1515 16.8417L40.6473 17.3774ZM42.4751 16.0381C42.1946 16.0381 41.9646 16.0097 41.7786 15.9561C41.5958 15.9025 41.4446 15.8143 41.3248 15.6914C41.2051 15.5685 41.1011 15.4109 41.0128 15.2155L41.6274 14.9256C41.6746 14.976 41.7314 15.017 41.7944 15.0485C41.8606 15.08 41.9456 15.1021 42.0496 15.1179C42.1536 15.1336 42.2891 15.1399 42.4467 15.1399H42.6799V16.0381H42.4719H42.4751Z" fill="#181B71"/>
<path d="M42.6831 15.14H42.7492V16.0381H42.6831C42.5539 16.0381 42.4877 15.8868 42.4877 15.5843C42.4877 15.2818 42.5507 15.1368 42.6831 15.1368V15.14ZM42.6831 16.0381V15.14H43.5434C43.5686 15.0706 43.5938 14.9729 43.6159 14.8437C43.6379 14.7145 43.6568 14.579 43.6694 14.4403C43.6852 14.3017 43.6915 14.1788 43.6915 14.0748L44.763 13.6998C44.6905 14.0086 44.618 14.2954 44.5424 14.5601C44.4699 14.8217 44.3817 15.0738 44.2808 15.3133C44.18 15.5528 44.0508 15.7954 43.8963 16.0413H42.6799L42.6831 16.0381ZM43.389 17.7178L42.7618 17.0844L43.3512 16.4509L43.9783 17.0844L43.389 17.7178ZM45.2168 16.0381C44.9395 16.0381 44.7063 16.0097 44.5077 15.9562C44.3123 15.9026 44.1453 15.8364 44.0098 15.7608C43.8743 15.6851 43.7545 15.6127 43.6505 15.5433L44.1359 14.9666C44.2052 15.0044 44.2808 15.036 44.3691 15.0612C44.4541 15.0864 44.5518 15.1021 44.6558 15.1147C44.7598 15.1273 44.8701 15.1337 44.9836 15.1337H45.2357V16.0318H45.2168V16.0381ZM44.514 17.7178L43.8869 17.0844L44.4888 16.4509L45.1159 17.0844L44.514 17.7178Z" fill="#181B71"/>
<path d="M45.2357 15.1399H45.3018V16.0381H45.2357C45.1065 16.0381 45.0403 15.8868 45.0403 15.5843C45.0403 15.2818 45.1033 15.1368 45.2357 15.1368V15.1399ZM45.2357 16.0381V15.1399H45.9195V11.2543H46.8366V16.0381H45.2325H45.2357ZM46.6443 15.1399H47.4196V16.0381H46.6443V15.1399Z" fill="#181B71"/>
<path d="M47.4228 15.14H47.489V16.0381H47.4228C47.2936 16.0381 47.2274 15.8868 47.2274 15.5843C47.2274 15.2818 47.2904 15.1368 47.4228 15.1368V15.14ZM47.4228 16.0381V15.14H48.1854C48.1854 15.14 48.2075 15.1494 48.2138 15.1557C48.2201 15.162 48.2264 15.1683 48.2296 15.1715C48.2327 15.1746 48.239 15.1778 48.2485 15.1778C48.1413 15.058 48.0657 14.9288 48.0184 14.7933C47.9743 14.6578 47.9491 14.5128 47.9491 14.3647C47.9491 14.1882 47.9838 14.0181 48.0499 13.8573C48.1161 13.6966 48.2138 13.5517 48.3367 13.4256C48.4628 13.2995 48.6172 13.1987 48.8 13.1262C48.9827 13.0537 49.1876 13.0159 49.4176 13.0159C49.6477 13.0159 49.8494 13.0537 50.0322 13.1262C50.2118 13.1987 50.3662 13.2995 50.4954 13.4256C50.6215 13.5517 50.7192 13.6966 50.7853 13.8573C50.8515 14.0181 50.8862 14.1882 50.8862 14.3647C50.8862 14.5065 50.8673 14.6452 50.8263 14.7807C50.7853 14.9162 50.7097 15.0486 50.5963 15.1778C50.5868 15.1746 50.59 15.1683 50.6026 15.162C50.6152 15.1557 50.6183 15.1494 50.6089 15.14H51.2864V16.0381H51.0532C50.7759 16.0381 50.5458 16.035 50.3567 16.0255C50.1677 16.016 50.0006 16.0034 49.862 15.9814C49.7233 15.9593 49.5847 15.9247 49.4523 15.8774C49.3798 15.8994 49.3042 15.9215 49.2254 15.9436C49.1466 15.9656 49.0615 15.9814 48.967 15.994C48.8724 16.0066 48.759 16.0192 48.6266 16.0255C48.4943 16.035 48.3336 16.0381 48.1382 16.0381H47.4197H47.4228ZM49.4302 12.4203L48.8031 11.7869L49.405 11.1534L50.0322 11.7869L49.4302 12.4203ZM49.4239 15.1778C49.5311 15.1273 49.6256 15.0643 49.7013 14.9918C49.78 14.9194 49.8368 14.8343 49.8777 14.7397C49.9187 14.6452 49.9376 14.5443 49.9376 14.4372C49.9376 14.3395 49.9156 14.2513 49.8714 14.1725C49.8273 14.0937 49.7674 14.0307 49.6887 13.9802C49.6099 13.9298 49.5185 13.9046 49.4145 13.9046C49.3105 13.9046 49.2128 13.9298 49.1372 13.9771C49.0584 14.0244 48.9985 14.0874 48.9544 14.1693C48.9103 14.2481 48.8851 14.3395 48.8851 14.4372C48.8851 14.5569 48.9103 14.6641 48.9575 14.7586C49.0048 14.85 49.071 14.932 49.1529 15.0044C49.2349 15.0769 49.3262 15.1337 49.4239 15.1809V15.1778Z" fill="#181B71"/>
<path d="M51.2863 15.1399H51.3525V16.0381H51.2863C51.1571 16.0381 51.0909 15.8868 51.0909 15.5843C51.0909 15.2818 51.154 15.1368 51.2863 15.1368V15.1399ZM51.2863 16.0381V15.1399H51.9702V11.2543H52.8872V16.0381H51.2832H51.2863Z" fill="#181B71"/>
<path d="M53.8328 11.2543H54.7498V16.0381H53.8328V11.2543Z" fill="#181B71"/>
<path d="M57.5703 16.0381L57.4095 15.1399H59.2437C59.4422 15.1399 59.584 15.121 59.6691 15.0832C59.7542 15.0454 59.8141 14.9981 59.8424 14.9414L60.1008 15.6977C60.0788 15.7797 60.022 15.8458 59.9275 15.8994C59.833 15.9498 59.7227 15.9876 59.5998 16.0097C59.4769 16.0318 59.3571 16.0412 59.2405 16.0412H57.5671L57.5703 16.0381ZM58.4085 13.6588L59.105 12.7606L60.2426 14.7775C60.2994 14.8752 60.3529 14.9508 60.4065 15.0044C60.4601 15.058 60.52 15.0927 60.583 15.1116C60.6492 15.1305 60.7248 15.1399 60.8162 15.1399H60.8792V16.0381H60.8162C60.6775 16.0381 60.5515 16.0286 60.4317 16.0066C60.312 15.9845 60.2017 15.9467 60.0945 15.8931C59.9874 15.8395 59.8865 15.7607 59.7857 15.6568C59.6848 15.5528 59.5809 15.4204 59.4737 15.2565L58.4085 13.6588Z" fill="#181B71"/>
<path d="M60.8856 15.14H60.9517V16.0381H60.8856C60.7564 16.0381 60.6902 15.8868 60.6902 15.5843C60.6902 15.2818 60.7532 15.1368 60.8856 15.1368V15.14ZM60.8856 16.0381V15.14H60.9108C60.9707 15.14 61.0274 15.1305 61.0747 15.1084C61.1251 15.0864 61.1755 15.0517 61.2259 14.9981C61.2763 14.9477 61.3362 14.8721 61.3961 14.7744C61.4591 14.6767 61.5348 14.5569 61.6261 14.4088C61.7522 14.1977 61.872 14.0181 61.9917 13.8731C62.1115 13.7281 62.2281 13.6084 62.3415 13.5201C62.455 13.4319 62.5716 13.3689 62.6882 13.3279C62.8048 13.2901 62.9214 13.2712 63.038 13.2712C63.2271 13.2712 63.3972 13.3121 63.5485 13.3941C63.6998 13.476 63.8416 13.6115 63.9708 13.7975C64.1031 13.9834 64.2292 14.2387 64.3553 14.5569C64.434 14.7334 64.5034 14.8626 64.5695 14.9477C64.6357 15.0328 64.7051 15.0832 64.787 15.1053C64.8658 15.1274 64.9635 15.1368 65.0801 15.1368H65.1305V16.035H64.9099C64.7208 16.035 64.5569 16.0066 64.4151 15.9499C64.2765 15.8931 64.1536 15.8175 64.0527 15.7198C63.9519 15.6221 63.8636 15.5118 63.788 15.3889C63.7124 15.266 63.6462 15.1368 63.5895 15.0044C63.5075 14.8059 63.435 14.6452 63.3689 14.5191C63.3027 14.3931 63.2428 14.3017 63.1829 14.245C63.1231 14.1882 63.0569 14.1567 62.9812 14.1567C62.934 14.1567 62.8741 14.1819 62.8079 14.2292C62.7386 14.2765 62.6598 14.3521 62.5716 14.4593C62.4833 14.5664 62.3825 14.7114 62.2722 14.8941C62.1587 15.0832 62.061 15.244 61.9759 15.3763C61.8909 15.5087 61.8089 15.6158 61.7301 15.7041C61.6514 15.7891 61.5757 15.8585 61.4969 15.9057C61.4182 15.953 61.3362 15.9877 61.2448 16.0066C61.1534 16.0255 61.0494 16.035 60.9297 16.035H60.8856V16.0381ZM64.3237 15.7419C64.1851 15.9089 64.0244 16.0255 63.8353 16.0917C63.6493 16.1547 63.454 16.1831 63.2491 16.1705C63.0474 16.1579 62.8489 16.1169 62.6535 16.0476C62.4581 15.9782 62.2816 15.89 62.1178 15.7828C61.9539 15.6757 61.8215 15.5591 61.7175 15.433L62.1839 14.8847C62.2627 14.9509 62.3636 15.0139 62.4896 15.0832C62.6157 15.1494 62.7606 15.2093 62.9214 15.2566C63.0821 15.307 63.2554 15.3353 63.435 15.3479C63.6147 15.3574 63.8006 15.3416 63.9834 15.2944L64.3206 15.7482L64.3237 15.7419Z" fill="#181B71"/>
<path d="M65.1304 15.1399H65.1966V16.0381H65.1304C65.0012 16.0381 64.9351 15.8868 64.9351 15.5843C64.9351 15.2817 64.9981 15.1368 65.1304 15.1368V15.1399ZM65.1304 16.0381V15.1399H65.2912C65.6882 15.1399 66.0223 15.1305 66.2965 15.1084C66.5706 15.0863 66.8038 15.0548 66.9992 15.0139C67.1946 14.9729 67.3616 14.9225 67.5066 14.8626C67.6516 14.8027 67.7934 14.7334 67.9289 14.6546C67.9635 14.6325 67.9951 14.6136 68.0266 14.601C68.0581 14.5884 68.0833 14.5695 68.1117 14.5569C68.1369 14.5411 68.1621 14.5285 68.1904 14.5222C68.0266 14.4434 67.8753 14.3741 67.7366 14.3079C67.598 14.2449 67.4656 14.185 67.3364 14.1346C67.2072 14.0842 67.0843 14.0432 66.9677 14.0149C66.8511 13.9865 66.7345 13.9739 66.6179 13.9739C66.4855 13.9739 66.3563 14.0086 66.2366 14.081C66.1168 14.1535 65.9939 14.2859 65.8679 14.4844L65.266 14.1756C65.4046 13.892 65.5527 13.6682 65.7134 13.5106C65.8742 13.3499 66.0412 13.2396 66.2177 13.1734C66.3942 13.1104 66.5675 13.0757 66.7408 13.0757C66.9646 13.0757 67.1757 13.1104 67.3711 13.1829C67.5665 13.2554 67.7524 13.3405 67.9257 13.4445C68.0991 13.5485 68.2724 13.6524 68.4394 13.7564C68.6064 13.8636 68.7766 13.9518 68.9436 14.0212C69.1106 14.0936 69.2871 14.1252 69.4731 14.122L69.4605 14.9036C69.3439 14.9193 69.202 14.9634 69.0319 15.0328C68.8617 15.1021 68.6632 15.1935 68.4394 15.3101C68.2755 15.3952 68.1022 15.4834 67.9163 15.5685C67.7303 15.6536 67.5192 15.7324 67.2765 15.8049C67.0339 15.8773 66.7503 15.9341 66.4162 15.975C66.0853 16.0191 65.6914 16.0381 65.2344 16.0381H65.1304Z" fill="#181B71"/>
<path d="M70.283 11.2543H71.2V16.0381H70.283V11.2543Z" fill="#181B71"/>
<path d="M75.3252 15.8774C75.0289 15.8774 74.7642 15.8332 74.5342 15.7482C74.3041 15.6631 74.1213 15.537 73.9921 15.3731C73.8598 15.2093 73.7936 15.0139 73.7936 14.7838C73.7936 14.5727 73.8472 14.3836 73.9511 14.2166C74.0551 14.0496 74.2096 13.892 74.4144 13.7502C74.6161 13.6084 74.8619 13.4728 75.1487 13.3436C75.4355 13.2144 75.7537 13.0821 76.1099 12.9434L76.2517 13.8542C75.946 13.9456 75.6939 14.0306 75.4922 14.1126C75.2905 14.1945 75.1329 14.2733 75.0195 14.3489C74.906 14.4246 74.8241 14.4939 74.78 14.5601C74.7358 14.6263 74.7106 14.6861 74.7106 14.7397C74.7106 14.8122 74.7548 14.8721 74.843 14.9162C74.9312 14.9603 75.0825 14.9855 75.2999 14.9855C75.3504 14.9855 75.4197 14.9855 75.5048 14.9792C75.5899 14.9761 75.6813 14.9635 75.7853 14.9477C75.8893 14.9319 75.9996 14.9067 76.1162 14.8752L76.3242 15.6442C76.1571 15.7229 75.9964 15.7797 75.8451 15.8175C75.6939 15.8553 75.5205 15.8742 75.3283 15.8742L75.3252 15.8774ZM74.8461 12.2375L74.219 11.6041L74.8083 10.9706L75.4355 11.6041L74.8461 12.2375ZM75.9712 12.2375L75.3441 11.6041L75.946 10.9706L76.5731 11.6041L75.9712 12.2375ZM76.9261 16.0381C76.6677 16.0381 76.4597 16.0034 76.2989 15.9341C76.1382 15.8648 76.0185 15.7734 75.9334 15.6631C75.8483 15.5496 75.7947 15.4267 75.7664 15.2944C75.738 15.162 75.7254 15.0296 75.7254 14.9004V12.6062H76.6424V14.6483C76.6424 14.8279 76.6834 14.9572 76.7653 15.0296C76.8473 15.1021 76.9922 15.1399 77.2065 15.1399H77.4334V16.0381H76.9292H76.9261Z" fill="#181B71"/>
<path d="M77.4335 15.1399H77.4997V16.0381H77.4335C77.3043 16.0381 77.2382 15.8868 77.2382 15.5843C77.2382 15.2817 77.3012 15.1368 77.4335 15.1368V15.1399ZM77.8464 12.6503L79.7025 11.1124L80.2982 11.8246L78.4546 13.3499L78.5901 12.9875C79.1038 13.1356 79.4977 13.3499 79.775 13.6367C80.0524 13.9235 80.232 14.2701 80.3108 14.6735C80.3896 15.08 80.3896 15.5338 80.3076 16.0381H77.4304V15.1399H79.5166C79.4788 14.9162 79.3937 14.7082 79.2677 14.5128C79.1416 14.3174 78.962 14.1504 78.7319 14.0054C78.5019 13.8604 78.2056 13.7533 77.8432 13.684V12.6503H77.8464Z" fill="#181B71"/>
<path d="M81.2719 17.6358C81.0828 17.6358 80.8748 17.5949 80.6479 17.5161C80.421 17.4373 80.213 17.3176 80.0239 17.1631L80.3139 16.5801C80.4777 16.6306 80.6227 16.6715 80.7487 16.6999C80.8748 16.7282 80.9946 16.7409 81.108 16.7409C81.3507 16.7409 81.5618 16.6904 81.7446 16.5927C81.9274 16.495 82.0723 16.3595 82.1732 16.1925C82.2772 16.0255 82.3276 15.8396 82.3276 15.6379C82.3276 15.5055 82.3087 15.3921 82.2709 15.3007C82.2331 15.2093 82.1826 15.121 82.1228 15.0359C82.0629 14.9509 81.9967 14.85 81.9211 14.7397L83.1438 15.3542V15.6379C83.1438 15.786 83.1217 15.9467 83.0776 16.1232C83.0335 16.2997 82.9673 16.4761 82.8728 16.6526C82.7814 16.8291 82.6616 16.993 82.5135 17.1442C82.3686 17.2955 82.1889 17.4152 81.9841 17.5035C81.7761 17.5917 81.5366 17.6358 81.2656 17.6358H81.2719ZM83.7079 16.0381C83.5566 16.0381 83.4148 16.0223 83.2856 15.994C83.1533 15.9625 83.0335 15.9183 82.9201 15.8553C82.8066 15.7923 82.7026 15.7135 82.5986 15.6127C82.4978 15.515 82.3938 15.3952 82.2929 15.2565L81.4704 14.1315L82.1826 13.2523L83.0177 14.6924C83.0871 14.8059 83.1501 14.8941 83.2037 14.9603C83.2573 15.0265 83.3266 15.0738 83.4054 15.099C83.4842 15.1242 83.585 15.1368 83.7079 15.1368H83.7741V16.0349H83.7079V16.0381Z" fill="#181B71"/>
<path d="M83.7741 15.1399H83.8403V16.0381H83.7741C83.6449 16.0381 83.5787 15.8868 83.5787 15.5843C83.5787 15.2817 83.6418 15.1368 83.7741 15.1368V15.1399ZM83.7741 15.1399H84.291V16.0381H83.7741V15.1399Z" fill="#181B71"/>
<path d="M84.291 15.1399H84.3571V16.0381H84.291C84.1618 16.0381 84.0956 15.8868 84.0956 15.5843C84.0956 15.2817 84.1586 15.1368 84.291 15.1368V15.1399ZM84.291 16.0381V15.1399H84.9874C85.0126 15.0548 85.0378 14.9571 85.0599 14.8468C85.082 14.7365 85.0977 14.6199 85.1072 14.497C85.1166 14.3741 85.1198 14.2481 85.1166 14.1189L86.1881 13.7501C86.1314 14.0275 86.0747 14.2638 86.0211 14.4687C85.9644 14.6704 85.9013 14.8563 85.8352 15.0202C85.7658 15.1872 85.687 15.3479 85.5956 15.5086C85.5043 15.6693 85.394 15.8458 85.2647 16.0381H84.2878H84.291ZM86.3709 16.0381C86.0778 16.0381 85.8257 16.0097 85.6177 15.9561C85.4097 15.9025 85.2364 15.8395 85.104 15.7702C84.9717 15.6977 84.8677 15.6347 84.8015 15.578L85.1702 14.9256C85.2868 14.9949 85.4255 15.0485 85.583 15.0832C85.7438 15.121 85.9171 15.1368 86.1062 15.1368H86.7963C86.8215 15.0674 86.8467 14.976 86.8688 14.8657C86.8909 14.7523 86.9066 14.6325 86.9161 14.5033C86.9255 14.3741 86.9287 14.2449 86.9255 14.1157L88.0065 13.747C87.9497 14.0243 87.893 14.2607 87.8394 14.4655C87.7827 14.6672 87.7197 14.8531 87.6472 15.017C87.5747 15.184 87.4959 15.3448 87.4045 15.5055C87.3132 15.6662 87.2029 15.8427 87.0737 16.0349H86.3677L86.3709 16.0381ZM86.9791 13.3751L86.352 12.7354L86.9413 12.102L87.5684 12.7354L86.9791 13.3751ZM87.5274 12.3604L86.8877 11.727L87.4896 11.0872L88.1168 11.727L87.5274 12.3604ZM88.6336 16.0381C88.3563 16.0381 88.1231 16.0097 87.9245 15.9561C87.7291 15.9025 87.5621 15.8364 87.4235 15.7607C87.2848 15.6851 87.165 15.6126 87.061 15.5433L87.5653 14.9823C87.6598 15.0296 87.7796 15.0674 87.9245 15.0958C88.0695 15.1242 88.2271 15.1368 88.4004 15.1368H89.2008C89.1662 14.913 89.1031 14.6987 89.0086 14.4939C88.9172 14.289 88.8038 14.0905 88.6683 13.8951L89.4813 13.0663C89.579 13.2554 89.6704 13.4539 89.7523 13.6651C89.8343 13.8731 89.8941 14.0968 89.932 14.3363C89.9698 14.5758 89.9761 14.8342 89.9509 15.1147C89.9257 15.3952 89.8532 15.7009 89.7366 16.0318H88.6241L88.6336 16.0381ZM88.1042 13.3751L87.477 12.7354L88.0789 12.102L88.7061 12.7354L88.1042 13.3751Z" fill="#181B71"/>
<path d="M12.1493 23.8094L11.9381 23.2201H10.6303L10.416 23.8094H10L11.0305 21.0992H11.5536L12.5715 23.8094H12.1493ZM10.7437 22.9018H11.8247L11.2984 21.4332H11.2795L10.7437 22.9018Z" fill="#181B71" stroke="#181B71" stroke-width="0.248775"/>
<path d="M13.2932 23.8094V21.0992H13.6934V22.262H15.1273V21.0992H15.5276V23.8094H15.1273V22.6055H13.6934V23.8094H13.2932Z" fill="#181B71" stroke="#181B71" stroke-width="0.248775"/>
<path d="M16.5769 23.8094V21.0992H17.2103L18.0612 23.3335H18.0801L18.9184 21.0992H19.5487V23.8094H19.1547V21.5278H19.1295L18.2471 23.8094H17.8469L16.9645 21.5278H16.9393V23.8094H16.5769Z" fill="#181B71" stroke="#181B71" stroke-width="0.248775"/>
<path d="M22.4228 23.8094L22.2116 23.2201H20.9007L20.6864 23.8094H20.2704L21.3009 21.0992H21.824L22.8419 23.8094H22.4196H22.4228ZM21.0173 22.9018H22.0982L21.5719 21.4332H21.553L21.0173 22.9018Z" fill="#181B71" stroke="#181B71" stroke-width="0.248775"/>
<path d="M24.5469 21.0992C24.9754 21.0992 25.2969 21.2063 25.5017 21.4238C25.7097 21.6381 25.8137 21.9847 25.8137 22.4543C25.8137 22.9238 25.7097 23.261 25.4986 23.4816C25.2874 23.6991 24.9597 23.8094 24.509 23.8094H23.5668V21.0992H24.5469ZM24.5406 23.4659C24.7328 23.4659 24.8935 23.4344 25.0227 23.3745C25.1519 23.3146 25.2465 23.2106 25.3126 23.0625C25.3757 22.9144 25.4103 22.7127 25.4103 22.4511C25.4103 22.1896 25.3788 21.9879 25.3126 21.8398C25.2496 21.6916 25.1519 21.5876 25.0227 21.5278C24.8935 21.4679 24.7328 21.4364 24.5406 21.4364H23.967V23.4596H24.5406V23.4659Z" fill="#181B71" stroke="#181B71" stroke-width="0.248775"/>
<path d="M29.6805 23.8094L29.4693 23.2201H28.1584L27.9441 23.8094H27.5281L28.5586 21.0992H29.0817L30.0996 23.8094H29.6773H29.6805ZM28.275 22.9018H29.3559L28.8296 21.4332H28.8107L28.275 22.9018Z" fill="#181B71" stroke="#181B71" stroke-width="0.248775"/>
<path d="M31.2277 23.4659H32.5072V23.8094H30.8275V21.0992H31.2277V23.4659Z" fill="#181B71" stroke="#181B71" stroke-width="0.248775"/>
<path d="M33.1155 22.5961V22.2715H34.3036V22.5961H33.1155Z" fill="#181B71" stroke="#181B71" stroke-width="0.248775"/>
<path d="M37.1052 21.4427H35.6461V22.3314H36.8562V22.6623H35.6461V23.8063H35.2458V21.0961H37.1052V21.4396V21.4427Z" fill="#181B71" stroke="#181B71" stroke-width="0.248775"/>
<path d="M38.2017 23.4659H39.4812V23.8094H37.8015V21.0992H38.2017V23.4659Z" fill="#181B71" stroke="#181B71" stroke-width="0.248775"/>
<path d="M42.0181 23.8094L41.807 23.2201H40.496L40.2817 23.8094H39.8657L40.8962 21.0992H41.4194L42.4373 23.8094H42.015H42.0181ZM40.6126 22.9018H41.6935L41.1672 21.4332H41.1483L40.6126 22.9018Z" fill="#181B71" stroke="#181B71" stroke-width="0.248775"/>
<path d="M43.1621 23.8094V21.0992H43.5623V23.8094H43.1621Z" fill="#181B71" stroke="#181B71" stroke-width="0.248775"/>
<path d="M46.3576 21.0992V22.7568C46.3576 23.135 46.2725 23.4155 46.1055 23.5982C45.9353 23.7779 45.6769 23.8693 45.3271 23.8693C45.097 23.8693 44.9048 23.8314 44.7567 23.7558C44.6086 23.6802 44.4951 23.5667 44.4195 23.4155C44.3438 23.2642 44.2997 23.0783 44.2871 22.8514L44.681 22.8198C44.6936 22.9837 44.7252 23.1161 44.7693 23.2201C44.8165 23.3241 44.8859 23.3997 44.9773 23.447C45.0687 23.4942 45.1916 23.5195 45.3397 23.5195C45.5603 23.5195 45.721 23.4596 45.8155 23.3398C45.9101 23.2201 45.9573 23.0341 45.9573 22.782V21.4427H44.8071V21.0992H46.3576Z" fill="#181B71" stroke="#181B71" stroke-width="0.248775"/>
<path d="M48.5353 23.8094V21.0992H49.1687L50.0196 23.3335H50.0385L50.8768 21.0992H51.507V23.8094H51.1131V21.5278H51.0879L50.2055 23.8094H49.8053L48.9229 21.5278H48.8977V23.8094H48.5353Z" fill="#181B71" stroke="#181B71" stroke-width="0.248775"/>
<path d="M53.6751 23.8661C53.401 23.8661 53.1646 23.8094 52.9692 23.6991C52.7738 23.5888 52.6257 23.4281 52.5217 23.2169C52.4177 23.0058 52.3673 22.7537 52.3673 22.4543C52.3673 22.1549 52.4177 21.9028 52.5217 21.6917C52.6257 21.4805 52.7738 21.3198 52.9692 21.2095C53.1646 21.0992 53.3978 21.0425 53.6751 21.0425C53.9525 21.0425 54.1857 21.0992 54.381 21.2095C54.5764 21.3198 54.7246 21.4805 54.8285 21.6917C54.9325 21.9028 54.983 22.1549 54.983 22.4543C54.983 22.7537 54.9325 23.0058 54.8285 23.2169C54.7246 23.4281 54.5764 23.5888 54.381 23.6991C54.1857 23.8094 53.9493 23.8661 53.6751 23.8661ZM53.6751 23.5195C53.9682 23.5195 54.192 23.4281 54.3464 23.2485C54.5008 23.0688 54.5764 22.8041 54.5764 22.4543C54.5764 22.1045 54.5008 21.8398 54.3464 21.6602C54.192 21.4805 53.9682 21.3891 53.6751 21.3891C53.3821 21.3891 53.1615 21.4805 53.007 21.6602C52.8526 21.8398 52.777 22.1045 52.777 22.4543C52.777 22.8041 52.8526 23.0688 53.007 23.2485C53.1615 23.4281 53.3821 23.5195 53.6751 23.5195Z" fill="#181B71" stroke="#181B71" stroke-width="0.248775"/>
<path d="M56.3191 23.8094V21.4427H55.4525V21.0992H57.5829V21.4427H56.7194V23.8094H56.3191Z" fill="#181B71" stroke="#181B71" stroke-width="0.248775"/>
<path d="M59.3571 23.8661C59.083 23.8661 58.8466 23.8094 58.6512 23.6991C58.4558 23.5888 58.3077 23.4281 58.2037 23.2169C58.0997 23.0058 58.0493 22.7537 58.0493 22.4543C58.0493 22.1549 58.0997 21.9028 58.2037 21.6917C58.3077 21.4805 58.4558 21.3198 58.6512 21.2095C58.8466 21.0992 59.0798 21.0425 59.3571 21.0425C59.6345 21.0425 59.8677 21.0992 60.0631 21.2095C60.2584 21.3198 60.4066 21.4805 60.5106 21.6917C60.6145 21.9028 60.665 22.1549 60.665 22.4543C60.665 22.7537 60.6145 23.0058 60.5106 23.2169C60.4066 23.4281 60.2584 23.5888 60.0631 23.6991C59.8677 23.8094 59.6313 23.8661 59.3571 23.8661ZM59.3571 23.5195C59.6502 23.5195 59.874 23.4281 60.0284 23.2485C60.1828 23.0688 60.2584 22.8041 60.2584 22.4543C60.2584 22.1045 60.1828 21.8398 60.0284 21.6602C59.874 21.4805 59.6502 21.3891 59.3571 21.3891C59.0641 21.3891 58.8435 21.4805 58.689 21.6602C58.5346 21.8398 58.459 22.1045 58.459 22.4543C58.459 22.8041 58.5346 23.0688 58.689 23.2485C58.8435 23.4281 59.0641 23.5195 59.3571 23.5195Z" fill="#181B71" stroke="#181B71" stroke-width="0.248775"/>
<path d="M63.6304 23.8094H63.1735L62.3667 22.6969H61.9287V23.8094H61.5284V21.0992H62.6882C63.0096 21.0992 63.246 21.1685 63.3972 21.3072C63.5485 21.4458 63.6241 21.6444 63.6241 21.9059C63.6241 22.0635 63.5926 22.2022 63.5296 22.3188C63.4666 22.4354 63.3689 22.5236 63.2397 22.5866C63.1104 22.6497 62.9466 22.6812 62.748 22.6812H62.6535L62.7134 22.5551L63.6336 23.8125L63.6304 23.8094ZM61.9287 22.3786H62.6031C62.83 22.3786 62.9907 22.344 63.0884 22.2715C63.1861 22.199 63.2333 22.0793 63.2333 21.9059C63.2333 21.7326 63.1861 21.6097 63.0884 21.5404C62.9907 21.471 62.8331 21.4364 62.6125 21.4364H61.9287V22.3786Z" fill="#181B71" stroke="#181B71" stroke-width="0.248775"/>
<path d="M65.3447 23.8662C64.9886 23.8662 64.7208 23.8031 64.538 23.6739C64.3584 23.5447 64.2544 23.3525 64.2323 23.0941L64.6262 23.0626C64.6577 23.2201 64.7271 23.3367 64.8374 23.4155C64.9477 23.4943 65.121 23.5353 65.3573 23.5353C65.5559 23.5353 65.7103 23.4943 65.8206 23.4092C65.9309 23.3241 65.9876 23.217 65.9876 23.0815C65.9876 22.946 65.9467 22.8514 65.8616 22.7884C65.7765 22.7254 65.641 22.6781 65.4487 22.6434L65.1084 22.5836C64.8374 22.5331 64.6388 22.4449 64.5096 22.322C64.3804 22.1991 64.3174 22.0289 64.3174 21.8178C64.3174 21.6539 64.3552 21.5121 64.434 21.3955C64.5128 21.2789 64.6262 21.1938 64.7743 21.1308C64.9225 21.0709 65.1021 21.0394 65.3101 21.0394C65.5307 21.0394 65.7135 21.0677 65.8647 21.1213C66.0128 21.1749 66.1294 21.26 66.2114 21.3734C66.2933 21.4869 66.3437 21.635 66.3658 21.8146L65.9719 21.8398C65.9404 21.6633 65.8773 21.5404 65.7765 21.4711C65.6756 21.4018 65.5212 21.3671 65.3069 21.3671C65.121 21.3671 64.9729 21.4018 64.8689 21.4743C64.7649 21.5467 64.7113 21.6507 64.7113 21.7862C64.7113 21.9155 64.7523 22.0163 64.8311 22.0888C64.9099 22.1613 65.0422 22.2117 65.2281 22.24L65.5685 22.2968C65.8458 22.344 66.0538 22.4291 66.183 22.5489C66.3154 22.6686 66.3816 22.842 66.3816 23.0657C66.3816 23.2264 66.3406 23.3682 66.2618 23.488C66.183 23.6078 66.0633 23.6991 65.912 23.7653C65.7576 23.8315 65.5716 23.863 65.3479 23.863L65.3447 23.8662Z" fill="#181B71" stroke="#181B71" stroke-width="0.248775"/>
<path d="M69.5267 23.8661C69.2557 23.8661 69.0257 23.8094 68.8334 23.696C68.6412 23.5825 68.4931 23.4218 68.3922 23.2107C68.2914 22.9995 68.241 22.7474 68.241 22.4512C68.241 22.1549 68.2914 21.9028 68.3954 21.6917C68.4962 21.4805 68.6443 21.3198 68.8366 21.2064C69.0288 21.0929 69.2589 21.0362 69.5236 21.0362C69.7536 21.0362 69.949 21.0709 70.116 21.1433C70.2831 21.2158 70.4154 21.3198 70.5163 21.4585C70.6171 21.5971 70.6801 21.7642 70.7085 21.9659L70.3114 21.9911C70.2642 21.7862 70.1791 21.6318 70.0562 21.5341C69.9333 21.4364 69.7536 21.386 69.5204 21.386C69.2368 21.386 69.0225 21.4774 68.8744 21.6633C68.7263 21.8461 68.6506 22.1108 68.6506 22.4512C68.6506 22.7915 68.7263 23.0562 68.8744 23.239C69.0225 23.4249 69.24 23.5163 69.5236 23.5163C69.6812 23.5163 69.8135 23.4943 69.9207 23.4533C70.0278 23.4123 70.1129 23.3462 70.1759 23.2548C70.2389 23.1665 70.2862 23.0468 70.3146 22.905L70.7148 22.9365C70.6707 23.2359 70.5509 23.4659 70.3492 23.6235C70.1476 23.7842 69.8734 23.863 69.5236 23.863L69.5267 23.8661Z" fill="#181B71" stroke="#181B71" stroke-width="0.248775"/>
<path d="M72.6717 23.8661C72.3975 23.8661 72.1612 23.8094 71.9658 23.6991C71.7704 23.5888 71.6223 23.4281 71.5183 23.2169C71.4143 23.0058 71.3639 22.7537 71.3639 22.4543C71.3639 22.1549 71.4143 21.9028 71.5183 21.6917C71.6223 21.4805 71.7704 21.3198 71.9658 21.2095C72.1612 21.0992 72.3944 21.0425 72.6717 21.0425C72.949 21.0425 73.1822 21.0992 73.3776 21.2095C73.573 21.3198 73.7211 21.4805 73.8251 21.6917C73.9291 21.9028 73.9795 22.1549 73.9795 22.4543C73.9795 22.7537 73.9291 23.0058 73.8251 23.2169C73.7211 23.4281 73.573 23.5888 73.3776 23.6991C73.1822 23.8094 72.9459 23.8661 72.6717 23.8661ZM72.6717 23.5195C72.9648 23.5195 73.1885 23.4281 73.343 23.2485C73.4974 23.0688 73.573 22.8041 73.573 22.4543C73.573 22.1045 73.4974 21.8398 73.343 21.6602C73.1885 21.4805 72.9648 21.3891 72.6717 21.3891C72.3786 21.3891 72.158 21.4805 72.0036 21.6602C71.8492 21.8398 71.7736 22.1045 71.7736 22.4543C71.7736 22.8041 71.8492 23.0688 72.0036 23.2485C72.158 23.4281 72.3786 23.5195 72.6717 23.5195Z" fill="#181B71" stroke="#181B71" stroke-width="0.248775"/>
<path d="M74.84 23.8094V21.0992H75.4734L76.3243 23.3335H76.3432L77.1814 21.0992H77.8117V23.8094H77.4178V21.5278H77.3926L76.5102 23.8094H76.11L75.2276 21.5278H75.2024V23.8094H74.84Z" fill="#181B71" stroke="#181B71" stroke-width="0.248775"/>
<path d="M80.005 21.0992C80.3328 21.0992 80.5754 21.1685 80.7298 21.3103C80.8843 21.4521 80.9599 21.657 80.9599 21.928C80.9599 22.199 80.8811 22.4039 80.7267 22.5457C80.5723 22.6875 80.3296 22.76 79.9956 22.76H79.2581V23.8094H78.8579V21.0992H80.0019H80.005ZM79.9073 22.4228C80.15 22.4228 80.3202 22.385 80.421 22.3125C80.5187 22.24 80.5691 22.1108 80.5691 21.928C80.5691 21.7452 80.5187 21.6129 80.421 21.5435C80.3233 21.471 80.1531 21.4364 79.9136 21.4364H79.2644V22.4259H79.9105L79.9073 22.4228Z" fill="#181B71" stroke="#181B71" stroke-width="0.248775"/>
<path d="M83.4968 23.8094L83.2856 23.2201H81.9746L81.7603 23.8094H81.3444L82.3749 21.0992H82.898L83.9159 23.8094H83.4936H83.4968ZM82.0944 22.9018H83.1753L82.649 21.4332H82.6301L82.0944 22.9018Z" fill="#181B71" stroke="#181B71" stroke-width="0.248775"/>
<path d="M84.6439 23.8094V21.0992H85.0536L86.5379 23.1791H86.5568V21.0992H86.9192V23.8094H86.5095L85.0284 21.7295H85.0063V23.8094H84.6439Z" fill="#181B71" stroke="#181B71" stroke-width="0.248775"/>
<path d="M88.5863 23.8094V22.8167L87.5369 21.0992H87.9749L88.8006 22.448H88.8163L89.6168 21.0992H90.0328L88.9834 22.8167V23.8094H88.5863Z" fill="#181B71" stroke="#181B71" stroke-width="0.248775"/>
<path d="M106.385 8.02219C107.372 7.04211 108.333 6.52213 109.168 6.52213C109.178 6.52213 109.184 6.52213 109.193 6.52213C110.028 6.53158 110.983 7.06732 111.951 8.07576C113.006 9.17245 114.056 10.8112 114.989 12.8155C117.053 17.2652 118.439 23.2119 118.9 29.5966C118.909 29.7321 118.915 29.8645 118.925 30H120.456C120.447 29.8645 120.437 29.729 120.431 29.5935C119.965 22.9882 118.528 16.8114 116.375 12.1757C115.361 9.99181 114.245 8.25539 113.054 7.02005C112.446 6.38977 111.825 5.89815 111.204 5.56095C110.536 5.19854 109.868 5.00946 109.215 5.00316C108.563 4.99685 107.885 5.17018 107.208 5.51999C106.578 5.84458 105.941 6.32359 105.317 6.94757C104.091 8.16715 102.931 9.88782 101.863 12.0686C99.591 16.7106 98.0216 22.9283 97.4354 29.5966C97.4228 29.7321 97.4102 29.8676 97.4008 30.0063H98.9323C98.9323 29.9559 98.9386 29.9023 98.9449 29.8487C99.3515 25.7393 100.423 21.9135 101.973 19.0269C102.005 18.967 102.09 18.9607 102.134 19.0143C102.824 19.9471 103.473 21.1257 104.041 22.4965C104.904 24.5796 105.553 27.044 105.919 29.6376C105.928 29.7006 105.935 29.7668 105.944 29.833C105.95 29.8929 105.957 29.9496 105.963 30.0063H107.504C107.485 29.8708 107.469 29.7353 107.451 29.5998C107.072 26.8139 106.379 24.1605 105.446 21.9135C104.728 20.1866 103.88 18.718 102.963 17.6087C102.919 17.5552 102.916 17.4795 102.957 17.4228C103.436 16.7452 103.93 16.1748 104.425 15.7431C105.131 15.1254 105.818 14.8008 106.411 14.8008C106.417 14.8008 106.423 14.8008 106.426 14.8008C107.019 14.8071 107.696 15.1443 108.39 15.7746C109.159 16.4774 109.928 17.5299 110.611 18.8189C112.159 21.7434 113.192 25.6763 113.52 29.8897C113.52 29.9307 113.526 29.9685 113.526 30.0095H115.061C115.049 29.8676 115.036 29.7227 115.023 29.5809C114.664 25.2351 113.577 21.1667 111.957 18.1066C111.182 16.6444 110.328 15.4815 109.417 14.6496C108.431 13.7483 107.428 13.2882 106.442 13.2787C105.453 13.2693 104.438 13.7105 103.423 14.596C102.922 15.0309 102.437 15.5635 101.97 16.1843C101.907 16.2662 101.781 16.1969 101.816 16.0992C102.248 14.9048 102.72 13.7798 103.231 12.7398C104.208 10.7418 105.301 9.11257 106.389 8.02849L106.385 8.02219Z" fill="#181B71"/>
</g>
<defs>
<clipPath id="clip0_163_527">
<rect width="110.456" height="25" fill="white" transform="translate(10 5)"/>
</clipPath>
</defs>
</svg>
