<svg width="136" height="41" viewBox="0 0 136 41" fill="none" xmlns="http://www.w3.org/2000/svg">
<g filter="url(#filter0_d_163_528)">
<rect x="3" y="3" width="130" height="35" rx="4" fill="white"/>
<g clip-path="url(#clip0_163_528)">
<path d="M15.0263 19.0381C14.418 19.0381 13.9737 18.9215 13.6869 18.6851C13.4033 18.4519 13.2615 18.1242 13.2615 17.705C13.2615 17.5159 13.293 17.3016 13.3592 17.0621C13.4253 16.8226 13.5419 16.5516 13.7153 16.2522L14.3928 16.5548C14.3109 16.7628 14.2542 16.9361 14.2258 17.0747C14.1943 17.2134 14.1817 17.3395 14.1817 17.4529C14.1817 17.6388 14.2226 17.7807 14.3077 17.8783C14.3928 17.976 14.5094 18.0454 14.6575 18.0832C14.8057 18.121 14.979 18.1368 15.1712 18.1368H17.5316L17.7837 19.0349H15.0263V19.0381ZM15.4801 16.0442L14.8529 15.4108L15.4422 14.7774L16.0694 15.4108L15.4801 16.0442ZM16.602 16.0442L15.9748 15.4108L16.5767 14.7774L17.2039 15.4108L16.602 16.0442ZM16.8099 18.1399H16.8761V19.0381H16.8099C16.6807 19.0381 16.6146 18.8868 16.6146 18.5843C16.6146 18.2817 16.6776 18.1368 16.8099 18.1368V18.1399ZM16.8099 19.0381V18.1399H17.9539C17.9318 17.9414 17.8751 17.7397 17.7806 17.5348C17.686 17.33 17.5631 17.1189 17.4119 16.9046L18.2249 16.0694C18.3541 16.3247 18.4676 16.5989 18.5621 16.8888C18.6567 17.1819 18.7071 17.5033 18.7134 17.8563C18.7197 18.2061 18.6472 18.6 18.4959 19.0349H16.8099V19.0381Z" fill="#181B71"/>
<path d="M19.5895 14.2542H20.5065V19.0381H19.5895V14.2542Z" fill="#181B71"/>
<path d="M21.6569 20.6358C21.4678 20.6358 21.263 20.6011 21.0392 20.5287C20.8186 20.4562 20.6075 20.3364 20.4089 20.1631L20.6989 19.5801C20.8438 19.6368 20.9856 19.6778 21.1212 19.703C21.2567 19.7282 21.3796 19.7408 21.493 19.7408C21.742 19.7408 21.9594 19.6935 22.1391 19.5959C22.3187 19.4982 22.4605 19.3627 22.5613 19.1862C22.6622 19.0097 22.7126 18.8017 22.7126 18.559C22.7126 18.4456 22.6874 18.3321 22.6338 18.2124C22.5834 18.0926 22.4952 17.9508 22.3691 17.7807C22.243 17.6105 22.0729 17.393 21.8523 17.1315L22.5645 16.2522C22.7914 16.5611 22.9773 16.8478 23.1191 17.1063C23.2609 17.3647 23.3649 17.6073 23.428 17.8342C23.4941 18.0611 23.5257 18.288 23.5257 18.5149C23.5257 18.682 23.5068 18.8616 23.4658 19.0538C23.4248 19.2461 23.3586 19.4351 23.2672 19.6179C23.1759 19.8007 23.0593 19.9709 22.9143 20.1253C22.7693 20.2797 22.5929 20.4026 22.3817 20.494C22.1706 20.5854 21.9279 20.6327 21.6506 20.6327L21.6569 20.6358Z" fill="#181B71"/>
<path d="M25.5426 19.038C25.322 19.038 25.1361 19.016 24.988 18.9656C24.8367 18.9183 24.7138 18.8458 24.6193 18.7513C24.5247 18.6567 24.4554 18.5401 24.4113 18.3983C24.3672 18.2596 24.3451 18.0958 24.3451 17.9098V14.2511H25.2621V17.6042C25.2621 17.6987 25.2685 17.7806 25.2811 17.85C25.2937 17.9193 25.3189 17.976 25.3567 18.017C25.3945 18.0611 25.4449 18.0895 25.5111 18.1084C25.5773 18.1273 25.6655 18.1336 25.7727 18.1336H26.0248V19.0317H25.5395L25.5426 19.038Z" fill="#181B71"/>
<path d="M26.0279 18.1399H26.0941V19.038H26.0279C25.8987 19.038 25.8325 18.8868 25.8325 18.5842C25.8325 18.2817 25.8955 18.1367 26.0279 18.1367V18.1399ZM26.0279 19.038V18.1399H26.8882C26.9134 18.0706 26.9387 17.9729 26.9607 17.8437C26.9828 17.7145 27.0017 17.5789 27.0143 17.4403C27.03 17.3016 27.0364 17.1787 27.0364 17.0747L28.1078 16.6997C28.0353 17.0085 27.9629 17.2953 27.8872 17.56C27.8147 17.8216 27.7265 18.0737 27.6257 18.3132C27.5248 18.5527 27.3956 18.7954 27.2412 19.0412H26.0248L26.0279 19.038ZM26.7307 20.7177L26.1035 20.0843L26.6928 19.4509L27.32 20.0843L26.7307 20.7177ZM28.5616 19.038C28.2843 19.038 28.0511 19.0097 27.8526 18.9561C27.6572 18.9025 27.4902 18.8364 27.3546 18.7607C27.2191 18.6851 27.0994 18.6126 26.9954 18.5433L27.4807 17.9666C27.55 18.0044 27.6257 18.0359 27.7139 18.0611C27.799 18.0863 27.8967 18.1021 28.0007 18.1147C28.1047 18.1273 28.215 18.1336 28.3284 18.1336H28.5805V19.0317H28.5616V19.038ZM27.8557 20.7177L27.2286 20.0843L27.8305 19.4509L28.4576 20.0843L27.8557 20.7177Z" fill="#181B71"/>
<path d="M28.5805 18.1399H28.6467V19.0381H28.5805C28.4513 19.0381 28.3851 18.8868 28.3851 18.5843C28.3851 18.2817 28.4482 18.1368 28.5805 18.1368V18.1399ZM28.5805 19.0381V18.1399H29.277C29.3022 18.0548 29.3242 17.9571 29.3463 17.8468C29.3652 17.7365 29.3778 17.6199 29.3841 17.497C29.3904 17.3741 29.3904 17.2481 29.381 17.1189L30.4587 16.7501C30.402 17.0275 30.3485 17.2638 30.2949 17.4687C30.2413 17.6704 30.1814 17.8563 30.1152 18.0202C30.0491 18.1872 29.9703 18.3479 29.882 18.5086C29.7938 18.6693 29.6835 18.8458 29.5543 19.0381H28.5774H28.5805ZM30.6636 19.0381C30.3705 19.0381 30.1184 19.0097 29.9104 18.9561C29.7024 18.9025 29.5291 18.8395 29.3967 18.7702C29.2644 18.6977 29.1604 18.6347 29.0942 18.578L29.4629 17.9319C29.5795 17.9981 29.715 18.0485 29.8726 18.0832C30.0302 18.121 30.2035 18.1368 30.3926 18.1368H31.0922C31.1174 18.0674 31.1394 17.976 31.1615 17.8657C31.1804 17.7523 31.193 17.6325 31.1993 17.5033C31.2056 17.3741 31.2056 17.2449 31.1993 17.1157L32.2866 16.747C32.2267 17.0243 32.1668 17.2607 32.1132 17.4655C32.0565 17.6672 31.9966 17.8531 31.9336 18.017C31.8674 18.184 31.7918 18.3448 31.7004 18.5055C31.609 18.6662 31.4987 18.8427 31.3695 19.0349H30.6636V19.0381ZM32.8916 19.0381C32.6143 19.0381 32.3811 19.0097 32.1826 18.9561C31.9872 18.9025 31.8202 18.8364 31.6846 18.7607C31.5491 18.6851 31.4294 18.6126 31.3254 18.5433L31.8044 17.9666C32.025 18.08 32.3055 18.1336 32.6521 18.1336H33.4715C33.4368 18.017 33.399 17.9067 33.3612 17.7996C33.3234 17.6924 33.2792 17.5821 33.2288 17.4655C33.1784 17.3489 33.1185 17.2166 33.046 17.0653L34.0986 16.3594C34.1333 16.6209 34.1616 16.8983 34.1837 17.185C34.2058 17.4718 34.2026 17.768 34.1805 18.0737C34.1553 18.3794 34.0923 18.6977 33.9883 19.0318H32.8885L32.8916 19.0381ZM34.7667 19.0381C34.5556 19.0381 34.3633 19.0223 34.1931 18.9876C34.023 18.953 33.8717 18.9057 33.7425 18.849C33.6133 18.7922 33.4998 18.7324 33.399 18.6788L33.7551 17.9949C33.8055 18.0202 33.8623 18.0422 33.9221 18.058C33.982 18.0737 34.045 18.0895 34.1112 18.1021C34.1774 18.1147 34.2467 18.1242 34.3224 18.1305C34.3948 18.1368 34.4705 18.1399 34.5493 18.1399H34.8014V19.0381H34.7636H34.7667Z" fill="#181B71"/>
<path d="M34.8045 18.1399H34.8707V19.0381H34.8045C34.6753 19.0381 34.6091 18.8868 34.6091 18.5843C34.6091 18.2817 34.6722 18.1368 34.8045 18.1368V18.1399ZM34.8045 19.0381V18.1399H35.4884V14.2542H36.4054V19.0381H34.8014H34.8045ZM36.2132 18.1399H36.9884V19.0381H36.2132V18.1399Z" fill="#181B71"/>
<path d="M36.9915 18.1399H37.0577V19.0381H36.9915C36.8623 19.0381 36.7961 18.8868 36.7961 18.5843C36.7961 18.2817 36.8592 18.1368 36.9915 18.1368V18.1399ZM36.9915 19.0381V18.1399H37.6754V14.2542H38.5924V19.0381H36.9884H36.9915Z" fill="#181B71"/>
<path d="M45.3805 20.8816L45.5822 21.5938C45.3585 21.6789 45.141 21.7546 44.933 21.8144C44.725 21.8743 44.5108 21.9184 44.2902 21.9468C44.0696 21.9752 43.8301 21.9878 43.5653 21.9878C43.225 21.9878 42.9098 21.9468 42.6168 21.8649C42.3268 21.7829 42.0747 21.6632 41.8604 21.5056C41.6461 21.348 41.4823 21.1558 41.3625 20.9257C41.2428 20.6988 41.186 20.4341 41.186 20.1379C41.186 19.8417 41.2396 19.5549 41.3499 19.2902C41.4602 19.0286 41.6272 18.7859 41.851 18.5622C42.0747 18.3416 42.3584 18.1368 42.6987 17.9508C43.0391 17.7649 43.4393 17.601 43.9025 17.4592C43.808 17.4119 43.7103 17.3678 43.6126 17.3237C43.5118 17.2796 43.4141 17.2418 43.3164 17.2039C43.2187 17.1661 43.121 17.1409 43.0264 17.1189C42.9319 17.1 42.8405 17.0905 42.7554 17.0905C42.6231 17.0905 42.497 17.1157 42.3836 17.163C42.2701 17.2103 42.1661 17.2796 42.0716 17.3741C41.977 17.4655 41.8856 17.579 41.7943 17.7145L41.2711 17.4245C41.3909 17.1787 41.5327 16.9644 41.6934 16.7817C41.8541 16.5989 42.0401 16.4571 42.2449 16.3562C42.4529 16.2554 42.6829 16.205 42.9351 16.205C43.1336 16.205 43.3258 16.2365 43.5149 16.2995C43.7008 16.3625 43.8836 16.4382 44.057 16.5296C44.2303 16.6209 44.3973 16.7092 44.5517 16.8006C44.7061 16.892 44.8511 16.9644 44.9835 17.0243C45.1158 17.081 45.2387 17.1094 45.3459 17.1063V17.8437C44.8889 17.9634 44.4635 18.0926 44.0727 18.225C43.6819 18.3574 43.3384 18.5118 43.0454 18.682C42.7523 18.8521 42.5222 19.0507 42.3584 19.2744C42.1913 19.4982 42.1094 19.7597 42.1094 20.056C42.1094 20.2703 42.1756 20.4562 42.3111 20.6106C42.4434 20.765 42.6451 20.8848 42.9161 20.9699C43.184 21.055 43.5181 21.0959 43.9151 21.0959C44.1263 21.0959 44.3154 21.0865 44.4792 21.0707C44.6431 21.055 44.8038 21.0297 44.9519 20.9982C45.1001 20.9667 45.245 20.932 45.3868 20.8879L45.3805 20.8816ZM43.6473 20.3774L43.1241 19.8417L43.6221 19.3059L44.1515 19.8417L43.6473 20.3774ZM45.4751 19.0381C45.1946 19.0381 44.9646 19.0097 44.7786 18.9561C44.5958 18.9025 44.4446 18.8143 44.3248 18.6914C44.2051 18.5685 44.1011 18.4109 44.0128 18.2155L44.6274 17.9256C44.6746 17.976 44.7314 18.017 44.7944 18.0485C44.8606 18.08 44.9456 18.1021 45.0496 18.1179C45.1536 18.1336 45.2891 18.1399 45.4467 18.1399H45.6799V19.0381H45.4719H45.4751Z" fill="#181B71"/>
<path d="M45.6831 18.1399H45.7492V19.038H45.6831C45.5539 19.038 45.4877 18.8868 45.4877 18.5842C45.4877 18.2817 45.5507 18.1367 45.6831 18.1367V18.1399ZM45.6831 19.038V18.1399H46.5434C46.5686 18.0706 46.5938 17.9729 46.6159 17.8437C46.6379 17.7145 46.6568 17.5789 46.6694 17.4403C46.6852 17.3016 46.6915 17.1787 46.6915 17.0747L47.763 16.6997C47.6905 17.0085 47.618 17.2953 47.5424 17.56C47.4699 17.8216 47.3817 18.0737 47.2808 18.3132C47.18 18.5527 47.0508 18.7954 46.8963 19.0412H45.6799L45.6831 19.038ZM46.389 20.7177L45.7618 20.0843L46.3512 19.4509L46.9783 20.0843L46.389 20.7177ZM48.2168 19.038C47.9395 19.038 47.7063 19.0097 47.5077 18.9561C47.3123 18.9025 47.1453 18.8364 47.0098 18.7607C46.8743 18.6851 46.7545 18.6126 46.6505 18.5433L47.1359 17.9666C47.2052 18.0044 47.2808 18.0359 47.3691 18.0611C47.4541 18.0863 47.5518 18.1021 47.6558 18.1147C47.7598 18.1273 47.8701 18.1336 47.9836 18.1336H48.2357V19.0317H48.2168V19.038ZM47.514 20.7177L46.8869 20.0843L47.4888 19.4509L48.1159 20.0843L47.514 20.7177Z" fill="#181B71"/>
<path d="M48.2357 18.1399H48.3018V19.0381H48.2357C48.1065 19.0381 48.0403 18.8868 48.0403 18.5843C48.0403 18.2817 48.1033 18.1368 48.2357 18.1368V18.1399ZM48.2357 19.0381V18.1399H48.9195V14.2542H49.8366V19.0381H48.2325H48.2357ZM49.6443 18.1399H50.4196V19.0381H49.6443V18.1399Z" fill="#181B71"/>
<path d="M50.4228 18.1399H50.489V19.0381H50.4228C50.2936 19.0381 50.2274 18.8868 50.2274 18.5843C50.2274 18.2817 50.2904 18.1368 50.4228 18.1368V18.1399ZM50.4228 19.0381V18.1399H51.1854C51.1854 18.1399 51.2075 18.1494 51.2138 18.1557C51.2201 18.162 51.2264 18.1683 51.2296 18.1714C51.2327 18.1746 51.239 18.1777 51.2485 18.1777C51.1413 18.058 51.0657 17.9288 51.0184 17.7933C50.9743 17.6578 50.9491 17.5128 50.9491 17.3647C50.9491 17.1882 50.9838 17.018 51.0499 16.8573C51.1161 16.6966 51.2138 16.5516 51.3367 16.4256C51.4628 16.2995 51.6172 16.1987 51.8 16.1262C51.9827 16.0537 52.1876 16.0159 52.4176 16.0159C52.6477 16.0159 52.8494 16.0537 53.0322 16.1262C53.2118 16.1987 53.3662 16.2995 53.4954 16.4256C53.6215 16.5516 53.7192 16.6966 53.7853 16.8573C53.8515 17.018 53.8862 17.1882 53.8862 17.3647C53.8862 17.5065 53.8673 17.6452 53.8263 17.7807C53.7853 17.9162 53.7097 18.0485 53.5963 18.1777C53.5868 18.1746 53.59 18.1683 53.6026 18.162C53.6152 18.1557 53.6183 18.1494 53.6089 18.1399H54.2864V19.0381H54.0532C53.7759 19.0381 53.5458 19.0349 53.3567 19.0255C53.1677 19.016 53.0006 19.0034 52.862 18.9813C52.7233 18.9593 52.5847 18.9246 52.4523 18.8773C52.3798 18.8994 52.3042 18.9215 52.2254 18.9435C52.1466 18.9656 52.0615 18.9813 51.967 18.994C51.8724 19.0066 51.759 19.0192 51.6266 19.0255C51.4943 19.0349 51.3336 19.0381 51.1382 19.0381H50.4197H50.4228ZM52.4302 15.4203L51.8031 14.7868L52.405 14.1534L53.0322 14.7868L52.4302 15.4203ZM52.4239 18.1777C52.5311 18.1273 52.6256 18.0643 52.7013 17.9918C52.78 17.9193 52.8368 17.8342 52.8777 17.7397C52.9187 17.6452 52.9376 17.5443 52.9376 17.4372C52.9376 17.3395 52.9156 17.2512 52.8714 17.1724C52.8273 17.0937 52.7674 17.0306 52.6887 16.9802C52.6099 16.9298 52.5185 16.9046 52.4145 16.9046C52.3105 16.9046 52.2128 16.9298 52.1372 16.9771C52.0584 17.0243 51.9985 17.0874 51.9544 17.1693C51.9103 17.2481 51.8851 17.3395 51.8851 17.4372C51.8851 17.5569 51.9103 17.6641 51.9575 17.7586C52.0048 17.85 52.071 17.9319 52.1529 18.0044C52.2349 18.0769 52.3262 18.1336 52.4239 18.1809V18.1777Z" fill="#181B71"/>
<path d="M54.2863 18.1399H54.3525V19.0381H54.2863C54.1571 19.0381 54.0909 18.8868 54.0909 18.5843C54.0909 18.2817 54.154 18.1368 54.2863 18.1368V18.1399ZM54.2863 19.0381V18.1399H54.9702V14.2542H55.8872V19.0381H54.2832H54.2863Z" fill="#181B71"/>
<path d="M56.8328 14.2542H57.7498V19.0381H56.8328V14.2542Z" fill="#181B71"/>
<path d="M60.5703 19.038L60.4095 18.1399H62.2437C62.4422 18.1399 62.584 18.121 62.6691 18.0832C62.7542 18.0453 62.8141 17.9981 62.8424 17.9414L63.1008 18.6977C63.0788 18.7796 63.022 18.8458 62.9275 18.8994C62.833 18.9498 62.7227 18.9876 62.5998 19.0097C62.4769 19.0317 62.3571 19.0412 62.2405 19.0412H60.5671L60.5703 19.038ZM61.4085 16.6587L62.105 15.7606L63.2426 17.7775C63.2994 17.8752 63.3529 17.9508 63.4065 18.0044C63.4601 18.058 63.52 18.0926 63.583 18.1115C63.6492 18.1304 63.7248 18.1399 63.8162 18.1399H63.8792V19.038H63.8162C63.6775 19.038 63.5515 19.0286 63.4317 19.0065C63.312 18.9845 63.2017 18.9466 63.0945 18.8931C62.9874 18.8395 62.8865 18.7607 62.7857 18.6567C62.6848 18.5527 62.5809 18.4204 62.4737 18.2565L61.4085 16.6587Z" fill="#181B71"/>
<path d="M63.8856 18.1399H63.9517V19.038H63.8856C63.7564 19.038 63.6902 18.8868 63.6902 18.5842C63.6902 18.2817 63.7532 18.1367 63.8856 18.1367V18.1399ZM63.8856 19.038V18.1399H63.9108C63.9707 18.1399 64.0274 18.1304 64.0747 18.1084C64.1251 18.0863 64.1755 18.0517 64.2259 17.9981C64.2763 17.9477 64.3362 17.872 64.3961 17.7743C64.4591 17.6766 64.5348 17.5569 64.6261 17.4088C64.7522 17.1976 64.872 17.018 64.9917 16.873C65.1115 16.7281 65.2281 16.6083 65.3415 16.5201C65.455 16.4318 65.5716 16.3688 65.6882 16.3278C65.8048 16.29 65.9214 16.2711 66.038 16.2711C66.2271 16.2711 66.3972 16.3121 66.5485 16.394C66.6998 16.476 66.8416 16.6115 66.9708 16.7974C67.1031 16.9833 67.2292 17.2386 67.3553 17.5569C67.434 17.7334 67.5034 17.8626 67.5695 17.9477C67.6357 18.0327 67.7051 18.0832 67.787 18.1052C67.8658 18.1273 67.9635 18.1367 68.0801 18.1367H68.1305V19.0349H67.9099C67.7208 19.0349 67.5569 19.0065 67.4151 18.9498C67.2765 18.8931 67.1536 18.8174 67.0527 18.7198C66.9519 18.6221 66.8636 18.5118 66.788 18.3889C66.7124 18.266 66.6462 18.1367 66.5895 18.0044C66.5075 17.8058 66.435 17.6451 66.3689 17.5191C66.3027 17.393 66.2428 17.3016 66.1829 17.2449C66.1231 17.1882 66.0569 17.1567 65.9812 17.1567C65.934 17.1567 65.8741 17.1819 65.8079 17.2291C65.7386 17.2764 65.6598 17.352 65.5716 17.4592C65.4833 17.5663 65.3825 17.7113 65.2722 17.8941C65.1587 18.0832 65.061 18.2439 64.9759 18.3762C64.8909 18.5086 64.8089 18.6158 64.7301 18.704C64.6514 18.7891 64.5757 18.8584 64.4969 18.9057C64.4182 18.953 64.3362 18.9876 64.2448 19.0065C64.1534 19.0254 64.0494 19.0349 63.9297 19.0349H63.8856V19.038ZM67.3237 18.7418C67.1851 18.9088 67.0244 19.0254 66.8353 19.0916C66.6493 19.1546 66.454 19.183 66.2491 19.1704C66.0474 19.1578 65.8489 19.1168 65.6535 19.0475C65.4581 18.9782 65.2816 18.8899 65.1178 18.7828C64.9539 18.6756 64.8215 18.559 64.7175 18.433L65.1839 17.8846C65.2627 17.9508 65.3636 18.0138 65.4896 18.0832C65.6157 18.1493 65.7606 18.2092 65.9214 18.2565C66.0821 18.3069 66.2554 18.3353 66.435 18.3479C66.6147 18.3573 66.8006 18.3416 66.9834 18.2943L67.3206 18.7481L67.3237 18.7418Z" fill="#181B71"/>
<path d="M68.1304 18.1399H68.1966V19.0381H68.1304C68.0012 19.0381 67.9351 18.8868 67.9351 18.5843C67.9351 18.2817 67.9981 18.1368 68.1304 18.1368V18.1399ZM68.1304 19.0381V18.1399H68.2912C68.6882 18.1399 69.0223 18.1305 69.2965 18.1084C69.5706 18.0863 69.8038 18.0548 69.9992 18.0139C70.1946 17.9729 70.3616 17.9225 70.5066 17.8626C70.6516 17.8027 70.7934 17.7334 70.9289 17.6546C70.9635 17.6325 70.9951 17.6136 71.0266 17.601C71.0581 17.5884 71.0833 17.5695 71.1117 17.5569C71.1369 17.5411 71.1621 17.5285 71.1904 17.5222C71.0266 17.4434 70.8753 17.3741 70.7366 17.3079C70.598 17.2449 70.4656 17.185 70.3364 17.1346C70.2072 17.0842 70.0843 17.0432 69.9677 17.0149C69.8511 16.9865 69.7345 16.9739 69.6179 16.9739C69.4855 16.9739 69.3563 17.0086 69.2366 17.081C69.1168 17.1535 68.9939 17.2859 68.8679 17.4844L68.266 17.1756C68.4046 16.892 68.5527 16.6682 68.7134 16.5106C68.8742 16.3499 69.0412 16.2396 69.2177 16.1734C69.3942 16.1104 69.5675 16.0757 69.7408 16.0757C69.9646 16.0757 70.1757 16.1104 70.3711 16.1829C70.5665 16.2554 70.7524 16.3405 70.9257 16.4445C71.0991 16.5485 71.2724 16.6524 71.4394 16.7564C71.6064 16.8636 71.7766 16.9518 71.9436 17.0212C72.1106 17.0936 72.2871 17.1252 72.4731 17.122L72.4605 17.9036C72.3439 17.9193 72.202 17.9634 72.0319 18.0328C71.8617 18.1021 71.6632 18.1935 71.4394 18.3101C71.2755 18.3952 71.1022 18.4834 70.9163 18.5685C70.7303 18.6536 70.5192 18.7324 70.2765 18.8049C70.0339 18.8773 69.7503 18.9341 69.4162 18.975C69.0853 19.0191 68.6914 19.0381 68.2344 19.0381H68.1304Z" fill="#181B71"/>
<path d="M73.283 14.2542H74.2V19.0381H73.283V14.2542Z" fill="#181B71"/>
<path d="M78.3252 18.8773C78.0289 18.8773 77.7642 18.8332 77.5342 18.7481C77.3041 18.663 77.1213 18.537 76.9921 18.3731C76.8598 18.2092 76.7936 18.0138 76.7936 17.7838C76.7936 17.5727 76.8472 17.3836 76.9511 17.2165C77.0551 17.0495 77.2096 16.892 77.4144 16.7501C77.6161 16.6083 77.8619 16.4728 78.1487 16.3436C78.4355 16.2144 78.7537 16.082 79.1099 15.9434L79.2517 16.8541C78.946 16.9455 78.6939 17.0306 78.4922 17.1126C78.2905 17.1945 78.1329 17.2733 78.0195 17.3489C77.906 17.4245 77.8241 17.4939 77.78 17.56C77.7358 17.6262 77.7106 17.6861 77.7106 17.7397C77.7106 17.8122 77.7548 17.872 77.843 17.9162C77.9312 17.9603 78.0825 17.9855 78.2999 17.9855C78.3504 17.9855 78.4197 17.9855 78.5048 17.9792C78.5899 17.976 78.6813 17.9634 78.7853 17.9477C78.8893 17.9319 78.9996 17.9067 79.1162 17.8752L79.3242 18.6441C79.1571 18.7229 78.9964 18.7796 78.8451 18.8175C78.6939 18.8553 78.5205 18.8742 78.3283 18.8742L78.3252 18.8773ZM77.8461 15.2375L77.219 14.604L77.8083 13.9706L78.4355 14.604L77.8461 15.2375ZM78.9712 15.2375L78.3441 14.604L78.946 13.9706L79.5731 14.604L78.9712 15.2375ZM79.9261 19.0381C79.6677 19.0381 79.4597 19.0034 79.2989 18.9341C79.1382 18.8647 79.0185 18.7733 78.9334 18.663C78.8483 18.5496 78.7947 18.4267 78.7664 18.2943C78.738 18.162 78.7254 18.0296 78.7254 17.9004V15.6062H79.6424V17.6483C79.6424 17.8279 79.6834 17.9571 79.7653 18.0296C79.8473 18.1021 79.9922 18.1399 80.2065 18.1399H80.4334V19.0381H79.9292H79.9261Z" fill="#181B71"/>
<path d="M80.4335 18.1399H80.4997V19.0381H80.4335C80.3043 19.0381 80.2382 18.8868 80.2382 18.5843C80.2382 18.2817 80.3012 18.1368 80.4335 18.1368V18.1399ZM80.8464 15.6503L82.7025 14.1124L83.2982 14.8246L81.4546 16.3499L81.5901 15.9875C82.1038 16.1356 82.4977 16.3499 82.775 16.6367C83.0524 16.9235 83.232 17.2701 83.3108 17.6735C83.3896 18.08 83.3896 18.5338 83.3076 19.0381H80.4304V18.1399H82.5166C82.4788 17.9162 82.3937 17.7082 82.2677 17.5128C82.1416 17.3174 81.962 17.1504 81.7319 17.0054C81.5019 16.8604 81.2056 16.7533 80.8432 16.684V15.6503H80.8464Z" fill="#181B71"/>
<path d="M84.2719 20.6358C84.0828 20.6358 83.8748 20.5948 83.6479 20.5161C83.421 20.4373 83.213 20.3175 83.0239 20.1631L83.3139 19.5801C83.4777 19.6305 83.6227 19.6715 83.7487 19.6999C83.8748 19.7282 83.9946 19.7408 84.108 19.7408C84.3507 19.7408 84.5618 19.6904 84.7446 19.5927C84.9274 19.495 85.0723 19.3595 85.1732 19.1925C85.2772 19.0255 85.3276 18.8395 85.3276 18.6378C85.3276 18.5055 85.3087 18.392 85.2709 18.3006C85.2331 18.2092 85.1826 18.121 85.1228 18.0359C85.0629 17.9508 84.9967 17.85 84.9211 17.7397L86.1438 18.3542V18.6378C86.1438 18.7859 86.1217 18.9467 86.0776 19.1231C86.0335 19.2996 85.9673 19.4761 85.8728 19.6526C85.7814 19.8291 85.6616 19.9929 85.5135 20.1442C85.3686 20.2955 85.1889 20.4152 84.9841 20.5035C84.7761 20.5917 84.5366 20.6358 84.2656 20.6358H84.2719ZM86.7079 19.0381C86.5566 19.0381 86.4148 19.0223 86.2856 18.9939C86.1533 18.9624 86.0335 18.9183 85.9201 18.8553C85.8066 18.7922 85.7026 18.7135 85.5986 18.6126C85.4978 18.5149 85.3938 18.3952 85.2929 18.2565L84.4704 17.1315L85.1826 16.2522L86.0177 17.6924C86.0871 17.8059 86.1501 17.8941 86.2037 17.9603C86.2573 18.0265 86.3266 18.0737 86.4054 18.0989C86.4842 18.1242 86.585 18.1368 86.7079 18.1368H86.7741V19.0349H86.7079V19.0381Z" fill="#181B71"/>
<path d="M86.7741 18.1399H86.8403V19.038H86.7741C86.6449 19.038 86.5787 18.8868 86.5787 18.5842C86.5787 18.2817 86.6418 18.1367 86.7741 18.1367V18.1399ZM86.7741 18.1399H87.291V19.038H86.7741V18.1399Z" fill="#181B71"/>
<path d="M87.291 18.1399H87.3571V19.0381H87.291C87.1618 19.0381 87.0956 18.8868 87.0956 18.5843C87.0956 18.2817 87.1586 18.1368 87.291 18.1368V18.1399ZM87.291 19.0381V18.1399H87.9874C88.0126 18.0548 88.0378 17.9571 88.0599 17.8468C88.082 17.7365 88.0977 17.6199 88.1072 17.497C88.1166 17.3741 88.1198 17.2481 88.1166 17.1189L89.1881 16.7501C89.1314 17.0275 89.0747 17.2638 89.0211 17.4687C88.9644 17.6704 88.9013 17.8563 88.8352 18.0202C88.7658 18.1872 88.687 18.3479 88.5956 18.5086C88.5043 18.6693 88.394 18.8458 88.2647 19.0381H87.2878H87.291ZM89.3709 19.0381C89.0778 19.0381 88.8257 19.0097 88.6177 18.9561C88.4097 18.9025 88.2364 18.8395 88.104 18.7702C87.9717 18.6977 87.8677 18.6347 87.8015 18.578L88.1702 17.9256C88.2868 17.9949 88.4255 18.0485 88.583 18.0832C88.7438 18.121 88.9171 18.1368 89.1062 18.1368H89.7963C89.8215 18.0674 89.8467 17.976 89.8688 17.8657C89.8909 17.7523 89.9066 17.6325 89.9161 17.5033C89.9255 17.3741 89.9287 17.2449 89.9255 17.1157L91.0065 16.747C90.9497 17.0243 90.893 17.2607 90.8394 17.4655C90.7827 17.6672 90.7197 17.8531 90.6472 18.017C90.5747 18.184 90.4959 18.3448 90.4045 18.5055C90.3132 18.6662 90.2029 18.8427 90.0737 19.0349H89.3677L89.3709 19.0381ZM89.9791 16.3751L89.352 15.7354L89.9413 15.102L90.5684 15.7354L89.9791 16.3751ZM90.5274 15.3604L89.8877 14.727L90.4896 14.0872L91.1168 14.727L90.5274 15.3604ZM91.6336 19.0381C91.3563 19.0381 91.1231 19.0097 90.9245 18.9561C90.7291 18.9025 90.5621 18.8364 90.4235 18.7607C90.2848 18.6851 90.165 18.6126 90.061 18.5433L90.5653 17.9823C90.6598 18.0296 90.7796 18.0674 90.9245 18.0958C91.0695 18.1242 91.2271 18.1368 91.4004 18.1368H92.2008C92.1662 17.913 92.1031 17.6987 92.0086 17.4939C91.9172 17.289 91.8038 17.0905 91.6683 16.8951L92.4813 16.0663C92.579 16.2554 92.6704 16.4539 92.7523 16.6651C92.8343 16.8731 92.8941 17.0968 92.932 17.3363C92.9698 17.5758 92.9761 17.8342 92.9509 18.1147C92.9257 18.3952 92.8532 18.7009 92.7366 19.0318H91.6241L91.6336 19.0381ZM91.1042 16.3751L90.477 15.7354L91.0789 15.102L91.7061 15.7354L91.1042 16.3751Z" fill="#181B71"/>
<path d="M15.1493 26.8094L14.9381 26.2201H13.6303L13.416 26.8094H13L14.0305 24.0992H14.5536L15.5715 26.8094H15.1493ZM13.7437 25.9018H14.8247L14.2984 24.4332H14.2795L13.7437 25.9018Z" fill="#181B71" stroke="#181B71" stroke-width="0.248775"/>
<path d="M16.2932 26.8094V24.0992H16.6934V25.262H18.1273V24.0992H18.5276V26.8094H18.1273V25.6055H16.6934V26.8094H16.2932Z" fill="#181B71" stroke="#181B71" stroke-width="0.248775"/>
<path d="M19.5769 26.8094V24.0992H20.2103L21.0612 26.3335H21.0801L21.9184 24.0992H22.5487V26.8094H22.1547V24.5278H22.1295L21.2471 26.8094H20.8469L19.9645 24.5278H19.9393V26.8094H19.5769Z" fill="#181B71" stroke="#181B71" stroke-width="0.248775"/>
<path d="M25.4228 26.8094L25.2116 26.2201H23.9007L23.6864 26.8094H23.2704L24.3009 24.0992H24.824L25.8419 26.8094H25.4196H25.4228ZM24.0173 25.9018H25.0982L24.5719 24.4332H24.553L24.0173 25.9018Z" fill="#181B71" stroke="#181B71" stroke-width="0.248775"/>
<path d="M27.5469 24.0992C27.9754 24.0992 28.2969 24.2063 28.5017 24.4238C28.7097 24.6381 28.8137 24.9847 28.8137 25.4543C28.8137 25.9238 28.7097 26.261 28.4986 26.4816C28.2874 26.6991 27.9597 26.8094 27.509 26.8094H26.5668V24.0992H27.5469ZM27.5406 26.4659C27.7328 26.4659 27.8935 26.4344 28.0227 26.3745C28.1519 26.3146 28.2465 26.2106 28.3126 26.0625C28.3757 25.9144 28.4103 25.7127 28.4103 25.4511C28.4103 25.1896 28.3788 24.9879 28.3126 24.8398C28.2496 24.6916 28.1519 24.5876 28.0227 24.5278C27.8935 24.4679 27.7328 24.4364 27.5406 24.4364H26.967V26.4596H27.5406V26.4659Z" fill="#181B71" stroke="#181B71" stroke-width="0.248775"/>
<path d="M32.6805 26.8094L32.4693 26.2201H31.1584L30.9441 26.8094H30.5281L31.5586 24.0992H32.0817L33.0996 26.8094H32.6773H32.6805ZM31.275 25.9018H32.3559L31.8296 24.4332H31.8107L31.275 25.9018Z" fill="#181B71" stroke="#181B71" stroke-width="0.248775"/>
<path d="M34.2277 26.4659H35.5072V26.8094H33.8275V24.0992H34.2277V26.4659Z" fill="#181B71" stroke="#181B71" stroke-width="0.248775"/>
<path d="M36.1155 25.5961V25.2715H37.3036V25.5961H36.1155Z" fill="#181B71" stroke="#181B71" stroke-width="0.248775"/>
<path d="M40.1052 24.4427H38.6461V25.3314H39.8562V25.6623H38.6461V26.8062H38.2458V24.096H40.1052V24.4395V24.4427Z" fill="#181B71" stroke="#181B71" stroke-width="0.248775"/>
<path d="M41.2017 26.4659H42.4812V26.8094H40.8015V24.0992H41.2017V26.4659Z" fill="#181B71" stroke="#181B71" stroke-width="0.248775"/>
<path d="M45.0181 26.8094L44.807 26.2201H43.496L43.2817 26.8094H42.8657L43.8962 24.0992H44.4194L45.4373 26.8094H45.015H45.0181ZM43.6126 25.9018H44.6935L44.1672 24.4332H44.1483L43.6126 25.9018Z" fill="#181B71" stroke="#181B71" stroke-width="0.248775"/>
<path d="M46.1621 26.8094V24.0992H46.5623V26.8094H46.1621Z" fill="#181B71" stroke="#181B71" stroke-width="0.248775"/>
<path d="M49.3576 24.0992V25.7568C49.3576 26.135 49.2725 26.4155 49.1055 26.5982C48.9353 26.7779 48.6769 26.8693 48.3271 26.8693C48.097 26.8693 47.9048 26.8314 47.7567 26.7558C47.6086 26.6802 47.4951 26.5667 47.4195 26.4155C47.3438 26.2642 47.2997 26.0783 47.2871 25.8514L47.681 25.8198C47.6936 25.9837 47.7252 26.1161 47.7693 26.2201C47.8165 26.3241 47.8859 26.3997 47.9773 26.447C48.0687 26.4942 48.1916 26.5195 48.3397 26.5195C48.5603 26.5195 48.721 26.4596 48.8155 26.3398C48.9101 26.2201 48.9573 26.0341 48.9573 25.782V24.4427H47.8071V24.0992H49.3576Z" fill="#181B71" stroke="#181B71" stroke-width="0.248775"/>
<path d="M51.5353 26.8094V24.0992H52.1687L53.0196 26.3335H53.0385L53.8768 24.0992H54.507V26.8094H54.1131V24.5278H54.0879L53.2055 26.8094H52.8053L51.9229 24.5278H51.8977V26.8094H51.5353Z" fill="#181B71" stroke="#181B71" stroke-width="0.248775"/>
<path d="M56.6751 26.8661C56.401 26.8661 56.1646 26.8094 55.9692 26.6991C55.7738 26.5888 55.6257 26.4281 55.5217 26.2169C55.4177 26.0058 55.3673 25.7537 55.3673 25.4543C55.3673 25.1549 55.4177 24.9028 55.5217 24.6916C55.6257 24.4805 55.7738 24.3198 55.9692 24.2095C56.1646 24.0992 56.3978 24.0424 56.6751 24.0424C56.9525 24.0424 57.1857 24.0992 57.381 24.2095C57.5764 24.3198 57.7246 24.4805 57.8285 24.6916C57.9325 24.9028 57.983 25.1549 57.983 25.4543C57.983 25.7537 57.9325 26.0058 57.8285 26.2169C57.7246 26.4281 57.5764 26.5888 57.381 26.6991C57.1857 26.8094 56.9493 26.8661 56.6751 26.8661ZM56.6751 26.5194C56.9682 26.5194 57.192 26.4281 57.3464 26.2484C57.5008 26.0688 57.5764 25.8041 57.5764 25.4543C57.5764 25.1045 57.5008 24.8398 57.3464 24.6601C57.192 24.4805 56.9682 24.3891 56.6751 24.3891C56.3821 24.3891 56.1615 24.4805 56.007 24.6601C55.8526 24.8398 55.777 25.1045 55.777 25.4543C55.777 25.8041 55.8526 26.0688 56.007 26.2484C56.1615 26.4281 56.3821 26.5194 56.6751 26.5194Z" fill="#181B71" stroke="#181B71" stroke-width="0.248775"/>
<path d="M59.3191 26.8094V24.4427H58.4525V24.0992H60.5829V24.4427H59.7194V26.8094H59.3191Z" fill="#181B71" stroke="#181B71" stroke-width="0.248775"/>
<path d="M62.3571 26.8661C62.083 26.8661 61.8466 26.8094 61.6512 26.6991C61.4558 26.5888 61.3077 26.4281 61.2037 26.2169C61.0997 26.0058 61.0493 25.7537 61.0493 25.4543C61.0493 25.1549 61.0997 24.9028 61.2037 24.6916C61.3077 24.4805 61.4558 24.3198 61.6512 24.2095C61.8466 24.0992 62.0798 24.0424 62.3571 24.0424C62.6345 24.0424 62.8677 24.0992 63.0631 24.2095C63.2584 24.3198 63.4066 24.4805 63.5106 24.6916C63.6145 24.9028 63.665 25.1549 63.665 25.4543C63.665 25.7537 63.6145 26.0058 63.5106 26.2169C63.4066 26.4281 63.2584 26.5888 63.0631 26.6991C62.8677 26.8094 62.6313 26.8661 62.3571 26.8661ZM62.3571 26.5194C62.6502 26.5194 62.874 26.4281 63.0284 26.2484C63.1828 26.0688 63.2584 25.8041 63.2584 25.4543C63.2584 25.1045 63.1828 24.8398 63.0284 24.6601C62.874 24.4805 62.6502 24.3891 62.3571 24.3891C62.0641 24.3891 61.8435 24.4805 61.689 24.6601C61.5346 24.8398 61.459 25.1045 61.459 25.4543C61.459 25.8041 61.5346 26.0688 61.689 26.2484C61.8435 26.4281 62.0641 26.5194 62.3571 26.5194Z" fill="#181B71" stroke="#181B71" stroke-width="0.248775"/>
<path d="M66.6304 26.8094H66.1735L65.3667 25.6969H64.9287V26.8094H64.5284V24.0992H65.6882C66.0096 24.0992 66.246 24.1685 66.3972 24.3072C66.5485 24.4458 66.6241 24.6444 66.6241 24.9059C66.6241 25.0635 66.5926 25.2022 66.5296 25.3188C66.4666 25.4354 66.3689 25.5236 66.2397 25.5866C66.1104 25.6497 65.9466 25.6812 65.748 25.6812H65.6535L65.7134 25.5551L66.6336 26.8125L66.6304 26.8094ZM64.9287 25.3786H65.6031C65.83 25.3786 65.9907 25.344 66.0884 25.2715C66.1861 25.199 66.2333 25.0793 66.2333 24.9059C66.2333 24.7326 66.1861 24.6097 66.0884 24.5404C65.9907 24.471 65.8331 24.4364 65.6125 24.4364H64.9287V25.3786Z" fill="#181B71" stroke="#181B71" stroke-width="0.248775"/>
<path d="M68.3447 26.8661C67.9886 26.8661 67.7208 26.8031 67.538 26.6739C67.3584 26.5447 67.2544 26.3524 67.2323 26.094L67.6262 26.0625C67.6577 26.2201 67.7271 26.3367 67.8374 26.4155C67.9477 26.4942 68.121 26.5352 68.3573 26.5352C68.5559 26.5352 68.7103 26.4942 68.8206 26.4092C68.9309 26.3241 68.9876 26.2169 68.9876 26.0814C68.9876 25.9459 68.9467 25.8514 68.8616 25.7883C68.7765 25.7253 68.641 25.678 68.4487 25.6434L68.1084 25.5835C67.8374 25.5331 67.6388 25.4448 67.5096 25.3219C67.3804 25.199 67.3174 25.0288 67.3174 24.8177C67.3174 24.6538 67.3552 24.512 67.434 24.3954C67.5128 24.2788 67.6262 24.1937 67.7743 24.1307C67.9225 24.0708 68.1021 24.0393 68.3101 24.0393C68.5307 24.0393 68.7135 24.0677 68.8647 24.1212C69.0128 24.1748 69.1294 24.2599 69.2114 24.3734C69.2933 24.4868 69.3437 24.6349 69.3658 24.8145L68.9719 24.8398C68.9404 24.6633 68.8773 24.5404 68.7765 24.471C68.6756 24.4017 68.5212 24.3671 68.3069 24.3671C68.121 24.3671 67.9729 24.4017 67.8689 24.4742C67.7649 24.5467 67.7113 24.6507 67.7113 24.7862C67.7113 24.9154 67.7523 25.0162 67.8311 25.0887C67.9099 25.1612 68.0422 25.2116 68.2281 25.24L68.5685 25.2967C68.8458 25.344 69.0538 25.4291 69.183 25.5488C69.3154 25.6686 69.3816 25.8419 69.3816 26.0657C69.3816 26.2264 69.3406 26.3682 69.2618 26.4879C69.183 26.6077 69.0633 26.6991 68.912 26.7653C68.7576 26.8314 68.5716 26.863 68.3479 26.863L68.3447 26.8661Z" fill="#181B71" stroke="#181B71" stroke-width="0.248775"/>
<path d="M72.5267 26.8661C72.2557 26.8661 72.0257 26.8094 71.8334 26.6959C71.6412 26.5825 71.4931 26.4218 71.3922 26.2106C71.2914 25.9995 71.241 25.7474 71.241 25.4511C71.241 25.1549 71.2914 24.9028 71.3954 24.6917C71.4962 24.4805 71.6443 24.3198 71.8366 24.2063C72.0288 24.0929 72.2589 24.0362 72.5236 24.0362C72.7536 24.0362 72.949 24.0708 73.116 24.1433C73.2831 24.2158 73.4154 24.3198 73.5163 24.4584C73.6171 24.5971 73.6801 24.7641 73.7085 24.9658L73.3114 24.991C73.2642 24.7862 73.1791 24.6318 73.0562 24.5341C72.9333 24.4364 72.7536 24.386 72.5204 24.386C72.2368 24.386 72.0225 24.4774 71.8744 24.6633C71.7263 24.8461 71.6506 25.1108 71.6506 25.4511C71.6506 25.7915 71.7263 26.0562 71.8744 26.239C72.0225 26.4249 72.24 26.5163 72.5236 26.5163C72.6812 26.5163 72.8135 26.4943 72.9207 26.4533C73.0278 26.4123 73.1129 26.3461 73.1759 26.2547C73.2389 26.1665 73.2862 26.0468 73.3146 25.9049L73.7148 25.9365C73.6707 26.2358 73.5509 26.4659 73.3492 26.6235C73.1476 26.7842 72.8734 26.863 72.5236 26.863L72.5267 26.8661Z" fill="#181B71" stroke="#181B71" stroke-width="0.248775"/>
<path d="M75.6717 26.8661C75.3975 26.8661 75.1612 26.8094 74.9658 26.6991C74.7704 26.5888 74.6223 26.4281 74.5183 26.2169C74.4143 26.0058 74.3639 25.7537 74.3639 25.4543C74.3639 25.1549 74.4143 24.9028 74.5183 24.6916C74.6223 24.4805 74.7704 24.3198 74.9658 24.2095C75.1612 24.0992 75.3944 24.0424 75.6717 24.0424C75.949 24.0424 76.1822 24.0992 76.3776 24.2095C76.573 24.3198 76.7211 24.4805 76.8251 24.6916C76.9291 24.9028 76.9795 25.1549 76.9795 25.4543C76.9795 25.7537 76.9291 26.0058 76.8251 26.2169C76.7211 26.4281 76.573 26.5888 76.3776 26.6991C76.1822 26.8094 75.9459 26.8661 75.6717 26.8661ZM75.6717 26.5194C75.9648 26.5194 76.1885 26.4281 76.343 26.2484C76.4974 26.0688 76.573 25.8041 76.573 25.4543C76.573 25.1045 76.4974 24.8398 76.343 24.6601C76.1885 24.4805 75.9648 24.3891 75.6717 24.3891C75.3786 24.3891 75.158 24.4805 75.0036 24.6601C74.8492 24.8398 74.7736 25.1045 74.7736 25.4543C74.7736 25.8041 74.8492 26.0688 75.0036 26.2484C75.158 26.4281 75.3786 26.5194 75.6717 26.5194Z" fill="#181B71" stroke="#181B71" stroke-width="0.248775"/>
<path d="M77.84 26.8094V24.0992H78.4734L79.3243 26.3335H79.3432L80.1814 24.0992H80.8117V26.8094H80.4178V24.5278H80.3926L79.5102 26.8094H79.11L78.2276 24.5278H78.2024V26.8094H77.84Z" fill="#181B71" stroke="#181B71" stroke-width="0.248775"/>
<path d="M83.005 24.0992C83.3328 24.0992 83.5754 24.1685 83.7298 24.3103C83.8843 24.4521 83.9599 24.657 83.9599 24.928C83.9599 25.199 83.8811 25.4039 83.7267 25.5457C83.5723 25.6875 83.3296 25.76 82.9956 25.76H82.2581V26.8094H81.8579V24.0992H83.0019H83.005ZM82.9073 25.4228C83.15 25.4228 83.3202 25.385 83.421 25.3125C83.5187 25.24 83.5691 25.1108 83.5691 24.928C83.5691 24.7452 83.5187 24.6129 83.421 24.5435C83.3233 24.471 83.1531 24.4364 82.9136 24.4364H82.2644V25.4259H82.9105L82.9073 25.4228Z" fill="#181B71" stroke="#181B71" stroke-width="0.248775"/>
<path d="M86.4968 26.8094L86.2856 26.2201H84.9746L84.7603 26.8094H84.3444L85.3749 24.0992H85.898L86.9159 26.8094H86.4936H86.4968ZM85.0944 25.9018H86.1753L85.649 24.4332H85.6301L85.0944 25.9018Z" fill="#181B71" stroke="#181B71" stroke-width="0.248775"/>
<path d="M87.6439 26.8094V24.0992H88.0536L89.5379 26.1791H89.5568V24.0992H89.9192V26.8094H89.5095L88.0284 24.7295H88.0063V26.8094H87.6439Z" fill="#181B71" stroke="#181B71" stroke-width="0.248775"/>
<path d="M91.5863 26.8094V25.8167L90.5369 24.0992H90.9749L91.8006 25.448H91.8163L92.6168 24.0992H93.0328L91.9834 25.8167V26.8094H91.5863Z" fill="#181B71" stroke="#181B71" stroke-width="0.248775"/>
<path d="M109.385 11.0222C110.372 10.0421 111.333 9.52213 112.168 9.52213C112.178 9.52213 112.184 9.52213 112.193 9.52213C113.028 9.53158 113.983 10.0673 114.951 11.0758C116.006 12.1724 117.056 13.8112 117.989 15.8155C120.053 20.2652 121.439 26.2119 121.9 32.5966C121.909 32.7321 121.915 32.8645 121.925 33H123.456C123.447 32.8645 123.437 32.729 123.431 32.5935C122.965 25.9882 121.528 19.8114 119.375 15.1757C118.361 12.9918 117.245 11.2554 116.054 10.02C115.446 9.38977 114.825 8.89815 114.204 8.56095C113.536 8.19854 112.868 8.00946 112.215 8.00316C111.563 7.99685 110.885 8.17018 110.208 8.51999C109.578 8.84458 108.941 9.32359 108.317 9.94757C107.091 11.1672 105.931 12.8878 104.863 15.0686C102.591 19.7106 101.022 25.9283 100.435 32.5966C100.423 32.7321 100.41 32.8676 100.401 33.0063H101.932C101.932 32.9559 101.939 32.9023 101.945 32.8487C102.351 28.7393 103.423 24.9135 104.973 22.0269C105.005 21.967 105.09 21.9607 105.134 22.0143C105.824 22.9471 106.473 24.1257 107.041 25.4965C107.904 27.5796 108.553 30.044 108.919 32.6376C108.928 32.7006 108.935 32.7668 108.944 32.833C108.95 32.8929 108.957 32.9496 108.963 33.0063H110.504C110.485 32.8708 110.469 32.7353 110.451 32.5998C110.072 29.8139 109.379 27.1605 108.446 24.9135C107.728 23.1866 106.88 21.718 105.963 20.6087C105.919 20.5552 105.916 20.4795 105.957 20.4228C106.436 19.7452 106.93 19.1748 107.425 18.7431C108.131 18.1254 108.818 17.8008 109.411 17.8008C109.417 17.8008 109.423 17.8008 109.426 17.8008C110.019 17.8071 110.696 18.1443 111.39 18.7746C112.159 19.4774 112.928 20.5299 113.611 21.8189C115.159 24.7434 116.192 28.6763 116.52 32.8897C116.52 32.9307 116.526 32.9685 116.526 33.0095H118.061C118.049 32.8676 118.036 32.7227 118.023 32.5809C117.664 28.2351 116.577 24.1667 114.957 21.1066C114.182 19.6444 113.328 18.4815 112.417 17.6496C111.431 16.7483 110.428 16.2882 109.442 16.2787C108.453 16.2693 107.438 16.7105 106.423 17.596C105.922 18.0309 105.437 18.5635 104.97 19.1843C104.907 19.2662 104.781 19.1969 104.816 19.0992C105.248 17.9048 105.72 16.7798 106.231 15.7398C107.208 13.7418 108.301 12.1126 109.389 11.0285L109.385 11.0222Z" fill="#181B71"/>
</g>
</g>
<defs>
<filter id="filter0_d_163_528" x="0" y="0" width="136" height="41" filterUnits="userSpaceOnUse" color-interpolation-filters="sRGB">
<feFlood flood-opacity="0" result="BackgroundImageFix"/>
<feColorMatrix in="SourceAlpha" type="matrix" values="0 0 0 0 0 0 0 0 0 0 0 0 0 0 0 0 0 0 127 0" result="hardAlpha"/>
<feOffset/>
<feGaussianBlur stdDeviation="1.5"/>
<feComposite in2="hardAlpha" operator="out"/>
<feColorMatrix type="matrix" values="0 0 0 0 0.65098 0 0 0 0 0.686275 0 0 0 0 0.764706 0 0 0 0.5 0"/>
<feBlend mode="normal" in2="BackgroundImageFix" result="effect1_dropShadow_163_528"/>
<feBlend mode="normal" in="SourceGraphic" in2="effect1_dropShadow_163_528" result="shape"/>
</filter>
<clipPath id="clip0_163_528">
<rect width="110.456" height="25" fill="white" transform="translate(13 8)"/>
</clipPath>
</defs>
</svg>
