<?xml version="1.0" encoding="UTF-8"?>
<svg version="1.1" xmlns="http://www.w3.org/2000/svg" width="4001" height="2251">
<path d="M0 0 C12.19908352 9.58879928 22.74205356 20.78838913 31.98632812 33.21337891 C33.311193 34.98785634 34.65941162 36.74247245 36.01171875 38.49609375 C89.88284003 109.14769319 114.42598298 204.30884056 141.62109375 375.484375 C141.70258667 376.28170044 141.78407959 377.07902588 141.86804199 377.9005127 C143.08109633 389.91895657 143.77021948 401.91626264 144.30859375 413.984375 C135.06859375 413.984375 125.82859375 413.984375 116.30859375 413.984375 C116.07785156 411.1278125 115.84710937 408.27125 115.609375 405.328125 C108.32407248 316.53679947 93.44892743 227.43731592 48.33642578 117.20019531 C47.34880098 115.07105452 46.38622649 112.93231556 45.4296875 110.7890625 C37.40446372 93.0013256 27.63038221 75.88120841 16.30859375 59.984375 C15.58414063 58.96601562 14.8596875 57.94765625 14.11328125 56.8984375 C8.25986833 48.90506717 1.87819181 41.39154122 -4.69140625 33.984375 C-5.28308594 33.30632813 -5.87476562 32.62828125 -6.484375 31.9296875 C-14.89148705 22.89582416 -26.13772965 15.21400938 -37.69140625 10.984375 C-38.63628906 10.62214844 -39.58117188 10.25992188 -40.5546875 9.88671875 C-53.34384549 6.2076459 -65.5366011 9.9720791 -76.75390625 16.171875 C-93.47653943 26.45271563 -107.21432623 41.20127087 -118.69140625 56.984375 C-119.13548828 57.59474609 -119.57957031 58.20511719 -120.03710938 58.83398438 C-142.36539769 89.83657174 -158.93619586 124.55728437 -172.94140625 159.984375 C-173.32466064 160.95213867 -173.70791504 161.91990234 -174.1027832 162.91699219 C-174.44656006 163.80547852 -174.79033691 164.69396484 -175.14453125 165.609375 C-175.44520508 166.38539063 -175.74587891 167.16140625 -176.05566406 167.9609375 C-176.84127764 170.10789185 -176.84127764 170.10789185 -176.69140625 172.984375 C-176.00175781 172.16195312 -175.31210938 171.33953125 -174.6015625 170.4921875 C-172.12867434 167.54987573 -169.64276455 164.6189072 -167.14892578 161.69433594 C-165.87737655 160.20255523 -164.61018679 158.70706083 -163.34375 157.2109375 C-157.99484924 151.05630396 -152.17224792 145.92347798 -145.69140625 140.984375 C-144.88960937 140.36691406 -144.0878125 139.74945312 -143.26171875 139.11328125 C-127.7659752 127.70739788 -109.69615923 120.64804899 -90.29296875 123.48046875 C-58.74223522 129.64435378 -36.11781336 153.85967527 -18.49414062 179.29492188 C-1.96842783 203.94920845 10.34479962 231.10755404 20.30859375 258.984375 C20.66260254 259.96937988 21.01661133 260.95438477 21.38134766 261.96923828 C38.82895656 311.02068123 47.18320334 362.26606591 51.30859375 413.984375 C42.06859375 413.984375 32.82859375 413.984375 23.30859375 413.984375 C23.01726563 411.27476562 22.7259375 408.56515625 22.42578125 405.7734375 C15.96148962 346.67850094 4.54758577 288.23935551 -20.69140625 233.984375 C-21.0894043 233.12650391 -21.48740234 232.26863281 -21.89746094 231.38476562 C-31.12160634 211.72774159 -42.1641128 193.19243998 -56.69140625 176.984375 C-57.22233887 176.39156738 -57.75327148 175.79875977 -58.30029297 175.18798828 C-68.18997753 164.33609665 -80.55490301 153.19647135 -95.7421875 151.6796875 C-111.09172929 151.06642731 -122.94925839 158.37434486 -133.94140625 168.484375 C-135.87290798 170.30303043 -137.78264863 172.14162629 -139.69140625 173.984375 C-140.66207031 174.87769531 -140.66207031 174.87769531 -141.65234375 175.7890625 C-145.51695742 179.43595146 -148.79796375 183.49533925 -152.06640625 187.671875 C-152.72890381 188.51081299 -152.72890381 188.51081299 -153.40478516 189.36669922 C-156.43264882 193.30272898 -156.43264882 193.30272898 -157.69140625 197.984375 C-156.76960263 199.8939982 -156.76960263 199.8939982 -155.21875 201.6875 C-154.37461548 202.76741211 -154.37461548 202.76741211 -153.51342773 203.86914062 C-152.89153564 204.64966797 -152.26964355 205.43019531 -151.62890625 206.234375 C-130.90406727 233.37348201 -116.96768931 264.94006477 -105.69140625 296.984375 C-105.32708496 298.01675293 -104.96276367 299.04913086 -104.58740234 300.11279297 C-92.55598924 334.71651466 -79.69140625 377.15699155 -79.69140625 413.984375 C-88.93140625 413.984375 -98.17140625 413.984375 -107.69140625 413.984375 C-108.32755859 410.06691406 -108.32755859 410.06691406 -108.9765625 406.0703125 C-124.63157831 306.7444848 -124.63157831 306.7444848 -175.69140625 222.984375 C-175.91957031 223.76683594 -176.14773437 224.54929687 -176.3828125 225.35546875 C-177.74840622 229.14244357 -179.42486629 232.617116 -181.21948242 236.21435547 C-208.58440207 291.20964349 -221.61122222 353.1825347 -227.69140625 413.984375 C-236.93140625 413.984375 -246.17140625 413.984375 -255.69140625 413.984375 C-255.06887474 401.66619822 -254.00971574 389.48176688 -252.56640625 377.234375 C-252.45880981 376.31630066 -252.35121338 375.39822632 -252.24035645 374.45233154 C-242.27092845 290.05521986 -224.20316017 205.00450956 -156.69140625 61.984375 C-156.31113281 61.36949219 -155.93085938 60.75460937 -155.5390625 60.12109375 C-153.37179705 56.65515562 -151.0678197 53.30964418 -148.69140625 49.984375 C-148.19705078 49.28538086 -147.70269531 48.58638672 -147.19335938 47.86621094 C-140.38454255 38.27269132 -133.39436627 29.13513723 -125.23828125 20.6484375 C-123.20695899 18.5236495 -121.30231216 16.3804806 -119.44140625 14.109375 C-87.49313283 -23.4229806 -38.97702857 -29.1903436 0 0 Z " fill="#000000" transform="translate(2776.69140625,837.015625)"/>
<path d="M0 0 C5.61 0 11.22 0 17 0 C17 22.11 17 44.22 17 67 C23.93 67 30.86 67 38 67 C37.01 64.69 36.02 62.38 35 60 C33.77456033 52.87920191 35.367274 46.18631869 39 40 C43.70038446 34.47355788 49.67215367 31.407076 56.83203125 30.53125 C65.11393433 30.46623015 72.23041619 30.65897855 79 36 C84.90399795 42.01516109 87.16043884 48.12879527 87.36328125 56.4609375 C87 59 87 59 84 67 C90.93 67 97.86 67 105 67 C105 44.89 105 22.78 105 0 C110.28 0 115.56 0 121 0 C121 27.72 121 55.44 121 84 C113.141875 84.04125 105.28375 84.0825 97.1875 84.125 C94.72949951 84.14320801 92.27149902 84.16141602 89.73901367 84.18017578 C87.75700091 84.18602546 85.77498571 84.19111988 83.79296875 84.1953125 C82.79124634 84.20554443 81.78952393 84.21577637 80.75744629 84.22631836 C75.78265069 84.22752862 71.25463521 83.92637725 66.38793945 82.86279297 C61.69902564 81.91557363 58.42998512 82.33979196 53.83493042 83.46444702 C47.62010036 84.63850432 41.1874792 84.30743606 34.87890625 84.30078125 C33.32771187 84.30467816 31.77651854 84.30901484 30.22532654 84.31376648 C26.98864264 84.3211878 23.75206791 84.32096703 20.51538086 84.31567383 C16.39577088 84.30988015 12.27661065 84.32682753 8.15707493 84.3500185 C4.95775298 84.36484596 1.75853717 84.36561546 -1.44081306 84.36250877 C-2.95845493 84.36301732 -4.47610349 84.36816595 -5.99371147 84.37832069 C-14.7358563 84.42965722 -22.67825832 83.9184609 -31 81 C-31.42844208 81.48699371 -31.85688416 81.97398743 -32.29830933 82.47573853 C-35.01177601 84.90628174 -37.63047966 84.38922605 -41.1953125 84.3984375 C-41.90219208 84.40130768 -42.60907166 84.40417786 -43.33737183 84.40713501 C-44.83527424 84.409176 -46.33320329 84.40364357 -47.83105469 84.39111328 C-50.09633055 84.37520138 -52.35978316 84.39088412 -54.625 84.41015625 C-63.62167555 84.42376564 -72.04748347 84.28186329 -79.4375 78.5625 C-81.63036713 76.36963287 -82.9367629 74.87074018 -84 72 C-93.51208758 73.11481087 -104.65741903 78.65006793 -111 86 C-115.15818976 91.87793491 -116.49379609 96.83995673 -116 104 C-114.25200222 108.69199404 -112.26247063 111.36996493 -108 114 C-100.59018104 116.9844858 -93.60189646 117.44288743 -85.6875 117.3125 C-84.04406616 117.29993164 -84.04406616 117.29993164 -82.36743164 117.28710938 C-74.76290808 117.174224 -67.44230678 116.65713392 -60 115 C-59.46658816 116.57914015 -58.94874237 118.16354387 -58.4375 119.75 C-58.14746094 120.63171875 -57.85742188 121.5134375 -57.55859375 122.421875 C-56.64124783 126.65577923 -56.64124783 126.65577923 -58 129 C-60.58898546 130.11947973 -62.92952013 130.94035718 -65.625 131.6875 C-66.32496094 131.89955078 -67.02492188 132.11160156 -67.74609375 132.33007812 C-83.53183871 136.97208291 -102.20671233 137.03813236 -117.3125 130.1875 C-125.82905077 125.46982561 -130.72675083 119.39891928 -133.61328125 110.00390625 C-135.50188803 100.21748931 -133.56362885 89.95441782 -128.45703125 81.421875 C-126.75560227 79.13253806 -124.96664894 77.06457337 -123 75 C-122.19175781 74.11441406 -122.19175781 74.11441406 -121.3671875 73.2109375 C-117.00796459 68.92990693 -111.89485293 66.07648479 -106.5625 63.1875 C-105.85883301 62.80207031 -105.15516602 62.41664062 -104.43017578 62.01953125 C-99.41151898 59.4041259 -94.56870296 57.96928529 -89 57 C-89 56.34 -89 55.68 -89 55 C-89.72574219 54.86851563 -90.45148438 54.73703125 -91.19921875 54.6015625 C-93.8383857 54.03471214 -96.26458436 53.2558626 -98.8125 52.375 C-103.77118418 50.87928991 -106.96218781 50.74054695 -112 52 C-116.35741064 54.34629804 -119.11273385 57.00224687 -122 61 C-125.66881155 60.29445932 -128.70450534 58.72264494 -132 57 C-131.25179636 49.94843688 -127.90113402 45.93311532 -123 41 C-114.6033374 34.76212061 -107.39494661 32.97481031 -97 34 C-88.55790433 36.07179871 -81.24185507 39.80744562 -73.859375 44.25 C-69.58643711 46.78828191 -65.88669979 48.21812803 -61 49 C-61 53.62 -61 58.24 -61 63 C-66 65 -66 65 -69 65 C-69 65.66 -69 66.32 -69 67 C-59.76 67 -50.52 67 -41 67 C-40.34 61.06 -39.68 55.12 -39 49 C-36.4425 48.01 -33.885 47.02 -31.25 46 C-30.05165527 45.53013672 -30.05165527 45.53013672 -28.82910156 45.05078125 C-28.1894043 44.80714844 -27.54970703 44.56351563 -26.890625 44.3125 C-26.24125977 44.06113281 -25.59189453 43.80976562 -24.92285156 43.55078125 C-23 43 -23 43 -19 43 C-19.43196626 45.12613179 -19.87091145 47.25084586 -20.3125 49.375 C-20.55613281 50.55835938 -20.79976562 51.74171875 -21.05078125 52.9609375 C-22.16293846 57.69332663 -23.60311091 62.34370304 -25 67 C-16.75 67 -8.5 67 0 67 C0 44.89 0 22.78 0 0 Z M54 50 C51.91586169 52.65253967 52.00049477 54.01360617 52.125 57.4375 C53.09046271 61.36831245 54.11377594 63.19394883 57 66 C59.61818456 67.33298974 59.61818456 67.33298974 62 68 C66.51185427 64.76090423 66.51185427 64.76090423 69 60 C69.54588896 55.93522684 69.69465064 53.04197597 67.375 49.5625 C62.39716528 46.28760874 58.65841268 46.24738979 54 50 Z " fill="#000000" transform="translate(1631,982)"/>
<path d="M0 0 C5.61 0 11.22 0 17 0 C17.01981934 1.92827637 17.03963867 3.85655273 17.06005859 5.84326172 C17.12775795 12.20564426 17.20452747 18.56786641 17.28752708 24.93006706 C17.33752895 28.78846498 17.38385836 32.646835 17.421875 36.50537109 C17.45867907 40.2272559 17.50502515 43.94890944 17.55806351 47.67059708 C17.57663354 49.09235717 17.59173183 50.51416688 17.60334396 51.93600082 C17.62016115 53.92341504 17.65033227 55.91070283 17.68115234 57.89794922 C17.69447601 59.03046112 17.70779968 60.16297302 17.7215271 61.32980347 C17.7325049 64.15246933 17.7325049 64.15246933 20 66 C22.52377655 66.27808217 22.52377655 66.27808217 25.4453125 66.1953125 C26.52167969 66.18886719 27.59804687 66.18242188 28.70703125 66.17578125 C29.83496094 66.15902344 30.96289062 66.14226562 32.125 66.125 C33.26066406 66.11597656 34.39632813 66.10695313 35.56640625 66.09765625 C38.37769337 66.07403199 41.18887262 66.0381601 44 66 C44.66 60.39 45.32 54.78 46 49 C48.5575 48.01 51.115 47.02 53.75 46 C54.54889648 45.68675781 55.34779297 45.37351562 56.17089844 45.05078125 C56.8105957 44.80714844 57.45029297 44.56351563 58.109375 44.3125 C58.75874023 44.06113281 59.40810547 43.80976562 60.07714844 43.55078125 C62 43 62 43 66 43 C64.73806629 51.28559109 62.57280399 59.02430764 60 67 C68.58 67 77.16 67 86 67 C86.33 61.39 86.66 55.78 87 50 C93.58914477 47.27021145 100.13408294 44.92830011 107 43 C105.73806629 51.28559109 103.57280399 59.02430764 101 67 C106.28 67 111.56 67 117 67 C117.33 61.39 117.66 55.78 118 50 C124.58914477 47.27021145 131.13408294 44.92830011 138 43 C137.47458553 50.7498635 135.44408524 57.6450086 133 65 C135.46120841 66.23060421 137.25776866 66.2057723 140.0078125 66.31640625 C140.99394531 66.35830078 141.98007813 66.40019531 142.99609375 66.44335938 C144.02863281 66.48267578 145.06117188 66.52199219 146.125 66.5625 C147.68541016 66.62727539 147.68541016 66.62727539 149.27734375 66.69335938 C151.8513983 66.79962768 154.42568131 66.90033527 157 67 C154.69 61.06 152.38 55.12 150 49 C152.95467501 46.99440242 155.91342241 44.99535728 158.875 43 C159.71675781 42.42765625 160.55851562 41.8553125 161.42578125 41.265625 C162.23144531 40.72421875 163.03710938 40.1828125 163.8671875 39.625 C164.98262939 38.87089844 164.98262939 38.87089844 166.12060547 38.1015625 C168 37 168 37 170 37 C171.13955862 43.32589627 171.1142637 49.52278338 171.0625 55.9375 C171.05798828 57.00291016 171.05347656 58.06832031 171.04882812 59.16601562 C171.03711802 61.77736822 171.01918512 64.38869163 171 67 C178.26 67 185.52 67 193 67 C193 44.89 193 22.78 193 0 C198.61 0 204.22 0 210 0 C210 22.11 210 44.22 210 67 C216.6 67 223.2 67 230 67 C230 44.89 230 22.78 230 0 C235.61 0 241.22 0 247 0 C247 27.72 247 55.44 247 84 C220.81786057 84.16043524 220.81786057 84.16043524 209.59960938 84.1953125 C201.96497382 84.21916144 194.33053138 84.2472801 186.69604492 84.30175781 C180.53630147 84.34543371 174.37676533 84.36918304 168.21687889 84.37950897 C165.87470426 84.3868614 163.53254011 84.40121833 161.19045448 84.42292023 C136.28868762 84.64434381 136.28868762 84.64434381 125 79 C124.34 80.65 123.68 82.3 123 84 C119.52085157 84.0294191 116.04173583 84.04693792 112.5625 84.0625 C111.58861328 84.07087891 110.61472656 84.07925781 109.61132812 84.08789062 C104.96930692 84.10341578 100.45032563 84.0027101 95.83984375 83.43359375 C94.57269531 83.29050781 93.30554687 83.14742187 92 83 C91.67 83.33 91.34 83.66 91 84 C86.86152722 84.28478699 82.70957827 84.23197902 78.5625 84.25 C76.83483398 84.2809375 76.83483398 84.2809375 75.07226562 84.3125 C67.18454625 84.34829226 60.12827184 83.56413592 53 80 C52.34 81.32 51.68 82.64 51 84 C45.87714766 84.0745935 40.75461696 84.12881017 35.63134766 84.16479492 C33.89138272 84.17980854 32.15145516 84.20022577 30.41162109 84.22631836 C27.8993198 84.26303107 25.3875222 84.27980069 22.875 84.29296875 C22.10696045 84.30845261 21.3389209 84.32393646 20.54760742 84.33988953 C15.06145421 84.34156905 11.01081682 83.27290923 6 81 C2.09801325 77.09801325 0.16159337 73.21499382 -0.24050903 67.70329285 C-0.23606781 66.45308853 -0.23162659 65.20288422 -0.22705078 63.91479492 C-0.22734283 63.22156128 -0.22763489 62.52832764 -0.22793579 61.81408691 C-0.22654897 59.53608426 -0.21101867 57.25841385 -0.1953125 54.98046875 C-0.19158006 53.3957792 -0.18873418 51.81108734 -0.18673706 50.22639465 C-0.17911877 46.06545587 -0.15948588 41.90465779 -0.1373291 37.74377441 C-0.11683172 33.49391584 -0.10772703 29.24403443 -0.09765625 24.99414062 C-0.07623818 16.6626888 -0.04107084 8.33137814 0 0 Z " fill="#000000" transform="translate(1206,982)"/>
<path d="M0 0 C2.92116493 2.56452072 4.51815519 5.48442718 6.36328125 8.8828125 C6.67774704 9.45651581 6.99221283 10.03021912 7.31620789 10.62130737 C8.3199111 12.45322524 9.31686467 14.28868639 10.3125 16.125 C16.58908728 28.81240488 16.58908728 28.81240488 25 40 C28.47457786 40.70556562 31.53451575 40.7775455 35 40 C38.06736139 37.47929708 39.9530329 34.37262199 42 31 C53.56375512 12.22215911 53.56375512 12.22215911 63 9.40234375 C68.97898957 8.19953921 73.64266686 8.5592199 79.00463867 11.64379883 C85.15936011 15.82702134 88.32263678 22.0905005 91.1875 28.75 C91.84152881 30.24748279 92.50148069 31.74239576 93.16796875 33.234375 C93.44922607 33.88631836 93.7304834 34.53826172 94.02026367 35.20996094 C95.18644354 37.34064392 96.01131873 38.57279694 98 40 C101.06376014 40.46507108 101.06376014 40.46507108 104.58203125 40.3984375 C105.55797493 40.40274277 105.55797493 40.40274277 106.55363464 40.40713501 C107.9364 40.40917691 109.31919416 40.40363812 110.7019043 40.39111328 C112.76746845 40.37534379 114.83098898 40.39080386 116.89648438 40.41015625 C130.20973387 40.43244897 142.10892522 38.13967739 154 32 C147.03556683 26.35583852 137.0860605 22.18256895 128 23 C123.61952436 24.48770871 120.41272995 27.02609185 118 31 C113.94718288 29.77472971 110.55639236 28.30119506 107 26 C107.40689627 19.48965965 112.32243035 14.29655288 117 10.125 C124.03286268 5.14338893 131.67074526 5.16882437 140 6 C148.51785208 8.13941378 155.58413052 12.42958738 162.9140625 17.1328125 C168.32359497 20.40592202 173.8877794 22.47194485 180 24 C180 28.62 180 33.24 180 38 C177.6796875 38.928125 177.6796875 38.928125 175.3125 39.875 C171.16448913 41.58214127 167.13441852 43.40626632 163.125 45.41796875 C145.0004457 54.47686761 128.67240513 58.17654028 108.375 58.1875 C107.17359375 58.19974609 105.9721875 58.21199219 104.734375 58.22460938 C102.99027344 58.22750977 102.99027344 58.22750977 101.2109375 58.23046875 C100.16212402 58.23457764 99.11331055 58.23868652 98.03271484 58.24291992 C95 58 95 58 91.82666016 56.8684082 C90.8938623 56.5818335 89.96106445 56.29525879 89 56 C87.16937988 56.99852007 85.34032085 58.00013538 83.5234375 59.0234375 C75.20586308 62.24231305 65.3229434 60.50063306 57.3203125 57.15625 C54.31871152 55.66050271 51.67371066 54.02334861 49 52 C46.78345373 53.02911077 44.89130823 54.08234225 42.9375 55.5625 C37.46877437 59.61994159 29.50310889 58.30546962 23 58 C20.4453125 57.48046875 20.4453125 57.48046875 18.4375 56.875 C15.09917786 55.68909452 15.09917786 55.68909452 12.31396484 56.93310547 C8.33069152 58.2154765 4.67250336 58.25171487 0.5390625 58.1953125 C-0.25150543 58.1924826 -1.04207336 58.18965271 -1.8565979 58.18673706 C-4.36289084 58.17560955 -6.86881645 58.15051926 -9.375 58.125 C-11.08202606 58.11496058 -12.78905777 58.10583641 -14.49609375 58.09765625 C-18.6642024 58.07569463 -22.83203908 58.04121671 -27 58 C-27.34227513 56.4811541 -27.67331214 54.95977467 -28 53.4375 C-28.185625 52.59058594 -28.37125 51.74367188 -28.5625 50.87109375 C-29 48 -29 48 -29 41 C-18.44 40.67 -7.88 40.34 3 40 C-1.96772163 32.93014 -1.96772163 32.93014 -6.96313477 25.87988281 C-7.57471436 24.99655273 -8.18629395 24.11322266 -8.81640625 23.203125 C-9.45006104 22.30239258 -10.08371582 21.40166016 -10.73657227 20.47363281 C-12 18 -12 18 -11.85546875 15.890625 C-10.9323858 13.85056953 -9.90073482 12.29056737 -8.49609375 10.546875 C-8.00302734 9.928125 -7.50996094 9.309375 -7.00195312 8.671875 C-6.48568359 8.03765625 -5.96941406 7.4034375 -5.4375 6.75 C-4.91736328 6.1003125 -4.39722656 5.450625 -3.86132812 4.78125 C-2.580156 3.18272331 -1.29085995 1.59071374 0 0 Z M61.4609375 29.49609375 C58.87415344 32.15895969 56 35.15753709 56 39 C57.72601379 39.81917642 59.4559647 40.63006016 61.1875 41.4375 C62.15042969 41.88996094 63.11335938 42.34242187 64.10546875 42.80859375 C68.21395142 44.49966961 71.88814309 45.1374891 76.3125 45.0625 C77.529375 45.041875 78.74625 45.02125 80 45 C79.09323802 42.766343 78.17511122 40.53854888 77.25 38.3125 C76.99734375 37.68666016 76.7446875 37.06082031 76.484375 36.41601562 C74.81325972 32.4262279 73.07545636 29.06958717 70 26 C65.66977199 26 64.59767221 26.70169303 61.4609375 29.49609375 Z " fill="#000000" transform="translate(1859,1008)"/>
<path d="M0 0 C7.89143738 17.22219353 9.98483703 31.24874775 5 50 C4.67 50.66 4.34 51.32 4 52 C-0.3956001 52.11802706 -4.79078286 52.18785559 -9.1875 52.25 C-11.02731445 52.30027344 -11.02731445 52.30027344 -12.90429688 52.3515625 C-20.69933571 52.43383204 -27.05163228 51.45681716 -34.3840332 48.76855469 C-37.0745723 47.70773537 -37.0745723 47.70773537 -40 49 C-40.66 49.99 -41.32 50.98 -42 52 C-44.10375977 52.37231445 -44.10375977 52.37231445 -46.69140625 52.36328125 C-48.10969727 52.36231445 -48.10969727 52.36231445 -49.55664062 52.36132812 C-50.54857422 52.34521484 -51.54050781 52.32910156 -52.5625 52.3125 C-53.52736328 52.31572266 -54.49222656 52.31894531 -55.48632812 52.32226562 C-61.61200695 52.27676767 -67.07023602 51.53598633 -73 50 C-73 50.66 -73 51.32 -73 52 C-77.9296024 52.02471455 -82.85916874 52.04286691 -87.78881836 52.05493164 C-89.46590808 52.05996113 -91.14299342 52.06678548 -92.82006836 52.07543945 C-95.230317 52.08756559 -97.64050768 52.09324215 -100.05078125 52.09765625 C-100.80087967 52.10281754 -101.55097809 52.10797882 -102.32380676 52.11329651 C-105.48951232 52.11363785 -107.97337972 52.00887343 -111 51 C-111.20625 52.299375 -111.4125 53.59875 -111.625 54.9375 C-113.67224797 63.99372887 -119.60581436 70.65410547 -127 76 C-134.54496033 80.35286173 -143.3740659 80.92245056 -151.75 78.875 C-156.68606241 77.33471928 -160.82616855 75.02572882 -165 72 C-164.42365861 67.24518354 -162.44931479 64.02951788 -160 60 C-158.9275 60.33 -157.855 60.66 -156.75 61 C-148.93432097 62.912347 -140.70578489 63.43381086 -133.6171875 59.18359375 C-128.6414494 55.54193036 -127.35356238 51.57855763 -126.00390625 45.79296875 C-125.99223042 37.44474806 -131.37309482 31.44808807 -136.32421875 25.29296875 C-137.05318359 24.35130859 -137.05318359 24.35130859 -137.796875 23.390625 C-138.46734863 22.5557959 -138.46734863 22.5557959 -139.15136719 21.70410156 C-140 20 -140 20 -139.78051758 17.99023438 C-138.47412145 14.65906727 -136.15088523 12.02053722 -133.9375 9.25 C-133.46505859 8.64800781 -132.99261719 8.04601562 -132.50585938 7.42578125 C-131.34309599 5.94590057 -130.1723234 4.47231904 -129 3 C-125.11066359 4.47615251 -123.88233805 6.40526931 -121.94140625 10.015625 C-121.39033203 11.01980469 -120.83925781 12.02398438 -120.27148438 13.05859375 C-119.70751953 14.11175781 -119.14355469 15.16492187 -118.5625 16.25 C-116.4299565 20.20097243 -114.2457157 24.11236097 -112 28 C-111.66315186 28.67369629 -111.32630371 29.34739258 -110.97924805 30.04150391 C-109.9095168 32.02213307 -109.9095168 32.02213307 -107 34 C-102.22637922 34.8605441 -97.52807976 34.88464739 -92.6875 34.875 C-91.37458984 34.895625 -90.06167969 34.91625 -88.70898438 34.9375 C-85.4729315 34.98456986 -82.23639239 34.99574998 -79 35 C-78.34 29.39 -77.68 23.78 -77 18 C-64.28571429 12.57142857 -64.28571429 12.57142857 -58 11 C-58.36829233 19.15767517 -60.4460444 26.25574753 -63 34 C-58.05 34.33 -53.1 34.66 -48 35 C-47.34 29.39 -46.68 23.78 -46 18 C-39.41085523 15.27021145 -32.86591706 12.92830011 -26 11 C-27.20007963 19.02158487 -29.30043608 26.35123556 -32 34 C-23.75 34.33 -15.5 34.66 -7 35 C-7.7425 33.02 -8.485 31.04 -9.25 29 C-9.87648438 27.329375 -9.87648438 27.329375 -10.515625 25.625 C-12.14904529 21.63601571 -14.02014876 17.82555948 -16 14 C-13.71643754 11.65861457 -11.42186626 9.32833018 -9.125 7 C-8.14853516 5.99839844 -8.14853516 5.99839844 -7.15234375 4.9765625 C-6.52714844 4.34492187 -5.90195313 3.71328125 -5.2578125 3.0625 C-4.6817627 2.47597656 -4.10571289 1.88945313 -3.51220703 1.28515625 C-2 0 -2 0 0 0 Z " fill="#000000" transform="translate(2386,1014)"/>
<path d="M0 0 C2.98303444 1.2981724 4.39884509 3.20445517 6.421875 5.73046875 C7.13988281 6.60316406 7.85789062 7.47585938 8.59765625 8.375 C10.109375 10.91796875 10.109375 10.91796875 9.93139648 12.87207031 C8.8941641 15.4535991 7.64517419 16.47469075 5.46875 18.1953125 C4.72753906 18.79150391 3.98632812 19.38769531 3.22265625 20.00195312 C2.44277344 20.61361328 1.66289062 21.22527344 0.859375 21.85546875 C-3.96047226 25.68777564 -8.64760062 29.44582106 -12.890625 33.91796875 C-12.2615625 34.18609375 -11.6325 34.45421875 -10.984375 34.73046875 C-0.5711063 39.49798936 6.04808637 46.13171232 10.109375 56.91796875 C13.03212848 66.46665029 12.55160674 76.15035539 11.109375 85.91796875 C2.64224117 85.98768507 -5.82477137 86.04088921 -14.29212189 86.07340527 C-18.22447395 86.08901663 -22.15662867 86.11017124 -26.08886719 86.14428711 C-29.88846254 86.17704337 -33.68786887 86.19485578 -37.4875946 86.20260048 C-38.93237785 86.20811497 -40.37715154 86.21888307 -41.82185364 86.23515892 C-49.49026896 86.3180621 -55.79861265 86.050146 -62.890625 82.91796875 C-65.60710852 82.57640686 -65.60710852 82.57640686 -68.1328125 82.765625 C-69.05449219 82.79333984 -69.97617188 82.82105469 -70.92578125 82.84960938 C-72.81139889 82.93649822 -74.69682692 83.02761004 -76.58203125 83.12304688 C-84.71494658 83.35557793 -90.97146409 81.41956082 -97.828125 77.04296875 C-101.67100768 73.08363508 -103.07710805 69.49840382 -103.328125 64.04296875 C-103.06699729 57.07608152 -100.59127756 52.27004637 -95.640625 47.41796875 C-89.25555836 42.15754453 -80.3771496 37.57277536 -72.46875 35.1875 C-69.88551312 33.41067632 -69.88551312 33.41067632 -69.890625 25.91796875 C-64.280625 25.91796875 -58.670625 25.91796875 -52.890625 25.91796875 C-52.83003906 28.62628906 -52.76945312 31.33460938 -52.70703125 34.125 C-52.64523402 36.74620332 -52.58184956 39.36736378 -52.51831055 41.98852539 C-52.47498213 43.81107779 -52.43330553 45.63367023 -52.39331055 47.45629883 C-52.33555738 50.07515536 -52.27187744 52.6938107 -52.20703125 55.3125 C-52.19031876 56.12821976 -52.17360626 56.94393951 -52.15638733 57.78437805 C-52.07049255 61.05976419 -51.93310366 63.79053276 -50.890625 66.91796875 C-48.5605252 68.08301865 -47.21815423 68.03890455 -44.62451172 68.03149414 C-43.74374969 68.03141861 -42.86298767 68.03134308 -41.95553589 68.03126526 C-41.00341217 68.02610397 -40.05128845 68.02094269 -39.0703125 68.015625 C-38.09651642 68.01421005 -37.12272034 68.0127951 -36.11941528 68.01133728 C-33.00145427 68.00572848 -29.8835644 67.99317448 -26.765625 67.98046875 C-24.65494895 67.97545488 -22.54427178 67.97089178 -20.43359375 67.96679688 C-15.25257979 67.9557562 -10.07160748 67.93900948 -4.890625 67.91796875 C-5.63804911 66.32772884 -6.39680861 64.74281419 -7.16015625 63.16015625 C-7.58143799 62.2769873 -8.00271973 61.39381836 -8.43676758 60.48388672 C-12.79099817 52.79909016 -19.86756814 49.6795756 -27.890625 46.91796875 C-29.56032565 46.25893767 -31.2278564 45.59429914 -32.890625 44.91796875 C-34.95535927 29.25220712 -34.95535927 29.25220712 -31.69384766 23.98535156 C-28.50132722 20.47876274 -24.68748128 17.81755441 -20.75927734 15.19384766 C-17.97863345 13.29527893 -15.46519964 11.15021372 -12.890625 8.98046875 C-12.01277344 8.27277344 -11.13492188 7.56507813 -10.23046875 6.8359375 C-8.24442397 5.20797759 -6.35112379 3.52057363 -4.453125 1.79296875 C-1.890625 -0.08203125 -1.890625 -0.08203125 0 0 Z M-84.578125 58.98046875 C-86.08925872 60.82115568 -86.08925872 60.82115568 -85.890625 63.04296875 C-84.5759694 65.507948 -83.47118346 65.89733337 -80.890625 66.91796875 C-78.33415117 67.195139 -78.33415117 67.195139 -75.703125 67.10546875 C-74.82269531 67.09902344 -73.94226562 67.09257813 -73.03515625 67.0859375 C-70.90915188 67.15307339 -70.90915188 67.15307339 -69.890625 65.91796875 C-69.81790759 63.5648332 -69.80691632 61.20963207 -69.828125 58.85546875 C-69.83714844 57.56511719 -69.84617187 56.27476563 -69.85546875 54.9453125 C-69.86707031 53.94628906 -69.87867187 52.94726562 -69.890625 51.91796875 C-74.99921961 51.91796875 -80.64580915 55.96264496 -84.578125 58.98046875 Z " fill="#000000" transform="translate(2215.890625,980.08203125)"/>
<path d="M0 0 C6.35167727 15.73937638 10.6491311 30.31240877 5.46362305 47.22607422 C5.05384468 48.56930252 5.05384468 48.56930252 4.63578796 49.93966675 C4.42597794 50.61957672 4.21616791 51.29948669 4 52 C-4.95411989 52.06978675 -13.90814485 52.12295589 -22.86247826 52.15543652 C-27.02121016 52.17103265 -31.17975476 52.19215897 -35.33837891 52.22631836 C-39.35843346 52.2591295 -43.37830887 52.27689842 -47.39848709 52.28463173 C-48.92534832 52.29013648 -50.45220074 52.30088501 -51.97898483 52.31719017 C-62.71689167 52.42721043 -73.45006984 52.35691665 -82 45 C-87.13679939 38.23003342 -88.68944041 32.42370827 -88 24 C-86.68253113 16.19892449 -84.25605334 9.66164871 -80 3 C-76.55330375 3.57344333 -73.77811835 4.43861578 -70.6875 6.0625 C-69.99011719 6.42472656 -69.29273438 6.78695312 -68.57421875 7.16015625 C-67.79498047 7.57587891 -67.79498047 7.57587891 -67 8 C-67.2165625 8.78503906 -67.433125 9.57007813 -67.65625 10.37890625 C-70.53075174 20.12623629 -70.53075174 20.12623629 -68.75 29.8125 C-66.8507629 32.18654637 -65.79388081 32.89854646 -63 34 C-60.33475259 34.32546277 -60.33475259 34.32546277 -57.40527344 34.31884766 C-56.28441345 34.33871735 -55.16355347 34.35858704 -54.00872803 34.37905884 C-52.20229828 34.39638565 -52.20229828 34.39638565 -50.359375 34.4140625 C-49.12205627 34.43342865 -47.88473755 34.4527948 -46.60992432 34.4727478 C-43.32861429 34.52237989 -40.04733888 34.56366067 -36.76586914 34.60089111 C-33.41411724 34.64097656 -30.06255655 34.69221225 -26.7109375 34.7421875 C-20.14073391 34.83824493 -13.57045645 34.92329277 -7 35 C-7.78051993 32.91102225 -8.56678339 30.82418988 -9.35546875 28.73828125 C-9.79270264 27.57594971 -10.22993652 26.41361816 -10.68041992 25.21606445 C-12.11711625 21.71456569 -13.70082089 18.98041737 -16 16 C-14.33318032 11.93651061 -11.49114746 8.94211118 -8.5625 5.75 C-8.07201172 5.19570313 -7.58152344 4.64140625 -7.07617188 4.0703125 C-3.36176108 0 -3.36176108 0 0 0 Z " fill="#000000" transform="translate(1102,1014)"/>
<path d="M0 0 C0.66 0 1.32 0 2 0 C3.54158669 2.07463041 4.94026172 4.12897125 6.3125 6.3125 C6.9159021 7.26503662 6.9159021 7.26503662 7.53149414 8.23681641 C15.6099554 21.22686483 20.42632285 33.96488722 17.3125 49.41015625 C14.63646086 58.94354569 10.60577201 67.0960518 2.25 72.77734375 C-6.05291237 77.2891694 -14.83165332 77.97472082 -24 76 C-34.99504824 71.94984664 -34.99504824 71.94984664 -36.98046875 68.09765625 C-37.00710285 65.23715358 -36.03037853 63.68453024 -34.5625 61.25 C-34.08941406 60.45078125 -33.61632813 59.6515625 -33.12890625 58.828125 C-32.75636719 58.22484375 -32.38382813 57.6215625 -32 57 C-30.9275 57.33 -29.855 57.66 -28.75 58 C-20.91887847 59.91612548 -12.73552204 60.40819249 -5.6171875 56.19921875 C-1.28822582 52.98909499 0.89540677 49.22171347 2 44 C2.62235927 35.16595593 -2.23992519 28.33731444 -7.83203125 21.88671875 C-8.38246094 21.28472656 -8.93289063 20.68273438 -9.5 20.0625 C-12 17 -12 17 -11.80834961 15.01074219 C-10.9597639 12.89991406 -10.03199019 11.49862402 -8.56640625 9.765625 C-8.08236328 9.19199219 -7.59832031 8.61835937 -7.09960938 8.02734375 C-6.59236328 7.44082031 -6.08511719 6.85429688 -5.5625 6.25 C-5.05912109 5.64800781 -4.55574219 5.04601562 -4.03710938 4.42578125 C-2.74057313 2.90712923 -1.37487212 1.44811493 0 0 Z " fill="#000000" transform="translate(1175,1017)"/>
<path d="M0 0 C4.29 0 8.58 0 13 0 C14.85564602 4.80387577 16.70694675 9.60939427 18.55419922 14.41650391 C19.1835333 16.05238264 19.81406291 17.68780196 20.44580078 19.32275391 C21.3524162 21.66970655 22.25475215 24.01826518 23.15625 26.3671875 C23.44060913 27.10057343 23.72496826 27.83395935 24.01794434 28.58956909 C26 33.77225659 26 33.77225659 26 36 C26.66 36 27.32 36 28 36 C28.11408203 35.15219971 28.22816406 34.30439941 28.34570312 33.4309082 C29.04200495 29.77974046 30.14391997 26.5769701 31.46875 23.10546875 C31.70911987 22.47264481 31.94948975 21.83982086 32.19714355 21.18782043 C32.70218729 19.86158878 33.2099178 18.53637741 33.72021484 17.2121582 C34.50352453 15.1783488 35.27778324 13.14126369 36.05078125 11.10351562 C39.85142257 1.14857743 39.85142257 1.14857743 41 0 C44.96 0 48.92 0 53 0 C53 15.51 53 31.02 53 47 C50.36 47 47.72 47 45 47 C44.67 36.11 44.34 25.22 44 14 C39.71 24.89 35.42 35.78 31 47 C28.03 47 25.06 47 22 47 C17.71 36.11 13.42 25.22 9 14 C8.67 24.89 8.34 35.78 8 47 C5.36 47 2.72 47 0 47 C0 31.49 0 15.98 0 0 Z " fill="#000000" transform="translate(1123,1153)"/>
<path d="M0 0 C5.61 0 11.22 0 17 0 C17 27.72 17 55.44 17 84 C11.39 84 5.78 84 0 84 C0 56.28 0 28.56 0 0 Z " fill="#000000" transform="translate(2052,982)"/>
<path d="M0 0 C5.61 0 11.22 0 17 0 C17 27.72 17 55.44 17 84 C11.39 84 5.78 84 0 84 C0 56.28 0 28.56 0 0 Z " fill="#000000" transform="translate(1768,982)"/>
<path d="M0 0 C5.61 0 11.22 0 17 0 C17 27.72 17 55.44 17 84 C11.39 84 5.78 84 0 84 C0 56.28 0 28.56 0 0 Z " fill="#000000" transform="translate(1124,982)"/>
<path d="M0 0 C4.29 0 8.58 0 13 0 C17.29 11.55 21.58 23.1 26 35 C28.18935447 31.7159683 29.46680112 28.38103705 30.8203125 24.70703125 C31.08383514 24.00100266 31.34735779 23.29497406 31.61886597 22.56755066 C32.45786061 20.31719413 33.29149183 18.06489369 34.125 15.8125 C34.69365774 14.28437392 35.26266409 12.75637752 35.83203125 11.22851562 C37.22540052 7.48716859 38.61396363 3.74406948 40 0 C44.29 0 48.58 0 53 0 C53 15.51 53 31.02 53 47 C50.36 47 47.72 47 45 47 C44.67 35.78 44.34 24.56 44 13 C42.60974609 16.55587891 42.60974609 16.55587891 41.19140625 20.18359375 C40.29514457 22.47070657 39.3979831 24.75746447 38.50073242 27.04418945 C37.87609089 28.63756986 37.2523902 30.23131942 36.62963867 31.82543945 C35.73601526 34.11246134 34.83905237 36.39814828 33.94140625 38.68359375 C33.6622084 39.40026718 33.38301056 40.11694061 33.09535217 40.85533142 C31.11387171 45.88612829 31.11387171 45.88612829 30 47 C27.32941149 47.14115161 24.67567762 47.04247107 22 47 C17.05459425 35.44415238 12.56190601 23.71116169 8 12 C7.67 23.55 7.34 35.1 7 47 C4.69 47 2.38 47 0 47 C0 31.49 0 15.98 0 0 Z " fill="#000000" transform="translate(1676,1153)"/>
<path d="M0 0 C3.96 0 7.92 0 12 0 C15.39199453 7.41008151 18.35073439 14.94771373 21.25 22.5625 C21.70890625 23.76197266 22.1678125 24.96144531 22.640625 26.19726562 C23.76257379 29.13069422 24.88231021 32.06494661 26 35 C29.42136642 27.60679979 32.35220395 20.04842655 35.25 12.4375 C35.70890625 11.23802734 36.1678125 10.03855469 36.640625 8.80273438 C37.76257114 5.8693127 38.88158579 2.9347701 40 0 C43.96 0 47.92 0 52 0 C52 15.51 52 31.02 52 47 C49.69 47 47.38 47 45 47 C44.505 29.675 44.505 29.675 44 12 C42.60974609 15.66416016 42.60974609 15.66416016 41.19140625 19.40234375 C40.29516155 21.75895446 39.39799279 24.11521139 38.50073242 26.47143555 C37.87606544 28.11331979 37.25236476 29.755572 36.62963867 31.39819336 C35.73608136 33.75471084 34.83909466 36.10989739 33.94140625 38.46484375 C33.6622084 39.20339096 33.38301056 39.94193817 33.09535217 40.7028656 C31.11387171 45.88612829 31.11387171 45.88612829 30 47 C27.32941149 47.14115161 24.67567762 47.04247107 22 47 C18.3374023 39.23475127 15.15240764 31.36734402 12.1875 23.3125 C10.805625 19.579375 9.42375 15.84625 8 12 C7.67 23.55 7.34 35.1 7 47 C4.69 47 2.38 47 0 47 C0 31.49 0 15.98 0 0 Z " fill="#000000" transform="translate(2131,1153)"/>
<path d="M0 0 C4.88505924 3.06259785 7.43557601 7.34958575 9.625 12.5625 C11.15984679 21.21345463 11.51157511 30.47258769 7.3125 38.4375 C3.91358879 42.4464722 0.33035945 45.76488018 -4.6875 47.4375 C-21.46587244 48.57596576 -21.46587244 48.57596576 -28.6875 43.4375 C-34.73227178 37.55610043 -36.02265878 30.68681743 -36.1875 22.5625 C-36.1632374 14.16861245 -34.16371941 7.91371941 -28.1875 1.9375 C-20.3845692 -2.74425848 -8.49322433 -3.79103691 0 0 Z M-23.6875 8.4375 C-28.54726175 14.71335126 -28.49500896 21.80105728 -27.6875 29.4375 C-26.32687109 33.67056772 -24.18740382 36.75869002 -20.62890625 39.5234375 C-16.5176546 41.45911735 -12.09171024 41.04358398 -7.6875 40.4375 C-3.05263486 38.66244527 -1.11637329 35.68802826 1.3125 31.4375 C3.32280933 24.91722039 2.87510117 18.41710278 0.234375 12.1640625 C-1.73106076 8.4830345 -3.77231507 6.74256164 -7.6875 5.4375 C-16.36019164 4.60271623 -16.36019164 4.60271623 -23.6875 8.4375 Z " fill="#000000" transform="translate(1876.6875,1153.5625)"/>
<path d="M0 0 C1.99218613 1.20211611 3.58580115 2.43048822 5.24609375 4.0546875 C6.00921875 4.7765625 6.77234375 5.4984375 7.55859375 6.2421875 C12.0919019 13.79770108 13.36507881 21.99351843 11.77734375 30.59375 C9.89777575 38.00014295 6.68956059 42.78346469 0.30859375 46.9921875 C-6.73355964 49.50724228 -16.55725034 49.53516514 -23.37890625 46.4296875 C-28.59986723 43.2176615 -31.76873365 38.84053243 -33.75390625 33.0546875 C-35.30960568 24.18469157 -35.26030884 15.72178198 -30.94140625 7.6796875 C-23.23300643 -1.57039229 -11.35463746 -3.89762023 0 0 Z M-22.75390625 10.0546875 C-26.83274611 16.77450281 -26.50391039 23.41297863 -25.75390625 31.0546875 C-24.59650332 34.91891987 -22.63665128 37.22544216 -19.69140625 39.9921875 C-13.79814091 42.12379411 -7.93248576 42.06617084 -2.25390625 39.4296875 C2.52939537 34.88555096 3.8433 30.13592635 4.30859375 23.71875 C4.16978839 17.80217154 2.909644 12.71823775 -1.31640625 8.4921875 C-8.22890891 4.41558337 -16.72066257 4.32310601 -22.75390625 10.0546875 Z " fill="#000000" transform="translate(1776.75390625,1152.9453125)"/>
<path d="M0 0 C5.58737972 3.97563557 8.83083827 8.54577234 10.25 15.3125 C11.03866625 25.05359397 10.7162484 32.6637989 5.5625 41.0625 C-0.13538954 46.60639253 -5.12215449 47.67487553 -12.875 47.75 C-13.55594727 47.7600708 -14.23689453 47.7701416 -14.93847656 47.78051758 C-20.98017818 47.67688255 -24.90897208 45.8966403 -29.4375 42 C-36.10971169 34.24580804 -36.39546689 26.14434384 -35.75 16.3125 C-34.31464087 9.08293378 -31.56859421 4.31803819 -25.5 0 C-18.32632001 -3.30366842 -7.17367999 -3.30366842 0 0 Z M-25.75 11.3125 C-28.51385374 16.47970483 -28.42353972 22.58335494 -27.75 28.3125 C-26.29367661 32.68864419 -24.25567606 36.27483611 -20.75 39.3125 C-15.57001432 41.03916189 -9.95250122 41.22222877 -4.875 39.125 C-0.59453118 35.47401189 2.01180287 32.16696068 2.48828125 26.45703125 C2.71599048 16.70073167 2.71599048 16.70073167 -1.75 8.3125 C-6.38351723 4.90293072 -10.17946143 4.68675331 -15.796875 4.83203125 C-20.42188639 5.58451326 -22.97627016 7.61703839 -25.75 11.3125 Z " fill="#000000" transform="translate(2106.75,1153.6875)"/>
<path d="M0 0 C8 0 8 0 10.51171875 2.17578125 C11.58873047 3.72845703 11.58873047 3.72845703 12.6875 5.3125 C13.28872681 6.15603027 13.28872681 6.15603027 13.90209961 7.01660156 C15.29738496 8.99218022 16.64800888 10.99456153 18 13 C19.16266212 14.68716381 20.32679696 16.37331342 21.4921875 18.05859375 C24.30476777 22.13796416 27.08828974 26.23588319 29.85180664 30.34863281 C30.89752011 31.95648631 30.89752011 31.95648631 32 33 C32.33 22.11 32.66 11.22 33 0 C35.31 0 37.62 0 40 0 C40 15.51 40 31.02 40 47 C37.03 47 34.06 47 31 47 C28.48314267 44.4232175 26.94196155 42.44865855 25.125 39.4375 C24.11376633 37.88425168 23.10070268 36.33219342 22.0859375 34.78125 C21.58030273 33.98847656 21.07466797 33.19570312 20.55371094 32.37890625 C18.10013511 28.62220561 15.42882298 25.03516979 12.75 21.4375 C11.1825 19.313125 9.615 17.18875 8 15 C7.67 25.56 7.34 36.12 7 47 C4.69 47 2.38 47 0 47 C0 31.49 0 15.98 0 0 Z " fill="#000000" transform="translate(2301,1153)"/>
<path d="M0 0 C4.33125 -0.061875 8.6625 -0.12375 13.125 -0.1875 C14.47996582 -0.21481201 15.83493164 -0.24212402 17.23095703 -0.27026367 C18.85300049 -0.28150269 18.85300049 -0.28150269 20.5078125 -0.29296875 C21.60754395 -0.3086792 22.70727539 -0.32438965 23.84033203 -0.34057617 C29.00812769 0.21645326 32.15310999 2.13386249 35.75 5.8125 C39.74727678 11.47530878 40.36455218 16.64985853 40.3125 23.375 C40.30404053 24.50663574 40.30404053 24.50663574 40.29541016 25.66113281 C40.16408414 31.66052127 39.87096448 36.8155394 35.640625 41.5078125 C30.75659882 45.91350622 26.27630706 47.25887987 19.82421875 47.1953125 C18.25933716 47.18781982 18.25933716 47.18781982 16.6628418 47.18017578 C15.350979 47.16196777 14.03911621 47.14375977 12.6875 47.125 C8.500625 47.08375 4.31375 47.0425 0 47 C0 31.49 0 15.98 0 0 Z M8 6 C8 17.22 8 28.44 8 40 C22.68517751 41.37198868 22.68517751 41.37198868 29 37 C33.15635352 30.40716338 33.14657361 22.20846614 31.49609375 14.7109375 C30.39412006 11.75135102 29.09638616 10.07609434 26.625 8.125 C20.25903924 5.3967311 15.15994997 6 8 6 Z " fill="#000000" transform="translate(1244,1153)"/>
<path d="M0 0 C4.49625 -0.061875 8.9925 -0.12375 13.625 -0.1875 C15.03217285 -0.21481201 16.4393457 -0.24212402 17.88916016 -0.27026367 C19.01112793 -0.27775635 20.1330957 -0.28524902 21.2890625 -0.29296875 C23.00150146 -0.31653442 23.00150146 -0.31653442 24.74853516 -0.34057617 C28.46000996 0.04818395 30.82472546 1.06753654 34 3 C37.5888599 7.9047752 37.83070697 13.1373094 37 19 C35.05797901 23.36954724 33.03892733 25.16026845 28.84375 27.1640625 C28.12380859 27.51162598 27.40386719 27.85918945 26.66210938 28.21728516 C26.11361328 28.47558105 25.56511719 28.73387695 25 29 C25.36351562 29.47421387 25.72703125 29.94842773 26.1015625 30.43701172 C27.73934936 32.57925793 29.36973945 34.72702158 31 36.875 C31.57234375 37.62136719 32.1446875 38.36773438 32.734375 39.13671875 C33.27578125 39.85214844 33.8171875 40.56757812 34.375 41.3046875 C34.87773438 41.96452637 35.38046875 42.62436523 35.8984375 43.30419922 C37 45 37 45 37 47 C33.80888214 47.66481622 31.17629418 47.80393781 28 47 C24.74137867 44.07070742 22.42850983 40.62692663 20 37 C19.00193904 35.66521459 18.00225082 34.33164224 17 33 C15 30 15 30 15 28 C12.69 28 10.38 28 8 28 C8 34.27 8 40.54 8 47 C5.36 47 2.72 47 0 47 C0 31.49 0 15.98 0 0 Z M8 6 C8 11.28 8 16.56 8 22 C11.031875 22.061875 11.031875 22.061875 14.125 22.125 C15.26195312 22.14820313 16.39890625 22.17140625 17.5703125 22.1953125 C22.13213294 21.93552774 25.71484079 21.28515921 29 18 C29.57433115 12.75211662 29.57433115 12.75211662 27.75 8.0625 C22.01778332 4.58222559 14.38260971 5.94090176 8 6 Z " fill="#000000" transform="translate(1901,1153)"/>
<path d="M0 0 C1.02867188 -0.01740234 1.02867188 -0.01740234 2.078125 -0.03515625 C7.59863643 -0.00355027 11.27127499 1.58721465 15.8125 4.5625 C17.79272852 7.58495406 17.70795268 10.81202274 18 14.375 C15.36 14.375 12.72 14.375 10 14.375 C9.773125 13.59125 9.54625 12.8075 9.3125 12 C8.2222289 9.27680584 8.2222289 9.27680584 5.9375 8 C1.85506983 7.13139784 -1.93970851 7.43216078 -6 8.375 C-6.99 9.035 -7.98 9.695 -9 10.375 C-9.58345476 13.33246492 -9.58345476 13.33246492 -9 16.375 C-4.9073054 20.55955059 0.75511388 20.55442195 6.2734375 21.43359375 C11.41607194 22.73272886 14.82832475 24.74977305 17.9375 29.0625 C19.35197764 33.47234204 19.30298612 36.93372415 18 41.375 C15.63407784 45.660959 12.65138627 47.94926302 8 49.375 C-0.53380304 50.1483478 -8.80722247 50.59328958 -16 45.375 C-18.74996603 42.02347889 -19.36829211 39.67174129 -19 35.375 C-13.65152516 34.93660042 -13.65152516 34.93660042 -11 35.375 C-9.3125 37.75 -9.3125 37.75 -8 40.375 C-4.15146325 42.86522966 -0.47382155 42.54526663 3.90625 41.91015625 C6.98771072 41.12254409 8.32540334 40.06891637 10 37.375 C10.05711955 35.37581583 10.06289637 33.37401077 10 31.375 C8.865625 31.13265625 7.73125 30.8903125 6.5625 30.640625 C-12.10937562 26.53662042 -12.10937562 26.53662042 -17 21.1875 C-18.4322029 17.15942934 -18.66293706 13.59843051 -18 9.375 C-14.21537326 1.51462139 -8.2791613 -0.140061 0 0 Z " fill="#000000" transform="translate(1967,1151.625)"/>
<path d="M0 0 C2.64 0 5.28 0 8 0 C8 6.6 8 13.2 8 20 C15.59 20 23.18 20 31 20 C31 13.4 31 6.8 31 0 C33.64 0 36.28 0 39 0 C39 15.51 39 31.02 39 47 C36.36 47 33.72 47 31 47 C31 40.4 31 33.8 31 27 C23.41 27 15.82 27 8 27 C8 33.6 8 40.2 8 47 C5.36 47 2.72 47 0 47 C0 31.49 0 15.98 0 0 Z " fill="#000000" transform="translate(1067,1153)"/>
<path d="M0 0 C0.68094727 -0.0100708 1.36189453 -0.0201416 2.06347656 -0.03051758 C8.27597747 0.07604722 12.21741498 1.81758736 16.625 6.125 C19.35606361 9.61127734 20.05875695 13.13367299 20.875 17.4375 C18.235 17.4375 15.595 17.4375 12.875 17.4375 C12.2975 16.32375 11.72 15.21 11.125 14.0625 C9.51037932 10.94858869 8.19451977 9.64835685 4.875 8.4375 C0.5193627 7.81244631 -4.03392316 7.47651202 -8.10546875 9.34765625 C-11.74479064 12.14229603 -13.29068791 15.01564594 -14.125 19.4375 C-14.74760186 26.17292014 -14.02350878 31.31842591 -11.125 37.4375 C-8.67267685 40.30867724 -6.64814014 41.30325714 -2.8203125 41.640625 C4.08069929 41.84541834 4.08069929 41.84541834 9.875 38.4375 C11.70129794 35.37069201 11.70129794 35.37069201 12.875 32.4375 C15.515 32.4375 18.155 32.4375 20.875 32.4375 C20.2789512 38.69601235 17.95919669 42.55663957 13.3125 46.75 C7.21295624 50.97276106 -1.00673394 49.92793172 -8.125 49.4375 C-13.71576201 48.07269633 -16.93758051 45.10565043 -20.1171875 40.4140625 C-24.1134782 32.57637609 -24.36306344 23.4018932 -22.58984375 14.859375 C-20.59320065 9.14221115 -17.75387576 5.59650776 -12.875 2.125 C-8.70567122 0.18980211 -4.52825478 0.04387844 0 0 Z " fill="#000000" transform="translate(2040.125,1151.5625)"/>
<path d="M0 0 C1.51400391 0.01740234 1.51400391 0.01740234 3.05859375 0.03515625 C4.07050781 0.04417969 5.08242187 0.05320312 6.125 0.0625 C7.29869141 0.07990234 7.29869141 0.07990234 8.49609375 0.09765625 C10.92176919 6.46797912 13.34232443 12.84022985 15.75927734 19.21386719 C16.58263384 21.38326367 17.40717493 23.55221094 18.23291016 25.72070312 C19.41748507 28.8321676 20.59783339 31.94520644 21.77734375 35.05859375 C22.149198 36.03259125 22.52105225 37.00658875 22.9041748 38.01010132 C23.24452759 38.91088409 23.58488037 39.81166687 23.93554688 40.73974609 C24.38855164 41.93221451 24.38855164 41.93221451 24.85070801 43.14877319 C25.49609375 45.09765625 25.49609375 45.09765625 25.49609375 47.09765625 C22.52609375 47.09765625 19.55609375 47.09765625 16.49609375 47.09765625 C15.50609375 43.79765625 14.51609375 40.49765625 13.49609375 37.09765625 C6.23609375 37.09765625 -1.02390625 37.09765625 -8.50390625 37.09765625 C-9.49390625 40.39765625 -10.48390625 43.69765625 -11.50390625 47.09765625 C-14.47390625 47.09765625 -17.44390625 47.09765625 -20.50390625 47.09765625 C-16.99324418 36.86192843 -13.27032995 26.70914764 -9.4437561 16.58773804 C-8.94136512 15.25883614 -8.43988267 13.92959043 -7.93930054 12.6000061 C-7.22811816 10.71268831 -6.51258555 8.82701152 -5.796875 6.94140625 C-5.37946045 5.83990234 -4.9620459 4.73839844 -4.53198242 3.60351562 C-3.10322716 0.1210307 -3.10322716 0.1210307 0 0 Z M2.49609375 8.09765625 C-2.97795478 19.24886112 -2.97795478 19.24886112 -5.50390625 31.09765625 C0.10609375 31.09765625 5.71609375 31.09765625 11.49609375 31.09765625 C8.85609375 23.50765625 6.21609375 15.91765625 3.49609375 8.09765625 C3.16609375 8.09765625 2.83609375 8.09765625 2.49609375 8.09765625 Z " fill="#000000" transform="translate(1207.50390625,1152.90234375)"/>
<path d="M0 0 C1.51400391 0.01740234 1.51400391 0.01740234 3.05859375 0.03515625 C4.07050781 0.04417969 5.08242187 0.05320312 6.125 0.0625 C7.29869141 0.07990234 7.29869141 0.07990234 8.49609375 0.09765625 C10.91941649 6.62961568 13.34023438 13.16249932 15.75927734 19.69604492 C16.58323849 21.92054485 17.407782 24.14482917 18.23291016 26.36889648 C19.41590545 29.5578712 20.59683342 32.74760469 21.77734375 35.9375 C22.149198 36.93853256 22.52105225 37.93956512 22.9041748 38.97093201 C23.24452759 39.89181107 23.58488037 40.81269012 23.93554688 41.76147461 C24.23755005 42.57643906 24.53955322 43.3914035 24.85070801 44.23106384 C25.49609375 46.09765625 25.49609375 46.09765625 25.49609375 47.09765625 C22.52609375 47.09765625 19.55609375 47.09765625 16.49609375 47.09765625 C15.50609375 43.79765625 14.51609375 40.49765625 13.49609375 37.09765625 C6.23609375 37.09765625 -1.02390625 37.09765625 -8.50390625 37.09765625 C-9.49390625 40.39765625 -10.48390625 43.69765625 -11.50390625 47.09765625 C-14.47390625 47.09765625 -17.44390625 47.09765625 -20.50390625 47.09765625 C-16.59125412 35.6188159 -12.47417498 24.23290875 -8.12890625 12.91015625 C-7.68820801 11.75789551 -7.24750977 10.60563477 -6.79345703 9.41845703 C-6.3807959 8.34966309 -5.96813477 7.28086914 -5.54296875 6.1796875 C-5.17381348 5.22296143 -4.8046582 4.26623535 -4.42431641 3.28051758 C-3.0919232 0.12058983 -3.0919232 0.12058983 0 0 Z M2.49609375 8.09765625 C-3.12879115 19.19019048 -3.12879115 19.19019048 -5.50390625 31.09765625 C-0.22390625 31.09765625 5.05609375 31.09765625 10.49609375 31.09765625 C8.98136156 23.11088653 6.32806823 15.69642747 3.49609375 8.09765625 C3.16609375 8.09765625 2.83609375 8.09765625 2.49609375 8.09765625 Z " fill="#000000" transform="translate(1546.50390625,1152.90234375)"/>
<path d="M0 0 C3.63 0 7.26 0 11 0 C15.4553532 10.97449399 19.80646677 21.98505217 24 33.0625 C24.39759521 34.10277344 24.79519043 35.14304687 25.20483398 36.21484375 C25.57036377 37.18679688 25.93589355 38.15875 26.3125 39.16015625 C26.80169922 40.45385132 26.80169922 40.45385132 27.30078125 41.77368164 C28 44 28 44 28 47 C25.36 47 22.72 47 20 47 C18.68 44.03 17.36 41.06 16 38 C9.07 38 2.14 38 -5 38 C-6.32 40.97 -7.64 43.94 -9 47 C-11.64 47 -14.28 47 -17 47 C-16.40655144 43.71019497 -15.61464367 40.6964335 -14.41772461 37.5769043 C-14.09746811 36.73641037 -13.77721161 35.89591644 -13.44725037 35.029953 C-13.10243118 34.1370607 -12.757612 33.2441684 -12.40234375 32.32421875 C-11.87176109 30.93648003 -11.87176109 30.93648003 -11.33045959 29.52070618 C-10.20318293 26.57486704 -9.07042102 23.63117241 -7.9375 20.6875 C-7.17086096 18.68698803 -6.40458074 16.68633851 -5.63867188 14.68554688 C-3.76326997 9.78876053 -1.88294681 4.89388982 0 0 Z M5 7 C3.66147204 10.62310328 2.33006282 14.24878144 1 17.875 C0.6184375 18.90753906 0.236875 19.94007812 -0.15625 21.00390625 C-0.5171875 21.99003906 -0.878125 22.97617188 -1.25 23.9921875 C-1.58515625 24.90339355 -1.9203125 25.81459961 -2.265625 26.75341797 C-3.10356885 28.92290787 -3.10356885 28.92290787 -3 31 C2.61 31 8.22 31 14 31 C11.65868652 22.86701635 8.89754422 14.94820431 6 7 C5.67 7 5.34 7 5 7 Z " fill="#000000" transform="translate(1027,1153)"/>
<path d="M0 0 C3.63 0 7.26 0 11 0 C14.70400798 8.73431196 18.17102682 17.53115258 21.50415039 26.41235352 C22.32382533 28.5926245 23.15110072 30.76992198 23.97851562 32.94726562 C24.5030675 34.34097154 25.02717318 35.73484548 25.55078125 37.12890625 C25.79758133 37.77573868 26.04438141 38.42257111 26.29866028 39.08900452 C27.34133771 41.88844594 28 43.98316283 28 47 C25.36 47 22.72 47 20 47 C17 40.375 17 40.375 17 37 C9.74 37.33 2.48 37.66 -5 38 C-6.32 40.97 -7.64 43.94 -9 47 C-11.64 47 -14.28 47 -17 47 C-14.2527548 37.05272555 -10.49403283 27.50404774 -6.8125 17.875 C-6.15137261 16.13814265 -5.4905626 14.40116444 -4.83007812 12.6640625 C-3.22371016 8.44130532 -1.61304804 4.22020973 0 0 Z M5 8 C3.66408687 11.64489331 2.33170192 15.29106619 1 18.9375 C0.42765625 20.49887695 0.42765625 20.49887695 -0.15625 22.09179688 C-0.5171875 23.08115234 -0.878125 24.07050781 -1.25 25.08984375 C-1.58515625 26.00628662 -1.9203125 26.92272949 -2.265625 27.86694336 C-3.05425506 29.78159963 -3.05425506 29.78159963 -3 31 C2.61 31 8.22 31 14 31 C12.37076387 25.46059716 10.69612226 19.93731118 8.9375 14.4375 C8.61652344 13.42558594 8.29554687 12.41367188 7.96484375 11.37109375 C7.24113934 8.84560944 7.24113934 8.84560944 5 8 Z " fill="#000000" transform="translate(1330,1153)"/>
<path d="M0 0 C3.63 0 7.26 0 11 0 C13.26541769 5.8879542 15.52560783 11.77787818 17.78100586 17.66967773 C18.54878165 19.67315599 19.31797573 21.67609133 20.08862305 23.6784668 C21.19694573 26.55896245 22.30013059 29.44138069 23.40234375 32.32421875 C23.74716293 33.21711105 24.09198212 34.11000336 24.44725037 35.029953 C24.76750687 35.87044693 25.08776337 36.71094086 25.41772461 37.5769043 C25.84075111 38.67943794 25.84075111 38.67943794 26.27232361 39.804245 C27.06011887 42.181408 27.55578528 44.53747855 28 47 C25.03 47 22.06 47 19 47 C18.01 44.03 17.02 41.06 16 38 C8.74 37.67 1.48 37.34 -6 37 C-6.33 38.98 -6.66 40.96 -7 43 C-8.0625 45.375 -8.0625 45.375 -9 47 C-11.64 47 -14.28 47 -17 47 C-16.36165178 41.42535651 -14.46115337 36.61508061 -12.40234375 31.4453125 C-12.04862198 30.54376434 -11.69490021 29.64221619 -11.33045959 28.71334839 C-10.20494297 25.84837722 -9.07135112 22.98668152 -7.9375 20.125 C-7.17068799 18.17729426 -6.40440601 16.22937976 -5.63867188 14.28125 C-3.76524507 9.51839347 -1.88457192 4.75845702 0 0 Z M5 7 C3.66147204 10.62310328 2.33006282 14.24878144 1 17.875 C0.6184375 18.90753906 0.236875 19.94007812 -0.15625 21.00390625 C-0.5171875 21.99003906 -0.878125 22.97617188 -1.25 23.9921875 C-1.58515625 24.90339355 -1.9203125 25.81459961 -2.265625 26.75341797 C-3.10356885 28.92290787 -3.10356885 28.92290787 -3 31 C2.61 31 8.22 31 14 31 C11.36 23.08 8.72 15.16 6 7 C5.67 7 5.34 7 5 7 Z " fill="#000000" transform="translate(2261,1153)"/>
<path d="M0 0 C4.49625 -0.0825 8.9925 -0.165 13.625 -0.25 C15.03217285 -0.28641602 16.4393457 -0.32283203 17.88916016 -0.36035156 C29.39946625 -0.46284172 29.39946625 -0.46284172 34 4 C37.33512934 8.78035205 37.7492757 13.35005624 37 19 C35.44392346 23.20140665 33.86950532 25.70248122 30 28 C27.17588235 28.94137255 25.47081968 29.11725382 22.55078125 29.09765625 C21.70322266 29.09443359 20.85566406 29.09121094 19.98242188 29.08789062 C19.10134766 29.07951172 18.22027344 29.07113281 17.3125 29.0625 C16.41982422 29.05798828 15.52714844 29.05347656 14.60742188 29.04882812 C12.40491927 29.03705004 10.20245115 29.01911481 8 29 C8 34.94 8 40.88 8 47 C5.36 47 2.72 47 0 47 C0 31.49 0 15.98 0 0 Z M8 6 C8 11.28 8 16.56 8 22 C10.75105422 22.10812003 13.49785087 22.18734945 16.25 22.25 C17.41595703 22.30027344 17.41595703 22.30027344 18.60546875 22.3515625 C23.37838411 22.43771476 23.37838411 22.43771476 27.515625 20.203125 C29.68942352 16.97675035 29.54267635 14.79873444 29 11 C26.64719854 7.8069123 24.83006627 6.67550826 21 6 C18.75092848 5.93209325 16.49998395 5.91500016 14.25 5.9375 C11.15625 5.9684375 11.15625 5.9684375 8 6 Z " fill="#000000" transform="translate(2201,1153)"/>
<path d="M0 0 C9.24 0 18.48 0 28 0 C28.04629669 4.0895411 28.08600292 8.17840133 28.10986328 12.26806641 C28.11982603 13.65481676 28.13340118 15.04154665 28.15087891 16.42822266 C28.40791422 37.36904092 28.40791422 37.36904092 23.625 43.5 C19.04538696 47.86153623 15.95925465 48.29353517 9.625 48.3125 C8.33851562 48.32925781 7.05203125 48.34601563 5.7265625 48.36328125 C0.5010909 47.85387993 -2.75389388 46.34714175 -6.3125 42.5 C-9.15848742 38.28372234 -9.09394897 34.97929548 -9 30 C-5.535 29.505 -5.535 29.505 -2 29 C-1.49596232 30.29009643 -0.99690074 31.58213789 -0.5 32.875 C-0.2215625 33.59429688 0.056875 34.31359375 0.34375 35.0546875 C1 37 1 37 1 39 C5.33253762 40.44417921 9.47230306 40.53441669 14 40 C16.86155317 38.11556255 17.74219692 37.02756885 18.57006836 33.7277832 C19.02936604 30.81368156 19.21057866 27.99102312 19.31640625 25.04296875 C19.35830078 23.93115234 19.40019531 22.81933594 19.44335938 21.67382812 C19.48267578 20.52333984 19.52199219 19.37285156 19.5625 18.1875 C19.60568359 17.01767578 19.64886719 15.84785156 19.69335938 14.64257812 C19.79918208 11.76184907 19.90007073 8.88093951 20 6 C13.4 6 6.8 6 0 6 C0 4.02 0 2.04 0 0 Z " fill="#000000" transform="translate(1612,1153)"/>
<path d="M0 0 C11.22 0 22.44 0 34 0 C34 1.98 34 3.96 34 6 C25.42 6 16.84 6 8 6 C8 10.95 8 15.9 8 21 C14.93 21 21.86 21 29 21 C29 23.31 29 25.62 29 28 C22.07 28 15.14 28 8 28 C8 34.27 8 40.54 8 47 C5.36 47 2.72 47 0 47 C0 31.49 0 15.98 0 0 Z " fill="#000000" transform="translate(1446,1153)"/>
<path d="M0 0 C3.19987109 -0.68656238 5.81964512 -0.85198265 9 0 C12.06901225 3.08047234 13.99574574 6.69912885 16.0625 10.5 C16.64193359 11.50160156 17.22136719 12.50320313 17.81835938 13.53515625 C19.24314739 16.00792883 20.63443313 18.49418638 22 21 C22.34667725 20.36384766 22.69335449 19.72769531 23.05053711 19.07226562 C24.64490388 16.19402374 26.28987573 13.34806242 27.9375 10.5 C28.48212891 9.49839844 29.02675781 8.49679687 29.58789062 7.46484375 C33.78967928 0.32423182 33.78967928 0.32423182 37.44970703 -0.65625 C39.73029715 -0.65625 41.77334699 -0.4777493 44 0 C43.23665737 1.46226816 42.46340492 2.91935866 41.6875 4.375 C41.15125 5.38175781 40.615 6.38851563 40.0625 7.42578125 C38.57753783 10.09644025 36.9310164 12.59654865 35.1875 15.10546875 C27.86464994 25.85903701 25.33813477 33.97818638 26 47 C23.36 47 20.72 47 18 47 C18.06703125 46.00484375 18.1340625 45.0096875 18.203125 43.984375 C18.53451386 31.08990958 13.60066775 22.73673814 6.52148438 12.25341797 C5.02129301 10.03153634 3.55227153 7.79464266 2.109375 5.53515625 C1.70170898 4.90101807 1.29404297 4.26687988 0.87402344 3.61352539 C0 2 0 2 0 0 Z " fill="#000000" transform="translate(2351,1153)"/>
<path d="M0 0 C12.54 0 25.08 0 38 0 C38 1.98 38 3.96 38 6 C33.05 6 28.1 6 23 6 C23 19.53 23 33.06 23 47 C20.36 47 17.72 47 15 47 C15 33.47 15 19.94 15 6 C10.05 6 5.1 6 0 6 C0 4.02 0 2.04 0 0 Z " fill="#000000" transform="translate(1796,1153)"/>
<path d="M0 0 C4.69018912 2.05455187 7.47883493 5.3434055 11 9 C13.97 6.03 16.94 3.06 20 0 C24.18185421 3.52587708 28.19095875 7.07553326 32 11 C30.52278578 14.45201639 28.56205999 16.64961936 25.875 19.25 C25.15054688 19.95640625 24.42609375 20.6628125 23.6796875 21.390625 C23.12539062 21.92171875 22.57109375 22.4528125 22 23 C17.70621187 21.07712966 15.22846299 18.37521131 12 15 C8.70303895 16.09898702 7.95329411 16.94597387 5.8125 19.5625 C5.28269531 20.20316406 4.75289062 20.84382812 4.20703125 21.50390625 C3.80871094 21.99761719 3.41039063 22.49132812 3 23 C-1.10447392 22.48223379 -2.95699523 20.35372556 -5.75 17.4375 C-6.54921875 16.61121094 -7.3484375 15.78492188 -8.171875 14.93359375 C-8.77515625 14.29550781 -9.3784375 13.65742187 -10 13 C-8.48446596 9.52224821 -6.4226544 7.0442016 -3.875 4.25 C-3.15054688 3.45078125 -2.42609375 2.6515625 -1.6796875 1.828125 C-0.84824219 0.92320312 -0.84824219 0.92320312 0 0 Z " fill="#000000" transform="translate(2130,977)"/>
<path d="M0 0 C4.29238623 1.65091778 6.8793915 4.73754566 10 8 C14.29238623 6.34908222 16.8793915 3.26245434 20 0 C23.66786393 1.50349377 25.68910393 3.63728792 28.25 6.625 C28.95640625 7.44226562 29.6628125 8.25953125 30.390625 9.1015625 C30.92171875 9.72804688 31.4528125 10.35453125 32 11 C30.52278578 14.45201639 28.56205999 16.64961936 25.875 19.25 C25.15054687 19.95640625 24.42609375 20.6628125 23.6796875 21.390625 C23.12539062 21.92171875 22.57109375 22.4528125 22 23 C17.70621187 21.07712966 15.22846299 18.37521131 12 15 C7.7257442 16.5830577 5.73468206 19.50568404 3 23 C-0.68069887 21.46356148 -2.98775204 19.21849055 -5.75 16.375 C-6.54921875 15.55773438 -7.3484375 14.74046875 -8.171875 13.8984375 C-8.77515625 13.27195312 -9.3784375 12.64546875 -10 12 C-9.61328125 11.55269531 -9.2265625 11.10539062 -8.828125 10.64453125 C-5.81609925 7.1478974 -2.85678969 3.62592537 0 0 Z " fill="#000000" transform="translate(1246,1072)"/>
<path d="M0 0 C0.45890625 0.39832031 0.9178125 0.79664063 1.390625 1.20703125 C4.52271585 3.91142062 7.63877459 6.57991771 11 9 C12.14888283 7.87811441 13.29401137 6.75238316 14.4375 5.625 C15.07558594 4.99851562 15.71367188 4.37203125 16.37109375 3.7265625 C18.07882176 2.08276939 18.07882176 2.08276939 19 0 C22.34820898 1.46625856 24.69266359 3.33658447 27.3125 5.875 C28.03050781 6.55304687 28.74851562 7.23109375 29.48828125 7.9296875 C31 10 31 10 30.984375 11.9609375 C29.68424676 14.65406029 27.96769731 16.55867592 25.9375 18.75 C24.83728516 19.94882812 24.83728516 19.94882812 23.71484375 21.171875 C23.14894531 21.77515625 22.58304688 22.3784375 22 23 C18.37386801 22.43040847 16.74482259 21.07625466 14.25 18.4375 C13.32960938 17.47650391 13.32960938 17.47650391 12.390625 16.49609375 C11.93171875 16.00238281 11.4728125 15.50867188 11 15 C10.54109375 15.40992188 10.0821875 15.81984375 9.609375 16.2421875 C8.99578125 16.78101563 8.3821875 17.31984375 7.75 17.875 C7.14671875 18.40867187 6.5434375 18.94234375 5.921875 19.4921875 C4 21 4 21 0 23 C-3.3 19.7 -6.6 16.4 -10 13 C-8.17444464 8.43611161 -7.24693751 6.89627924 -3.875 3.6875 C-3.15054687 2.99011719 -2.42609375 2.29273438 -1.6796875 1.57421875 C-1.12539062 1.05472656 -0.57109375 0.53523437 0 0 Z " fill="#000000" transform="translate(1052,991)"/>
<path d="M0 0 C4.29378813 1.92287034 6.77153701 4.62478869 10 8 C14.2742558 6.4169423 16.26531794 3.49431596 19 0 C23.29227942 0.46269985 25.02922065 2.90159458 27.75 6.0625 C28.54921875 6.98160156 29.3484375 7.90070312 30.171875 8.84765625 C30.77515625 9.55792969 31.3784375 10.26820313 32 11 C25.84965831 19.44646925 25.84965831 19.44646925 22 23 C17.70761377 21.34908222 15.1206085 18.26245434 12 15 C9.00779732 16.36370299 6.70973471 17.94908083 4.25 20.125 C3.1775 21.07375 2.105 22.0225 1 23 C-2.63 19.37 -6.26 15.74 -10 12 C-8.16614077 8.33228155 -6.74937171 6.53165004 -3.875 3.75 C-3.15054688 3.04359375 -2.42609375 2.3371875 -1.6796875 1.609375 C-1.12539062 1.07828125 -0.57109375 0.5471875 0 0 Z " fill="#000000" transform="translate(2340,997)"/>
<path d="M0 0 C4.29238623 1.65091778 6.8793915 4.73754566 10 8 C12.99220268 6.63629701 15.29026529 5.05091917 17.75 2.875 C18.8225 1.92625 19.895 0.9775 21 0 C24.63 3.63 28.26 7.26 32 11 C30.16614077 14.66771845 28.74937171 16.46834996 25.875 19.25 C25.15054687 19.95640625 24.42609375 20.6628125 23.6796875 21.390625 C23.12539062 21.92171875 22.57109375 22.4528125 22 23 C17.70621187 21.07712966 15.22846299 18.37521131 12 15 C7.7257442 16.5830577 5.73468206 19.50568404 3 23 C-0.68069887 21.46356148 -2.98775204 19.21849055 -5.75 16.375 C-6.54921875 15.55773438 -7.3484375 14.74046875 -8.171875 13.8984375 C-8.77515625 13.27195312 -9.3784375 12.64546875 -10 12 C-3.84965831 3.55353075 -3.84965831 3.55353075 0 0 Z " fill="#000000" transform="translate(1586,1072)"/>
<path d="M0 0 C2.64 0 5.28 0 8 0 C8 13.2 8 26.4 8 40 C15.26 40 22.52 40 30 40 C30 42.31 30 44.62 30 47 C20.1 47 10.2 47 0 47 C0 31.49 0 15.98 0 0 Z " fill="#000000" transform="translate(1370,1153)"/>
<path d="M0 0 C2.31 0 4.62 0 7 0 C7 13.2 7 26.4 7 40 C14.59 40 22.18 40 30 40 C30 42.31 30 44.62 30 47 C20.1 47 10.2 47 0 47 C0 31.49 0 15.98 0 0 Z " fill="#000000" transform="translate(1491,1153)"/>
<path d="M0 0 C2.64 0 5.28 0 8 0 C8 15.51 8 31.02 8 47 C5.36 47 2.72 47 0 47 C0 31.49 0 15.98 0 0 Z " fill="#000000" transform="translate(1583,1153)"/>
<path d="M0 0 C4.18423892 3.50897269 8.19588166 7.08060535 12 11 C10.52278578 14.45201639 8.56205999 16.64961936 5.875 19.25 C5.15054688 19.95640625 4.42609375 20.6628125 3.6796875 21.390625 C3.12539062 21.92171875 2.57109375 22.4528125 2 23 C-1.47775179 21.48446596 -3.9557984 19.4226544 -6.75 16.875 C-7.54921875 16.15054688 -8.3484375 15.42609375 -9.171875 14.6796875 C-9.77515625 14.12539063 -10.3784375 13.57109375 -11 13 C-9.46356148 9.31930113 -7.21849055 7.01224796 -4.375 4.25 C-3.55773438 3.45078125 -2.74046875 2.6515625 -1.8984375 1.828125 C-0.95871094 0.92320312 -0.95871094 0.92320312 0 0 Z " fill="#000000" transform="translate(2350,979)"/>
<path d="M0 0 C4.10447392 0.51776621 5.95699523 2.64627444 8.75 5.5625 C9.54921875 6.38878906 10.3484375 7.21507812 11.171875 8.06640625 C11.77515625 8.70449219 12.3784375 9.34257813 13 10 C11.55575365 13.23861303 9.74227753 15.61969163 7.375 18.25 C6.74335937 18.95640625 6.11171875 19.6628125 5.4609375 20.390625 C4.97882813 20.92171875 4.49671875 21.4528125 4 22 C-0.10447392 21.48223379 -1.95699523 19.35372556 -4.75 16.4375 C-5.94882813 15.19806641 -5.94882813 15.19806641 -7.171875 13.93359375 C-7.77515625 13.29550781 -8.3784375 12.65742187 -9 12 C-7.55575365 8.76138697 -5.74227753 6.38030837 -3.375 3.75 C-2.74335937 3.04359375 -2.11171875 2.3371875 -1.4609375 1.609375 C-0.97882813 1.07828125 -0.49671875 0.5471875 0 0 Z " fill="#000000" transform="translate(1690,981)"/>
<path d="M0 0 C3.51149841 0.58395206 5.29031758 1.83279645 7.8125 4.3125 C8.75029297 5.20388672 8.75029297 5.20388672 9.70703125 6.11328125 C11 8 11 8 10.921875 9.99609375 C9.79220515 12.45168966 8.39819826 13.89624892 6.4375 15.75 C5.79683594 16.36359375 5.15617187 16.9771875 4.49609375 17.609375 C4.00238281 18.06828125 3.50867187 18.5271875 3 19 C0.14885445 17.69555432 -2.04747746 16.29447569 -4.3125 14.125 C-4.84488281 13.63257813 -5.37726563 13.14015625 -5.92578125 12.6328125 C-7 11 -7 11 -6.859375 9.0390625 C-5.86723564 6.68498638 -4.64792701 5.14238733 -2.9375 3.25 C-2.38964844 2.63640625 -1.84179688 2.0228125 -1.27734375 1.390625 C-0.85582031 0.93171875 -0.43429687 0.4728125 0 0 Z " fill="#000000" transform="translate(1538,1070)"/>
<path d="M0 0 C6.93 0 13.86 0 21 0 C21 1.98 21 3.96 21 6 C14.07 6 7.14 6 0 6 C0 4.02 0 2.04 0 0 Z " fill="#000000" transform="translate(1410,1173)"/>
</svg>
