<svg width="301" height="64" viewBox="0 0 301 64" fill="none" xmlns="http://www.w3.org/2000/svg">
<path d="M7.616 24.58C6.592 24.58 5.71733 24.452 4.992 24.196C4.27733 23.94 3.728 23.5453 3.344 23.012C2.97067 22.468 2.784 21.7907 2.784 20.98C2.784 20.5747 2.848 20.1533 2.976 19.716C3.104 19.268 3.26933 18.82 3.472 18.372C3.51467 18.276 3.568 18.2067 3.632 18.164C3.696 18.1107 3.808 18.116 3.968 18.18L4.928 18.516C5.06667 18.5693 5.152 18.6333 5.184 18.708C5.216 18.772 5.21067 18.8733 5.168 19.012C5.072 19.2893 4.98667 19.556 4.912 19.812C4.83733 20.068 4.8 20.3293 4.8 20.596C4.8 21.1933 5.056 21.6093 5.568 21.844C6.08 22.0787 6.832 22.196 7.824 22.196H11.104C11.7013 22.196 12.2027 22.1587 12.608 22.084C13.0133 21.9987 13.312 21.8493 13.504 21.636C13.7067 21.412 13.808 21.0973 13.808 20.692C13.808 20.34 13.7493 19.9667 13.632 19.572L13.376 18.612C13.3333 18.452 13.3333 18.3293 13.376 18.244C13.4293 18.1587 13.52 18.1 13.648 18.068L14.832 17.812C14.9813 17.78 15.088 17.8067 15.152 17.892C15.2267 17.9667 15.2853 18.0787 15.328 18.228L15.664 19.556C15.728 19.7693 15.7707 19.988 15.792 20.212C15.824 20.4253 15.84 20.6493 15.84 20.884C15.84 21.812 15.632 22.548 15.216 23.092C14.8107 23.6253 14.2347 24.0093 13.488 24.244C12.752 24.468 11.8773 24.58 10.864 24.58H7.616ZM8.272 18.004C8.208 18.068 8.128 18.1053 8.032 18.116C7.936 18.116 7.85067 18.0733 7.776 17.988L7.04 17.252C6.976 17.1773 6.93867 17.0973 6.928 17.012C6.928 16.916 6.96533 16.8307 7.04 16.756L7.776 16.02C7.85067 15.9347 7.93067 15.8973 8.016 15.908C8.112 15.908 8.19733 15.9453 8.272 16.02L9.008 16.756C9.08267 16.8307 9.12 16.916 9.12 17.012C9.13067 17.108 9.09867 17.1933 9.024 17.268L8.272 18.004ZM10.72 18.004C10.6453 18.0893 10.56 18.1267 10.464 18.116C10.3787 18.1053 10.2987 18.0627 10.224 17.988L9.472 17.252C9.408 17.188 9.376 17.108 9.376 17.012C9.376 16.9053 9.408 16.82 9.472 16.756L10.224 16.02C10.2987 15.9453 10.3787 15.908 10.464 15.908C10.5493 15.8973 10.6293 15.9347 10.704 16.02L11.456 16.756C11.5307 16.8307 11.568 16.916 11.568 17.012C11.568 17.108 11.5307 17.1933 11.456 17.268L10.72 18.004ZM18.5431 24.58C18.4365 24.58 18.3458 24.548 18.2711 24.484C18.2071 24.4093 18.1751 24.3187 18.1751 24.212V12.868C18.1751 12.7613 18.2071 12.676 18.2711 12.612C18.3458 12.5373 18.4365 12.5 18.5431 12.5H19.7591C19.8765 12.5 19.9671 12.5373 20.0311 12.612C20.0951 12.676 20.1271 12.7613 20.1271 12.868V24.212C20.1271 24.3187 20.0951 24.4093 20.0311 24.484C19.9671 24.548 19.8765 24.58 19.7591 24.58H18.5431ZM21.2737 28.516C21.1137 28.516 21.0017 28.4733 20.9377 28.388C20.8631 28.3027 20.8257 28.1853 20.8257 28.036V26.772C20.8257 26.6227 20.8737 26.5107 20.9697 26.436C21.0551 26.372 21.1777 26.34 21.3377 26.34H21.7858C22.4791 26.34 23.0284 26.2067 23.4338 25.94C23.8498 25.684 24.1484 25.316 24.3298 24.836C24.5111 24.3667 24.6018 23.8067 24.6018 23.156C24.6018 22.6333 24.5431 22.1 24.4258 21.556C24.3084 21.0013 24.1698 20.4307 24.0098 19.844C23.9564 19.62 23.9564 19.46 24.0098 19.364C24.0631 19.2573 24.1804 19.1773 24.3618 19.124L25.4338 18.852C25.5831 18.8093 25.7004 18.82 25.7858 18.884C25.8818 18.948 25.9564 19.092 26.0098 19.316C26.1804 19.956 26.3298 20.6387 26.4578 21.364C26.5858 22.0893 26.6498 22.772 26.6498 23.412C26.6498 24.3827 26.4738 25.252 26.1218 26.02C25.7804 26.788 25.2631 27.396 24.5698 27.844C23.8871 28.292 23.0391 28.516 22.0258 28.516H21.2737ZM32.0668 24.58H31.3468C30.7601 24.58 30.2588 24.4787 29.8428 24.276C29.4374 24.0627 29.1281 23.7213 28.9148 23.252C28.7121 22.7827 28.6108 22.164 28.6108 21.396V12.884C28.6108 12.7667 28.6481 12.676 28.7228 12.612C28.7974 12.5373 28.8988 12.5 29.0268 12.5H30.2108C30.3388 12.5 30.4294 12.5373 30.4828 12.612C30.5361 12.676 30.5628 12.7613 30.5628 12.868V20.676C30.5628 21.092 30.6054 21.412 30.6908 21.636C30.7868 21.8493 30.9361 21.9987 31.1388 22.084C31.3414 22.1587 31.6027 22.196 31.9227 22.196H32.3068C32.4668 22.196 32.5468 22.276 32.5468 22.436V24.1C32.5468 24.42 32.3868 24.58 32.0668 24.58ZM32.0606 24.58C31.9006 24.58 31.8206 24.5 31.8206 24.34V22.676C31.8206 22.356 31.9806 22.196 32.3006 22.196C32.8766 22.196 33.2713 22.0787 33.4846 21.844C33.698 21.5987 33.8046 21.172 33.8046 20.564V19.108C33.8046 18.8307 33.938 18.692 34.2046 18.692H35.4366C35.7033 18.692 35.8366 18.8307 35.8366 19.108V20.564C35.8366 20.9587 35.89 21.2787 35.9966 21.524C36.1033 21.7587 36.29 21.9293 36.5566 22.036C36.8233 22.1427 37.1913 22.196 37.6606 22.196C37.8206 22.196 37.9006 22.276 37.9006 22.436V24.1C37.9006 24.42 37.7406 24.58 37.4206 24.58C36.6846 24.58 36.0553 24.4787 35.5326 24.276C35.0206 24.0733 34.642 23.7053 34.3966 23.172C34.2153 23.684 33.9113 24.0467 33.4846 24.26C33.0686 24.4733 32.594 24.58 32.0606 24.58ZM33.9646 27.668C33.9113 27.7213 33.8366 27.7427 33.7406 27.732C33.6553 27.732 33.5753 27.7053 33.5006 27.652L32.7806 26.916C32.7166 26.852 32.6846 26.772 32.6846 26.676C32.6846 26.5907 32.7166 26.516 32.7806 26.452L33.5006 25.732C33.5753 25.6573 33.6553 25.62 33.7406 25.62C33.826 25.62 33.9006 25.6573 33.9646 25.732L34.6846 26.452C34.7593 26.516 34.7966 26.596 34.7966 26.692C34.8073 26.788 34.7753 26.868 34.7006 26.932L33.9646 27.668ZM36.1886 27.668C36.1353 27.7213 36.0606 27.7427 35.9646 27.732C35.8793 27.732 35.8046 27.7053 35.7406 27.652L34.9886 26.916C34.9353 26.852 34.9033 26.772 34.8926 26.676C34.8926 26.5907 34.9246 26.516 34.9886 26.452L35.7406 25.732C35.8046 25.6573 35.8793 25.62 35.9646 25.62C36.05 25.62 36.1193 25.6573 36.1726 25.732L36.9086 26.452C36.9726 26.516 37.0046 26.596 37.0046 26.692C37.0153 26.788 36.9886 26.868 36.9246 26.932L36.1886 27.668ZM42.204 24.628C41.9587 24.628 41.6973 24.596 41.42 24.532C41.1427 24.468 40.876 24.3453 40.62 24.164C40.364 23.972 40.1453 23.7 39.964 23.348C39.7933 23.668 39.5693 23.9187 39.292 24.1C39.0147 24.2813 38.716 24.4093 38.396 24.484C38.076 24.548 37.7507 24.58 37.42 24.58C37.26 24.58 37.18 24.5 37.18 24.34V22.676C37.18 22.356 37.34 22.196 37.66 22.196C38.2467 22.196 38.6413 22.1 38.844 21.908C39.0573 21.716 39.164 21.3533 39.164 20.82V19.62C39.164 19.492 39.196 19.3907 39.26 19.316C39.3347 19.2307 39.436 19.188 39.564 19.188H40.716C40.9827 19.188 41.116 19.332 41.116 19.62V20.932C41.116 21.412 41.2227 21.748 41.436 21.94C41.6493 22.132 41.9427 22.228 42.316 22.228C42.764 22.228 43.068 22.1053 43.228 21.86C43.3987 21.6147 43.484 21.252 43.484 20.772V19.636C43.484 19.508 43.516 19.4013 43.58 19.316C43.6547 19.2307 43.756 19.188 43.884 19.188H45.036C45.164 19.188 45.26 19.2307 45.324 19.316C45.3987 19.4013 45.436 19.508 45.436 19.636V20.9C45.436 21.3693 45.5267 21.7107 45.708 21.924C45.8893 22.1267 46.204 22.228 46.652 22.228C47.0893 22.228 47.3933 22.1053 47.564 21.86C47.7347 21.6147 47.82 21.252 47.82 20.772V19.572C47.82 19.4547 47.8467 19.364 47.9 19.3C47.9533 19.2253 48.0333 19.188 48.14 19.188H49.404C49.5 19.188 49.58 19.2253 49.644 19.3C49.7187 19.364 49.756 19.4547 49.756 19.572V20.82C49.756 21.3213 49.868 21.6787 50.092 21.892C50.3267 22.0947 50.7213 22.196 51.276 22.196H51.58C51.74 22.196 51.82 22.276 51.82 22.436V24.1C51.82 24.42 51.6547 24.58 51.324 24.58C50.6947 24.58 50.1453 24.5053 49.676 24.356C49.2173 24.196 48.86 23.9187 48.604 23.524C48.3693 23.94 48.06 24.228 47.676 24.388C47.3027 24.548 46.924 24.628 46.54 24.628C46.0813 24.628 45.6547 24.548 45.26 24.388C44.8653 24.228 44.54 23.94 44.284 23.524C44.0493 23.9507 43.74 24.244 43.356 24.404C42.9827 24.5533 42.5987 24.628 42.204 24.628ZM51.3419 24.58C51.1819 24.58 51.1019 24.5 51.1019 24.34V22.676C51.1019 22.356 51.2619 22.196 51.5819 22.196C52.1365 22.196 52.5099 22.0787 52.7019 21.844C52.9045 21.5987 53.0059 21.1613 53.0059 20.532V12.932C53.0059 12.644 53.1445 12.5 53.4219 12.5H54.5579C54.8245 12.5 54.9579 12.644 54.9579 12.932V20.532C54.9579 20.9587 55.0059 21.2947 55.1019 21.54C55.2085 21.7747 55.3899 21.9453 55.6459 22.052C55.9019 22.148 56.2592 22.196 56.7179 22.196C56.8779 22.196 56.9579 22.276 56.9579 22.436V24.1C56.9579 24.42 56.7979 24.58 56.4779 24.58C55.9445 24.58 55.4432 24.4787 54.9739 24.276C54.5152 24.0733 54.1419 23.7053 53.8539 23.172C53.5979 23.7267 53.2459 24.1 52.7979 24.292C52.3605 24.484 51.8752 24.58 51.3419 24.58ZM56.4825 24.58C56.3225 24.58 56.2425 24.5 56.2425 24.34V22.676C56.2425 22.356 56.4025 22.196 56.7225 22.196C57.0638 22.196 57.3412 22.148 57.5545 22.052C57.7678 21.9453 57.9172 21.7693 58.0025 21.524C58.0985 21.268 58.1465 20.9053 58.1465 20.436V12.868C58.1465 12.7613 58.1785 12.676 58.2425 12.612C58.3172 12.5373 58.4078 12.5 58.5145 12.5H59.7305C59.8478 12.5 59.9385 12.5373 60.0025 12.612C60.0665 12.676 60.0985 12.7613 60.0985 12.868V20.388C60.0985 21.0813 60.0398 21.6947 59.9225 22.228C59.8158 22.7613 59.6238 23.204 59.3465 23.556C59.0692 23.908 58.6958 24.1693 58.2265 24.34C57.7678 24.5107 57.1865 24.5907 56.4825 24.58ZM71.2076 27.348C70.1196 27.348 69.165 27.14 68.3436 26.724C67.5223 26.308 66.8823 25.7373 66.4236 25.012C65.965 24.2867 65.7356 23.46 65.7356 22.532C65.7356 22.244 65.757 21.94 65.7996 21.62C65.853 21.3 65.9276 20.98 66.0236 20.66C66.1303 20.34 66.253 20.0573 66.3916 19.812C66.4876 19.6307 66.5783 19.5133 66.6636 19.46C66.749 19.396 66.8876 19.4013 67.0796 19.476L67.8956 19.78C68.045 19.8333 68.1463 19.8973 68.1996 19.972C68.253 20.0467 68.237 20.1693 68.1516 20.34C68.0023 20.66 67.8903 20.9853 67.8156 21.316C67.741 21.6467 67.7036 21.972 67.7036 22.292C67.7143 22.836 67.8636 23.316 68.1516 23.732C68.4396 24.148 68.845 24.4733 69.3676 24.708C69.901 24.9427 70.5303 25.06 71.2556 25.06H72.1196C72.8983 25.06 73.5436 25.0013 74.0556 24.884C74.5676 24.7773 74.9516 24.6173 75.2076 24.404C75.4743 24.18 75.6076 23.9187 75.6076 23.62C75.6076 23.4173 75.5543 23.252 75.4476 23.124C75.3516 22.996 75.1916 22.8947 74.9676 22.82C74.7436 22.7347 74.4396 22.6707 74.0556 22.628L72.7916 22.5C72.1623 22.436 71.661 22.292 71.2876 22.068C70.9143 21.844 70.6423 21.556 70.4716 21.204C70.3116 20.852 70.2316 20.4627 70.2316 20.036C70.2316 19.364 70.4076 18.7613 70.7596 18.228C71.1116 17.6947 71.597 17.268 72.2156 16.948C72.845 16.628 73.5596 16.468 74.3596 16.468C74.829 16.468 75.245 16.548 75.6076 16.708C75.981 16.868 76.2956 17.076 76.5516 17.332C76.8183 17.588 77.021 17.8813 77.1596 18.212C77.309 18.532 77.3836 18.8573 77.3836 19.188C77.3836 19.3587 77.357 19.4867 77.3036 19.572C77.261 19.6467 77.165 19.684 77.0156 19.684H75.9116C75.6663 19.684 75.5383 19.5667 75.5276 19.332C75.5063 19.0013 75.3836 18.7667 75.1596 18.628C74.9356 18.4893 74.6743 18.42 74.3756 18.42C73.9383 18.42 73.5436 18.4947 73.1916 18.644C72.8503 18.7933 72.5783 18.98 72.3756 19.204C72.1836 19.428 72.0876 19.6627 72.0876 19.908C72.0876 20.164 72.173 20.3507 72.3436 20.468C72.5143 20.5853 72.829 20.676 73.2876 20.74L74.4556 20.9C75.2023 20.996 75.805 21.1613 76.2636 21.396C76.7223 21.6307 77.053 21.924 77.2556 22.276C77.469 22.628 77.5756 23.0387 77.5756 23.508C77.5756 24.1907 77.4316 24.7773 77.1436 25.268C76.8663 25.7587 76.4823 26.1533 75.9916 26.452C75.5116 26.7613 74.957 26.9853 74.3276 27.124C73.6983 27.2733 73.0316 27.348 72.3276 27.348H71.2076ZM71.0316 30.324C70.9783 30.388 70.9036 30.4147 70.8076 30.404C70.7116 30.404 70.6316 30.372 70.5676 30.308L69.8476 29.588C69.7836 29.524 69.7463 29.444 69.7356 29.348C69.7356 29.2627 69.773 29.188 69.8476 29.124L70.5676 28.388C70.6316 28.324 70.7063 28.292 70.7916 28.292C70.8876 28.292 70.9676 28.324 71.0316 28.388L71.7516 29.124C71.8156 29.188 71.8476 29.2627 71.8476 29.348C71.8583 29.444 71.8316 29.5293 71.7676 29.604L71.0316 30.324ZM73.2556 30.324C73.2023 30.388 73.1276 30.4147 73.0316 30.404C72.9463 30.404 72.8663 30.372 72.7916 30.308L72.0556 29.588C72.0023 29.524 71.9703 29.444 71.9596 29.348C71.9596 29.252 71.9916 29.1773 72.0556 29.124L72.7916 28.388C72.8663 28.324 72.9463 28.292 73.0316 28.292C73.117 28.292 73.1863 28.324 73.2396 28.388L73.9596 29.124C74.0343 29.188 74.0716 29.2627 74.0716 29.348C74.0823 29.444 74.0503 29.5293 73.9756 29.604L73.2556 30.324ZM78.0394 28.516C77.8794 28.516 77.7674 28.4733 77.7034 28.388C77.6287 28.3027 77.5914 28.1853 77.5914 28.036V26.772C77.5914 26.6227 77.6394 26.5107 77.7354 26.436C77.8207 26.372 77.9434 26.34 78.1034 26.34H78.5034C79.5274 26.34 80.2634 26.0733 80.7114 25.54C81.1594 25.0067 81.3834 24.2653 81.3834 23.316C81.3834 22.9427 81.3514 22.564 81.2874 22.18C81.2234 21.7853 81.1487 21.4067 81.0634 21.044L80.7594 19.7C80.7274 19.54 80.738 19.4173 80.7914 19.332C80.8554 19.236 80.9834 19.1613 81.1754 19.108L82.1834 18.868C82.3327 18.8253 82.4394 18.8253 82.5034 18.868C82.578 18.9 82.6314 18.9587 82.6634 19.044C82.6954 19.1187 82.722 19.204 82.7434 19.3L83.1914 21.092C83.2554 21.38 83.3674 21.604 83.5274 21.764C83.6874 21.924 83.874 22.036 84.0874 22.1C84.3114 22.164 84.5567 22.196 84.8234 22.196H85.1274C85.3087 22.196 85.3994 22.276 85.3994 22.436V24.1C85.3994 24.42 85.2394 24.58 84.9194 24.58C84.514 24.58 84.1514 24.5373 83.8314 24.452C83.5114 24.356 83.3034 24.2387 83.2074 24.1C83.186 24.6867 83.0847 25.2413 82.9034 25.764C82.722 26.2973 82.4447 26.7667 82.0714 27.172C81.7087 27.588 81.2447 27.9133 80.6794 28.148C80.114 28.3933 79.442 28.516 78.6634 28.516H78.0394ZM84.92 24.58C84.76 24.58 84.68 24.5 84.68 24.34V22.676C84.68 22.356 84.84 22.196 85.16 22.196C85.736 22.196 86.1307 22.0787 86.344 21.844C86.5573 21.5987 86.664 21.172 86.664 20.564V19.108C86.664 18.8307 86.7973 18.692 87.064 18.692H88.296C88.5627 18.692 88.696 18.8307 88.696 19.108V20.564C88.696 20.9587 88.7493 21.2787 88.856 21.524C88.9627 21.7587 89.1493 21.9293 89.416 22.036C89.6827 22.1427 90.0507 22.196 90.52 22.196C90.68 22.196 90.76 22.276 90.76 22.436V24.1C90.76 24.42 90.6 24.58 90.28 24.58C89.544 24.58 88.9147 24.4787 88.392 24.276C87.88 24.0733 87.5013 23.7053 87.256 23.172C87.0747 23.684 86.7707 24.0467 86.344 24.26C85.928 24.4733 85.4533 24.58 84.92 24.58ZM86.824 27.668C86.7707 27.7213 86.696 27.7427 86.6 27.732C86.5147 27.732 86.4347 27.7053 86.36 27.652L85.64 26.916C85.576 26.852 85.544 26.772 85.544 26.676C85.544 26.5907 85.576 26.516 85.64 26.452L86.36 25.732C86.4347 25.6573 86.5147 25.62 86.6 25.62C86.6853 25.62 86.76 25.6573 86.824 25.732L87.544 26.452C87.6187 26.516 87.656 26.596 87.656 26.692C87.6667 26.788 87.6347 26.868 87.56 26.932L86.824 27.668ZM89.048 27.668C88.9947 27.7213 88.92 27.7427 88.824 27.732C88.7387 27.732 88.664 27.7053 88.6 27.652L87.848 26.916C87.7947 26.852 87.7627 26.772 87.752 26.676C87.752 26.5907 87.784 26.516 87.848 26.452L88.6 25.732C88.664 25.6573 88.7387 25.62 88.824 25.62C88.9093 25.62 88.9787 25.6573 89.032 25.732L89.768 26.452C89.832 26.516 89.864 26.596 89.864 26.692C89.8747 26.788 89.848 26.868 89.784 26.932L89.048 27.668ZM101.959 24.58C101.383 24.58 100.898 24.5053 100.503 24.356C100.119 24.2067 99.7994 24.0307 99.5434 23.828C99.298 23.6147 99.0954 23.4173 98.9354 23.236L100.055 22.036C100.247 22.0787 100.445 22.1107 100.647 22.132C100.85 22.1533 101.069 22.1693 101.303 22.18C101.549 22.1907 101.831 22.196 102.151 22.196C102.311 22.196 102.391 22.276 102.391 22.436V24.1C102.391 24.2493 102.349 24.3667 102.263 24.452C102.189 24.5373 102.087 24.58 101.959 24.58ZM90.4234 24.58C90.306 24.58 90.2154 24.548 90.1514 24.484C90.0767 24.42 90.0394 24.324 90.0394 24.196V22.564C90.0394 22.4573 90.0767 22.372 90.1514 22.308C90.226 22.2333 90.3167 22.196 90.4234 22.196H92.0074C92.4554 21.1933 92.9834 20.356 93.5914 19.684C94.1994 19.0013 94.8554 18.484 95.5594 18.132C96.2634 17.78 96.9674 17.604 97.6714 17.604C98.386 17.604 98.9727 17.7533 99.4314 18.052C99.9007 18.34 100.253 18.7187 100.487 19.188C100.722 19.6467 100.839 20.148 100.839 20.692C100.839 21.524 100.642 22.2333 100.247 22.82C99.8527 23.396 99.2874 23.8333 98.5514 24.132C97.8154 24.4307 96.9194 24.58 95.8634 24.58H90.4234ZM93.7194 22.196H96.6154C97.4154 22.196 98.0234 22.084 98.4394 21.86C98.8554 21.636 99.0634 21.3107 99.0634 20.884C99.0634 20.5213 98.9087 20.228 98.5994 20.004C98.3007 19.7693 97.8954 19.6573 97.3834 19.668C96.914 19.668 96.4607 19.78 96.0234 20.004C95.586 20.2173 95.17 20.516 94.7754 20.9C94.3914 21.2733 94.0394 21.7053 93.7194 22.196ZM91.9914 22.66V12.868C91.9914 12.7613 92.0234 12.676 92.0874 12.612C92.162 12.5373 92.2527 12.5 92.3594 12.5H93.5594C93.6767 12.5 93.7674 12.5373 93.8314 12.612C93.8954 12.676 93.9274 12.7613 93.9274 12.868V17.604C93.9274 17.9027 93.9274 18.164 93.9274 18.388C93.9274 18.612 93.922 18.8147 93.9114 18.996C93.9114 19.1773 93.9007 19.3587 93.8794 19.54C93.858 19.7213 93.826 19.9293 93.7834 20.164C93.7514 20.388 93.7087 20.6547 93.6554 20.964L91.9914 22.66ZM107.2 24.692C106.934 24.692 106.678 24.6707 106.432 24.628C106.198 24.5853 105.958 24.516 105.712 24.42C105.467 24.324 105.206 24.2013 104.928 24.052C104.651 23.9027 104.331 23.7267 103.968 23.524C103.776 23.7907 103.563 24.004 103.328 24.164C103.104 24.3133 102.87 24.42 102.624 24.484C102.39 24.548 102.15 24.58 101.904 24.58C101.744 24.58 101.664 24.5 101.664 24.34V22.676C101.664 22.356 101.824 22.196 102.144 22.196C102.315 22.196 102.464 22.164 102.592 22.1C102.731 22.036 102.87 21.9187 103.008 21.748C103.147 21.5667 103.307 21.2947 103.488 20.932C103.851 20.228 104.219 19.6787 104.592 19.284C104.966 18.8893 105.344 18.612 105.728 18.452C106.112 18.292 106.502 18.212 106.896 18.212C107.323 18.212 107.728 18.2867 108.112 18.436C108.496 18.5853 108.843 18.8467 109.152 19.22C109.472 19.5827 109.755 20.1 110 20.772C110.15 21.1453 110.294 21.4387 110.432 21.652C110.571 21.8653 110.736 22.0093 110.928 22.084C111.12 22.1587 111.366 22.196 111.664 22.196C111.824 22.196 111.904 22.276 111.904 22.436V24.1C111.904 24.42 111.744 24.58 111.424 24.58C111.03 24.58 110.672 24.5 110.352 24.34C110.032 24.18 109.744 23.8973 109.488 23.492C109.264 23.9187 108.939 24.228 108.512 24.42C108.096 24.6013 107.659 24.692 107.2 24.692ZM107.248 22.548C107.515 22.5587 107.739 22.4947 107.92 22.356C108.102 22.2067 108.198 21.9613 108.208 21.62C108.208 21.3533 108.144 21.108 108.016 20.884C107.899 20.6493 107.739 20.4573 107.536 20.308C107.334 20.1587 107.11 20.084 106.864 20.084C106.662 20.084 106.464 20.132 106.272 20.228C106.08 20.324 105.878 20.4893 105.664 20.724C105.462 20.948 105.227 21.2733 104.96 21.7C105.398 21.9347 105.744 22.1107 106 22.228C106.267 22.3453 106.491 22.4307 106.672 22.484C106.854 22.5267 107.046 22.548 107.248 22.548ZM111.42 24.58C111.26 24.58 111.18 24.5 111.18 24.34V22.676C111.18 22.356 111.34 22.196 111.66 22.196C112.001 22.196 112.279 22.148 112.492 22.052C112.705 21.9453 112.855 21.7693 112.94 21.524C113.036 21.268 113.084 20.9053 113.084 20.436V12.868C113.084 12.7613 113.116 12.676 113.18 12.612C113.255 12.5373 113.345 12.5 113.452 12.5H114.668C114.785 12.5 114.876 12.5373 114.94 12.612C115.004 12.676 115.036 12.7613 115.036 12.868V20.388C115.036 21.0813 114.977 21.6947 114.86 22.228C114.753 22.7613 114.561 23.204 114.284 23.556C114.007 23.908 113.633 24.1693 113.164 24.34C112.705 24.5107 112.124 24.5907 111.42 24.58ZM118.262 24.58C118.155 24.58 118.065 24.548 117.99 24.484C117.926 24.4093 117.894 24.3187 117.894 24.212V12.868C117.894 12.7613 117.926 12.676 117.99 12.612C118.065 12.5373 118.155 12.5 118.262 12.5H119.478C119.595 12.5 119.686 12.5373 119.75 12.612C119.814 12.676 119.846 12.7613 119.846 12.868V24.212C119.846 24.3187 119.814 24.4093 119.75 24.484C119.686 24.548 119.595 24.58 119.478 24.58H118.262ZM124.524 28.516C124.364 28.516 124.252 28.4733 124.188 28.388C124.113 28.3027 124.076 28.1853 124.076 28.036V26.772C124.076 26.6227 124.124 26.5107 124.22 26.436C124.305 26.372 124.428 26.34 124.588 26.34H124.988C126.012 26.34 126.748 26.0733 127.196 25.54C127.644 25.0067 127.868 24.2653 127.868 23.316C127.868 22.9427 127.836 22.564 127.772 22.18C127.708 21.7853 127.633 21.4067 127.548 21.044L127.244 19.7C127.212 19.54 127.222 19.4173 127.276 19.332C127.34 19.236 127.468 19.1613 127.66 19.108L128.668 18.868C128.817 18.8253 128.924 18.8253 128.988 18.868C129.062 18.9 129.116 18.9587 129.148 19.044C129.18 19.1187 129.206 19.204 129.228 19.3L129.676 21.092C129.74 21.38 129.852 21.604 130.012 21.764C130.172 21.924 130.358 22.036 130.572 22.1C130.796 22.164 131.041 22.196 131.308 22.196H131.612C131.793 22.196 131.884 22.276 131.884 22.436V24.1C131.884 24.42 131.724 24.58 131.404 24.58C130.998 24.58 130.636 24.5373 130.316 24.452C129.996 24.356 129.788 24.2387 129.692 24.1C129.67 24.6867 129.569 25.2413 129.388 25.764C129.206 26.2973 128.929 26.7667 128.556 27.172C128.193 27.588 127.729 27.9133 127.164 28.148C126.598 28.3933 125.926 28.516 125.148 28.516H124.524ZM131.484 24.58C131.367 24.58 131.287 24.5587 131.244 24.516C131.191 24.4733 131.164 24.404 131.164 24.308V22.596C131.164 22.4467 131.207 22.3453 131.292 22.292C131.378 22.228 131.495 22.196 131.644 22.196H136.204C136.364 22.196 136.444 22.276 136.444 22.436V24.18C136.444 24.3293 136.402 24.436 136.316 24.5C136.231 24.5533 136.114 24.58 135.964 24.58H131.484ZM136.047 24.58C135.951 24.58 135.876 24.5587 135.823 24.516C135.759 24.484 135.727 24.3987 135.727 24.26V22.596C135.727 22.4467 135.77 22.3453 135.855 22.292C135.94 22.228 136.058 22.196 136.207 22.196C136.612 22.196 136.916 22.164 137.119 22.1C137.322 22.036 137.455 21.8973 137.519 21.684C137.594 21.46 137.631 21.1347 137.631 20.708V19.62C137.631 19.332 137.764 19.188 138.031 19.188H139.183C139.45 19.188 139.583 19.332 139.583 19.62V20.532C139.583 20.9587 139.626 21.2947 139.711 21.54C139.796 21.7747 139.956 21.9453 140.191 22.052C140.436 22.148 140.783 22.196 141.231 22.196H145.087C145.887 22.196 146.495 22.084 146.911 21.86C147.327 21.636 147.535 21.3107 147.535 20.884C147.535 20.5213 147.38 20.228 147.071 20.004C146.772 19.7693 146.367 19.6573 145.855 19.668C145.354 19.668 144.858 19.796 144.367 20.052C143.887 20.2973 143.434 20.6333 143.007 21.06C142.591 21.476 142.218 21.956 141.887 22.5L140.287 22.42C140.735 21.3747 141.274 20.5 141.903 19.796C142.532 19.0813 143.21 18.5373 143.935 18.164C144.671 17.7907 145.407 17.604 146.143 17.604C146.858 17.604 147.444 17.7533 147.903 18.052C148.372 18.34 148.724 18.7187 148.959 19.188C149.194 19.6467 149.311 20.148 149.311 20.692C149.311 21.524 149.114 22.2333 148.719 22.82C148.324 23.396 147.759 23.8333 147.023 24.132C146.287 24.4307 145.391 24.58 144.335 24.58H141.295C140.634 24.58 140.058 24.4787 139.567 24.276C139.087 24.0733 138.714 23.7107 138.447 23.188C138.244 23.7213 137.924 24.0893 137.487 24.292C137.05 24.484 136.57 24.58 136.047 24.58ZM154.879 24.58H154.159C153.573 24.58 153.071 24.4787 152.655 24.276C152.25 24.0627 151.941 23.7213 151.727 23.252C151.525 22.7827 151.423 22.164 151.423 21.396V12.884C151.423 12.7667 151.461 12.676 151.535 12.612C151.61 12.5373 151.711 12.5 151.839 12.5H153.023C153.151 12.5 153.242 12.5373 153.295 12.612C153.349 12.676 153.375 12.7613 153.375 12.868V20.676C153.375 21.092 153.418 21.412 153.503 21.636C153.599 21.8493 153.749 21.9987 153.951 22.084C154.154 22.1587 154.415 22.196 154.735 22.196H155.119C155.279 22.196 155.359 22.276 155.359 22.436V24.1C155.359 24.42 155.199 24.58 154.879 24.58ZM154.889 24.58C154.804 24.58 154.74 24.5533 154.697 24.5C154.654 24.4467 154.633 24.3827 154.633 24.308V22.596C154.633 22.4467 154.676 22.3453 154.761 22.292C154.846 22.228 154.964 22.196 155.113 22.196H155.241C155.668 22.196 155.977 22.084 156.169 21.86C156.361 21.6253 156.457 21.2733 156.457 20.804C156.457 20.6547 156.446 20.5107 156.425 20.372C156.414 20.2227 156.393 20.068 156.361 19.908L156.089 18.66C156.057 18.4893 156.073 18.3667 156.137 18.292C156.201 18.2067 156.308 18.148 156.457 18.116L157.513 17.892C157.822 17.8173 158.014 17.9453 158.089 18.276L158.409 19.876C158.462 20.1107 158.5 20.3613 158.521 20.628C158.553 20.8947 158.569 21.1187 158.569 21.3C158.569 22.2813 158.324 23.076 157.833 23.684C157.353 24.2813 156.633 24.58 155.673 24.58H154.889ZM157.145 16.596C157.081 16.66 156.996 16.692 156.889 16.692C156.793 16.6813 156.713 16.644 156.649 16.58L155.865 15.796C155.79 15.7213 155.753 15.636 155.753 15.54C155.753 15.444 155.79 15.364 155.865 15.3L156.649 14.516C156.713 14.4413 156.793 14.404 156.889 14.404C156.985 14.404 157.065 14.4413 157.129 14.516L157.897 15.3C158.078 15.4813 158.089 15.652 157.929 15.812L157.145 16.596ZM171.465 24.58C170.643 24.58 170.003 24.3933 169.545 24.02C169.086 23.636 168.782 23.0333 168.633 22.212C168.377 22.6067 168.041 22.9107 167.625 23.124C167.209 23.3267 166.734 23.428 166.201 23.428C165.369 23.428 164.734 23.2093 164.297 22.772C163.859 22.324 163.641 21.7267 163.641 20.98C163.641 20.5427 163.737 20.1213 163.929 19.716C164.131 19.3 164.457 18.916 164.905 18.564C165.363 18.212 165.971 17.892 166.729 17.604L168.441 16.98V16.26C168.441 16.132 168.478 16.036 168.553 15.972C168.627 15.908 168.723 15.876 168.841 15.876H170.057C170.163 15.876 170.243 15.9133 170.297 15.988C170.361 16.052 170.393 16.132 170.393 16.228V20.708C170.393 21.3053 170.483 21.7053 170.665 21.908C170.857 22.1 171.203 22.196 171.705 22.196H172.201C172.265 22.196 172.318 22.2227 172.361 22.276C172.403 22.3293 172.425 22.388 172.425 22.452V24.148C172.425 24.436 172.27 24.58 171.961 24.58H171.465ZM166.793 21.46C167.113 21.46 167.395 21.3907 167.641 21.252C167.897 21.1027 168.094 20.9053 168.233 20.66C168.382 20.4147 168.457 20.1427 168.457 19.844V18.756L167.145 19.188C166.665 19.348 166.302 19.5453 166.057 19.78C165.811 20.004 165.689 20.2547 165.689 20.532C165.689 20.82 165.79 21.0493 165.993 21.22C166.195 21.38 166.462 21.46 166.793 21.46ZM168.457 14.58C168.393 14.644 168.313 14.6813 168.217 14.692C168.121 14.692 168.035 14.6493 167.961 14.564L167.225 13.828C167.161 13.7533 167.123 13.6733 167.113 13.588C167.113 13.492 167.15 13.4067 167.225 13.332L167.961 12.596C168.035 12.5107 168.115 12.4733 168.201 12.484C168.297 12.484 168.382 12.5213 168.457 12.596L169.193 13.332C169.267 13.4067 169.305 13.492 169.305 13.588C169.315 13.684 169.283 13.7693 169.209 13.844L168.457 14.58ZM170.905 14.58C170.83 14.6653 170.745 14.7027 170.649 14.692C170.563 14.6813 170.483 14.6387 170.409 14.564L169.657 13.828C169.593 13.764 169.561 13.684 169.561 13.588C169.561 13.4813 169.593 13.396 169.657 13.332L170.409 12.596C170.483 12.5213 170.563 12.484 170.649 12.484C170.734 12.4733 170.814 12.5107 170.889 12.596L171.641 13.332C171.715 13.4067 171.753 13.492 171.753 13.588C171.753 13.684 171.715 13.7693 171.641 13.844L170.905 14.58ZM176.735 24.628C176.49 24.628 176.229 24.596 175.951 24.532C175.674 24.468 175.407 24.3453 175.151 24.164C174.895 23.972 174.677 23.7 174.495 23.348C174.325 23.668 174.101 23.9187 173.823 24.1C173.546 24.2813 173.247 24.4093 172.927 24.484C172.607 24.548 172.282 24.58 171.951 24.58C171.791 24.58 171.711 24.5 171.711 24.34V22.676C171.711 22.356 171.871 22.196 172.191 22.196C172.778 22.196 173.173 22.1 173.375 21.908C173.589 21.716 173.695 21.3533 173.695 20.82V19.62C173.695 19.492 173.727 19.3907 173.791 19.316C173.866 19.2307 173.967 19.188 174.095 19.188H175.247C175.514 19.188 175.647 19.332 175.647 19.62V20.932C175.647 21.412 175.754 21.748 175.967 21.94C176.181 22.132 176.474 22.228 176.847 22.228C177.295 22.228 177.599 22.1053 177.759 21.86C177.93 21.6147 178.015 21.252 178.015 20.772V19.636C178.015 19.508 178.047 19.4013 178.111 19.316C178.186 19.2307 178.287 19.188 178.415 19.188H179.567C179.695 19.188 179.791 19.2307 179.855 19.316C179.93 19.4013 179.967 19.508 179.967 19.636V20.9C179.967 21.3693 180.058 21.7107 180.239 21.924C180.421 22.1267 180.735 22.228 181.183 22.228C181.621 22.228 181.925 22.1053 182.095 21.86C182.266 21.6147 182.351 21.252 182.351 20.772V19.572C182.351 19.4547 182.378 19.364 182.431 19.3C182.485 19.2253 182.565 19.188 182.671 19.188H183.935C184.031 19.188 184.111 19.2253 184.175 19.3C184.25 19.364 184.287 19.4547 184.287 19.572V20.82C184.287 21.3213 184.399 21.6787 184.623 21.892C184.858 22.0947 185.253 22.196 185.807 22.196H186.111C186.271 22.196 186.351 22.276 186.351 22.436V24.1C186.351 24.42 186.186 24.58 185.855 24.58C185.226 24.58 184.677 24.5053 184.207 24.356C183.749 24.196 183.391 23.9187 183.135 23.524C182.901 23.94 182.591 24.228 182.207 24.388C181.834 24.548 181.455 24.628 181.071 24.628C180.613 24.628 180.186 24.548 179.791 24.388C179.397 24.228 179.071 23.94 178.815 23.524C178.581 23.9507 178.271 24.244 177.887 24.404C177.514 24.5533 177.13 24.628 176.735 24.628ZM190.737 24.628C190.278 24.628 189.825 24.5373 189.377 24.356C188.929 24.1747 188.582 23.8387 188.337 23.348C188.081 23.828 187.729 24.1533 187.281 24.324C186.833 24.4947 186.364 24.58 185.873 24.58C185.713 24.58 185.633 24.5 185.633 24.34V22.676C185.633 22.356 185.793 22.196 186.113 22.196C186.678 22.196 187.068 22.1 187.281 21.908C187.505 21.7053 187.617 21.3373 187.617 20.804V19.62C187.617 19.492 187.649 19.3907 187.713 19.316C187.788 19.2307 187.889 19.188 188.017 19.188H189.169C189.436 19.188 189.569 19.332 189.569 19.62V20.836C189.569 21.3053 189.67 21.6573 189.873 21.892C190.086 22.116 190.428 22.228 190.897 22.228C191.377 22.228 191.697 22.1053 191.857 21.86C192.017 21.604 192.097 21.2413 192.097 20.772V19.636C192.097 19.508 192.129 19.4013 192.193 19.316C192.268 19.2307 192.369 19.188 192.497 19.188H193.633C193.761 19.188 193.857 19.2307 193.921 19.316C193.996 19.4013 194.033 19.508 194.033 19.636V20.868C194.033 21.3373 194.134 21.684 194.337 21.908C194.55 22.1213 194.881 22.228 195.329 22.228C195.724 22.228 196.017 22.1213 196.209 21.908C196.412 21.6947 196.513 21.396 196.513 21.012C196.513 20.8947 196.508 20.7827 196.497 20.676C196.486 20.5587 196.465 20.4413 196.433 20.324L196.113 19.044C196.07 18.9053 196.07 18.7933 196.113 18.708C196.166 18.6227 196.257 18.564 196.385 18.532L197.537 18.244C197.686 18.212 197.793 18.228 197.857 18.292C197.921 18.356 197.969 18.4573 198.001 18.596L198.273 19.764C198.337 20.052 198.385 20.3347 198.417 20.612C198.46 20.8893 198.481 21.1453 198.481 21.38C198.481 22.0413 198.358 22.6173 198.113 23.108C197.868 23.588 197.51 23.9613 197.041 24.228C196.572 24.4947 195.99 24.628 195.297 24.628C194.806 24.628 194.342 24.5427 193.905 24.372C193.468 24.2013 193.126 23.9187 192.881 23.524C192.742 23.8013 192.556 24.0253 192.321 24.196C192.086 24.356 191.83 24.468 191.553 24.532C191.286 24.596 191.014 24.628 190.737 24.628ZM200.832 28.452C200.522 28.452 200.288 28.4093 200.128 28.324C199.978 28.2493 199.904 28.0947 199.904 27.86V26.708C199.904 26.516 199.957 26.3773 200.064 26.292C200.17 26.2173 200.341 26.18 200.576 26.18H202.016C202.837 26.18 203.493 26.036 203.984 25.748C204.485 25.4707 204.826 25.0333 205.008 24.436H203.728C203.034 24.436 202.437 24.3187 201.936 24.084C201.445 23.8493 201.066 23.5187 200.8 23.092C200.544 22.6547 200.416 22.1427 200.416 21.556C200.416 21.1293 200.485 20.7187 200.624 20.324C200.762 19.9293 200.965 19.5773 201.232 19.268C201.498 18.948 201.829 18.6973 202.224 18.516C202.618 18.3347 203.066 18.244 203.568 18.244C204.581 18.244 205.365 18.5853 205.92 19.268C206.474 19.94 206.784 20.916 206.848 22.196H207.952C208.112 22.196 208.192 22.276 208.192 22.436V24.1C208.192 24.42 208.032 24.58 207.712 24.58H206.672C206.373 25.9027 205.824 26.8787 205.024 27.508C204.224 28.1373 203.168 28.452 201.856 28.452H200.832ZM203.696 22.308H205.104C205.018 21.6147 204.821 21.092 204.512 20.74C204.202 20.388 203.813 20.212 203.344 20.212C203.056 20.212 202.816 20.2707 202.624 20.388C202.442 20.4947 202.304 20.6333 202.208 20.804C202.122 20.964 202.08 21.1293 202.08 21.3C202.08 21.6627 202.224 21.924 202.512 22.084C202.81 22.2333 203.205 22.308 203.696 22.308ZM202.016 17.316C201.909 17.3373 201.834 17.3267 201.792 17.284C201.749 17.2413 201.728 17.1773 201.728 17.092V16.644C201.728 16.5267 201.749 16.4467 201.792 16.404C201.834 16.3507 201.904 16.3133 202 16.292L202.432 16.164C202.336 16.068 202.256 15.9507 202.192 15.812C202.138 15.6733 202.112 15.5187 202.112 15.348C202.112 14.9107 202.25 14.5533 202.528 14.276C202.816 13.988 203.205 13.844 203.696 13.844C203.845 13.844 203.984 13.86 204.112 13.892C204.25 13.924 204.357 13.9613 204.432 14.004C204.57 14.0787 204.64 14.1747 204.64 14.292V14.772C204.64 14.9107 204.576 14.9587 204.448 14.916C204.33 14.852 204.202 14.8093 204.064 14.788C203.925 14.756 203.786 14.74 203.648 14.74C203.434 14.74 203.269 14.788 203.152 14.884C203.034 14.9693 202.976 15.0867 202.976 15.236C202.976 15.4493 203.093 15.604 203.328 15.7C203.573 15.796 203.882 15.8067 204.256 15.732L204.784 15.62C204.901 15.588 204.981 15.5933 205.024 15.636C205.077 15.668 205.104 15.732 205.104 15.828V16.292C205.104 16.452 205.029 16.5533 204.88 16.596L202.016 17.316ZM213.397 24.628C213.109 24.6173 212.853 24.5907 212.629 24.548C212.405 24.516 212.17 24.4627 211.925 24.388C211.69 24.3027 211.418 24.1853 211.109 24.036C210.81 23.8867 210.448 23.6947 210.021 23.46C209.786 23.7587 209.536 23.9933 209.269 24.164C209.013 24.324 208.752 24.436 208.485 24.5C208.229 24.5533 207.973 24.58 207.717 24.58C207.557 24.58 207.477 24.5 207.477 24.34V22.676C207.477 22.356 207.637 22.196 207.957 22.196C208.17 22.196 208.357 22.1693 208.517 22.116C208.677 22.052 208.842 21.924 209.013 21.732C209.184 21.5293 209.386 21.2253 209.621 20.82C210.026 20.116 210.421 19.5773 210.805 19.204C211.189 18.82 211.573 18.5533 211.957 18.404C212.341 18.2547 212.736 18.18 213.141 18.18C213.696 18.18 214.202 18.3187 214.661 18.596C215.13 18.8733 215.504 19.268 215.781 19.78C216.058 20.2813 216.197 20.8893 216.197 21.604C216.197 22.02 216.133 22.4147 216.005 22.788C215.888 23.1613 215.712 23.492 215.477 23.78C215.242 24.0573 214.949 24.2707 214.597 24.42C214.245 24.5693 213.845 24.6387 213.397 24.628ZM213.429 22.548C213.674 22.548 213.877 22.4733 214.037 22.324C214.197 22.1747 214.282 21.9293 214.293 21.588C214.293 21.3 214.234 21.0493 214.117 20.836C214 20.6227 213.84 20.4573 213.637 20.34C213.434 20.212 213.21 20.148 212.965 20.148C212.762 20.148 212.565 20.1907 212.373 20.276C212.192 20.3613 212 20.516 211.797 20.74C211.594 20.9533 211.365 21.268 211.109 21.684C211.546 21.9293 211.893 22.116 212.149 22.244C212.416 22.3613 212.645 22.4413 212.837 22.484C213.04 22.516 213.237 22.5373 213.429 22.548Z" fill="black"/>
<path d="M2.4059 50.5C2.2959 50.5 2.2059 50.465 2.1359 50.395C2.0659 50.325 2.0309 50.235 2.0309 50.125V40.375C2.0309 40.265 2.0659 40.175 2.1359 40.105C2.2059 40.035 2.2959 40 2.4059 40H3.7709C3.9209 40 4.0309 40.035 4.1009 40.105C4.1709 40.175 4.2159 40.23 4.2359 40.27L8.2409 46.525V40.375C8.2409 40.265 8.2759 40.175 8.3459 40.105C8.4159 40.035 8.5009 40 8.6009 40H10.1309C10.2409 40 10.3309 40.035 10.4009 40.105C10.4709 40.175 10.5059 40.265 10.5059 40.375V50.125C10.5059 50.225 10.4709 50.315 10.4009 50.395C10.3309 50.465 10.2409 50.5 10.1309 50.5H8.7509C8.6009 50.5 8.4909 50.465 8.4209 50.395C8.3609 50.315 8.3159 50.26 8.2859 50.23L4.2959 44.17V50.125C4.2959 50.235 4.2609 50.325 4.1909 50.395C4.1209 50.465 4.0309 50.5 3.9209 50.5H2.4059ZM12.1093 50.5C12.0193 50.5 11.9443 50.47 11.8843 50.41C11.8243 50.34 11.7943 50.265 11.7943 50.185C11.7943 50.135 11.7993 50.09 11.8093 50.05L15.3793 40.405C15.4093 40.295 15.4693 40.2 15.5593 40.12C15.6493 40.04 15.7743 40 15.9343 40H17.8543C18.0143 40 18.1393 40.04 18.2293 40.12C18.3193 40.2 18.3793 40.295 18.4093 40.405L21.9793 50.05C21.9893 50.09 21.9943 50.135 21.9943 50.185C21.9943 50.265 21.9643 50.34 21.9043 50.41C21.8443 50.47 21.7693 50.5 21.6793 50.5H20.1193C19.9693 50.5 19.8593 50.465 19.7893 50.395C19.7193 50.325 19.6743 50.26 19.6543 50.2L19.0093 48.52H14.7793L14.1343 50.2C14.1143 50.26 14.0693 50.325 13.9993 50.395C13.9293 50.465 13.8193 50.5 13.6693 50.5H12.1093ZM15.3343 46.585H18.4393L16.8943 42.265L15.3343 46.585ZM26.9046 50.65C25.9446 50.65 25.1396 50.51 24.4896 50.23C23.8496 49.95 23.3646 49.585 23.0346 49.135C22.7046 48.685 22.5296 48.205 22.5096 47.695C22.5096 47.615 22.5396 47.545 22.5996 47.485C22.6596 47.415 22.7346 47.38 22.8246 47.38H24.4296C24.5596 47.38 24.6596 47.41 24.7296 47.47C24.7996 47.52 24.8646 47.585 24.9246 47.665C24.9946 47.835 25.1046 48 25.2546 48.16C25.4146 48.32 25.6296 48.455 25.8996 48.565C26.1696 48.665 26.5046 48.715 26.9046 48.715C27.5546 48.715 28.0396 48.61 28.3596 48.4C28.6896 48.19 28.8546 47.905 28.8546 47.545C28.8546 47.285 28.7646 47.075 28.5846 46.915C28.4146 46.755 28.1396 46.61 27.7596 46.48C27.3896 46.35 26.8946 46.21 26.2746 46.06C25.5246 45.9 24.8846 45.695 24.3546 45.445C23.8346 45.185 23.4396 44.855 23.1696 44.455C22.9096 44.045 22.7796 43.54 22.7796 42.94C22.7796 42.34 22.9446 41.81 23.2746 41.35C23.6046 40.88 24.0696 40.515 24.6696 40.255C25.2696 39.985 25.9846 39.85 26.8146 39.85C27.4846 39.85 28.0746 39.94 28.5846 40.12C29.1046 40.3 29.5346 40.535 29.8746 40.825C30.2246 41.115 30.4896 41.425 30.6696 41.755C30.8496 42.085 30.9446 42.405 30.9546 42.715C30.9546 42.795 30.9246 42.87 30.8646 42.94C30.8046 43 30.7296 43.03 30.6396 43.03H28.9596C28.8596 43.03 28.7696 43.01 28.6896 42.97C28.6096 42.93 28.5446 42.86 28.4946 42.76C28.4346 42.5 28.2546 42.275 27.9546 42.085C27.6646 41.885 27.2846 41.785 26.8146 41.785C26.3246 41.785 25.9346 41.875 25.6446 42.055C25.3646 42.235 25.2246 42.51 25.2246 42.88C25.2246 43.12 25.2946 43.325 25.4346 43.495C25.5846 43.655 25.8296 43.8 26.1696 43.93C26.5196 44.05 26.9796 44.185 27.5496 44.335C28.4296 44.515 29.1446 44.73 29.6946 44.98C30.2446 45.23 30.6496 45.555 30.9096 45.955C31.1696 46.345 31.2996 46.84 31.2996 47.44C31.2996 48.11 31.1096 48.685 30.7296 49.165C30.3596 49.645 29.8446 50.015 29.1846 50.275C28.5346 50.525 27.7746 50.65 26.9046 50.65ZM36.6898 50.65C35.7298 50.65 34.9248 50.51 34.2748 50.23C33.6348 49.95 33.1498 49.585 32.8198 49.135C32.4898 48.685 32.3148 48.205 32.2948 47.695C32.2948 47.615 32.3248 47.545 32.3848 47.485C32.4448 47.415 32.5198 47.38 32.6098 47.38H34.2148C34.3448 47.38 34.4448 47.41 34.5148 47.47C34.5848 47.52 34.6498 47.585 34.7098 47.665C34.7798 47.835 34.8898 48 35.0398 48.16C35.1998 48.32 35.4148 48.455 35.6848 48.565C35.9548 48.665 36.2898 48.715 36.6898 48.715C37.3398 48.715 37.8248 48.61 38.1448 48.4C38.4748 48.19 38.6398 47.905 38.6398 47.545C38.6398 47.285 38.5498 47.075 38.3698 46.915C38.1998 46.755 37.9248 46.61 37.5448 46.48C37.1748 46.35 36.6798 46.21 36.0598 46.06C35.3098 45.9 34.6698 45.695 34.1398 45.445C33.6198 45.185 33.2248 44.855 32.9548 44.455C32.6948 44.045 32.5648 43.54 32.5648 42.94C32.5648 42.34 32.7298 41.81 33.0598 41.35C33.3898 40.88 33.8548 40.515 34.4548 40.255C35.0548 39.985 35.7698 39.85 36.5998 39.85C37.2698 39.85 37.8598 39.94 38.3698 40.12C38.8898 40.3 39.3198 40.535 39.6598 40.825C40.0098 41.115 40.2748 41.425 40.4548 41.755C40.6348 42.085 40.7298 42.405 40.7398 42.715C40.7398 42.795 40.7098 42.87 40.6498 42.94C40.5898 43 40.5148 43.03 40.4248 43.03H38.7448C38.6448 43.03 38.5548 43.01 38.4748 42.97C38.3948 42.93 38.3298 42.86 38.2798 42.76C38.2198 42.5 38.0398 42.275 37.7398 42.085C37.4498 41.885 37.0698 41.785 36.5998 41.785C36.1098 41.785 35.7198 41.875 35.4298 42.055C35.1498 42.235 35.0098 42.51 35.0098 42.88C35.0098 43.12 35.0798 43.325 35.2198 43.495C35.3698 43.655 35.6148 43.8 35.9548 43.93C36.3048 44.05 36.7648 44.185 37.3348 44.335C38.2148 44.515 38.9298 44.73 39.4798 44.98C40.0298 45.23 40.4348 45.555 40.6948 45.955C40.9548 46.345 41.0848 46.84 41.0848 47.44C41.0848 48.11 40.8948 48.685 40.5148 49.165C40.1448 49.645 39.6298 50.015 38.9698 50.275C38.3198 50.525 37.5598 50.65 36.6898 50.65ZM43.07 50.5C42.96 50.5 42.87 50.465 42.8 50.395C42.73 50.325 42.695 50.235 42.695 50.125V40.375C42.695 40.265 42.73 40.175 42.8 40.105C42.87 40.035 42.96 40 43.07 40H49.865C49.975 40 50.065 40.035 50.135 40.105C50.205 40.175 50.24 40.265 50.24 40.375V41.575C50.24 41.675 50.205 41.76 50.135 41.83C50.065 41.9 49.975 41.935 49.865 41.935H45.005V44.29H49.535C49.645 44.29 49.735 44.325 49.805 44.395C49.875 44.465 49.91 44.555 49.91 44.665V45.775C49.91 45.875 49.875 45.96 49.805 46.03C49.735 46.1 49.645 46.135 49.535 46.135H45.005V48.565H49.985C50.095 48.565 50.185 48.6 50.255 48.67C50.325 48.74 50.36 48.83 50.36 48.94V50.125C50.36 50.235 50.325 50.325 50.255 50.395C50.185 50.465 50.095 50.5 49.985 50.5H43.07ZM52.5182 50.5C52.4082 50.5 52.3182 50.465 52.2482 50.395C52.1782 50.325 52.1432 50.235 52.1432 50.125V40.375C52.1432 40.265 52.1782 40.175 52.2482 40.105C52.3182 40.035 52.4082 40 52.5182 40H56.4932C57.7432 40 58.7282 40.29 59.4482 40.87C60.1682 41.44 60.5282 42.265 60.5282 43.345C60.5282 44.075 60.3532 44.685 60.0032 45.175C59.6532 45.665 59.1832 46.03 58.5932 46.27L60.7082 50.02C60.7382 50.08 60.7532 50.135 60.7532 50.185C60.7532 50.265 60.7232 50.34 60.6632 50.41C60.6032 50.47 60.5282 50.5 60.4382 50.5H58.7732C58.5932 50.5 58.4582 50.455 58.3682 50.365C58.2782 50.265 58.2132 50.175 58.1732 50.095L56.3432 46.66H54.5282V50.125C54.5282 50.235 54.4932 50.325 54.4232 50.395C54.3532 50.465 54.2632 50.5 54.1532 50.5H52.5182ZM54.5282 44.755H56.4482C56.9982 44.755 57.4032 44.63 57.6632 44.38C57.9332 44.13 58.0682 43.78 58.0682 43.33C58.0682 42.88 57.9382 42.525 57.6782 42.265C57.4182 42.005 57.0082 41.875 56.4482 41.875H54.5282V44.755ZM64.6825 50.5C64.5925 50.5 64.5175 50.47 64.4575 50.41C64.3975 50.34 64.3675 50.265 64.3675 50.185C64.3675 50.135 64.3725 50.09 64.3825 50.05L67.9525 40.405C67.9825 40.295 68.0425 40.2 68.1325 40.12C68.2225 40.04 68.3475 40 68.5075 40H70.4275C70.5875 40 70.7125 40.04 70.8025 40.12C70.8925 40.2 70.9525 40.295 70.9825 40.405L74.5525 50.05C74.5625 50.09 74.5675 50.135 74.5675 50.185C74.5675 50.265 74.5375 50.34 74.4775 50.41C74.4175 50.47 74.3425 50.5 74.2525 50.5H72.6925C72.5425 50.5 72.4325 50.465 72.3625 50.395C72.2925 50.325 72.2475 50.26 72.2275 50.2L71.5825 48.52H67.3525L66.7075 50.2C66.6875 50.26 66.6425 50.325 66.5725 50.395C66.5025 50.465 66.3925 50.5 66.2425 50.5H64.6825ZM67.9075 46.585H71.0125L69.4675 42.265L67.9075 46.585ZM76.234 50.5C76.124 50.5 76.034 50.465 75.964 50.395C75.894 50.325 75.859 50.235 75.859 50.125V40.375C75.859 40.265 75.894 40.175 75.964 40.105C76.034 40.035 76.124 40 76.234 40H77.899C78.009 40 78.099 40.035 78.169 40.105C78.239 40.175 78.274 40.265 78.274 40.375V48.49H82.924C83.034 48.49 83.124 48.525 83.194 48.595C83.264 48.665 83.299 48.755 83.299 48.865V50.125C83.299 50.235 83.264 50.325 83.194 50.395C83.124 50.465 83.034 50.5 82.924 50.5H76.234ZM84.1829 46.96C84.0829 46.96 83.9979 46.925 83.9279 46.855C83.8579 46.785 83.8229 46.7 83.8229 46.6V45.4C83.8229 45.3 83.8579 45.215 83.9279 45.145C83.9979 45.075 84.0829 45.04 84.1829 45.04H88.8479C88.9479 45.04 89.0329 45.075 89.1029 45.145C89.1729 45.215 89.2079 45.3 89.2079 45.4V46.6C89.2079 46.7 89.1729 46.785 89.1029 46.855C89.0329 46.925 88.9479 46.96 88.8479 46.96H84.1829ZM91.527 50.5C91.427 50.5 91.337 50.465 91.257 50.395C91.187 50.325 91.152 50.235 91.152 50.125V40.375C91.152 40.265 91.187 40.175 91.257 40.105C91.337 40.035 91.427 40 91.527 40H92.922C93.072 40 93.182 40.04 93.252 40.12C93.332 40.2 93.387 40.26 93.417 40.3L96.177 45.385L98.967 40.3C98.987 40.26 99.032 40.2 99.102 40.12C99.182 40.04 99.297 40 99.447 40H100.842C100.952 40 101.042 40.035 101.112 40.105C101.182 40.175 101.217 40.265 101.217 40.375V50.125C101.217 50.235 101.182 50.325 101.112 50.395C101.042 50.465 100.952 50.5 100.842 50.5H99.312C99.212 50.5 99.127 50.465 99.057 50.395C98.987 50.325 98.952 50.235 98.952 50.125V44.065L97.047 47.635C96.997 47.725 96.932 47.805 96.852 47.875C96.772 47.945 96.667 47.98 96.537 47.98H95.832C95.702 47.98 95.597 47.945 95.517 47.875C95.437 47.805 95.372 47.725 95.322 47.635L93.417 44.065V50.125C93.417 50.235 93.382 50.325 93.312 50.395C93.242 50.465 93.157 50.5 93.057 50.5H91.527ZM107.732 50.65C106.852 50.65 106.082 50.505 105.422 50.215C104.762 49.915 104.252 49.46 103.892 48.85C103.532 48.23 103.352 47.445 103.352 46.495V40.375C103.352 40.265 103.387 40.175 103.457 40.105C103.527 40.035 103.617 40 103.727 40H105.362C105.472 40 105.562 40.035 105.632 40.105C105.702 40.175 105.737 40.265 105.737 40.375V46.48C105.737 47.22 105.912 47.77 106.262 48.13C106.612 48.49 107.102 48.67 107.732 48.67C108.352 48.67 108.837 48.49 109.187 48.13C109.537 47.77 109.712 47.22 109.712 46.48V40.375C109.712 40.265 109.747 40.175 109.817 40.105C109.897 40.035 109.987 40 110.087 40H111.737C111.837 40 111.922 40.035 111.992 40.105C112.062 40.175 112.097 40.265 112.097 40.375V46.495C112.097 47.445 111.917 48.23 111.557 48.85C111.197 49.46 110.692 49.915 110.042 50.215C109.392 50.505 108.622 50.65 107.732 50.65ZM116.908 50.5C116.798 50.5 116.708 50.465 116.638 50.395C116.568 50.325 116.533 50.235 116.533 50.125V42.085H113.803C113.703 42.085 113.618 42.05 113.548 41.98C113.478 41.91 113.443 41.825 113.443 41.725V40.375C113.443 40.265 113.478 40.175 113.548 40.105C113.618 40.035 113.703 40 113.803 40H121.663C121.773 40 121.863 40.035 121.933 40.105C122.003 40.175 122.038 40.265 122.038 40.375V41.725C122.038 41.825 122.003 41.91 121.933 41.98C121.863 42.05 121.773 42.085 121.663 42.085H118.948V50.125C118.948 50.235 118.913 50.325 118.843 50.395C118.773 50.465 118.683 50.5 118.573 50.5H116.908ZM121.782 50.5C121.692 50.5 121.617 50.47 121.557 50.41C121.497 50.34 121.467 50.265 121.467 50.185C121.467 50.135 121.472 50.09 121.482 50.05L125.052 40.405C125.082 40.295 125.142 40.2 125.232 40.12C125.322 40.04 125.447 40 125.607 40H127.527C127.687 40 127.812 40.04 127.902 40.12C127.992 40.2 128.052 40.295 128.082 40.405L131.652 50.05C131.662 50.09 131.667 50.135 131.667 50.185C131.667 50.265 131.637 50.34 131.577 50.41C131.517 50.47 131.442 50.5 131.352 50.5H129.792C129.642 50.5 129.532 50.465 129.462 50.395C129.392 50.325 129.347 50.26 129.327 50.2L128.682 48.52H124.452L123.807 50.2C123.787 50.26 123.742 50.325 123.672 50.395C123.602 50.465 123.492 50.5 123.342 50.5H121.782ZM125.007 46.585H128.112L126.567 42.265L125.007 46.585ZM133.334 50.5C133.224 50.5 133.134 50.465 133.064 50.395C132.994 50.325 132.959 50.235 132.959 50.125V40.375C132.959 40.265 132.994 40.175 133.064 40.105C133.134 40.035 133.224 40 133.334 40H135.029C135.139 40 135.229 40.035 135.299 40.105C135.369 40.175 135.404 40.265 135.404 40.375V50.125C135.404 50.235 135.369 50.325 135.299 50.395C135.229 50.465 135.139 50.5 135.029 50.5H133.334ZM137.992 50.5C137.882 50.5 137.792 50.465 137.722 50.395C137.652 50.325 137.617 50.235 137.617 50.125V40.375C137.617 40.265 137.652 40.175 137.722 40.105C137.792 40.035 137.882 40 137.992 40H141.967C143.217 40 144.202 40.29 144.922 40.87C145.642 41.44 146.002 42.265 146.002 43.345C146.002 44.075 145.827 44.685 145.477 45.175C145.127 45.665 144.657 46.03 144.067 46.27L146.182 50.02C146.212 50.08 146.227 50.135 146.227 50.185C146.227 50.265 146.197 50.34 146.137 50.41C146.077 50.47 146.002 50.5 145.912 50.5H144.247C144.067 50.5 143.932 50.455 143.842 50.365C143.752 50.265 143.687 50.175 143.647 50.095L141.817 46.66H140.002V50.125C140.002 50.235 139.967 50.325 139.897 50.395C139.827 50.465 139.737 50.5 139.627 50.5H137.992ZM140.002 44.755H141.922C142.472 44.755 142.877 44.63 143.137 44.38C143.407 44.13 143.542 43.78 143.542 43.33C143.542 42.88 143.412 42.525 143.152 42.265C142.892 42.005 142.482 41.875 141.922 41.875H140.002V44.755ZM148.216 50.5C148.106 50.5 148.016 50.465 147.946 50.395C147.876 50.325 147.841 50.235 147.841 50.125V40.375C147.841 40.265 147.876 40.175 147.946 40.105C148.016 40.035 148.106 40 148.216 40H149.911C150.021 40 150.111 40.035 150.181 40.105C150.251 40.175 150.286 40.265 150.286 40.375V50.125C150.286 50.235 150.251 50.325 150.181 50.395C150.111 50.465 150.021 50.5 149.911 50.5H148.216ZM156.185 50.5C156.085 50.5 155.995 50.465 155.915 50.395C155.845 50.325 155.81 50.235 155.81 50.125V40.375C155.81 40.265 155.845 40.175 155.915 40.105C155.995 40.035 156.085 40 156.185 40H157.58C157.73 40 157.84 40.04 157.91 40.12C157.99 40.2 158.045 40.26 158.075 40.3L160.835 45.385L163.625 40.3C163.645 40.26 163.69 40.2 163.76 40.12C163.84 40.04 163.955 40 164.105 40H165.5C165.61 40 165.7 40.035 165.77 40.105C165.84 40.175 165.875 40.265 165.875 40.375V50.125C165.875 50.235 165.84 50.325 165.77 50.395C165.7 50.465 165.61 50.5 165.5 50.5H163.97C163.87 50.5 163.785 50.465 163.715 50.395C163.645 50.325 163.61 50.235 163.61 50.125V44.065L161.705 47.635C161.655 47.725 161.59 47.805 161.51 47.875C161.43 47.945 161.325 47.98 161.195 47.98H160.49C160.36 47.98 160.255 47.945 160.175 47.875C160.095 47.805 160.03 47.725 159.98 47.635L158.075 44.065V50.125C158.075 50.235 158.04 50.325 157.97 50.395C157.9 50.465 157.815 50.5 157.715 50.5H156.185ZM172.27 50.65C171.36 50.65 170.575 50.5 169.915 50.2C169.255 49.9 168.74 49.45 168.37 48.85C168 48.24 167.8 47.475 167.77 46.555C167.76 46.125 167.755 45.7 167.755 45.28C167.755 44.85 167.76 44.415 167.77 43.975C167.8 43.075 168 42.32 168.37 41.71C168.75 41.09 169.27 40.625 169.93 40.315C170.6 40.005 171.38 39.85 172.27 39.85C173.15 39.85 173.92 40.005 174.58 40.315C175.25 40.625 175.775 41.09 176.155 41.71C176.535 42.32 176.735 43.075 176.755 43.975C176.775 44.415 176.785 44.85 176.785 45.28C176.785 45.7 176.775 46.125 176.755 46.555C176.725 47.475 176.525 48.24 176.155 48.85C175.785 49.45 175.27 49.9 174.61 50.2C173.95 50.5 173.17 50.65 172.27 50.65ZM172.27 48.715C172.85 48.715 173.325 48.54 173.695 48.19C174.075 47.83 174.275 47.26 174.295 46.48C174.315 46.04 174.325 45.63 174.325 45.25C174.325 44.86 174.315 44.45 174.295 44.02C174.285 43.5 174.19 43.075 174.01 42.745C173.83 42.415 173.59 42.175 173.29 42.025C173 41.865 172.66 41.785 172.27 41.785C171.88 41.785 171.535 41.865 171.235 42.025C170.935 42.175 170.695 42.415 170.515 42.745C170.345 43.075 170.25 43.5 170.23 44.02C170.22 44.45 170.215 44.86 170.215 45.25C170.215 45.63 170.22 46.04 170.23 46.48C170.26 47.26 170.46 47.83 170.83 48.19C171.2 48.54 171.68 48.715 172.27 48.715ZM181.156 50.5C181.046 50.5 180.956 50.465 180.886 50.395C180.816 50.325 180.781 50.235 180.781 50.125V42.085H178.051C177.951 42.085 177.866 42.05 177.796 41.98C177.726 41.91 177.691 41.825 177.691 41.725V40.375C177.691 40.265 177.726 40.175 177.796 40.105C177.866 40.035 177.951 40 178.051 40H185.911C186.021 40 186.111 40.035 186.181 40.105C186.251 40.175 186.286 40.265 186.286 40.375V41.725C186.286 41.825 186.251 41.91 186.181 41.98C186.111 42.05 186.021 42.085 185.911 42.085H183.196V50.125C183.196 50.235 183.161 50.325 183.091 50.395C183.021 50.465 182.931 50.5 182.821 50.5H181.156ZM191.723 50.65C190.813 50.65 190.028 50.5 189.368 50.2C188.708 49.9 188.193 49.45 187.823 48.85C187.453 48.24 187.253 47.475 187.223 46.555C187.213 46.125 187.208 45.7 187.208 45.28C187.208 44.85 187.213 44.415 187.223 43.975C187.253 43.075 187.453 42.32 187.823 41.71C188.203 41.09 188.723 40.625 189.383 40.315C190.053 40.005 190.833 39.85 191.723 39.85C192.603 39.85 193.373 40.005 194.033 40.315C194.703 40.625 195.228 41.09 195.608 41.71C195.988 42.32 196.188 43.075 196.208 43.975C196.228 44.415 196.238 44.85 196.238 45.28C196.238 45.7 196.228 46.125 196.208 46.555C196.178 47.475 195.978 48.24 195.608 48.85C195.238 49.45 194.723 49.9 194.063 50.2C193.403 50.5 192.623 50.65 191.723 50.65ZM191.723 48.715C192.303 48.715 192.778 48.54 193.148 48.19C193.528 47.83 193.728 47.26 193.748 46.48C193.768 46.04 193.778 45.63 193.778 45.25C193.778 44.86 193.768 44.45 193.748 44.02C193.738 43.5 193.643 43.075 193.463 42.745C193.283 42.415 193.043 42.175 192.743 42.025C192.453 41.865 192.113 41.785 191.723 41.785C191.333 41.785 190.988 41.865 190.688 42.025C190.388 42.175 190.148 42.415 189.968 42.745C189.798 43.075 189.703 43.5 189.683 44.02C189.673 44.45 189.668 44.86 189.668 45.25C189.668 45.63 189.673 46.04 189.683 46.48C189.713 47.26 189.913 47.83 190.283 48.19C190.653 48.54 191.133 48.715 191.723 48.715ZM198.475 50.5C198.365 50.5 198.275 50.465 198.205 50.395C198.135 50.325 198.1 50.235 198.1 50.125V40.375C198.1 40.265 198.135 40.175 198.205 40.105C198.275 40.035 198.365 40 198.475 40H202.45C203.7 40 204.685 40.29 205.405 40.87C206.125 41.44 206.485 42.265 206.485 43.345C206.485 44.075 206.31 44.685 205.96 45.175C205.61 45.665 205.14 46.03 204.55 46.27L206.665 50.02C206.695 50.08 206.71 50.135 206.71 50.185C206.71 50.265 206.68 50.34 206.62 50.41C206.56 50.47 206.485 50.5 206.395 50.5H204.73C204.55 50.5 204.415 50.455 204.325 50.365C204.235 50.265 204.17 50.175 204.13 50.095L202.3 46.66H200.485V50.125C200.485 50.235 200.45 50.325 200.38 50.395C200.31 50.465 200.22 50.5 200.11 50.5H198.475ZM200.485 44.755H202.405C202.955 44.755 203.36 44.63 203.62 44.38C203.89 44.13 204.025 43.78 204.025 43.33C204.025 42.88 203.895 42.525 203.635 42.265C203.375 42.005 202.965 41.875 202.405 41.875H200.485V44.755ZM212.105 50.65C211.145 50.65 210.34 50.51 209.69 50.23C209.05 49.95 208.565 49.585 208.235 49.135C207.905 48.685 207.73 48.205 207.71 47.695C207.71 47.615 207.74 47.545 207.8 47.485C207.86 47.415 207.935 47.38 208.025 47.38H209.63C209.76 47.38 209.86 47.41 209.93 47.47C210 47.52 210.065 47.585 210.125 47.665C210.195 47.835 210.305 48 210.455 48.16C210.615 48.32 210.83 48.455 211.1 48.565C211.37 48.665 211.705 48.715 212.105 48.715C212.755 48.715 213.24 48.61 213.56 48.4C213.89 48.19 214.055 47.905 214.055 47.545C214.055 47.285 213.965 47.075 213.785 46.915C213.615 46.755 213.34 46.61 212.96 46.48C212.59 46.35 212.095 46.21 211.475 46.06C210.725 45.9 210.085 45.695 209.555 45.445C209.035 45.185 208.64 44.855 208.37 44.455C208.11 44.045 207.98 43.54 207.98 42.94C207.98 42.34 208.145 41.81 208.475 41.35C208.805 40.88 209.27 40.515 209.87 40.255C210.47 39.985 211.185 39.85 212.015 39.85C212.685 39.85 213.275 39.94 213.785 40.12C214.305 40.3 214.735 40.535 215.075 40.825C215.425 41.115 215.69 41.425 215.87 41.755C216.05 42.085 216.145 42.405 216.155 42.715C216.155 42.795 216.125 42.87 216.065 42.94C216.005 43 215.93 43.03 215.84 43.03H214.16C214.06 43.03 213.97 43.01 213.89 42.97C213.81 42.93 213.745 42.86 213.695 42.76C213.635 42.5 213.455 42.275 213.155 42.085C212.865 41.885 212.485 41.785 212.015 41.785C211.525 41.785 211.135 41.875 210.845 42.055C210.565 42.235 210.425 42.51 210.425 42.88C210.425 43.12 210.495 43.325 210.635 43.495C210.785 43.655 211.03 43.8 211.37 43.93C211.72 44.05 212.18 44.185 212.75 44.335C213.63 44.515 214.345 44.73 214.895 44.98C215.445 45.23 215.85 45.555 216.11 45.955C216.37 46.345 216.5 46.84 216.5 47.44C216.5 48.11 216.31 48.685 215.93 49.165C215.56 49.645 215.045 50.015 214.385 50.275C213.735 50.525 212.975 50.65 212.105 50.65Z" fill="black"/>
<g clip-path="url(#clip0_288_2887)">
<path d="M296.738 13.1387C296.864 12.9594 296.986 12.7703 297.105 12.582C296.985 12.7694 296.862 12.9559 296.738 13.1387ZM296.356 13.6811C296.486 13.5018 296.614 13.321 296.738 13.1387C296.613 13.3216 296.486 13.5024 296.356 13.6811ZM290.386 21.1711L290.312 21.3558C290.333 21.3056 290.354 21.2545 290.374 21.2025C290.395 21.1505 290.408 21.1182 290.424 21.077C290.411 21.1084 290.398 21.1397 290.386 21.1711ZM264.647 35.0028C264.647 35.0153 264.643 35.027 264.641 35.0395C264.666 34.9167 264.69 34.7984 264.713 34.681C264.691 34.7876 264.669 34.8943 264.647 35.0028ZM259.247 33.7172C259.207 33.7746 259.168 33.8311 259.131 33.8867L259.23 33.7441L259.904 32.7446L259.247 33.7172ZM235.204 25.1891L235.183 25.1667C235.234 25.2277 235.285 25.2877 235.337 25.346L235.204 25.1891ZM234.433 24.2666C234.581 24.4549 234.733 24.6414 234.89 24.826C234.734 24.6414 234.582 24.4549 234.433 24.2666ZM233.727 23.3092C233.905 23.5692 234.091 23.8253 234.287 24.0775C234.093 23.8247 233.907 23.5686 233.727 23.3092Z" fill="#040303"/>
<path d="M298.816 12.1826C300.13 9.82125 300.935 7.30037 300.998 4.57689C301.031 3.14253 300.601 1.77272 300.227 0.403813C300.195 0.287271 300.083 0.193142 299.975 0.0452241C299.727 0.672754 299.544 1.23484 299.29 1.76286C297.904 4.63874 295.826 6.93102 293.357 8.89878C291.307 10.5348 289.041 11.8204 286.772 13.105C284.08 14.629 281.319 16.0365 278.814 17.8841C276.85 19.3328 275.332 21.1051 274.493 23.4422C273.62 25.869 272.711 28.2832 271.815 30.7037C271.749 30.8829 271.655 31.0479 271.531 31.3124C271.406 31.0533 271.324 30.9036 271.264 30.7467C270.497 28.9161 269.732 27.0849 268.968 25.2531C268.873 25.0254 268.784 24.7959 268.68 24.5727C268.539 24.2652 268.653 24.1558 268.964 24.1334C269.449 24.0976 269.875 24.2123 270.231 24.5557C270.329 24.6516 270.436 24.7349 270.569 24.8578C271.116 23.9613 271.534 23.072 271.539 22.0545C271.545 21.0594 271.112 20.3055 270.207 19.8429C269.592 19.5291 269.007 19.1526 268.379 18.8684C267.821 18.6165 267.238 18.3673 266.642 18.2741C265.86 18.1527 265.068 18.1157 264.278 18.1638C261.864 18.3108 261.186 19.1069 260.708 21.1284C259.985 24.1908 259.197 27.2379 258.438 30.2913C258.399 30.4455 258.329 30.5916 258.229 30.8632C258.094 30.5566 258.004 30.38 257.937 30.1945C257.108 27.9234 256.278 25.6496 255.449 23.3732C254.816 21.6025 253.723 20.0357 252.285 18.8362C250.567 17.3866 248.693 16.1853 246.736 15.0997C243.702 13.4152 240.634 11.7881 237.791 9.7818C234.376 7.36133 231.547 4.43793 230.111 0.36885C230.076 0.266653 229.984 0.185074 229.856 0.00488281C229.738 0.407399 229.656 0.69427 229.57 0.980244C229.096 2.56521 228.89 4.17527 229.057 5.83284C229.277 8.03279 230.005 10.0615 231.019 12.0024C232.186 14.2274 233.755 16.1468 235.523 17.9065C235.789 18.1692 236.023 18.4596 236.272 18.7376L236.177 18.8362C234.964 18.0006 233.838 17.043 232.816 15.9782C231.778 14.8854 230.823 13.7263 230.15 12.3412C230.079 12.4451 230.03 12.5635 230.009 12.6882C229.671 14.7713 229.786 16.9038 230.347 18.9375C230.895 20.9719 231.811 22.8867 233.048 24.5852C233.358 24.9856 233.509 25.4873 233.473 25.9936C233.431 26.7296 233.389 27.488 233.516 28.207C233.927 30.6375 234.967 32.9154 236.53 34.8104C238.8 37.5679 241.484 39.8602 244.498 41.7437C247.899 43.8701 250.885 46.4349 253.159 49.7877L253.28 49.967H276.668C278.164 47.8487 279.77 45.8235 281.873 44.2825C283.954 42.7585 286.122 41.351 288.19 39.8082C290.523 38.0682 292.644 36.0879 294.265 33.6279C295.634 31.5472 296.588 29.2899 296.499 26.7547C296.457 25.5893 296.817 24.6928 297.431 23.7596C299.612 20.4426 300.516 16.8057 299.944 12.8352C299.921 12.6792 299.865 12.5286 299.791 12.2489C299.63 12.5537 299.538 12.7285 299.447 12.9042C299.355 13.0799 299.269 13.2709 299.163 13.4421C297.861 15.4457 296.175 17.071 294.262 18.4686C294.144 18.5583 293.976 18.5726 293.831 18.6219C293.831 18.4794 293.858 18.4157 293.906 18.3718C295.864 16.5911 297.523 14.5007 298.816 12.1826ZM234.05 14.3126C232.105 11.7836 230.752 8.99201 230.183 5.83733C230.086 5.29944 230.04 4.74722 229.977 4.20037C229.975 4.07508 229.983 3.94982 229.999 3.82564C230.08 3.90517 230.153 3.99155 230.219 4.08383C231.27 6.03724 232.787 7.58007 234.582 8.80823C235.648 9.53617 236.19 10.5223 236.613 11.668C236.997 12.7124 237.442 13.7352 237.872 14.7994C238.441 16.2023 239.003 17.5847 239.58 19.0083L239.781 19.5031L239.983 20.0016C239.833 19.9532 239.775 19.9514 239.741 19.9218C237.74 18.1557 235.689 16.4515 234.048 14.3126H234.05ZM247.225 37.7661L247.117 37.8557C247.904 39.7706 248.69 41.6854 249.52 43.7052C249.342 43.6218 249.264 43.6057 249.214 43.5564C247.938 42.3013 246.382 41.4317 244.916 40.4411C243.006 39.1493 241.096 37.8539 239.4 36.277C237.379 34.3944 235.648 32.3101 234.869 29.5804C234.659 28.8462 234.543 28.0842 234.392 27.3329C234.38 27.2089 234.38 27.084 234.392 26.96L234.511 26.8614C234.546 26.9511 234.586 27.0388 234.631 27.124C235.532 28.6247 236.817 29.7319 238.28 30.6266C239.791 31.5499 241.339 32.4105 242.9 33.316C243.51 33.6656 244.12 34.0152 244.723 34.3702L245.035 34.5549C245.186 34.6445 245.337 34.7342 245.487 34.8238L245.497 34.8292C245.66 34.9269 245.821 35.0264 245.983 35.1259C246.082 35.1869 246.182 35.2488 246.281 35.3115L246.499 35.4496C246.841 35.6653 247.179 35.8868 247.515 36.1139C247.597 36.1694 247.679 36.225 247.761 36.2824C247.877 36.3622 247.993 36.4438 248.108 36.5262L248.145 36.5522C248.261 36.6335 248.376 36.7163 248.49 36.8006C249.118 37.2604 249.729 37.7463 250.315 38.2672L250.469 38.4043L250.613 38.5352C250.674 38.5917 250.735 38.6482 250.796 38.7056C251.99 39.8315 253.089 41.0588 254.224 42.2475C254.32 42.3694 254.37 42.5213 254.367 42.6769C252.158 40.7549 249.714 39.2264 247.225 37.7661ZM256.523 34.7181C256.405 34.6607 256.247 34.6347 256.175 34.5388C254.464 32.3254 252.122 30.9027 249.816 29.4638C247.348 27.9237 244.8 26.5135 242.287 25.0487C242.175 24.9846 242.046 24.9594 241.918 24.977L245.311 33.4101L245.191 33.4998C244.75 33.1854 244.308 32.8716 243.864 32.5585L243.2 32.0878C242.427 31.5383 241.656 30.9843 240.898 30.4132C240.681 30.2506 240.467 30.0872 240.253 29.9228C239.825 29.5923 239.401 29.2535 238.984 28.9062C238.879 28.8202 238.775 28.7329 238.672 28.6445C238.569 28.556 238.466 28.4664 238.363 28.3755C238.26 28.2877 238.158 28.198 238.056 28.1066C237.856 27.9273 237.656 27.748 237.459 27.5624L237.453 27.5561C237.259 27.3768 237.066 27.1919 236.875 27.0012L236.863 26.9896C236.765 26.894 236.669 26.7971 236.574 26.6991C236.192 26.3136 235.826 25.9183 235.471 25.505C235.425 25.453 235.382 25.401 235.337 25.3481C235.292 25.2952 235.234 25.228 235.183 25.1688C235.133 25.1097 235.079 25.0505 235.029 24.9895C234.98 24.9286 234.935 24.8811 234.89 24.8264C234.732 24.6417 234.58 24.4552 234.433 24.267C234.383 24.2042 234.334 24.1415 234.287 24.0778C234.092 23.825 233.906 23.5689 233.727 23.3096C233.718 23.298 233.71 23.2861 233.702 23.2737C233.676 23.2378 233.652 23.202 233.628 23.1652L233.609 23.1365L233.492 22.9572C233.456 22.9017 233.421 22.8461 233.385 22.7905C233.349 22.7349 233.306 22.6677 233.268 22.6049C233.23 22.5422 233.194 22.4866 233.158 22.4256C233.088 22.3109 233.02 22.1949 232.953 22.0778C232.921 22.024 232.891 21.9693 232.864 21.9146C232.853 21.8949 232.841 21.8743 232.831 21.8537C232.797 21.7945 232.764 21.7345 232.733 21.6744C232.702 21.6143 232.657 21.5345 232.621 21.4637C232.611 21.4467 232.602 21.4288 232.593 21.4108C232.574 21.3741 232.556 21.3373 232.537 21.3006C232.519 21.2638 232.493 21.2109 232.472 21.1697C232.426 21.08 232.383 20.9904 232.34 20.9007C232.282 20.777 232.225 20.6533 232.171 20.5278C232.147 20.4776 232.126 20.4274 232.105 20.3772C232.054 20.2598 232.005 20.1423 231.958 20.0186C231.934 19.9585 231.911 19.8994 231.888 19.8393C231.841 19.7201 231.799 19.5991 231.753 19.4807C231.724 19.4 231.696 19.3194 231.664 19.2378C231.645 19.1831 231.628 19.1293 231.61 19.0746C231.592 19.0199 231.578 18.9787 231.564 18.9312C231.465 18.6228 231.377 18.3099 231.297 17.9926C231.056 17.0262 230.942 16.0266 230.779 15.0423C230.775 14.9589 230.78 14.8752 230.795 14.7931L230.929 14.6801C230.948 14.7613 230.973 14.841 231.004 14.9186C231.837 16.6335 233.142 17.946 234.647 19.028C236.343 20.2445 238.12 21.3472 239.863 22.4974C239.949 22.5398 240.038 22.5763 240.129 22.6067C239.79 21.7461 239.482 20.9671 239.13 20.0769C239.332 20.188 239.431 20.2311 239.517 20.2911C242.831 22.6462 246.172 24.9635 249.45 27.3733C252.126 29.3383 254.416 31.7247 256.439 34.3657C256.475 34.4157 256.502 34.4725 256.516 34.5328C256.531 34.5932 256.533 34.6559 256.523 34.7172V34.7181ZM264.509 35.8091C264.539 35.6396 264.566 35.4783 264.598 35.3124C264.607 35.2631 264.615 35.2129 264.624 35.1618C264.633 35.1107 264.637 35.082 264.644 35.0408C264.644 35.0282 264.644 35.0166 264.651 35.004C264.673 34.8956 264.694 34.7889 264.716 34.684C264.739 34.5791 264.763 34.4554 264.786 34.3433L264.844 34.0591C264.844 34.0475 264.844 34.0367 264.851 34.0251C264.873 33.9202 264.895 33.8153 264.916 33.7104L265.082 33.6997C265.186 34.3864 265.291 35.0731 265.402 35.8091H264.509ZM271.556 34.8077L264.648 25.7121L263.962 26.7251C263.507 27.3999 263.053 28.0716 262.603 28.7404C262.376 29.0757 262.151 29.41 261.926 29.7435L260.577 31.7454L259.904 32.744L259.23 33.7436L259.131 33.8861L259.033 34.0269L258.855 34.2806L258.463 34.8409L258.341 34.7844C258.375 34.5952 258.399 34.4034 258.445 34.2178C259.552 29.7767 260.66 25.3368 261.767 20.8981C261.986 20.0114 262.508 19.5058 263.394 19.3265C264.663 19.0531 265.979 19.0931 267.229 19.4431C267.576 19.5426 267.882 19.7891 268.206 19.972C268.53 20.1549 268.82 20.3906 269.158 20.5099C270.362 20.9214 270.807 21.7237 270.468 22.9716C270.42 23.1509 270.359 23.3203 270.29 23.5462C269.554 23.0182 268.813 23.063 268.057 23.3562C268.003 23.3749 267.95 23.3964 267.899 23.4207C267.277 23.7408 267.281 23.739 267.55 24.4068C268.895 27.7483 270.24 31.0906 271.583 34.4339C271.619 34.5372 271.648 34.6426 271.672 34.7494L271.556 34.8077ZM295.499 27.8789C295.096 30.4141 293.969 32.5862 292.3 34.5029C290.653 36.39 288.718 37.9283 286.676 39.3438C285.041 40.4743 283.388 41.5734 281.754 42.7101C281.322 43.0104 280.954 43.3977 280.55 43.7455L280.444 43.6899C281.005 42.3165 281.566 40.9432 282.139 39.5384C282.197 39.4003 282.253 39.2632 282.31 39.1278L282.824 37.8835L282.696 37.7517C281.469 38.529 280.216 39.2668 279.023 40.0933C277.83 40.9198 276.713 41.8253 275.496 42.6563C275.551 42.5232 275.62 42.3961 275.701 42.2771C278.076 39.4416 280.806 37.0202 283.984 35.1385C286.205 33.8252 288.459 32.5809 290.673 31.2613C292.17 30.3648 293.63 29.4065 294.717 27.9891C294.996 27.6261 295.25 27.2433 295.623 26.8945C295.582 27.2227 295.551 27.5526 295.499 27.878V27.8789ZM296.014 18.517C297.162 17.5605 298.181 16.482 298.857 15.1167C298.911 15.0239 298.972 14.9355 299.04 14.8522L299.151 14.88C299.09 15.4179 299.056 15.9558 298.966 16.482C298.423 19.7093 297.031 22.5135 294.924 24.9985C292.621 27.7148 289.871 29.8888 286.985 31.9139C286.363 32.3523 285.741 32.8005 285.119 33.2416C284.993 33.3312 284.858 33.4083 284.726 33.4908L284.622 33.4227L288.038 24.9528C287.905 24.9932 287.773 25.042 287.646 25.0989C284.259 27.0066 280.824 28.8336 277.642 31.09C276.251 32.0762 274.875 33.073 273.84 34.4653C273.756 34.5782 273.602 34.6383 273.484 34.7234L273.372 34.606C273.461 34.4724 273.544 34.3371 273.639 34.2062C276.181 30.9179 279.219 28.1765 282.625 25.8269C285.202 24.0509 287.74 22.2257 290.296 20.4238C290.43 20.323 290.59 20.2635 290.756 20.2526C290.649 20.5215 290.541 20.7905 290.427 21.0791C290.411 21.1204 290.394 21.1625 290.377 21.2046C290.36 21.2468 290.336 21.3077 290.315 21.3579C290.15 21.7694 289.99 22.1648 289.811 22.6076C289.89 22.6003 289.968 22.5837 290.044 22.5583C292.108 21.3257 294.158 20.0625 296.014 18.5161V18.517ZM293.771 16.6891L293.636 16.8236C293.53 16.9294 293.422 17.0334 293.315 17.1356C293.226 17.2171 293.145 17.2987 293.059 17.3776C293 17.4341 292.941 17.4897 292.881 17.5435C292.698 17.7138 292.513 17.8817 292.324 18.0473C292.214 18.145 292.104 18.2418 291.992 18.3377C291.826 18.4812 291.657 18.6237 291.487 18.7653C291.038 19.1401 290.606 19.5354 290.166 19.9218L290.063 19.8599C290.196 19.5094 290.322 19.1553 290.463 18.8075C291.55 16.1306 292.651 13.46 293.721 10.776C293.999 10.0794 294.392 9.52093 295.007 9.08973C296.374 8.11974 297.647 7.03412 298.673 5.6912C299.109 5.12105 299.477 4.4971 299.924 3.90902C299.924 4.0399 299.917 4.16989 299.911 4.29988C299.911 4.35187 299.906 4.40477 299.903 4.45676L299.897 4.54641C299.897 4.59392 299.891 4.64233 299.887 4.68984C299.882 4.73736 299.879 4.79294 299.874 4.84404C299.869 4.91038 299.863 4.97671 299.855 5.04216C299.848 5.1076 299.84 5.18649 299.831 5.25821C299.799 5.53253 299.759 5.80476 299.711 6.07489L299.698 6.14751C299.675 6.27839 299.649 6.40838 299.622 6.53747C299.608 6.60829 299.592 6.68001 299.576 6.75083C299.56 6.82165 299.543 6.89337 299.526 6.96419C299.509 7.03501 299.496 7.0879 299.481 7.14976C299.402 7.45695 299.316 7.76205 299.22 8.06506C299.204 8.12064 299.186 8.17353 299.168 8.22911C299.149 8.28469 299.133 8.334 299.115 8.38599L299.062 8.54288C299.027 8.64687 298.989 8.75086 298.952 8.85395C298.729 9.46893 298.472 10.0749 298.189 10.6747C298.134 10.7859 298.077 10.8952 298.019 11.0046C297.919 11.1964 297.816 11.3865 297.711 11.5738C297.657 11.6725 297.601 11.7693 297.544 11.8661C297.487 11.9629 297.445 12.0346 297.394 12.118C297.344 12.2014 297.306 12.2722 297.253 12.3484C297.201 12.4246 297.171 12.4811 297.129 12.5474C297.121 12.5604 297.113 12.5729 297.105 12.5851C296.986 12.7733 296.864 12.9589 296.738 13.1418C296.612 13.3247 296.487 13.5057 296.356 13.6841C296.304 13.7568 296.252 13.8276 296.198 13.8993C296.093 14.0421 295.986 14.1829 295.876 14.3215L295.794 14.4264C295.767 14.4614 295.739 14.4954 295.711 14.5304L295.631 14.6299C295.568 14.7088 295.504 14.7877 295.438 14.8657C295.372 14.9437 295.308 15.0217 295.243 15.0997C295.177 15.1777 295.101 15.2646 295.029 15.3471C294.941 15.4493 294.852 15.5506 294.763 15.651C294.717 15.703 294.67 15.755 294.622 15.807L294.472 15.9594C294.417 16.0195 294.361 16.0795 294.305 16.1387C294.248 16.1978 294.216 16.2337 294.169 16.2812C294.14 16.3108 294.112 16.3395 294.08 16.3709C294.025 16.4282 293.97 16.4847 293.914 16.5412C293.858 16.5977 293.819 16.6416 293.771 16.6891ZM273.703 48.1768L273.624 48.1553H255.885C253.692 48.6976 251.993 49.9285 250.857 51.9079C249.948 53.492 249.532 55.1899 249.824 57.0536C250.208 59.1388 251.083 60.9291 252.772 62.1913C254.567 63.536 256.568 64.2532 258.852 63.8623C260.585 63.562 262.092 62.8162 263.356 61.5728C263.467 61.4707 263.61 61.4102 263.759 61.4015C264.392 61.383 265.024 61.383 265.656 61.4015C265.816 61.4102 265.969 61.4752 266.086 61.5853C267.4 62.9506 269.057 63.6077 270.865 63.926C272.015 64.1286 273.132 63.8946 274.22 63.5091C277.216 62.4504 279.031 60.306 279.575 57.1944C280.29 53.1137 277.681 49.2122 273.703 48.1768ZM276.144 54.15C276.166 54.1294 276.187 54.1096 276.206 54.0935L276.144 54.15Z" fill="#040303"/>
<path d="M256.523 34.717C256.405 34.6596 256.247 34.6336 256.175 34.5377C254.464 32.3243 252.122 30.9016 249.816 29.4627C247.348 27.9226 244.8 26.5125 242.287 25.0476C242.175 24.9835 242.046 24.9583 241.918 24.9759L245.311 33.409L245.191 33.4987C244.75 33.1831 244.308 32.8693 243.864 32.5574L243.2 32.0867C242.427 31.5372 241.656 30.9832 240.898 30.4121C240.681 30.2495 240.467 30.0861 240.253 29.9217C239.825 29.59 239.402 29.2512 238.984 28.9051C238.879 28.8185 238.775 28.7312 238.672 28.6434C238.569 28.5555 238.466 28.4659 238.363 28.3744L238.056 28.1055C237.856 27.9262 237.657 27.7448 237.459 27.5613L237.453 27.5551C237.259 27.3758 237.066 27.1908 236.875 27.0001L236.863 26.9885C236.766 26.8926 236.67 26.7948 236.574 26.698C236.192 26.3134 235.826 25.9181 235.471 25.5048C235.426 25.4528 235.382 25.4008 235.337 25.3479C235.292 25.295 235.234 25.2278 235.183 25.1686C235.133 25.1095 235.079 25.0503 235.029 24.9894L234.89 24.8262C234.732 24.6415 234.58 24.4551 234.433 24.2668L234.287 24.0776C234.093 23.8248 233.906 23.5687 233.727 23.3094C233.718 23.2978 233.71 23.2859 233.702 23.2735C233.676 23.2376 233.652 23.2018 233.628 23.165L233.609 23.1363L233.493 22.9571C233.456 22.9015 233.421 22.8459 233.385 22.7903C233.349 22.7347 233.306 22.6675 233.268 22.6047C233.23 22.542 233.194 22.4864 233.158 22.4254C233.088 22.3107 233.02 22.1948 232.953 22.0776C232.922 22.0238 232.891 21.9691 232.864 21.9145C232.853 21.8947 232.841 21.8741 232.831 21.8535C232.797 21.7943 232.764 21.7343 232.733 21.6742C232.702 21.6141 232.657 21.5343 232.621 21.4635C232.611 21.4465 232.602 21.4286 232.593 21.4106C232.574 21.3739 232.556 21.3371 232.537 21.3004C232.519 21.2636 232.493 21.2107 232.472 21.1695C232.427 21.0798 232.383 20.9902 232.34 20.9005C232.282 20.7768 232.225 20.6531 232.171 20.5276L232.105 20.3797C232.054 20.2623 232.005 20.1448 231.958 20.0211C231.934 19.961 231.911 19.9019 231.888 19.8418C231.841 19.7226 231.799 19.6016 231.753 19.4832C231.724 19.4025 231.696 19.3219 231.664 19.2403C231.645 19.1856 231.628 19.1318 231.61 19.0771C231.592 19.0224 231.579 18.9812 231.564 18.9337C231.465 18.6253 231.377 18.3124 231.297 17.9951C231.056 17.0287 230.942 16.0291 230.779 15.0448C230.775 14.9614 230.78 14.8777 230.795 14.7956L230.929 14.6826C230.949 14.7638 230.973 14.8435 231.004 14.9211C231.837 16.636 233.142 17.9485 234.647 19.0305C236.343 20.247 238.12 21.3497 239.863 22.4998C239.949 22.5423 240.038 22.5788 240.129 22.6092C239.79 21.7486 239.482 20.9696 239.13 20.0794C239.332 20.1905 239.431 20.2336 239.517 20.2936C242.831 22.6487 246.172 24.966 249.45 27.3758C252.126 29.3408 254.416 31.7272 256.439 34.3682C256.475 34.4178 256.501 34.4742 256.516 34.5341C256.53 34.5939 256.533 34.6561 256.523 34.717Z" fill="#FB555B"/>
<path d="M299.15 14.8785C299.09 15.4163 299.055 15.9542 298.965 16.4805C298.423 19.7077 297.03 22.5119 294.923 24.9969C292.62 27.7132 289.871 29.8872 286.984 31.9123C286.362 32.3507 285.74 32.7989 285.118 33.24C284.992 33.3296 284.857 33.4067 284.726 33.4892L284.621 33.4211L288.038 24.9512C287.904 24.9916 287.773 25.0404 287.645 25.0973C284.258 27.005 280.824 28.832 277.641 31.0885C276.25 32.0746 274.875 33.0714 273.839 34.4637C273.755 34.5766 273.602 34.6367 273.484 34.7219L273.372 34.6044C273.46 34.4708 273.543 34.3355 273.638 34.2046C276.18 30.9163 279.218 28.1749 282.625 25.8253C285.201 24.0494 287.739 22.2241 290.295 20.4222C290.429 20.3214 290.589 20.262 290.755 20.251C290.648 20.52 290.54 20.7889 290.426 21.0776C290.41 21.1188 290.393 21.1609 290.376 21.2031C290.359 21.2452 290.335 21.3062 290.314 21.3564C290.15 21.7678 289.99 22.1632 289.81 22.606C289.889 22.5987 289.967 22.5822 290.043 22.5567C292.11 21.3259 294.16 20.0628 296.016 18.5163C297.164 17.5598 298.183 16.4813 298.859 15.116C298.913 15.0232 298.974 14.9348 299.042 14.8516L299.15 14.8785Z" fill="#FB555C"/>
<path d="M280.85 58.7291L280.941 58.6504C280.911 58.6757 280.88 58.7029 280.85 58.7291Z" fill="#FF595F"/>
<path d="M271.579 34.4231C270.235 31.0798 268.891 27.7369 267.545 24.3942C267.279 23.73 267.271 23.7318 267.894 23.4081C267.946 23.3839 267.999 23.3623 268.052 23.3436C268.808 23.0504 269.549 23.0056 270.286 23.5336C270.357 23.3077 270.418 23.1356 270.464 22.959C270.803 21.7111 270.358 20.9088 269.153 20.4973C268.816 20.3816 268.519 20.1387 268.202 19.9594C267.884 19.7801 267.574 19.53 267.224 19.4305C265.974 19.0805 264.659 19.0405 263.39 19.3139C262.501 19.4932 261.982 19.9988 261.762 20.8855C260.663 25.3284 259.556 29.7695 258.441 34.2088C258.395 34.3944 258.371 34.5862 258.337 34.7754L258.459 34.8319L258.852 34.2716L259.029 34.0179L259.127 33.8771L259.227 33.7346L259.9 32.735L260.577 31.7453L261.926 29.7471C262.15 29.413 262.376 29.0786 262.603 28.7439C263.053 28.0752 263.507 27.4034 263.962 26.7287L264.648 25.7121L271.556 34.8068L271.666 34.7386C271.643 34.6318 271.614 34.5265 271.579 34.4231ZM266.56 21.3346L266.53 21.3436L266.497 21.348H266.474H266.426C266.391 21.348 266.355 21.3382 266.315 21.331C266.276 21.3238 266.252 21.3211 266.221 21.3185L266.205 21.3131C265.903 21.2082 265.616 21.1087 265.339 21.011C265.174 20.9512 265.012 20.8914 264.85 20.8317L264.514 20.7062C264.444 20.6802 264.406 20.5726 264.354 20.5027C264.434 20.4596 264.52 20.3709 264.591 20.3825C264.946 20.4372 265.296 20.5152 265.647 20.5914C265.97 20.6613 266.296 20.7232 266.611 20.8209C266.74 20.8613 266.843 20.9859 266.958 21.0728C266.835 21.1757 266.702 21.2644 266.56 21.3373V21.3346Z" fill="#FBFBFB"/>
<path d="M295.627 26.8945C295.587 27.2217 295.555 27.5516 295.503 27.8806C295.101 30.4159 293.973 32.588 292.305 34.5047C290.658 36.3918 288.723 37.9301 286.68 39.3456C285.045 40.4761 283.393 41.5752 281.758 42.7119C281.326 43.0122 280.959 43.3995 280.554 43.7473L280.449 43.6917C281.009 42.3183 281.571 40.9449 282.144 39.5402C282.201 39.4021 282.257 39.2649 282.314 39.1296L282.829 37.8853L282.696 37.7508C281.469 38.528 280.216 39.2658 279.023 40.0924C277.83 40.9189 276.713 41.8244 275.496 42.6554C275.551 42.5223 275.62 42.3952 275.701 42.2762C278.076 39.4406 280.806 37.0193 283.984 35.1376C286.205 33.8243 288.459 32.58 290.673 31.2603C292.17 30.3639 293.63 29.4055 294.717 27.9882C294.996 27.6261 295.249 27.2433 295.627 26.8945Z" fill="#FB555C"/>
<path d="M247.119 37.8596C247.906 39.7744 248.692 41.6893 249.522 43.709C249.345 43.6257 249.266 43.6095 249.217 43.5602C247.941 42.3052 246.384 41.4356 244.918 40.445C243.008 39.1532 241.098 37.8578 239.402 36.2809C237.382 34.3983 235.65 32.314 234.871 29.5842C234.662 28.85 234.545 28.088 234.395 27.3368C234.383 27.2128 234.383 27.0879 234.395 26.9638L234.513 26.8652C234.548 26.955 234.588 27.0427 234.633 27.1279C235.535 28.6286 236.82 29.7357 238.283 30.6304C239.793 31.5538 241.342 32.4144 242.903 33.3198C243.513 33.6695 244.122 34.0191 244.726 34.3741L245.037 34.5588C245.189 34.6484 245.34 34.738 245.49 34.8277L245.499 34.8331L245.985 35.1298C246.085 35.1908 246.184 35.2526 246.283 35.3154L246.502 35.4534C246.843 35.6692 247.182 35.8906 247.517 36.1177L247.763 36.2863C247.88 36.366 247.996 36.4476 248.111 36.5301L248.148 36.5561C248.263 36.6377 248.378 36.721 248.493 36.8044C249.121 37.2643 249.731 37.7502 250.317 38.271L250.471 38.4082L250.615 38.5391C250.676 38.5956 250.738 38.652 250.798 38.7094C251.992 39.8354 253.092 41.0627 254.226 42.2514C254.322 42.3733 254.373 42.5252 254.37 42.6808C252.169 40.7543 249.725 39.2258 247.235 37.7654L247.119 37.8596Z" fill="#FB555B"/>
<path d="M239.984 20.0011C239.834 19.9527 239.775 19.9509 239.741 19.9213C237.741 18.1589 235.689 16.4547 234.048 14.3157C232.105 11.7832 230.752 8.99156 230.184 5.83688C230.087 5.29899 230.041 4.74677 229.977 4.19992C229.976 4.07463 229.983 3.94938 230 3.8252C230.08 3.90472 230.153 3.9911 230.219 4.08338C231.27 6.03679 232.788 7.57962 234.582 8.80778C235.648 9.53572 236.19 10.5218 236.613 11.6675C236.998 12.7119 237.442 13.7348 237.872 14.7989C238.441 16.2019 239.003 17.5842 239.58 19.0078L239.781 19.5027L239.984 20.0011Z" fill="#FB555B"/>
<path d="M299.924 3.9082C299.924 4.03909 299.917 4.16908 299.911 4.29906C299.911 4.35106 299.906 4.40395 299.903 4.45595L299.897 4.54559C299.897 4.59311 299.891 4.64152 299.887 4.68903C299.882 4.73654 299.879 4.79212 299.874 4.84322C299.869 4.90956 299.863 4.9759 299.856 5.04134C299.849 5.10679 299.841 5.18568 299.832 5.25739C299.8 5.53171 299.76 5.80394 299.712 6.07408L299.698 6.14669C299.675 6.27758 299.65 6.40757 299.622 6.53666C299.608 6.60748 299.592 6.6792 299.576 6.75002C299.56 6.82084 299.543 6.89256 299.526 6.96338C299.509 7.0342 299.497 7.08709 299.481 7.14895C299.403 7.45614 299.316 7.76124 299.22 8.06425C299.204 8.11893 299.186 8.17361 299.168 8.2283C299.15 8.28298 299.133 8.33319 299.116 8.38518L299.062 8.54206C299.027 8.64606 298.989 8.75005 298.952 8.85314C298.724 9.47529 298.463 10.0912 298.173 10.7026C298.122 10.8039 298.072 10.9043 298.019 11.0038C297.919 11.1956 297.817 11.3857 297.711 11.573C297.656 11.6708 297.6 11.7685 297.544 11.8653C297.488 11.9621 297.445 12.0338 297.395 12.1172C297.344 12.2006 297.306 12.2714 297.254 12.3476C297.201 12.4238 297.171 12.4812 297.129 12.5466C297.122 12.5596 297.114 12.5721 297.105 12.5843C296.986 12.7725 296.864 12.9581 296.738 13.141C296.612 13.3238 296.487 13.5049 296.356 13.6833L296.198 13.8985C296.093 14.0413 295.986 14.1821 295.876 14.3207L295.794 14.4256C295.767 14.4606 295.74 14.4946 295.711 14.5296L295.631 14.6291C295.567 14.708 295.503 14.7869 295.438 14.8649C295.374 14.9429 295.309 15.0209 295.243 15.0989C295.177 15.1769 295.102 15.2647 295.03 15.3463C294.94 15.4485 294.851 15.5498 294.763 15.6502C294.717 15.7022 294.67 15.7542 294.622 15.8062L294.473 15.9586C294.418 16.0186 294.362 16.0787 294.305 16.1379C294.248 16.197 294.216 16.2329 294.169 16.2804C294.14 16.31 294.112 16.3387 294.08 16.3701C294.025 16.4274 293.97 16.4839 293.914 16.5404C293.858 16.5969 293.817 16.639 293.768 16.6865L293.633 16.821C293.527 16.9268 293.42 17.0308 293.312 17.133C293.228 17.2142 293.142 17.2949 293.057 17.375L292.879 17.5408C292.696 17.7112 292.51 17.8791 292.322 18.0447C292.212 18.1427 292.101 18.2395 291.99 18.3351C291.823 18.4786 291.655 18.6211 291.485 18.7627C291.035 19.1375 290.604 19.5328 290.164 19.9192L290.061 19.8573C290.194 19.5068 290.319 19.1527 290.461 18.8049C291.547 16.128 292.649 13.4574 293.718 10.7734C293.997 10.0768 294.39 9.51832 295.005 9.08712C296.371 8.11714 297.644 7.03151 298.671 5.6886C299.109 5.11934 299.477 4.49629 299.924 3.9082Z" fill="#FB555C"/>
<path d="M265.399 35.8076H264.51C264.54 35.6382 264.567 35.4768 264.599 35.311C264.608 35.2617 264.616 35.2115 264.625 35.1604C264.634 35.1093 264.638 35.0806 264.645 35.0394C264.645 35.0268 264.645 35.0152 264.652 35.0026C264.674 34.8941 264.695 34.7875 264.717 34.6826C264.74 34.5777 264.764 34.454 264.787 34.3419L264.845 34.0577C264.845 34.0461 264.845 34.0353 264.852 34.0237C264.874 33.9188 264.896 33.8139 264.917 33.709L265.083 33.6982C265.183 34.3849 265.288 35.0716 265.399 35.8076Z" fill="#E8E8E8"/>
<path d="M266.188 21.3108C265.606 21.1073 265.056 20.9164 264.511 20.7093C264.442 20.6833 264.404 20.5757 264.351 20.5058C264.431 20.4628 264.517 20.3749 264.589 20.3857C264.944 20.4404 265.294 20.5192 265.645 20.5945C265.967 20.6645 266.293 20.7263 266.609 20.824C266.738 20.8644 266.84 20.9899 266.954 21.076C266.833 21.1779 266.7 21.2657 266.559 21.3377C266.463 21.3754 266.335 21.3288 266.188 21.3108Z" fill="#1B1B1B"/>
<mask id="mask0_288_2887" style="mask-type:alpha" maskUnits="userSpaceOnUse" x="250" y="49" width="15" height="15">
<ellipse cx="257.622" cy="56.1036" rx="6.85599" ry="6.91806" fill="#D9D9D9"/>
</mask>
<g mask="url(#mask0_288_2887)">
<rect width="3.65753" height="3.65753" rx="0.491543" transform="matrix(0.703913 -0.710286 0.703913 0.710286 252.64 53.7715)" fill="#FB555B"/>
<rect width="3.65753" height="3.65753" rx="0.491543" transform="matrix(0.703913 -0.710286 0.703913 0.710286 257.164 53.7715)" fill="#FB555B"/>
<rect width="3.65753" height="3.65753" rx="0.491543" transform="matrix(0.703913 -0.710286 0.703913 0.710286 261.69 53.7715)" fill="#FB555B"/>
<rect width="3.65753" height="3.65753" rx="0.491543" transform="matrix(0.703913 -0.710286 0.703913 0.710286 248.114 53.7715)" fill="#FB555B"/>
<rect width="3.65753" height="3.65753" rx="0.491543" transform="matrix(0.703913 -0.710286 0.703913 0.710286 252.64 49.2051)" fill="#FB555B"/>
<rect width="3.65753" height="3.65753" rx="0.491543" transform="matrix(0.703913 -0.710286 0.703913 0.710286 257.164 49.2051)" fill="#FB555B"/>
<rect width="3.65753" height="3.65753" rx="0.491543" transform="matrix(0.703913 -0.710286 0.703913 0.710286 261.69 49.2051)" fill="#FB555B"/>
<rect width="3.65753" height="3.65753" rx="0.491543" transform="matrix(0.703913 -0.710286 0.703913 0.710286 248.114 49.2051)" fill="#FB555B"/>
<rect width="3.65753" height="3.65753" rx="0.491543" transform="matrix(0.703913 -0.710286 0.703913 0.710286 252.64 58.3369)" fill="#FB555B"/>
<rect width="3.65753" height="3.65753" rx="0.491543" transform="matrix(0.703913 -0.710286 0.703913 0.710286 257.164 58.3369)" fill="#FB555B"/>
<rect width="3.65753" height="3.65753" rx="0.491543" transform="matrix(0.703913 -0.710286 0.703913 0.710286 261.69 58.3369)" fill="#FB555B"/>
<rect width="3.65753" height="3.65753" rx="0.491543" transform="matrix(0.703913 -0.710286 0.703913 0.710286 248.114 58.3369)" fill="#FB555B"/>
<rect width="3.65753" height="3.65753" rx="0.491543" transform="matrix(0.703913 -0.710286 0.703913 0.710286 252.64 62.9033)" fill="#FB555B"/>
<rect width="3.65753" height="3.65753" rx="0.491543" transform="matrix(0.703913 -0.710286 0.703913 0.710286 257.164 62.9033)" fill="#FB555B"/>
<rect width="3.65753" height="3.65753" rx="0.491543" transform="matrix(0.703913 -0.710286 0.703913 0.710286 261.69 62.9033)" fill="#FB555B"/>
<rect width="3.65753" height="3.65753" rx="0.491543" transform="matrix(0.703913 -0.710286 0.703913 0.710286 248.114 62.9033)" fill="#FB555B"/>
<rect width="2.93528" height="2.93528" rx="0.245771" transform="matrix(0.703913 -0.710286 0.703913 0.710286 255.385 51.4756)" fill="#F7F7F7"/>
<rect width="2.93528" height="2.93528" rx="0.245771" transform="matrix(0.703913 -0.710286 0.703913 0.710286 255.385 56.042)" fill="#F7F7F7"/>
<rect width="2.93528" height="2.93528" rx="0.245771" transform="matrix(0.703913 -0.710286 0.703913 0.710286 255.385 60.6074)" fill="#F7F7F7"/>
<rect width="2.93528" height="2.93528" rx="0.245771" transform="matrix(0.703913 -0.710286 0.703913 0.710286 250.923 51.4473)" fill="#F7F7F7"/>
<rect width="2.93528" height="2.93528" rx="0.245771" transform="matrix(0.703913 -0.710286 0.703913 0.710286 250.923 56.0137)" fill="#F7F7F7"/>
<rect width="2.93528" height="2.93528" rx="0.245771" transform="matrix(0.703913 -0.710286 0.703913 0.710286 250.923 60.5791)" fill="#F7F7F7"/>
<rect width="2.93528" height="2.93528" rx="0.245771" transform="matrix(0.703913 -0.710286 0.703913 0.710286 259.973 51.4473)" fill="#F7F7F7"/>
<rect width="2.93528" height="2.93528" rx="0.245771" transform="matrix(0.703913 -0.710286 0.703913 0.710286 259.973 56.0137)" fill="#F7F7F7"/>
<rect width="2.93528" height="2.93528" rx="0.245771" transform="matrix(0.703913 -0.710286 0.703913 0.710286 259.973 60.5791)" fill="#F7F7F7"/>
</g>
<mask id="mask1_288_2887" style="mask-type:alpha" maskUnits="userSpaceOnUse" x="265" y="49" width="14" height="14">
<ellipse cx="271.926" cy="56.0138" rx="6.85599" ry="6.91806" fill="#D9D9D9"/>
</mask>
<g mask="url(#mask1_288_2887)">
<rect width="3.65753" height="3.65753" rx="0.491543" transform="matrix(0.703913 -0.710286 0.703913 0.710286 266.943 53.6816)" fill="#FB555B"/>
<rect width="3.65753" height="3.65753" rx="0.491543" transform="matrix(0.703913 -0.710286 0.703913 0.710286 271.468 53.6816)" fill="#FB555B"/>
<rect width="3.65753" height="3.65753" rx="0.491543" transform="matrix(0.703913 -0.710286 0.703913 0.710286 275.993 53.6816)" fill="#FB555B"/>
<rect width="3.65753" height="3.65753" rx="0.491543" transform="matrix(0.703913 -0.710286 0.703913 0.710286 262.418 53.6816)" fill="#FB555B"/>
<rect width="3.65753" height="3.65753" rx="0.491543" transform="matrix(0.703913 -0.710286 0.703913 0.710286 266.943 49.1152)" fill="#FB555B"/>
<rect width="3.65753" height="3.65753" rx="0.491543" transform="matrix(0.703913 -0.710286 0.703913 0.710286 271.468 49.1152)" fill="#FB555B"/>
<rect width="3.65753" height="3.65753" rx="0.491543" transform="matrix(0.703913 -0.710286 0.703913 0.710286 275.993 49.1152)" fill="#FB555B"/>
<rect width="3.65753" height="3.65753" rx="0.491543" transform="matrix(0.703913 -0.710286 0.703913 0.710286 262.418 49.1152)" fill="#FB555B"/>
<rect width="3.65753" height="3.65753" rx="0.491543" transform="matrix(0.703913 -0.710286 0.703913 0.710286 266.943 58.2471)" fill="#FB555B"/>
<rect width="3.65753" height="3.65753" rx="0.491543" transform="matrix(0.703913 -0.710286 0.703913 0.710286 271.468 58.2471)" fill="#FB555B"/>
<rect width="3.65753" height="3.65753" rx="0.491543" transform="matrix(0.703913 -0.710286 0.703913 0.710286 275.993 58.2471)" fill="#FB555B"/>
<rect width="3.65753" height="3.65753" rx="0.491543" transform="matrix(0.703913 -0.710286 0.703913 0.710286 262.418 58.2471)" fill="#FB555B"/>
<rect width="3.65753" height="3.65753" rx="0.491543" transform="matrix(0.703913 -0.710286 0.703913 0.710286 266.943 62.8135)" fill="#FB555B"/>
<rect width="3.65753" height="3.65753" rx="0.491543" transform="matrix(0.703913 -0.710286 0.703913 0.710286 271.468 62.8135)" fill="#FB555B"/>
<rect width="3.65753" height="3.65753" rx="0.491543" transform="matrix(0.703913 -0.710286 0.703913 0.710286 275.993 62.8135)" fill="#FB555B"/>
<rect width="3.65753" height="3.65753" rx="0.491543" transform="matrix(0.703913 -0.710286 0.703913 0.710286 262.418 62.8135)" fill="#FB555B"/>
<rect width="2.93528" height="2.93528" rx="0.245771" transform="matrix(0.703913 -0.710286 0.703913 0.710286 269.689 51.3857)" fill="#F7F7F7"/>
<rect width="2.93528" height="2.93528" rx="0.245771" transform="matrix(0.703913 -0.710286 0.703913 0.710286 269.689 55.9521)" fill="#F7F7F7"/>
<rect width="2.93528" height="2.93528" rx="0.245771" transform="matrix(0.703913 -0.710286 0.703913 0.710286 269.689 60.5176)" fill="#F7F7F7"/>
<rect width="2.93528" height="2.93528" rx="0.245771" transform="matrix(0.703913 -0.710286 0.703913 0.710286 265.227 51.3584)" fill="#F7F7F7"/>
<rect width="2.93528" height="2.93528" rx="0.245771" transform="matrix(0.703913 -0.710286 0.703913 0.710286 265.227 55.9238)" fill="#F7F7F7"/>
<rect width="2.93528" height="2.93528" rx="0.245771" transform="matrix(0.703913 -0.710286 0.703913 0.710286 265.227 60.4893)" fill="#F7F7F7"/>
<rect width="2.93528" height="2.93528" rx="0.245771" transform="matrix(0.703913 -0.710286 0.703913 0.710286 274.277 51.3584)" fill="#F7F7F7"/>
<rect width="2.93528" height="2.93528" rx="0.245771" transform="matrix(0.703913 -0.710286 0.703913 0.710286 274.277 55.9238)" fill="#F7F7F7"/>
<rect width="2.93528" height="2.93528" rx="0.245771" transform="matrix(0.703913 -0.710286 0.703913 0.710286 274.277 60.4893)" fill="#F7F7F7"/>
</g>
<mask id="mask2_288_2887" style="mask-type:alpha" maskUnits="userSpaceOnUse" x="258" y="39" width="14" height="15">
<ellipse cx="264.996" cy="46.5118" rx="6.85599" ry="6.91806" fill="#D9D9D9"/>
</mask>
<g mask="url(#mask2_288_2887)">
<rect width="3.65753" height="3.65753" rx="0.491543" transform="matrix(0.703913 -0.710286 0.703913 0.710286 260.013 44.1797)" fill="#FB555B"/>
<rect width="3.65753" height="3.65753" rx="0.491543" transform="matrix(0.703913 -0.710286 0.703913 0.710286 264.538 44.1797)" fill="#FB555B"/>
<rect width="3.65753" height="3.65753" rx="0.491543" transform="matrix(0.703913 -0.710286 0.703913 0.710286 269.063 44.1797)" fill="#FB555B"/>
<rect width="3.65753" height="3.65753" rx="0.491543" transform="matrix(0.703913 -0.710286 0.703913 0.710286 255.488 44.1797)" fill="#FB555B"/>
<rect width="3.65753" height="3.65753" rx="0.491543" transform="matrix(0.703913 -0.710286 0.703913 0.710286 260.013 39.6133)" fill="#FB555B"/>
<rect width="3.65753" height="3.65753" rx="0.491543" transform="matrix(0.703913 -0.710286 0.703913 0.710286 264.538 39.6133)" fill="#FB555B"/>
<rect width="3.65753" height="3.65753" rx="0.491543" transform="matrix(0.703913 -0.710286 0.703913 0.710286 269.063 39.6133)" fill="#FB555B"/>
<rect width="3.65753" height="3.65753" rx="0.491543" transform="matrix(0.703913 -0.710286 0.703913 0.710286 255.488 39.6133)" fill="#FB555B"/>
<rect width="3.65753" height="3.65753" rx="0.491543" transform="matrix(0.703913 -0.710286 0.703913 0.710286 260.013 48.7451)" fill="#FB555B"/>
<rect width="3.65753" height="3.65753" rx="0.491543" transform="matrix(0.703913 -0.710286 0.703913 0.710286 264.538 48.7451)" fill="#FB555B"/>
<rect width="3.65753" height="3.65753" rx="0.491543" transform="matrix(0.703913 -0.710286 0.703913 0.710286 269.063 48.7451)" fill="#FB555B"/>
<rect width="3.65753" height="3.65753" rx="0.491543" transform="matrix(0.703913 -0.710286 0.703913 0.710286 255.488 48.7451)" fill="#FB555B"/>
<rect width="3.65753" height="3.65753" rx="0.491543" transform="matrix(0.703913 -0.710286 0.703913 0.710286 260.013 53.3115)" fill="#FB555B"/>
<rect width="3.65753" height="3.65753" rx="0.491543" transform="matrix(0.703913 -0.710286 0.703913 0.710286 264.538 53.3115)" fill="#FB555B"/>
<rect width="3.65753" height="3.65753" rx="0.491543" transform="matrix(0.703913 -0.710286 0.703913 0.710286 269.063 53.3115)" fill="#FB555B"/>
<rect width="3.65753" height="3.65753" rx="0.491543" transform="matrix(0.703913 -0.710286 0.703913 0.710286 255.488 53.3115)" fill="#FB555B"/>
<rect width="2.93528" height="2.93528" rx="0.245771" transform="matrix(0.703913 -0.710286 0.703913 0.710286 262.759 41.8838)" fill="#F7F7F7"/>
<rect width="2.93528" height="2.93528" rx="0.245771" transform="matrix(0.703913 -0.710286 0.703913 0.710286 262.759 46.4502)" fill="#F7F7F7"/>
<rect width="2.93528" height="2.93528" rx="0.245771" transform="matrix(0.703913 -0.710286 0.703913 0.710286 262.759 51.0156)" fill="#F7F7F7"/>
<rect width="2.93528" height="2.93528" rx="0.245771" transform="matrix(0.703913 -0.710286 0.703913 0.710286 258.297 41.8555)" fill="#F7F7F7"/>
<rect width="2.93528" height="2.93528" rx="0.245771" transform="matrix(0.703913 -0.710286 0.703913 0.710286 258.297 46.4219)" fill="#F7F7F7"/>
<rect width="2.93528" height="2.93528" rx="0.245771" transform="matrix(0.703913 -0.710286 0.703913 0.710286 258.297 50.9883)" fill="#F7F7F7"/>
<rect width="2.93528" height="2.93528" rx="0.245771" transform="matrix(0.703913 -0.710286 0.703913 0.710286 267.347 41.8555)" fill="#F7F7F7"/>
<rect width="2.93528" height="2.93528" rx="0.245771" transform="matrix(0.703913 -0.710286 0.703913 0.710286 267.347 46.4219)" fill="#F7F7F7"/>
<rect width="2.93528" height="2.93528" rx="0.245771" transform="matrix(0.703913 -0.710286 0.703913 0.710286 267.347 50.9883)" fill="#F7F7F7"/>
</g>
<path d="M264.827 60.2736C268.302 60.2736 271.119 57.4308 271.119 53.9239C271.119 50.4171 268.302 47.5742 264.827 47.5742C261.351 47.5742 258.534 50.4171 258.534 53.9239C258.534 57.4308 261.351 60.2736 264.827 60.2736Z" fill="white" stroke="black" stroke-width="0.97492"/>
</g>
<defs>
<clipPath id="clip0_288_2887">
<rect width="72" height="64" fill="white" transform="translate(229)"/>
</clipPath>
</defs>
</svg>
