<svg xmlns="http://www.w3.org/2000/svg" xmlns:xlink="http://www.w3.org/1999/xlink" zoomAndPan="magnify" preserveAspectRatio="xMidYMid meet" version="1.0" viewBox="81.5 243.01 1273.62 319.16"><defs fill="#ffffff"><clipPath id="bd0483447c" fill="#ffffff"><path d="M 81.496094 443 L 132 443 L 132 490 L 81.496094 490 Z M 81.496094 443 " clip-rule="nonzero" fill="#ffffff"/></clipPath><clipPath id="4e198360b8" fill="#ffffff"><path d="M 817 455 L 854 455 L 854 502.988281 L 817 502.988281 Z M 817 455 " clip-rule="nonzero" fill="#ffffff"/></clipPath><clipPath id="76dbf9e1d6" fill="#ffffff"><path d="M 942 455 L 982.246094 455 L 982.246094 502.988281 L 942 502.988281 Z M 942 455 " clip-rule="nonzero" fill="#ffffff"/></clipPath></defs><path fill="#ffffff" d="M 1261.996094 425.164062 L 1295.636719 425.164062 C 1303.867188 425.164062 1310.53125 431.8125 1310.53125 440.023438 L 1310.53125 503.191406 C 1310.53125 511.402344 1303.867188 518.050781 1295.636719 518.050781 L 1088.882812 518.050781 C 1080.652344 518.050781 1073.984375 511.402344 1073.984375 503.191406 L 1073.984375 480.253906 C 1063.570312 492.617188 1047.953125 500.476562 1030.488281 500.476562 C 1030.246094 500.476562 1030.007812 500.476562 1029.765625 500.476562 L 1029.765625 535.710938 C 1029.765625 550.320312 1041.636719 562.171875 1056.289062 562.171875 L 1328.578125 562.171875 C 1343.222656 562.171875 1355.101562 550.332031 1355.101562 535.710938 L 1355.101562 411.875 C 1355.101562 394.667969 1341.125 380.726562 1323.878906 380.726562 L 1089.242188 380.726562 C 1081.011719 380.726562 1074.34375 374.074219 1074.34375 365.867188 L 1074.34375 302.339844 C 1074.34375 294.128906 1081.011719 287.480469 1089.242188 287.480469 L 1295.996094 287.480469 C 1304.226562 287.480469 1310.894531 294.128906 1310.894531 302.339844 L 1310.894531 325.417969 C 1329.296875 324.503906 1345.40625 314.84375 1355.113281 300.519531 L 1355.113281 269.46875 C 1355.113281 254.859375 1343.242188 243.007812 1328.589844 243.007812 L 1056.300781 243.007812 C 1041.65625 243.007812 1029.777344 254.847656 1029.777344 269.46875 L 1029.777344 394.027344 C 1029.777344 411.230469 1043.753906 425.175781 1061 425.175781 L 1261.996094 425.175781 Z M 1261.996094 425.164062 " fill-opacity="1" fill-rule="nonzero"/><path fill="#ffffff" d="M 1169.132812 320.996094 L 1124.554688 320.996094 L 1124.554688 484.15625 L 1169.132812 484.15625 Z M 1169.132812 320.996094 " fill-opacity="1" fill-rule="nonzero"/><path fill="#ffffff" d="M 1263.253906 320.996094 L 1218.6875 320.996094 L 1218.6875 484.15625 L 1263.253906 484.15625 Z M 1263.253906 320.996094 " fill-opacity="1" fill-rule="nonzero"/><path fill="#ffffff" d="M 157.324219 365.019531 C 157.324219 373.636719 152.261719 378.695312 143.316406 378.695312 L 113.320312 378.695312 C 95.003906 378.695312 85.894531 370.988281 85.894531 355.496094 L 85.894531 341.085938 L 97.335938 341.085938 L 97.335938 355.496094 C 97.335938 360.382812 98.902344 363.78125 101.972656 365.523438 C 104.371094 366.929688 108.195312 367.589844 113.570312 367.589844 L 134.945312 367.589844 C 138.265625 367.589844 140.496094 367.339844 141.746094 366.761719 C 144.472656 365.601562 145.882812 363.03125 145.882812 359.132812 L 145.882812 341.152344 L 157.324219 341.152344 Z M 119.539062 341.164062 L 109.183594 341.164062 L 109.183594 331.558594 L 119.539062 331.558594 Z M 135.210938 341.164062 L 124.851562 341.164062 L 124.851562 331.558594 L 135.210938 331.558594 Z M 135.210938 341.164062 " fill-opacity="1" fill-rule="nonzero"/><path fill="#ffffff" d="M 165.785156 325.246094 L 177.382812 325.246094 L 177.382812 378.679688 L 165.785156 378.679688 Z M 165.785156 325.246094 " fill-opacity="1" fill-rule="nonzero"/><path fill="#ffffff" d="M 208.535156 371.066406 C 208.535156 378.695312 206.625 384.160156 202.734375 387.546875 C 199.175781 390.773438 193.367188 392.355469 185.417969 392.355469 L 185.417969 382.988281 C 193.050781 382.988281 196.859375 379.339844 196.859375 372.054688 L 196.859375 341.152344 L 208.546875 341.152344 L 208.546875 371.054688 Z M 208.535156 371.066406 " fill-opacity="1" fill-rule="nonzero"/><path fill="#ffffff" d="M 241.929688 378.679688 L 230.992188 378.679688 C 222.121094 378.679688 216.984375 373.539062 216.984375 365.003906 L 216.984375 325.246094 L 228.578125 325.246094 L 228.578125 358.957031 C 228.578125 364.597656 229.992188 367.574219 238.53125 367.574219 L 241.929688 367.574219 Z M 241.929688 378.679688 " fill-opacity="1" fill-rule="nonzero"/><path fill="#ffffff" d="M 248.808594 392.433594 L 238.53125 392.433594 L 238.53125 382.832031 L 248.808594 382.832031 Z M 277.734375 378.683594 L 240.441406 378.683594 L 240.441406 367.578125 L 248.058594 367.578125 C 251.957031 367.578125 253.855469 364.929688 253.855469 359.621094 L 253.855469 341.152344 L 265.546875 341.152344 L 265.546875 359.210938 C 265.546875 362.28125 265.136719 365.007812 264.214844 367.578125 L 277.722656 367.578125 L 277.722656 378.683594 Z M 264.386719 392.433594 L 254.105469 392.433594 L 254.105469 382.832031 L 264.386719 382.832031 Z M 264.386719 392.433594 " fill-opacity="1" fill-rule="nonzero"/><path fill="#ffffff" d="M 361.261719 378.683594 L 275.902344 378.683594 L 275.902344 367.578125 L 284.695312 367.578125 C 288.5 367.578125 290.570312 365.507812 290.570312 359.710938 L 290.570312 341.152344 L 302.261719 341.152344 L 302.261719 359.210938 C 302.261719 362.28125 301.757812 365.085938 300.851562 367.578125 L 308.230469 367.578125 C 312.128906 367.578125 314.109375 365.085938 314.109375 360.121094 L 314.109375 341.152344 L 325.703125 341.152344 L 325.703125 359.210938 C 325.703125 362.28125 325.203125 365.085938 324.296875 367.578125 L 331.675781 367.578125 C 335.574219 367.578125 337.550781 365.085938 337.550781 360.121094 L 337.550781 341.152344 L 349.242188 341.152344 L 349.242188 359.132812 C 349.242188 362.203125 348.742188 365.007812 347.753906 367.578125 L 361.261719 367.578125 Z M 361.261719 378.683594 " fill-opacity="1" fill-rule="nonzero"/><path fill="#ffffff" d="M 396.644531 378.679688 L 359.023438 378.679688 L 359.023438 367.574219 L 366.886719 367.574219 C 370.789062 367.574219 372.765625 364.925781 372.765625 359.617188 L 372.765625 325.328125 L 384.457031 325.328125 L 384.457031 359.207031 C 384.457031 362.277344 383.953125 365.003906 383.046875 367.574219 L 396.632812 367.574219 L 396.632812 378.679688 Z M 396.644531 378.679688 " fill-opacity="1" fill-rule="nonzero"/><path fill="#ffffff" d="M 419.179688 362.703125 C 419.179688 367.089844 417.941406 370.738281 415.527344 373.636719 C 412.789062 377.035156 408.980469 378.695312 404.089844 378.695312 L 393.152344 378.695312 L 393.152344 367.589844 L 401.691406 367.589844 C 405.59375 367.589844 407.570312 364.851562 407.570312 359.476562 L 407.570312 325.34375 L 419.167969 325.34375 L 419.167969 362.703125 Z M 419.179688 362.703125 " fill-opacity="1" fill-rule="nonzero"/><path fill="#ffffff" d="M 501.21875 354.496094 L 501.21875 364.191406 C 501.21875 372.226562 498.398438 378.929688 492.675781 384.320312 C 486.957031 389.707031 480 392.433594 471.632812 392.433594 L 471.128906 392.433594 C 462.761719 392.433594 455.710938 389.695312 449.992188 384.320312 C 444.273438 378.929688 441.453125 372.226562 441.453125 364.191406 L 441.453125 354.242188 L 453.050781 354.242188 L 453.050781 363.109375 C 453.050781 366.417969 453.550781 369.328125 454.539062 371.804688 C 457.109375 377.773438 463.40625 381.660156 471.367188 381.660156 C 479.328125 381.660156 485.535156 377.757812 488.105469 371.804688 C 488.855469 369.988281 489.34375 367.824219 489.515625 365.429688 L 467.886719 365.429688 C 467.886719 357.0625 470.207031 350.34375 474.769531 345.128906 C 479.40625 339.910156 485.535156 337.261719 493.085938 337.261719 L 498.054688 337.261719 L 498.054688 348.527344 L 493.085938 348.527344 C 488.367188 348.527344 484.71875 350.515625 481.976562 354.496094 Z M 468.902344 409.664062 L 458.625 409.664062 L 458.625 400.140625 L 468.902344 400.140625 Z M 484.558594 409.664062 L 474.28125 409.664062 L 474.28125 400.140625 L 484.558594 400.140625 Z M 484.558594 409.664062 " fill-opacity="1" fill-rule="nonzero"/><path fill="#ffffff" d="M 531.304688 371.066406 C 531.304688 378.695312 529.390625 384.160156 525.503906 387.546875 C 521.945312 390.773438 516.136719 392.355469 508.1875 392.355469 L 508.1875 382.988281 C 515.820312 382.988281 519.628906 379.339844 519.628906 372.054688 L 519.628906 341.152344 L 531.316406 341.152344 L 531.316406 371.054688 Z M 531.304688 371.066406 " fill-opacity="1" fill-rule="nonzero"/><path fill="#ffffff" d="M 564.695312 378.679688 L 553.757812 378.679688 C 544.890625 378.679688 539.75 373.539062 539.75 365.003906 L 539.75 325.246094 L 551.347656 325.246094 L 551.347656 358.957031 C 551.347656 364.597656 552.757812 367.574219 561.296875 367.574219 L 564.695312 367.574219 Z M 564.695312 378.679688 " fill-opacity="1" fill-rule="nonzero"/><path fill="#ffffff" d="M 561.125 378.683594 L 561.125 367.578125 L 571.5625 367.578125 C 574.210938 367.578125 576.042969 366.339844 576.953125 363.925781 C 577.28125 363.269531 577.453125 361.859375 577.453125 359.621094 L 577.453125 341.152344 L 589.144531 341.152344 L 589.144531 359.210938 C 589.144531 362.28125 588.640625 365.085938 587.734375 367.578125 L 595.113281 367.578125 C 599.015625 367.578125 600.992188 365.085938 600.992188 360.121094 L 600.992188 341.152344 L 612.589844 341.152344 L 612.589844 359.210938 C 612.589844 362.28125 612.085938 365.085938 611.179688 367.578125 L 618.558594 367.578125 C 622.457031 367.578125 624.4375 365.085938 624.4375 360.121094 L 624.4375 341.152344 L 636.125 341.152344 L 636.125 359.132812 C 636.125 365.585938 634.132812 370.644531 630.074219 374.292969 C 626.847656 377.191406 623.117188 378.683594 618.964844 378.683594 Z M 561.125 378.683594 " fill-opacity="1" fill-rule="nonzero"/><path fill="#ffffff" d="M 711.613281 364.265625 C 711.613281 380.589844 700.921875 392.433594 685.425781 392.433594 C 670.835938 392.433594 659.242188 380.167969 659.242188 364.265625 L 659.242188 356.058594 L 670.757812 356.058594 L 670.757812 363.1875 C 670.757812 373.949219 676.476562 381.65625 685.503906 381.65625 C 694.53125 381.65625 699.921875 374.53125 699.921875 363.1875 L 699.921875 325.328125 L 711.613281 325.328125 Z M 711.613281 364.265625 " fill-opacity="1" fill-rule="nonzero"/><path fill="#ffffff" d="M 720.070312 325.246094 L 731.667969 325.246094 L 731.667969 378.679688 L 720.070312 378.679688 Z M 720.070312 325.246094 " fill-opacity="1" fill-rule="nonzero"/><path fill="#ffffff" d="M 808.816406 378.679688 L 797.125 378.679688 C 790.496094 378.679688 785.859375 375.28125 783.210938 368.496094 C 781.140625 371.722656 777.160156 373.460938 771.441406 373.460938 C 761.503906 373.460938 755.113281 364.847656 755.113281 353.414062 C 755.113281 341.070312 761.332031 333.113281 772.273438 333.113281 C 772.273438 333.035156 779.652344 333.035156 794.398438 333.035156 L 794.398438 359.128906 C 794.398438 364.597656 797.21875 367.574219 802.84375 367.574219 L 808.816406 367.574219 Z M 774.671875 325.339844 L 764.390625 325.339844 L 764.390625 315.738281 L 774.671875 315.738281 Z M 782.457031 352.503906 L 782.457031 341.570312 L 774.828125 341.570312 C 770.109375 341.570312 766.628906 346.785156 766.628906 353.253906 C 766.628906 359.050781 769.9375 363.859375 774.589844 363.859375 C 779.480469 363.859375 782.457031 359.300781 782.457031 352.515625 Z M 790.257812 325.339844 L 779.980469 325.339844 L 779.980469 315.738281 L 790.257812 315.738281 Z M 790.257812 325.339844 " fill-opacity="1" fill-rule="nonzero"/><path fill="#ffffff" d="M 864.007812 378.679688 L 803.675781 378.679688 L 803.675781 367.574219 L 851.410156 367.574219 C 850.25 358.550781 843.367188 351.753906 834.59375 351.753906 L 813.703125 351.753906 L 830.28125 325.328125 L 844.042969 325.328125 L 833.605469 341.070312 L 839.984375 341.070312 C 855.808594 342.730469 864.019531 354.902344 864.019531 374.371094 L 864.019531 378.679688 Z M 864.007812 378.679688 " fill-opacity="1" fill-rule="nonzero"/><path fill="#ffffff" d="M 906.269531 378.683594 L 893.421875 378.683594 C 891.511719 387.796875 884.050781 392.355469 870.886719 392.355469 L 870.886719 382.988281 C 878.515625 382.988281 882.324219 379.339844 882.324219 372.054688 L 882.324219 341.152344 L 894.015625 341.152344 L 894.015625 367.578125 L 906.285156 367.578125 L 906.285156 378.683594 Z M 906.269531 378.683594 " fill-opacity="1" fill-rule="nonzero"/><path fill="#ffffff" d="M 976.867188 359.128906 C 976.867188 370.472656 969.328125 378.679688 959.710938 378.679688 L 922.335938 378.679688 L 922.335938 378.757812 L 922.257812 378.679688 L 901.871094 378.679688 L 901.871094 367.574219 L 912.308594 367.574219 C 916.113281 367.574219 918.183594 365.585938 918.183594 359.617188 L 918.183594 341.148438 L 929.875 341.148438 L 929.875 359.210938 C 929.875 362.277344 929.375 365.085938 928.464844 367.574219 L 935.84375 367.574219 C 939.746094 367.574219 941.722656 365.085938 941.722656 360.117188 L 941.722656 341.148438 L 953.316406 341.148438 L 953.316406 359.210938 C 953.316406 362.277344 952.816406 365.085938 951.910156 367.574219 L 959.289062 367.574219 C 963.1875 367.574219 965.164062 365.085938 965.164062 360.117188 L 965.164062 341.148438 L 976.855469 341.148438 L 976.855469 359.128906 Z M 944.714844 334.863281 L 934.355469 334.863281 L 934.355469 325.339844 L 944.714844 325.339844 Z M 952.34375 321.203125 L 942.0625 321.203125 L 942.0625 311.679688 L 952.34375 311.679688 Z M 960.289062 334.863281 L 950.011719 334.863281 L 950.011719 325.339844 L 960.289062 325.339844 Z M 960.289062 334.863281 " fill-opacity="1" fill-rule="nonzero"/><g clip-path="url(#ffffff447c)"><path fill="#ffffff" d="M 114.632812 481.753906 L 98.410156 481.753906 L 96.15625 489.382812 L 81.558594 489.382812 L 98.9375 443.144531 L 114.527344 443.144531 L 131.90625 489.382812 L 116.9375 489.382812 L 114.617188 481.753906 Z M 111.667969 471.757812 L 106.566406 455.132812 L 101.519531 471.757812 L 111.679688 471.757812 Z M 111.667969 471.757812 " fill-opacity="1" fill-rule="nonzero"/></g><path fill="#ffffff" d="M 136.042969 443.15625 L 148.917969 443.15625 L 148.917969 489.394531 L 136.042969 489.394531 Z M 136.042969 443.15625 " fill-opacity="1" fill-rule="nonzero"/><path fill="#ffffff" d="M 177.035156 474.101562 L 190.632812 473.246094 C 190.925781 475.457031 191.53125 477.132812 192.425781 478.289062 C 193.902344 480.160156 195.996094 481.097656 198.738281 481.097656 C 200.78125 481.097656 202.347656 480.621094 203.453125 479.660156 C 204.5625 478.699219 205.113281 477.59375 205.113281 476.328125 C 205.113281 475.0625 204.589844 474.0625 203.535156 473.113281 C 202.480469 472.164062 200.042969 471.269531 196.207031 470.425781 C 189.933594 469.015625 185.46875 467.144531 182.792969 464.8125 C 180.105469 462.480469 178.761719 459.503906 178.761719 455.882812 C 178.761719 453.511719 179.445312 451.257812 180.832031 449.148438 C 182.214844 447.042969 184.28125 445.371094 187.050781 444.171875 C 189.816406 442.972656 193.613281 442.351562 198.421875 442.351562 C 204.335938 442.351562 208.84375 443.445312 211.941406 445.644531 C 215.035156 447.847656 216.882812 451.335938 217.476562 456.132812 L 204.007812 456.921875 C 203.652344 454.839844 202.902344 453.328125 201.753906 452.378906 C 200.609375 451.429688 199.027344 450.953125 197.011719 450.953125 C 195.351562 450.953125 194.097656 451.3125 193.253906 452.007812 C 192.414062 452.71875 191.992188 453.578125 191.992188 454.578125 C 191.992188 455.316406 192.332031 455.972656 193.03125 456.566406 C 193.703125 457.171875 195.296875 457.738281 197.828125 458.265625 C 204.074219 459.609375 208.554688 460.980469 211.253906 462.351562 C 213.957031 463.734375 215.921875 465.433594 217.15625 467.476562 C 218.382812 469.515625 219.003906 471.796875 219.003906 474.324219 C 219.003906 477.289062 218.1875 480.027344 216.539062 482.53125 C 214.890625 485.035156 212.601562 486.933594 209.660156 488.222656 C 206.722656 489.515625 203.007812 490.160156 198.527344 490.160156 C 190.660156 490.160156 185.21875 488.644531 182.1875 485.613281 C 179.15625 482.585938 177.445312 478.738281 177.046875 474.074219 Z M 177.035156 474.101562 " fill-opacity="1" fill-rule="nonzero"/><path fill="#ffffff" d="M 237.042969 466.75 L 224.777344 465.460938 C 225.238281 463.3125 225.910156 461.625 226.777344 460.402344 C 227.648438 459.175781 228.914062 458.109375 230.546875 457.199219 C 231.71875 456.542969 233.339844 456.039062 235.410156 455.683594 C 237.476562 455.328125 239.707031 455.144531 242.101562 455.144531 C 245.949219 455.144531 249.046875 455.355469 251.378906 455.789062 C 253.710938 456.226562 255.660156 457.121094 257.214844 458.492188 C 258.308594 459.4375 259.167969 460.78125 259.800781 462.507812 C 260.429688 464.246094 260.75 465.894531 260.75 467.476562 L 260.75 482.269531 C 260.75 483.851562 260.855469 485.074219 261.050781 485.972656 C 261.25 486.867188 261.683594 488 262.355469 489.394531 L 250.300781 489.394531 C 249.8125 488.539062 249.496094 487.882812 249.351562 487.417969 C 249.207031 486.972656 249.058594 486.261719 248.902344 485.285156 C 247.214844 486.90625 245.542969 488.066406 243.882812 488.75 C 241.613281 489.671875 238.96875 490.132812 235.960938 490.132812 C 231.96875 490.132812 228.925781 489.210938 226.859375 487.355469 C 224.789062 485.496094 223.746094 483.21875 223.746094 480.503906 C 223.746094 477.960938 224.5 475.867188 225.988281 474.234375 C 227.476562 472.585938 230.230469 471.375 234.25 470.570312 C 239.074219 469.609375 242.195312 468.925781 243.617188 468.542969 C 245.054688 468.160156 246.554688 467.644531 248.164062 467.015625 C 248.164062 465.433594 247.835938 464.328125 247.1875 463.707031 C 246.542969 463.074219 245.398438 462.757812 243.75 462.757812 C 241.640625 462.757812 240.074219 463.089844 239.019531 463.773438 C 238.203125 464.300781 237.542969 465.289062 237.03125 466.738281 Z M 248.175781 473.496094 C 246.414062 474.128906 244.566406 474.679688 242.65625 475.167969 C 240.046875 475.867188 238.398438 476.550781 237.703125 477.222656 C 236.992188 477.921875 236.632812 478.699219 236.632812 479.59375 C 236.632812 480.609375 236.992188 481.425781 237.6875 482.070312 C 238.386719 482.71875 239.429688 483.03125 240.800781 483.03125 C 242.167969 483.03125 243.554688 482.691406 244.789062 481.992188 C 246.015625 481.292969 246.898438 480.449219 247.414062 479.449219 C 247.925781 478.449219 248.191406 477.15625 248.191406 475.550781 L 248.191406 473.496094 Z M 248.175781 473.496094 " fill-opacity="1" fill-rule="nonzero"/><path fill="#ffffff" d="M 268.5625 455.894531 L 280.578125 455.894531 L 280.578125 461.390625 C 281.738281 459.019531 282.921875 457.382812 284.164062 456.488281 C 285.386719 455.59375 286.917969 455.144531 288.722656 455.144531 C 290.527344 455.144531 292.6875 455.738281 294.941406 456.910156 L 290.960938 466.050781 C 289.445312 465.421875 288.246094 465.105469 287.363281 465.105469 C 285.675781 465.105469 284.371094 465.800781 283.449219 467.183594 C 282.121094 469.148438 281.460938 472.796875 281.460938 478.160156 L 281.460938 489.382812 L 268.5625 489.382812 L 268.5625 455.882812 Z M 268.5625 455.894531 " fill-opacity="1" fill-rule="nonzero"/><path fill="#ffffff" d="M 297.589844 443.15625 L 310.4375 443.15625 L 310.4375 451.886719 L 297.589844 451.886719 Z M 297.589844 455.894531 L 310.4375 455.894531 L 310.4375 489.394531 L 297.589844 489.394531 Z M 297.589844 455.894531 " fill-opacity="1" fill-rule="nonzero"/><path fill="#ffffff" d="M 341.097656 443.15625 L 376.4375 443.15625 L 376.4375 453.085938 L 355.460938 453.085938 L 355.460938 461.164062 L 373.378906 461.164062 L 373.378906 470.503906 L 355.460938 470.503906 L 355.460938 489.394531 L 341.109375 489.394531 L 341.109375 443.15625 Z M 341.097656 443.15625 " fill-opacity="1" fill-rule="nonzero"/><path fill="#ffffff" d="M 379.496094 472.746094 C 379.496094 467.632812 381.222656 463.417969 384.675781 460.109375 C 388.128906 456.804688 392.777344 455.144531 398.65625 455.144531 C 405.363281 455.144531 410.433594 457.09375 413.859375 460.980469 C 416.613281 464.117188 418 467.976562 418 472.558594 C 418 477.710938 416.285156 481.941406 412.871094 485.21875 C 409.460938 488.511719 404.730469 490.160156 398.695312 490.160156 C 393.304688 490.160156 388.957031 488.789062 385.636719 486.0625 C 381.550781 482.675781 379.507812 478.238281 379.507812 472.757812 Z M 392.371094 472.703125 C 392.371094 475.695312 392.976562 477.894531 394.1875 479.332031 C 395.402344 480.765625 396.917969 481.476562 398.746094 481.476562 C 400.578125 481.476562 402.121094 480.765625 403.304688 479.371094 C 404.492188 477.972656 405.085938 475.695312 405.085938 472.585938 C 405.085938 469.6875 404.480469 467.527344 403.292969 466.105469 C 402.09375 464.683594 400.605469 463.972656 398.839844 463.972656 C 396.96875 463.972656 395.425781 464.695312 394.203125 466.132812 C 392.976562 467.566406 392.371094 469.765625 392.371094 472.703125 Z M 392.371094 472.703125 " fill-opacity="1" fill-rule="nonzero"/><path fill="#ffffff" d="M 424.296875 455.894531 L 436.3125 455.894531 L 436.3125 461.390625 C 437.472656 459.019531 438.660156 457.382812 439.898438 456.488281 C 441.121094 455.59375 442.652344 455.144531 444.457031 455.144531 C 446.261719 455.144531 448.421875 455.738281 450.675781 456.910156 L 446.695312 466.050781 C 445.179688 465.421875 443.980469 465.105469 443.097656 465.105469 C 441.414062 465.105469 440.109375 465.800781 439.1875 467.183594 C 437.855469 469.148438 437.195312 472.796875 437.195312 478.160156 L 437.195312 489.382812 L 424.296875 489.382812 L 424.296875 455.882812 Z M 424.296875 455.894531 " fill-opacity="1" fill-rule="nonzero"/><path fill="#ffffff" d="M 506.042969 470.460938 L 518.574219 474.242188 C 517.730469 477.761719 516.414062 480.683594 514.59375 483.042969 C 512.789062 485.402344 510.535156 487.179688 507.863281 488.378906 C 505.171875 489.578125 501.761719 490.183594 497.625 490.183594 C 492.589844 490.183594 488.492188 489.457031 485.304688 487.996094 C 482.113281 486.535156 479.359375 483.964844 477.054688 480.289062 C 474.734375 476.613281 473.589844 471.898438 473.589844 466.167969 C 473.589844 458.515625 475.617188 452.640625 479.6875 448.527344 C 483.761719 444.417969 489.519531 442.363281 496.964844 442.363281 C 502.789062 442.363281 507.375 443.535156 510.707031 445.894531 C 514.039062 448.25 516.519531 451.863281 518.140625 456.75 L 505.515625 459.554688 C 505.066406 458.144531 504.605469 457.117188 504.132812 456.460938 C 503.328125 455.367188 502.351562 454.523438 501.195312 453.929688 C 500.035156 453.335938 498.742188 453.046875 497.320312 453.046875 C 494.078125 453.046875 491.601562 454.351562 489.875 456.960938 C 488.570312 458.894531 487.925781 461.925781 487.925781 466.0625 C 487.925781 471.1875 488.703125 474.703125 490.257812 476.601562 C 491.8125 478.5 494 479.445312 496.820312 479.445312 C 499.640625 479.445312 501.617188 478.683594 503.023438 477.140625 C 504.421875 475.601562 505.4375 473.375 506.070312 470.449219 Z M 506.042969 470.460938 " fill-opacity="1" fill-rule="nonzero"/><path fill="#ffffff" d="M 536.363281 466.75 L 524.09375 465.460938 C 524.554688 463.3125 525.226562 461.625 526.097656 460.402344 C 526.96875 459.175781 528.230469 458.109375 529.867188 457.199219 C 531.039062 456.542969 532.660156 456.039062 534.726562 455.683594 C 536.796875 455.328125 539.023438 455.144531 541.421875 455.144531 C 545.269531 455.144531 548.367188 455.355469 550.699219 455.789062 C 553.03125 456.226562 554.980469 457.121094 556.535156 458.492188 C 557.628906 459.4375 558.484375 460.78125 559.117188 462.507812 C 559.75 464.246094 560.066406 465.894531 560.066406 467.476562 L 560.066406 482.269531 C 560.066406 483.851562 560.171875 485.074219 560.371094 485.972656 C 560.566406 486.867188 561.003906 488 561.675781 489.394531 L 549.617188 489.394531 C 549.128906 488.539062 548.8125 487.882812 548.667969 487.417969 C 548.523438 486.972656 548.378906 486.261719 548.222656 485.285156 C 546.535156 486.90625 544.859375 488.066406 543.199219 488.75 C 540.933594 489.671875 538.285156 490.132812 535.28125 490.132812 C 531.289062 490.132812 528.246094 489.210938 526.175781 487.355469 C 524.109375 485.496094 523.066406 483.21875 523.066406 480.503906 C 523.066406 477.960938 523.816406 475.867188 525.308594 474.234375 C 526.796875 472.585938 529.550781 471.375 533.566406 470.570312 C 538.378906 469.609375 541.515625 468.925781 542.9375 468.542969 C 544.359375 468.160156 545.875 467.644531 547.484375 467.015625 C 547.484375 465.433594 547.152344 464.328125 546.507812 463.707031 C 545.863281 463.074219 544.703125 462.757812 543.070312 462.757812 C 540.960938 462.757812 539.394531 463.089844 538.339844 463.773438 C 537.519531 464.300781 536.863281 465.289062 536.347656 466.738281 Z M 547.496094 473.496094 C 545.730469 474.128906 543.886719 474.679688 541.976562 475.167969 C 539.367188 475.867188 537.71875 476.550781 537.019531 477.222656 C 536.308594 477.921875 535.953125 478.699219 535.953125 479.59375 C 535.953125 480.609375 536.308594 481.425781 537.007812 482.070312 C 537.71875 482.71875 538.746094 483.03125 540.117188 483.03125 C 541.488281 483.03125 542.886719 482.691406 544.109375 481.992188 C 545.335938 481.292969 546.21875 480.449219 546.734375 479.449219 C 547.246094 478.449219 547.507812 477.15625 547.507812 475.550781 L 547.507812 473.496094 Z M 547.496094 473.496094 " fill-opacity="1" fill-rule="nonzero"/><path fill="#ffffff" d="M 567.882812 455.894531 L 579.898438 455.894531 L 579.898438 461.390625 C 581.058594 459.019531 582.246094 457.382812 583.484375 456.488281 C 584.710938 455.59375 586.238281 455.144531 588.042969 455.144531 C 589.847656 455.144531 592.007812 455.738281 594.261719 456.910156 L 590.28125 466.050781 C 588.769531 465.421875 587.570312 465.105469 586.6875 465.105469 C 585 465.105469 583.695312 465.800781 582.773438 467.183594 C 581.441406 469.148438 580.78125 472.796875 580.78125 478.160156 L 580.78125 489.382812 L 567.882812 489.382812 L 567.882812 455.882812 Z M 567.882812 455.894531 " fill-opacity="1" fill-rule="nonzero"/><path fill="#ffffff" d="M 595.777344 480.09375 L 608.519531 478.898438 C 609.046875 480.410156 609.785156 481.492188 610.734375 482.152344 C 611.683594 482.796875 612.945312 483.125 614.515625 483.125 C 616.242188 483.125 617.574219 482.757812 618.519531 482.019531 C 619.257812 481.480469 619.628906 480.792969 619.628906 479.976562 C 619.628906 479.054688 619.140625 478.34375 618.179688 477.828125 C 617.480469 477.472656 615.648438 477.027344 612.65625 476.511719 C 608.203125 475.734375 605.105469 475.011719 603.367188 474.351562 C 601.628906 473.691406 600.164062 472.574219 598.980469 470.992188 C 597.792969 469.410156 597.203125 467.621094 597.203125 465.605469 C 597.203125 463.40625 597.847656 461.496094 599.125 459.898438 C 600.402344 458.304688 602.167969 457.109375 604.421875 456.332031 C 606.675781 455.539062 609.691406 455.144531 613.472656 455.144531 C 617.464844 455.144531 620.417969 455.449219 622.328125 456.054688 C 624.238281 456.660156 625.820312 457.609375 627.097656 458.898438 C 628.378906 460.191406 629.429688 461.914062 630.273438 464.101562 L 618.097656 465.300781 C 617.78125 464.234375 617.253906 463.445312 616.519531 462.929688 C 615.503906 462.257812 614.292969 461.914062 612.855469 461.914062 C 611.417969 461.914062 610.351562 462.179688 609.679688 462.691406 C 609.007812 463.207031 608.691406 463.824219 608.691406 464.5625 C 608.691406 465.378906 609.113281 466 609.957031 466.421875 C 610.800781 466.84375 612.632812 467.226562 615.453125 467.554688 C 619.71875 468.042969 622.894531 468.714844 624.976562 469.570312 C 627.058594 470.425781 628.652344 471.664062 629.761719 473.257812 C 630.867188 474.851562 631.421875 476.605469 631.421875 478.515625 C 631.421875 480.425781 630.839844 482.320312 629.667969 484.152344 C 628.496094 485.984375 626.664062 487.433594 624.148438 488.511719 C 621.632812 489.59375 618.207031 490.132812 613.882812 490.132812 C 607.757812 490.132812 603.40625 489.265625 600.8125 487.511719 C 598.214844 485.773438 596.542969 483.285156 595.804688 480.070312 Z M 595.777344 480.09375 " fill-opacity="1" fill-rule="nonzero"/><path fill="#ffffff" d="M 690.714844 470.460938 L 703.246094 474.242188 C 702.402344 477.761719 701.085938 480.683594 699.265625 483.042969 C 697.449219 485.402344 695.207031 487.179688 692.53125 488.378906 C 689.84375 489.578125 686.445312 490.183594 682.296875 490.183594 C 677.261719 490.183594 673.164062 489.457031 669.976562 487.996094 C 666.785156 486.535156 664.03125 483.964844 661.726562 480.289062 C 659.40625 476.613281 658.261719 471.898438 658.261719 466.167969 C 658.261719 458.515625 660.289062 452.640625 664.363281 448.527344 C 668.433594 444.417969 674.191406 442.363281 681.636719 442.363281 C 687.460938 442.363281 692.046875 443.535156 695.378906 445.894531 C 698.714844 448.25 701.191406 451.863281 702.8125 456.75 L 690.1875 459.554688 C 689.753906 458.144531 689.277344 457.117188 688.804688 456.460938 C 688 455.367188 687.023438 454.523438 685.867188 453.929688 C 684.707031 453.335938 683.414062 453.046875 681.980469 453.046875 C 678.738281 453.046875 676.261719 454.351562 674.535156 456.960938 C 673.230469 458.894531 672.582031 461.925781 672.582031 466.0625 C 672.582031 471.1875 673.363281 474.703125 674.917969 476.601562 C 676.472656 478.5 678.65625 479.445312 681.476562 479.445312 C 684.296875 479.445312 686.273438 478.683594 687.683594 477.140625 C 689.082031 475.601562 690.097656 473.375 690.726562 470.449219 Z M 690.714844 470.460938 " fill-opacity="1" fill-rule="nonzero"/><path fill="#ffffff" d="M 707.753906 472.746094 C 707.753906 467.632812 709.480469 463.417969 712.929688 460.109375 C 716.382812 456.804688 721.035156 455.144531 726.910156 455.144531 C 733.617188 455.144531 738.691406 457.09375 742.117188 460.980469 C 744.871094 464.117188 746.253906 467.976562 746.253906 472.558594 C 746.253906 477.710938 744.542969 481.941406 741.128906 485.21875 C 737.714844 488.511719 732.984375 490.160156 726.949219 490.160156 C 721.5625 490.160156 717.214844 488.789062 713.894531 486.0625 C 709.808594 482.675781 707.765625 478.238281 707.765625 472.757812 Z M 720.625 472.703125 C 720.625 475.695312 721.234375 477.894531 722.445312 479.332031 C 723.65625 480.765625 725.171875 481.476562 727.003906 481.476562 C 728.835938 481.476562 730.375 480.765625 731.5625 479.371094 C 732.75 477.960938 733.339844 475.695312 733.339844 472.585938 C 733.339844 469.6875 732.734375 467.527344 731.535156 466.105469 C 730.335938 464.683594 728.847656 463.972656 727.082031 463.972656 C 725.210938 463.972656 723.667969 464.695312 722.445312 466.132812 C 721.21875 467.566406 720.613281 469.765625 720.613281 472.703125 Z M 720.625 472.703125 " fill-opacity="1" fill-rule="nonzero"/><path fill="#ffffff" d="M 752.511719 455.894531 L 764.503906 455.894531 L 764.503906 460.78125 C 766.230469 458.742188 767.96875 457.292969 769.734375 456.4375 C 771.484375 455.578125 773.621094 455.144531 776.097656 455.144531 C 778.773438 455.144531 780.894531 455.617188 782.449219 456.566406 C 784.003906 457.515625 785.28125 458.925781 786.269531 460.796875 C 788.285156 458.609375 790.132812 457.121094 791.777344 456.332031 C 793.4375 455.539062 795.480469 455.144531 797.917969 455.144531 C 801.515625 455.144531 804.308594 456.210938 806.324219 458.347656 C 808.339844 460.480469 809.355469 463.8125 809.355469 468.359375 L 809.355469 489.394531 L 796.480469 489.394531 L 796.480469 470.308594 C 796.480469 468.792969 796.191406 467.671875 795.601562 466.933594 C 794.742188 465.777344 793.675781 465.195312 792.398438 465.195312 C 790.882812 465.195312 789.671875 465.75 788.746094 466.84375 C 787.824219 467.9375 787.363281 469.6875 787.363281 472.113281 L 787.363281 489.394531 L 774.492188 489.394531 L 774.492188 470.941406 C 774.492188 469.464844 774.410156 468.464844 774.238281 467.949219 C 773.964844 467.105469 773.488281 466.433594 772.816406 465.921875 C 772.144531 465.40625 771.355469 465.144531 770.445312 465.144531 C 768.96875 465.144531 767.757812 465.695312 766.808594 466.816406 C 765.859375 467.9375 765.386719 469.765625 765.386719 472.308594 L 765.386719 489.410156 L 752.511719 489.410156 Z M 752.511719 455.894531 " fill-opacity="1" fill-rule="nonzero"/><g clip-path="url(#ffffff60b8)"><path fill="#ffffff" d="M 817.105469 502.132812 L 817.105469 455.894531 L 829.121094 455.894531 L 829.121094 460.847656 C 830.78125 458.765625 832.3125 457.355469 833.695312 456.617188 C 835.566406 455.628906 837.636719 455.128906 839.914062 455.128906 C 844.394531 455.128906 847.859375 456.839844 850.3125 460.265625 C 852.761719 463.691406 853.988281 467.933594 853.988281 472.980469 C 853.988281 478.550781 852.65625 482.804688 849.980469 485.742188 C 847.308594 488.683594 843.933594 490.144531 839.847656 490.144531 C 837.875 490.144531 836.066406 489.816406 834.433594 489.128906 C 832.800781 488.445312 831.351562 487.457031 830.058594 486.140625 L 830.058594 502.132812 L 817.09375 502.132812 Z M 829.980469 472.742188 C 829.980469 475.390625 830.535156 477.351562 831.652344 478.644531 C 832.773438 479.933594 834.183594 480.566406 835.882812 480.566406 C 837.371094 480.566406 838.625 479.949219 839.636719 478.722656 C 840.652344 477.496094 841.152344 475.402344 841.152344 472.464844 C 841.152344 469.75 840.628906 467.761719 839.574219 466.484375 C 838.519531 465.207031 837.242188 464.574219 835.726562 464.574219 C 834.078125 464.574219 832.71875 465.21875 831.628906 466.496094 C 830.535156 467.773438 829.980469 469.855469 829.980469 472.742188 Z M 829.980469 472.742188 " fill-opacity="1" fill-rule="nonzero"/></g><path fill="#ffffff" d="M 871.84375 466.75 L 859.574219 465.460938 C 860.035156 463.3125 860.707031 461.625 861.578125 460.402344 C 862.445312 459.175781 863.710938 458.109375 865.347656 457.199219 C 866.519531 456.542969 868.140625 456.039062 870.207031 455.683594 C 872.277344 455.328125 874.503906 455.144531 876.902344 455.144531 C 880.75 455.144531 883.847656 455.355469 886.179688 455.789062 C 888.511719 456.226562 890.460938 457.121094 892.015625 458.492188 C 893.109375 459.4375 893.964844 460.78125 894.597656 462.507812 C 895.230469 464.246094 895.546875 465.894531 895.546875 467.476562 L 895.546875 482.269531 C 895.546875 483.851562 895.652344 485.074219 895.851562 485.972656 C 896.046875 486.867188 896.480469 488 897.15625 489.394531 L 885.097656 489.394531 C 884.609375 488.539062 884.292969 487.882812 884.148438 487.417969 C 884.003906 486.972656 883.859375 486.261719 883.714844 485.285156 C 882.027344 486.90625 880.355469 488.066406 878.695312 488.75 C 876.425781 489.671875 873.777344 490.132812 870.773438 490.132812 C 866.78125 490.132812 863.738281 489.210938 861.671875 487.355469 C 859.601562 485.496094 858.558594 483.21875 858.558594 480.503906 C 858.558594 477.960938 859.3125 475.867188 860.800781 474.234375 C 862.289062 472.585938 865.042969 471.375 869.0625 470.570312 C 873.886719 469.609375 877.007812 468.925781 878.429688 468.542969 C 879.851562 468.160156 881.367188 467.644531 882.976562 467.015625 C 882.976562 465.433594 882.648438 464.328125 882 463.707031 C 881.34375 463.074219 880.195312 462.757812 878.5625 462.757812 C 876.453125 462.757812 874.886719 463.089844 873.832031 463.773438 C 873.015625 464.300781 872.355469 465.289062 871.84375 466.738281 Z M 882.976562 473.496094 C 881.210938 474.128906 879.367188 474.679688 877.457031 475.167969 C 874.847656 475.867188 873.199219 476.550781 872.5 477.222656 C 871.789062 477.921875 871.433594 478.699219 871.433594 479.59375 C 871.433594 480.609375 871.789062 481.425781 872.488281 482.070312 C 873.199219 482.71875 874.226562 483.03125 875.597656 483.03125 C 876.96875 483.03125 878.363281 482.691406 879.589844 481.992188 C 880.816406 481.292969 881.699219 480.449219 882.210938 479.449219 C 882.726562 478.449219 882.988281 477.15625 882.988281 475.550781 L 882.988281 473.496094 Z M 882.976562 473.496094 " fill-opacity="1" fill-rule="nonzero"/><path fill="#ffffff" d="M 903.242188 455.894531 L 915.207031 455.894531 L 915.207031 461.347656 C 916.996094 459.121094 918.800781 457.527344 920.632812 456.566406 C 922.464844 455.601562 924.691406 455.128906 927.328125 455.128906 C 930.886719 455.128906 933.664062 456.183594 935.667969 458.304688 C 937.671875 460.410156 938.6875 463.679688 938.6875 468.105469 L 938.6875 489.394531 L 925.785156 489.394531 L 925.785156 470.976562 C 925.785156 468.867188 925.390625 467.378906 924.613281 466.511719 C 923.835938 465.640625 922.742188 465.207031 921.332031 465.207031 C 919.777344 465.207031 918.511719 465.800781 917.550781 466.972656 C 916.589844 468.144531 916.101562 470.265625 916.101562 473.308594 L 916.101562 489.394531 L 903.253906 489.394531 L 903.253906 455.894531 Z M 903.242188 455.894531 " fill-opacity="1" fill-rule="nonzero"/><g clip-path="url(#ffffffe1d6)"><path fill="#ffffff" d="M 942.636719 455.894531 L 956.183594 455.894531 L 963.101562 478.195312 L 969.519531 455.894531 L 982.167969 455.894531 L 968.875 491.6875 C 967.359375 495.769531 965.816406 498.523438 964.234375 499.957031 C 962.007812 501.972656 958.609375 502.988281 954.050781 502.988281 C 952.191406 502.988281 949.332031 502.738281 945.472656 502.226562 L 944.457031 493.265625 C 946.300781 493.859375 948.371094 494.148438 950.636719 494.148438 C 952.152344 494.148438 953.378906 493.808594 954.3125 493.109375 C 955.25 492.410156 956.039062 491.171875 956.699219 489.378906 Z M 942.636719 455.894531 " fill-opacity="1" fill-rule="nonzero"/></g></svg>