<svg id="Layer_1" data-name="Layer 1" xmlns="http://www.w3.org/2000/svg" viewBox="0 0 55.58 69"><defs><style>.cls-1{fill:#010080;}</style></defs><path class="cls-1" d="M7.21,40.78A22.17,22.17,0,0,1,6.13,35a19.24,19.24,0,0,1,2.18-9.78,18,18,0,0,1,3.52-4.74,19.55,19.55,0,0,1,8.58-4.85,18,18,0,0,1,6.32-.56A19.24,19.24,0,0,1,37,19,18.75,18.75,0,0,1,44,30.1a19.22,19.22,0,0,1,.43,5.13,18.67,18.67,0,0,1-3.22,9.69c-.12.19-.27.36-.4.53l-.4.57a32.83,32.83,0,0,0,10.14,6.69l0,.23a18.17,18.17,0,0,1-2.66,0,19.78,19.78,0,0,1-6.79-2.29c-1-.5-1.88-1.07-2.79-1.65a.58.58,0,0,0-.81,0,18.79,18.79,0,0,1-8.07,4,18.11,18.11,0,0,1-5.82.37A18.74,18.74,0,0,1,12.8,48.82,19,19,0,0,1,7.21,40.78ZM28.53,27.42H39.6a15.76,15.76,0,0,0-28.6,0Zm4.95,20.47,1.83-1.29a20.72,20.72,0,0,0-5.85-5.35A7.23,7.23,0,0,0,22,41.1a27.13,27.13,0,0,0-6.81,5.51c.86.56,1.65,1.14,2.5,1.6A12.71,12.71,0,0,0,23.28,50a36.75,36.75,0,0,0,4.81-.1A14.12,14.12,0,0,0,33.48,47.89ZM14.39,31.64l-4.57-.72a3.64,3.64,0,0,0-.2.33.53.53,0,0,0,0,.19,18.34,18.34,0,0,0,0,5.18,16.28,16.28,0,0,0,2.53,6.46c.27.4.42.5.8.15,1.22-1.12,2.55-2.13,3.68-3.33a12.56,12.56,0,0,0,2-2.94c1-1.93.36-3.44-1.59-4.38A21.46,21.46,0,0,0,14.39,31.64ZM38.11,43.52s.09,0,.1,0a15.92,15.92,0,0,0,2.66-12.6c-1.65.3-3.31.49-4.9.92a16.36,16.36,0,0,0-3.36,1.46,1.79,1.79,0,0,0-1,1.85,8.42,8.42,0,0,0,1.08,2.66A23.24,23.24,0,0,0,38.11,43.52ZM21.53,33c0,.18,0,.36,0,.55a3.78,3.78,0,0,0,3.82,3.77,3.68,3.68,0,0,0,3.53-2.8,3.61,3.61,0,0,0-1-3.65,3.44,3.44,0,0,0-3.5-.92A3.9,3.9,0,0,0,21.53,33Z"/></svg>